<svg class="imt-fb-pin-icon" xmlns="http://www.w3.org/2000/svg" width="14" height="14" viewBox="0 0 14 14" fill="none"><circle cx="7" cy="7" r="7" fill="#B1B1B166"></circle><g transform="translate(2, 2)"><mask id="mask0_39789_2446" maskUnits="userSpaceOnUse" x="0" y="0" width="10" height="10" style="mask-type: alpha;"><rect width="10" height="10" fill="#D9D9D9"></rect></mask><g mask="url(#mask0_39789_2446)"><path d="M4.99984 6.7487C5.48595 6.7487 5.89914 6.57856 6.23942 6.23828C6.5797 5.898 6.74984 5.48481 6.74984 4.9987C6.74984 4.51259 6.5797 4.09939 6.23942 3.75911C5.89914 3.41884 5.48595 3.2487 4.99984 3.2487C4.51373 3.2487 4.10053 3.41884 3.76025 3.75911C3.41998 4.09939 3.24984 4.51259 3.24984 4.9987C3.24984 5.48481 3.41998 5.898 3.76025 6.23828C4.10053 6.57856 4.51373 6.7487 4.99984 6.7487ZM5.00171 5.77995C4.78518 5.77995 4.60053 5.70418 4.44775 5.55266C4.29498 5.40106 4.21859 5.21703 4.21859 5.00057C4.21859 4.78405 4.29435 4.59939 4.44588 4.44661C4.59748 4.29384 4.7815 4.21745 4.99796 4.21745C5.21449 4.21745 5.39914 4.29321 5.55192 4.44474C5.7047 4.59634 5.78109 4.78036 5.78109 4.99682C5.78109 5.21335 5.70532 5.398 5.5538 5.55078C5.4022 5.70356 5.21817 5.77995 5.00171 5.77995ZM4.99984 8.32161C4.05539 8.32161 3.18387 8.07335 2.38525 7.57682C1.58664 7.0803 0.958171 6.41536 0.499837 5.58203C0.444282 5.49175 0.406087 5.39707 0.385254 5.29797C0.364421 5.19887 0.354004 5.09991 0.354004 5.00109C0.354004 4.90227 0.364421 4.80252 0.385254 4.70182C0.406087 4.60113 0.444282 4.50564 0.499837 4.41536C0.958171 3.58203 1.58664 2.9171 2.38525 2.42057C3.18387 1.92405 4.05539 1.67578 4.99984 1.67578C5.94428 1.67578 6.81581 1.92405 7.61442 2.42057C8.41303 2.9171 9.0415 3.58203 9.49984 4.41536C9.55539 4.50564 9.59359 4.60033 9.61442 4.69943C9.63525 4.79852 9.64567 4.89748 9.64567 4.9963C9.64567 5.09512 9.63525 5.19488 9.61442 5.29557C9.59359 5.39627 9.55539 5.49175 9.49984 5.58203C9.0415 6.41536 8.41303 7.0803 7.61442 7.57682C6.81581 8.07335 5.94428 8.32161 4.99984 8.32161ZM5.00077 7.2487C5.77098 7.2487 6.48248 7.04557 7.13525 6.63932C7.78803 6.23307 8.2915 5.6862 8.64567 4.9987C8.2915 4.3112 7.78772 3.76432 7.13432 3.35807C6.48091 2.95182 5.76911 2.7487 4.9989 2.7487C4.22869 2.7487 3.5172 2.95182 2.86442 3.35807C2.21164 3.76432 1.70817 4.3112 1.354 4.9987C1.70817 5.6862 2.21196 6.23307 2.86536 6.63932C3.51876 7.04557 4.23057 7.2487 5.00077 7.2487Z" fill="white"></path></g></g></svg>