<svg class="imt-fb-pin-icon" xmlns="http://www.w3.org/2000/svg" width="14" height="14" viewBox="0 0 14 14" fill="none"><circle cx="7" cy="7" r="7" fill="#B1B1B166"></circle><g transform="translate(2, 2)"><mask id="mask0_39788_745" maskUnits="userSpaceOnUse" x="0" y="0" width="10" height="10" style="mask-type: alpha;"><rect width="10" height="10" fill="#D9D9D9"></rect></mask><g mask="url(#mask0_39788_745)"><path d="M6.23958 3.76042C6.28819 3.80903 6.35243 3.88194 6.43229 3.97917C6.51215 4.07639 6.59722 4.18056 6.6875 4.29167C6.6875 4.44444 6.63646 4.57292 6.53438 4.67708C6.43222 4.78125 6.30618 4.83333 6.15625 4.83333C6.00056 4.83333 5.86962 4.78125 5.76344 4.67708C5.65726 4.57292 5.60417 4.44444 5.60417 4.29167C5.59722 4.28472 5.59201 4.28646 5.58854 4.29688C5.58507 4.30729 5.58333 4.31076 5.58333 4.30729C5.58333 4.30382 5.59028 4.30382 5.60417 4.30729C5.61806 4.31076 5.62153 4.30903 5.61458 4.30208C5.47569 4.30208 5.3559 4.25104 5.25521 4.14896C5.15451 4.04681 5.10417 3.92771 5.10417 3.79167C5.10417 3.65278 5.15451 3.53299 5.25521 3.43229C5.3559 3.3316 5.47569 3.28125 5.61458 3.28125C5.74653 3.35764 5.86111 3.43403 5.95833 3.51042C6.05556 3.58681 6.14931 3.67014 6.23958 3.76042ZM5 2.75C4.94667 2.75 4.89465 2.75017 4.84396 2.75052C4.79326 2.75087 4.74083 2.75035 4.68667 2.74896C4.54139 2.7566 4.39931 2.72049 4.26042 2.64062C4.12153 2.56076 4.03472 2.44618 4 2.29688C3.96528 2.14757 3.98611 2.01389 4.0625 1.89583C4.13889 1.77778 4.25267 1.71094 4.40385 1.69531C4.50962 1.6901 4.61059 1.68576 4.70677 1.68229C4.80295 1.67882 4.90069 1.67708 5 1.67708C5.97917 1.67708 6.88368 1.93056 7.71354 2.4375C8.5434 2.94444 9.17059 3.64625 9.5951 4.54292C9.62892 4.61847 9.65451 4.69451 9.67188 4.77104C9.68924 4.84757 9.69792 4.92389 9.69792 5C9.69792 5.07611 9.69097 5.15417 9.67708 5.23417C9.66319 5.31417 9.64236 5.39236 9.61458 5.46875C9.49826 5.68972 9.36504 5.89948 9.2149 6.09802C9.06469 6.29656 8.90278 6.49306 8.72917 6.6875C8.63194 6.79861 8.51042 6.85069 8.36458 6.84375C8.21875 6.83681 8.09375 6.78069 7.98958 6.67542C7.88542 6.57007 7.83681 6.44507 7.84375 6.30042C7.85069 6.15569 7.90278 6.02431 8 5.90625C8.13194 5.76736 8.25125 5.62153 8.35792 5.46875C8.46465 5.31597 8.5641 5.15972 8.65625 5C8.30208 4.30556 7.79861 3.75694 7.14583 3.35417C6.49306 2.95139 5.77778 2.75 5 2.75ZM5 8.32292C4.04861 8.32292 3.1684 8.07465 2.35938 7.57812C1.55035 7.0816 0.919896 6.40906 0.468021 5.56052C0.419896 5.46462 0.387153 5.37142 0.369792 5.28094C0.352431 5.19052 0.34375 5.09677 0.34375 4.99969C0.34375 4.90267 0.352431 4.80556 0.369792 4.70833C0.387153 4.61111 0.420139 4.51736 0.46875 4.42708C0.614583 4.13542 0.787361 3.86813 0.987083 3.62521C1.18688 3.38229 1.40646 3.15306 1.64583 2.9375L0.96875 2.27083C0.871528 2.18056 0.821181 2.07812 0.817708 1.96354C0.814236 1.84896 0.861111 1.74306 0.958333 1.64583C1.05556 1.54861 1.16319 1.5 1.28125 1.5C1.39931 1.5 1.50694 1.54861 1.60417 1.64583L8.19792 8.23958C8.29514 8.33681 8.34201 8.44271 8.33854 8.55729C8.33507 8.67188 8.28819 8.77431 8.19792 8.86458C8.10069 8.96181 7.99479 9.01042 7.88021 9.01042C7.76562 9.01042 7.65972 8.96181 7.5625 8.86458L6.70833 8.01042C6.43472 8.12153 6.15382 8.20139 5.86562 8.25C5.57743 8.29861 5.28889 8.32292 5 8.32292ZM2.41667 3.6875C2.20139 3.88194 2.00347 4.08507 1.82292 4.29688C1.64236 4.50868 1.48611 4.74306 1.35417 5C1.69444 5.70139 2.19271 6.25174 2.84896 6.65104C3.50521 7.05035 4.22222 7.25 5 7.25C5.14729 7.25 5.29347 7.24132 5.43854 7.22396C5.58368 7.2066 5.72569 7.18056 5.86458 7.14583L5.39583 6.67708C5.33333 6.70486 5.26736 6.72396 5.19792 6.73438C5.12847 6.74479 5.0625 6.75 5 6.75C4.51389 6.75 4.10069 6.57986 3.76042 6.23958C3.42014 5.89931 3.25 5.48611 3.25 5C3.25 4.9375 3.25694 4.87153 3.27083 4.80208C3.28472 4.73264 3.29514 4.66667 3.30208 4.60417L2.41667 3.6875Z" fill="white"></path></g></g></svg>