<svg class="imt-fb-icon" xmlns="http://www.w3.org/2000/svg" width="24" height="24" viewBox="0 0 24 24" fill="none"><path d="M9.65332 13.3477C10.4097 13.4245 11 14.0632 11 14.8398V18.8398L10.9922 18.9932C10.9205 19.6992 10.3593 20.2604 9.65332 20.332L9.5 20.3398H5.5C4.72334 20.3398 4.08461 19.7496 4.00781 18.9932L4 18.8398V14.8398C4 14.0114 4.67157 13.3398 5.5 13.3398H9.5L9.65332 13.3477ZM18.6533 13.3477C19.4097 13.4245 20 14.0632 20 14.8398V18.8398L19.9922 18.9932C19.9205 19.6992 19.3593 20.2604 18.6533 20.332L18.5 20.3398H14.5C13.7233 20.3398 13.0846 19.7496 13.0078 18.9932L13 18.8398V14.8398C13 14.0114 13.6716 13.3398 14.5 13.3398H18.5L18.6533 13.3477ZM5.5 14.3398C5.22386 14.3398 5 14.5637 5 14.8398V18.8398C5 19.116 5.22386 19.3398 5.5 19.3398H9.5C9.77614 19.3398 10 19.116 10 18.8398V14.8398C10 14.5637 9.77614 14.3398 9.5 14.3398H5.5ZM14.5 14.3398C14.2239 14.3398 14 14.5637 14 14.8398V18.8398C14 19.116 14.2239 19.3398 14.5 19.3398H18.5C18.7761 19.3398 19 19.116 19 18.8398V14.8398C19 14.5637 18.7761 14.3398 18.5 14.3398H14.5ZM9.65332 4.34766C10.4097 4.42445 11 5.06318 11 5.83984V9.83984L10.9922 9.99316C10.9205 10.6992 10.3593 11.2604 9.65332 11.332L9.5 11.3398H5.5C4.72334 11.3398 4.08461 10.7496 4.00781 9.99316L4 9.83984V5.83984C4 5.01142 4.67157 4.33984 5.5 4.33984H9.5L9.65332 4.34766ZM16.1484 3.18848C16.2521 2.83834 16.7479 2.83834 16.8516 3.18848L17.3281 4.79785C17.5079 5.40507 17.9648 5.89104 18.5596 6.1084L20.0576 6.65625C20.3786 6.77361 20.3785 7.22732 20.0576 7.34473L18.5596 7.89258C17.9648 8.10991 17.5079 8.59598 17.3281 9.20312L16.8516 10.8125C16.7479 11.1626 16.2521 11.1626 16.1484 10.8125L15.6719 9.20312C15.4921 8.59598 15.0352 8.10991 14.4404 7.89258L12.9424 7.34473C12.6215 7.22732 12.6214 6.77361 12.9424 6.65625L14.4404 6.1084C15.0352 5.89104 15.4921 5.40507 15.6719 4.79785L16.1484 3.18848ZM5.5 5.33984C5.22386 5.33984 5 5.5637 5 5.83984V9.83984C5 10.116 5.22386 10.3398 5.5 10.3398H9.5C9.77614 10.3398 10 10.116 10 9.83984V5.83984C10 5.5637 9.77614 5.33984 9.5 5.33984H5.5Z" fill="#ED6D8F"></path></svg>