<?xml version="1.0" encoding="utf-8"?>
<!-- Generator: Adobe Illustrator 25.3.1, SVG Export Plug-In . SVG Version: 6.00 Build 0)  -->
<svg version="1.1" id="图层_1" xmlns="http://www.w3.org/2000/svg" xmlns:xlink="http://www.w3.org/1999/xlink" x="0px" y="0px"
	 viewBox="0 0 2718.5 576.4" style="enable-background:new 0 0 2718.5 576.4;" xml:space="preserve">
<style type="text/css">
	.st0{fill:#FFFFFF;}
	.st1{fill:#276533;}
</style>
<g>
	<path class="st0" d="M444.3,1880.1c-14.3,8.1-29.5,13.2-45.6,15.4c-38.9,5.2-74.9-3.2-106.2-26.8c-34.2-25.7-55.2-59.9-61.9-102.7
		c-9.8-63,20.3-126.5,75.3-158.4c57.2-33.1,130.9-22.2,176.9,25.5c22,22.9,36,49.7,41.9,80.7c2,10.3,2,20.9,2.8,31.4
		c2.8,36.1,19.8,62.8,53.2,77.6c32.6,14.4,68.9,4.7,92.8-23.5c38-44.7,20-108.2-22.5-132.4c-37.6-21.5-83.6-10.1-109.1,28.6
		c-1.2,1.9-2.3,3.9-3.6,6.3c-4.8-12-8.7-23.6-14-34.4c-5.3-10.7-12.1-20.7-18.5-31.5c1.4-1.6,2.9-3.8,4.7-5.6
		c21.7-21.4,47.6-34.6,77.7-39.7c79.3-13.4,150.1,41.5,167,114.8c13.7,59.6-2.2,111.2-46.4,152.8c-52.5,49.3-129.5,51.3-185.5,8.9
		c-40.9-30.9-60-73-61.8-123.6c-1.3-35-16.4-62.2-47.6-78.6c-30.2-15.9-65.1-10.1-90.5,12.8c-41.2,37.3-36.9,103.4,6.3,135.3
		c31.8,23.5,77.8,22.1,106.8-9.9c2.4-2.6,4.6-5.2,7.9-8.8C444.3,1823.4,444.3,1851.4,444.3,1880.1z"/>
	<path class="st0" d="M1180,1679c11,0,21.4,0,33.2,0c0,19.4,0,38.6,0,58.8c22.5,0.6,43.8,0.6,66,0.2c0.4-3.6,1-6.7,1-9.7
		c0.2-12.6,0.1-25.2,0.2-37.8c0-3.5,0.4-6.9,0.6-11.2c10.8,0,21.2,0,32.3,0c0,50.7,0,101.5,0,153.4c-5.4,0-10.6,0-15.8,0
		c-5.2,0-10.4,0-16.2,0c-2.3-11.2-0.5-21.7-0.9-32.1c-0.4-10.5-0.6-20.9-0.8-32.1c-22.1,0-43.4,0-65.5,0
		c-1.8,21.1-0.2,42.1-0.9,63.6c-11.3,0-21.9,0-33.2,0C1180,1781.1,1180,1730.3,1180,1679z"/>
	<path class="st0" d="M2408.8,1747.3c9.5-10.7,19-21.4,28.5-32.1c9.6-10.7,19.1-21.5,28.8-32c1.9-2,4.6-4.3,7-4.4
		c11.6-0.5,23.2-0.2,36.4-0.2c-20.4,23.1-39.6,45-59.4,67.5c20.9,28.5,41.5,56.7,63.5,86.7c-9.9,0-18-0.8-25.9,0.2
		c-11.2,1.3-18.3-2.6-24.4-12.2c-8.1-12.8-17.9-24.6-27-36.8c-2.8-3.7-5.8-7.2-9.6-11.8c-6.6,7.1-12.9,13.5-18.6,20.5
		c-1.6,2-1.8,5.5-1.8,8.3c-0.2,10.2-0.1,20.4-0.1,31.2c-11.6,0-22.3,0-33.6,0c0-51,0-101.8,0-153.1c11.2,0,21.9,0,33.6,0
		c0,22.9,0,45.3,0,67.6C2407.1,1746.9,2408,1747.1,2408.8,1747.3z"/>
	<path class="st0" d="M910.7,1678.8c11.5,0,23.1,0,35.3,0c21.9,50.7,43.8,101.3,65.7,152c-6.5,2.3-23.5,2.8-36.5,1.2
		c-3.2-8.1-6.9-16.4-9.8-25c-1.9-5.6-5-7.5-11-7.4c-17.6,0.4-35.1,0-52.7,0.1c-8.6,0-8.6,0.2-12,8.4c-3.3,8.1-6.6,16.2-9.9,24.3
		c-11.3,0-22.1,0-32.8,0C847.2,1826.1,903.2,1691.3,910.7,1678.8z M951.6,1771.7c-8-19.8-15.4-37.9-22.8-56.1
		c-0.7-0.1-1.5-0.1-2.2-0.2c-7,18.6-14.9,36.7-21.7,56.3C920.5,1771.7,935,1771.7,951.6,1771.7z"/>
	<path class="st0" d="M2101.4,1678.8c12.2,0,23.9,0,36.2,0c21.6,51,44.3,101.6,66,153.6c-12.9,0-24.2,0-36.3,0
		c-2-5-4.2-10.1-6.2-15.2c-1.5-3.8-3-7.6-4.4-11.5c-1.6-4.5-4.6-6.2-9.4-6.1c-18.8,0.2-37.5,0.2-56.3,0c-4.8-0.1-7.4,1.7-9.1,6.3
		c-3.1,8.8-6.9,17.4-10.6,26.3c-11.3,0-22.3,0-34.7,0C2058.5,1780.4,2079.9,1729.6,2101.4,1678.8z M2120.2,1715.5
		c-0.7,0.1-1.3,0.1-2,0.2c-7.3,18.2-14.6,36.5-22.6,56.2c16.5,0.6,31.2,0.3,47.6,0.1C2135.2,1752.3,2127.7,1733.9,2120.2,1715.5z"/>
	<path class="st0" d="M1526.5,1679.1c0,8.9,0,17.3,0,26.6c-25.4,1.5-50.5,0.4-76.6,0.9c-1,11.2-0.3,21.5-0.1,33.1
		c22.7,1,44.8,0,67.7,0.5c0,9,0,17.6,0,27.3c-22.3,0-44.4,0-67.8,0c-0.5,12.3-0.5,23.5-0.1,35.6c9.1,1.5,17.8,0.5,26.4,0.7
		c9.1,0.2,18.2,0.1,27.2,0.1c8.7,0,17.4,0,26.5,0c0,10,0,18.7,0,27.3c-6.5,2-97.8,2.7-112.1,0.9c-1.9-6-2.7-140.4-0.7-153
		C1453.1,1679.1,1489.3,1679.1,1526.5,1679.1z"/>
	<path class="st0" d="M1825.3,1803.6c0,10.4,0,19.1,0,29.1c-37.7,0.1-75,0.1-113.6,0c0.2-51.6-0.3-102.3,0.2-153.7
		c37.1,0,73,0,110,0c1.4,8.4,0.8,17,0.4,26.6c-3.2,0.2-6,0.6-8.8,0.6c-19.3,0.1-38.7,0-58,0.1c-2.1,0-4.1,0-6.1,0.2
		c-2.7,0.2-4.4,1.6-4.4,4.4c-0.1,9.3,0,18.6,0,28.9c23.1,0,45.2,0,67.9,0c0,9.6,0,18.2,0,27.9c-22.5,0-44.6,0-67.6,0
		c-1,12.3-0.8,23.6-0.2,35.9C1772.1,1803.6,1798.3,1803.6,1825.3,1803.6z"/>
	<path class="st0" d="M1912.9,1678.9c1.9-0.2,3.9-0.4,5.9-0.4c21.1,0,42.2-0.1,63.3,0.1c13.4,0.1,26,3.4,37.3,11.1
		c7.2,4.9,12.5,11.4,16.1,19.3c6.2,14,6.7,28.5,2.2,42.9c-5.3,16.9-16.8,28.1-33.8,32.8c-8.1,2.3-16.7,3.2-25.1,3.7
		c-10.5,0.6-21,0.2-32.4,0.2c-1.9,14.8-0.1,29.1-1.3,43.7c-11,0-21.5,0-31.9,0C1911.1,1826.3,1910.8,1686.6,1912.9,1678.9z
		 M1946,1759.2c11.1,0,21,0.1,30.8-0.1c2.9,0,5.8-0.5,8.7-1.1c13.9-3,20.9-12.2,20.2-26.4c-0.7-13.8-9.1-22.9-23-24
		c-10.2-0.8-20.4-0.7-30.6-0.9c-1.9,0-3.8,0.8-6.1,1.3C1946,1725,1946,1741.5,1946,1759.2z"/>
	<path class="st0" d="M1135.8,1786c7.6,7,14.6,13.5,21.6,19.9c-13.1,23.1-45,34.3-78.2,27.6c-37.1-7.5-59.7-32.6-63.3-72.2
		c-3.2-36,16.9-68.2,50-80.5c37.6-13.9,75.9-0.2,91.4,21.9c-7.1,6.8-14.4,13.7-22.1,20.9c-2.4-2.1-4.3-3.9-6.2-5.6
		c-15.4-13.4-37.5-15.8-54.9-5.9c-16.6,9.4-26.4,30-23.1,49.4c3.4,20,13.3,35,33.9,40.6c16.4,4.4,31.3,0.6,44.4-10.2
		C1131.2,1790.3,1133.1,1788.5,1135.8,1786z"/>
	<path class="st0" d="M2348.7,1702.3c-6.7,7.2-13.4,14.4-20.9,22.4c-12.8-13.9-27.6-20.7-45.9-17.9c-11.9,1.8-21.1,7.6-28.7,16.9
		c-16,19.6-13.4,49.4,4,67.5c9.7,10.1,22.4,13.1,36.2,12.4c14.1-0.6,24.8-7.8,34.4-18.1c7.6,7.1,14.8,13.8,21.9,20.5
		c-16.5,26.3-52.4,34.1-83.4,26.4c-28.6-7.1-56.5-31.1-58.3-73.5c-1.6-36.6,18.8-68,54.9-79.8
		C2294.6,1668.9,2331.8,1678.7,2348.7,1702.3z"/>
	<path class="st0" d="M1619.2,1785.9c14.5-35.6,29.1-71.2,43.7-107c11.2,0,22,0,32.8,0c-0.5,6.9-42.7,112.9-61.1,153.4
		c-11.1,0-22.4,0-34.9,0c-20.5-50.4-41.1-101.2-62.3-153.5c12.9-0.7,24.7,0,36.7-0.1c14.4,35.9,28.7,71.4,43,106.9
		C1617.8,1785.6,1618.5,1785.7,1619.2,1785.9z"/>
	<path class="st0" d="M460.1,1994.3c0-61.9,0-122.3,0-182.5c6.3,10.1,12.2,20.4,19,30.1c11.6,16.3,25.6,30.5,42.4,41.7
		c3.7,2.5,5.8,5.2,5.7,10c-0.4,16.1-0.6,32.2-0.5,48.3c0,27-22.7,51.7-54.2,52.4C468.7,1994.4,465,1994.3,460.1,1994.3z"/>
	<path class="st0" d="M1348.7,1679c11,0,21.5,0,31.9,0c2,6.5,2.6,142.2,0.5,153c-10.5,0-21.1,0-32.4,0
		C1348.7,1781.3,1348.7,1730.7,1348.7,1679z"/>
</g>
<g id="_x30_AiShB.tif">
	
		<image style="overflow:visible;enable-background:new    ;" width="262" height="151" id="Layer_0_1_" xlink:href="33E3EA70D65955E0.png"  transform="matrix(0.9934 0 0 0.9934 894.4557 -813.2144)">
	</image>
</g>
<g>
	<g id="PcWeFq_1_">
		<g>
			<path class="st1" d="M-1844.7,766.9c-16.2,9.2-33.5,15.1-51.8,17.5c-44.2,5.9-85.1-3.7-120.8-30.5
				c-38.9-29.2-62.8-68.1-70.3-116.7c-11.1-71.6,23.1-143.9,85.6-180.1c65-37.6,148.9-25.3,201.1,29c25,26,40.9,56.5,47.6,91.7
				c2.2,11.7,2.3,23.8,3.2,35.8c3.1,41.1,22.5,71.4,60.4,88.2c37,16.4,78.3,5.3,105.5-26.7c43.2-50.8,22.8-123-25.6-150.6
				c-42.7-24.4-95.1-11.5-124,32.5c-1.4,2.2-2.6,4.5-4.1,7.1c-5.5-13.6-9.9-26.8-16-39.1c-6-12.2-13.7-23.5-21.1-35.8
				c1.5-1.9,3.3-4.3,5.3-6.3c24.7-24.3,54.1-39.3,88.4-45.1c90.2-15.2,170.6,47.2,189.8,130.5c15.6,67.8-2.5,126.4-52.8,173.7
				c-59.7,56.1-147.2,58.4-210.9,10.1c-46.5-35.2-68.2-83-70.3-140.5c-1.5-39.8-18.6-70.7-54.1-89.4
				c-34.4-18.1-74.1-11.5-102.9,14.6c-46.9,42.4-41.9,117.5,7.2,153.9c36.1,26.7,88.5,25.1,121.5-11.2c2.7-2.9,5.3-5.9,8.9-10
				C-1844.7,702.5-1844.7,734.2-1844.7,766.9z"/>
			<path class="st1" d="M-1826.7,896.7c0-70.3,0-139,0-207.5c7.2,11.4,13.8,23.2,21.7,34.2c13.2,18.5,29.1,34.7,48.2,47.4
				c4.2,2.8,6.6,5.9,6.4,11.3c-0.4,18.3-0.6,36.6-0.6,54.9c0,30.7-25.8,58.7-61.6,59.6C-1816.9,896.8-1821.2,896.7-1826.7,896.7z"/>
		</g>
	</g>
	<g>
		<path class="st1" d="M-869.5,777.3c10.8-12.2,21.6-24.3,32.4-36.5c10.9-12.2,21.7-24.4,32.7-36.4c2.1-2.3,5.2-4.9,8-5
			c13.1-0.5,26.3-0.2,41.4-0.2c-23.1,26.3-45.1,51.2-67.5,76.7c23.7,32.4,47.2,64.5,72.2,98.6c-11.3,0-20.5-0.9-29.4,0.2
			c-12.7,1.5-20.8-2.9-27.7-13.8c-9.2-14.6-20.3-28-30.7-41.9c-3.2-4.2-6.6-8.2-10.9-13.4c-7.5,8.1-14.6,15.4-21.1,23.3
			c-1.8,2.2-2,6.2-2.1,9.4c-0.2,11.6-0.1,23.2-0.1,35.5c-13.2,0-25.3,0-38.2,0c0-58,0-115.7,0-174.1c12.8,0,24.9,0,38.2,0
			c0,26.1,0,51.5,0,76.9C-871.4,776.8-870.5,777-869.5,777.3z"/>
		<path class="st1" d="M-1219.1,699.4c13.9,0,27.2,0,41.2,0c24.6,58,50.3,115.5,75.1,174.7c-14.6,0-27.5,0-41.3,0
			c-2.3-5.7-4.7-11.5-7.1-17.3c-1.7-4.3-3.4-8.7-5-13.1c-1.8-5.1-5.2-7-10.7-6.9c-21.3,0.2-42.6,0.2-64,0c-5.5,0-8.4,1.9-10.3,7.1
			c-3.6,10-7.9,19.7-12,29.9c-12.9,0-25.3,0-39.5,0C-1267.8,815-1243.4,757.2-1219.1,699.4z M-1197.6,741.1
			c-0.8,0.1-1.5,0.1-2.3,0.2c-8.3,20.7-16.7,41.5-25.7,64c18.7,0.7,35.4,0.4,54.1,0.1C-1180.6,782.9-1189.1,762-1197.6,741.1z"/>
		<path class="st1" d="M-1433.4,699.5c2.2-0.2,4.4-0.5,6.7-0.5c24,0,48-0.1,72,0.1c15.3,0.2,29.6,3.9,42.4,12.6
			c8.2,5.6,14.3,13,18.2,22c7,15.9,7.6,32.4,2.5,48.8c-6,19.2-19.1,31.9-38.4,37.3c-9.2,2.6-18.9,3.6-28.5,4.2
			c-11.9,0.7-23.9,0.2-36.9,0.2c-2.1,16.8-0.1,33.1-1.5,49.7c-12.5,0-24.4,0-36.2,0C-1435.4,867.2-1435.7,708.3-1433.4,699.5z
			 M-1395.7,790.9c12.6,0,23.8,0.1,35.1-0.1c3.3,0,6.6-0.5,9.8-1.2c15.8-3.4,23.7-13.8,22.9-30c-0.8-15.7-10.3-26.1-26.1-27.3
			c-11.6-0.9-23.2-0.8-34.8-1c-2.2,0-4.4,0.9-6.9,1.5C-1395.7,752-1395.7,770.7-1395.7,790.9z"/>
		<path class="st1" d="M-937.8,726.1c-7.6,8.2-15.3,16.4-23.8,25.5c-14.6-15.9-31.4-23.6-52.2-20.4c-13.5,2.1-24,8.7-32.7,19.3
			c-18.2,22.3-15.2,56.2,4.6,76.8c11.1,11.5,25.5,14.8,41.2,14.1c16.1-0.7,28.1-8.8,39.1-20.6c8.6,8,16.8,15.7,24.9,23.3
			c-18.7,29.9-59.6,38.8-94.8,30.1c-32.5-8-64.3-35.4-66.3-83.6c-1.8-41.6,21.4-77.4,62.5-90.7C-999.4,688.1-957,699.3-937.8,726.1z
			"/>
	</g>
	<g>
		<path class="st1" d="M-1056.2,470.2c12.6,0,24.4,0,37.7,0c0,22.1,0,43.9,0,66.8c25.6,0.7,49.8,0.7,75.1,0.3
			c0.4-4.1,1.1-7.6,1.2-11c0.2-14.3,0.1-28.6,0.3-43c0-4,0.4-7.9,0.7-12.8c12.3,0,24.1,0,36.7,0c0,57.6,0,115.4,0,174.5
			c-6.2,0-12,0-17.9,0c-5.9,0-11.9,0-18.4,0c-2.6-12.8-0.5-24.7-1-36.5c-0.5-11.9-0.6-23.8-0.9-36.5c-25.2,0-49.3,0-74.5,0
			c-2,24-0.2,47.8-1.1,72.3c-12.8,0-24.9,0-37.7,0C-1056.2,586.3-1056.2,528.5-1056.2,470.2z"/>
		<path class="st1" d="M-1362.4,469.9c13,0,26.3,0,40.1,0c24.9,57.6,49.8,115.2,74.6,172.8c-7.4,2.6-26.8,3.2-41.5,1.4
			c-3.7-9.2-7.8-18.7-11.2-28.4c-2.2-6.4-5.7-8.6-12.5-8.4c-20,0.4-39.9,0-59.9,0.1c-9.8,0-9.8,0.2-13.6,9.6
			c-3.7,9.2-7.5,18.4-11.3,27.7c-12.8,0-25.1,0-37.3,0C-1434.6,637.5-1370.9,484.2-1362.4,469.9z M-1315.9,575.6
			c-9.1-22.5-17.6-43.1-26-63.8c-0.8-0.1-1.7-0.1-2.5-0.2c-7.9,21.1-17,41.7-24.7,64.1C-1351.2,575.6-1334.7,575.6-1315.9,575.6z"/>
		<path class="st1" d="M-662.2,470.3c0,10.1,0,19.7,0,30.2c-28.9,1.7-57.4,0.5-87.1,1c-1.1,12.7-0.3,24.5-0.1,37.6
			c25.8,1.1,51,0,77,0.6c0,10.3,0,20,0,31c-25.3,0-50.5,0-77,0c-0.5,14-0.6,26.7-0.1,40.5c10.3,1.7,20.2,0.6,30.1,0.8
			c10.3,0.2,20.7,0.1,31,0.1c9.9,0,19.8,0,30.1,0c0,11.3,0,21.2,0,31.1c-7.3,2.3-111.2,3.1-127.4,1.1c-2.2-6.9-3.1-159.7-0.8-174
			C-745.6,470.3-704.5,470.3-662.2,470.3z"/>
		<path class="st1" d="M-322.5,611.9c0,11.8,0,21.7,0,33.1c-42.8,0.1-85.2,0.1-129.1,0c0.2-58.7-0.3-116.3,0.2-174.7
			c42.2,0,83,0,125.1,0c1.6,9.6,0.9,19.4,0.5,30.2c-3.6,0.2-6.8,0.6-10,0.6c-22,0.1-43.9,0-65.9,0.1c-2.3,0-4.7,0-7,0.2
			c-3.1,0.2-5,1.8-5,5c-0.1,10.6,0,21.1,0,32.9c26.2,0,51.3,0,77.2,0c0,10.9,0,20.7,0,31.8c-25.6,0-50.7,0-76.8,0
			c-1.1,14-0.9,26.8-0.2,40.8C-383,611.9-353.2,611.9-322.5,611.9z"/>
		<path class="st1" d="M-1106.5,591.9c8.6,7.9,16.6,15.3,24.5,22.6c-14.9,26.3-51.2,39-88.9,31.4c-42.2-8.5-67.9-37-71.9-82.1
			c-3.7-40.9,19.2-77.5,56.9-91.5c42.8-15.9,86.2-0.2,103.9,24.9c-8.1,7.7-16.4,15.5-25.1,23.8c-2.7-2.4-4.9-4.4-7.1-6.3
			c-17.5-15.2-42.6-17.9-62.4-6.8c-18.9,10.7-30.1,34.1-26.3,56.2c3.9,22.7,15.2,39.8,38.5,46.1c18.6,5,35.6,0.7,50.4-11.6
			C-1111.6,596.8-1109.5,594.7-1106.5,591.9z"/>
		<path class="st1" d="M-556.8,591.7c16.5-40.5,33.1-81,49.7-121.7c12.7,0,25,0,37.3,0c-0.5,7.9-48.5,128.4-69.4,174.4
			c-12.6,0-25.4,0-39.7,0c-23.3-57.3-46.7-115.1-70.9-174.6c14.6-0.8,28,0,41.7-0.1c16.4,40.8,32.7,81.1,48.9,121.5
			C-558.4,591.4-557.6,591.6-556.8,591.7z"/>
		<path class="st1" d="M-864.4,470.3c12.5,0,24.4,0,36.2,0c2.3,7.4,2.9,161.7,0.6,174c-11.9,0-24,0-36.8,0
			C-864.4,586.5-864.4,529-864.4,470.3z"/>
	</g>
	<g>
		<path class="st1" d="M-324.7,773.4c0,12.3-3.1,23.8-9.2,34.4c-6.2,10.6-14.6,19-25.2,25.1c-10.6,6.1-22.1,9.2-34.4,9.2
			c-12.3,0-23.7-3.1-34.3-9.2c-10.6-6.1-19-14.5-25.2-25.1c-6.2-10.6-9.2-22.1-9.2-34.4c0-12.3,3.1-23.7,9.2-34.4
			c6.2-10.7,14.6-19.1,25.2-25.2c10.6-6.1,22.1-9.2,34.3-9.2c12.3,0,23.8,3.1,34.4,9.2c10.6,6.1,19,14.5,25.2,25.2
			C-327.8,749.7-324.7,761.2-324.7,773.4z M-338,773.4c0-15.3-5.4-28.4-16.3-39.2c-10.8-10.8-23.9-16.3-39.2-16.3
			c-15.3,0-28.4,5.4-39.2,16.3c-10.8,10.8-16.3,23.9-16.3,39.2c0,15.3,5.4,28.4,16.3,39.2c10.8,10.8,23.9,16.3,39.2,16.3
			c15.3,0,28.4-5.4,39.2-16.3C-343.5,801.8-338,788.7-338,773.4z M-424.7,736.7h32.9c9.3,0,16.1,1.9,20.2,5.6
			c4.2,3.8,6.3,8.8,6.3,15.1c0,4.9-1.6,9.2-4.8,12.8c-3.2,3.6-8.2,6.2-15,7.8c2.8,1.1,4.9,2.2,6.2,3.4c1.9,1.7,3.8,4.2,5.9,7.5
			c0.1,0.2,4.1,7.3,11.9,21.3h-21.6c-7-14-11.7-22.4-14.1-25.1c-2.4-2.7-4.8-4.1-7.2-4.1c-0.5,0-1.3,0.1-2.3,0.3v28.9h-18.3V736.7z
			 M-406.4,767.8h7.9c5.3,0,9-0.9,11.2-2.6c2.2-1.7,3.2-3.9,3.2-6.6s-1-4.9-3.1-6.6c-2.1-1.7-5.6-2.6-10.6-2.6h-8.7V767.8z"/>
	</g>
</g>
<text transform="matrix(1 0 0 1 1250.2173 1702.6265)" style="font-family:'AdobeSongStd-Light-GBpc-EUC-H'; font-size:12px;">®</text>
<text transform="matrix(1 0 0 1 1250.2173 1702.6265)" style="font-family:'AdobeSongStd-Light-GBpc-EUC-H'; font-size:12px;">®</text>
<g>
	<g id="PcWeFq_2_">
		<g>
			<path class="st1" d="M387,378.1c-14.5,8.2-29.9,13.4-46.2,15.6c-39.4,5.3-75.9-3.3-107.7-27.2c-34.7-26-56-60.7-62.7-104
				c-9.9-63.8,20.5-128.2,76.3-160.5c58-33.6,132.7-22.5,179.3,25.8c22.3,23.2,36.5,50.4,42.4,81.7c2,10.4,2,21.2,2.9,31.9
				c2.8,36.6,20.1,63.7,53.9,78.6c33,14.6,69.8,4.7,94.1-23.8c38.5-45.3,20.3-109.6-22.8-134.2c-38.1-21.8-84.8-10.2-110.5,29
				c-1.3,1.9-2.3,4-3.7,6.4c-4.9-12.1-8.8-23.9-14.2-34.9c-5.4-10.9-12.2-21-18.8-32c1.4-1.6,2.9-3.8,4.8-5.6
				c22-21.7,48.2-35,78.8-40.2c80.4-13.5,152.1,42,169.2,116.3c13.9,60.4-2.2,112.7-47,154.9c-53.2,50-131.2,52-188,9
				c-41.4-31.4-60.8-73.9-62.6-125.2c-1.3-35.5-16.6-63-48.2-79.7c-30.7-16.1-66-10.2-91.8,13c-41.8,37.8-37.4,104.8,6.4,137.1
				c32.2,23.8,78.9,22.4,108.3-10c2.4-2.6,4.7-5.3,8-8.9C387,320.7,387,348.9,387,378.1z"/>
			<path class="st1" d="M403,493.8c0-62.7,0-123.9,0-184.9c6.4,10.2,12.3,20.7,19.3,30.5c11.8,16.5,25.9,31,42.9,42.2
				c3.8,2.5,5.9,5.3,5.7,10.1c-0.4,16.3-0.6,32.6-0.6,49c0,27.4-23,52.3-54.9,53.1C411.7,493.9,407.9,493.8,403,493.8z"/>
		</g>
	</g>
	<g>
		<path class="st1" d="M2301.1,286.5c9.6-10.8,19.2-21.7,28.9-32.5c9.7-10.9,19.3-21.8,29.2-32.4c1.9-2,4.7-4.4,7.1-4.5
			c11.7-0.5,23.5-0.2,36.9-0.2c-20.6,23.4-40.2,45.6-60.2,68.4c21.1,28.9,42.1,57.5,64.3,87.9c-10,0-18.2-0.8-26.2,0.2
			c-11.3,1.3-18.6-2.6-24.7-12.3c-8.2-13-18.1-25-27.4-37.3c-2.8-3.8-5.9-7.3-9.7-12c-6.7,7.2-13.1,13.7-18.8,20.7
			c-1.6,2-1.8,5.5-1.8,8.4c-0.2,10.3-0.1,20.7-0.1,31.7c-11.8,0-22.6,0-34.1,0c0-51.7,0-103.1,0-155.2c11.4,0,22.2,0,34.1,0
			c0,23.3,0,45.9,0,68.5C2299.4,286.1,2300.2,286.3,2301.1,286.5z"/>
		<path class="st1" d="M1989.5,217.1c12.4,0,24.2,0,36.7,0c21.9,51.7,44.9,103,66.9,155.7c-13,0-24.5,0-36.8,0
			c-2.1-5.1-4.2-10.2-6.3-15.4c-1.5-3.9-3-7.7-4.4-11.6c-1.6-4.5-4.7-6.2-9.5-6.2c-19,0.2-38,0.2-57,0c-4.9,0-7.5,1.7-9.2,6.4
			c-3.2,8.9-7,17.6-10.7,26.7c-11.5,0-22.6,0-35.2,0C1946.1,320.1,1967.8,268.6,1989.5,217.1z M2008.6,254.3c-0.7,0.1-1.3,0.1-2,0.2
			c-7.4,18.5-14.9,37-22.9,57c16.7,0.6,31.6,0.3,48.3,0.1C2023.8,291.6,2016.2,273,2008.6,254.3z"/>
		<path class="st1" d="M1798.5,217.2c1.9-0.2,3.9-0.4,6-0.4c21.4,0,42.8-0.1,64.2,0.1c13.6,0.1,26.4,3.4,37.8,11.2
			c7.3,5,12.7,11.5,16.3,19.6c6.3,14.2,6.8,28.9,2.2,43.5c-5.3,17.1-17.1,28.5-34.3,33.3c-8.2,2.3-16.9,3.2-25.4,3.7
			c-10.6,0.6-21.3,0.2-32.9,0.2c-1.9,15-0.1,29.5-1.3,44.3c-11.2,0-21.7,0-32.3,0C1796.7,366.7,1796.4,225.1,1798.5,217.2z
			 M1832,298.7c11.2,0,21.2,0.1,31.3-0.1c2.9,0,5.9-0.5,8.8-1.1c14.1-3,21.1-12.3,20.4-26.8c-0.7-14-9.2-23.3-23.3-24.4
			c-10.3-0.8-20.7-0.7-31-0.9c-1.9,0-3.9,0.8-6.2,1.3C1832,264,1832,280.7,1832,298.7z"/>
		<path class="st1" d="M2240.2,240.9c-6.8,7.3-13.6,14.6-21.2,22.7c-13-14.1-28-21-46.5-18.2c-12,1.8-21.4,7.7-29.1,17.2
			c-16.2,19.9-13.6,50.1,4.1,68.4c9.9,10.2,22.7,13.2,36.7,12.6c14.3-0.6,25.1-7.9,34.8-18.4c7.7,7.2,15,14,22.2,20.8
			c-16.7,26.7-53.1,34.6-84.5,26.8c-29-7.2-57.3-31.5-59.1-74.5c-1.6-37.1,19-69,55.7-80.8C2185.3,207.1,2223.1,217,2240.2,240.9z"
			/>
	</g>
	<g>
		<path class="st1" d="M1085.7,224.4c11.2,0,21.7,0,33.6,0c0,19.7,0,39.1,0,59.6c22.8,0.6,44.4,0.6,66.9,0.2c0.4-3.7,1-6.8,1-9.8
			c0.2-12.8,0.1-25.5,0.2-38.3c0-3.5,0.4-7,0.6-11.4c11,0,21.5,0,32.7,0c0,51.4,0,102.8,0,155.5c-5.5,0-10.7,0-16,0
			c-5.3,0-10.6,0-16.4,0c-2.3-11.4-0.5-22-0.9-32.5c-0.4-10.6-0.6-21.2-0.8-32.5c-22.4,0-43.9,0-66.4,0c-1.8,21.4-0.2,42.6-1,64.4
			c-11.4,0-22.2,0-33.6,0C1085.7,327.9,1085.7,276.4,1085.7,224.4z"/>
		<path class="st1" d="M812.7,224.2c11.6,0,23.4,0,35.8,0c22.2,51.4,44.3,102.7,66.5,154.1c-6.6,2.3-23.9,2.8-37,1.2
			c-3.3-8.2-7-16.7-10-25.3c-2-5.7-5.1-7.6-11.2-7.5c-17.8,0.4-35.6,0-53.4,0.1c-8.7,0-8.7,0.2-12.1,8.5
			c-3.3,8.2-6.7,16.4-10.1,24.7c-11.4,0-22.4,0-33.3,0C748.3,373.5,805.1,236.9,812.7,224.2z M854.1,318.4
			c-8.1-20-15.7-38.5-23.2-56.9c-0.8-0.1-1.5-0.1-2.3-0.2c-7.1,18.8-15.1,37.2-22,57.1C822.7,318.4,837.4,318.4,854.1,318.4z"/>
		<path class="st1" d="M1436.9,224.5c0,9,0,17.5,0,26.9c-25.8,1.5-51.2,0.5-77.7,0.9c-1,11.4-0.3,21.8-0.1,33.6
			c23,1,45.4,0,68.6,0.5c0,9.2,0,17.8,0,27.7c-22.6,0-45,0-68.7,0c-0.5,12.4-0.5,23.8-0.1,36.1c9.2,1.5,18.1,0.5,26.8,0.7
			c9.2,0.2,18.4,0.1,27.6,0.1c8.8,0,17.6,0,26.8,0c0,10.1,0,18.9,0,27.7c-6.6,2-99.1,2.8-113.6,1c-2-6.1-2.7-142.3-0.7-155.1
			C1362.5,224.5,1399.1,224.5,1436.9,224.5z"/>
		<path class="st1" d="M1739.7,350.7c0,10.6,0,19.4,0,29.5c-38.2,0.1-76,0.1-115.1,0c0.2-52.3-0.3-103.7,0.2-155.8
			c37.6,0,74,0,111.5,0c1.4,8.5,0.8,17.3,0.4,27c-3.2,0.2-6.1,0.6-8.9,0.6c-19.6,0.1-39.2,0-58.8,0.1c-2.1,0-4.2,0-6.2,0.2
			c-2.8,0.2-4.5,1.6-4.5,4.5c-0.1,9.4,0,18.8,0,29.3c23.4,0,45.8,0,68.9,0c0,9.7,0,18.4,0,28.3c-22.8,0-45.2,0-68.5,0
			c-1,12.5-0.8,23.9-0.2,36.4C1685.7,350.7,1712.3,350.7,1739.7,350.7z"/>
		<path class="st1" d="M1040.8,332.9c7.7,7.1,14.8,13.7,21.9,20.2c-13.3,23.4-45.6,34.8-79.3,28c-37.6-7.6-60.5-33-64.1-73.2
			c-3.3-36.5,17.2-69.1,50.7-81.5c38.1-14.1,76.9-0.2,92.6,22.2c-7.2,6.9-14.6,13.9-22.4,21.2c-2.4-2.2-4.3-3.9-6.3-5.6
			c-15.6-13.6-38-16-55.7-6c-16.9,9.5-26.8,30.4-23.4,50.1c3.5,20.3,13.5,35.5,34.3,41.1c16.6,4.5,31.7,0.6,45-10.4
			C1036.2,337.2,1038.1,335.3,1040.8,332.9z"/>
		<path class="st1" d="M1530.8,332.7c14.7-36.1,29.5-72.2,44.3-108.4c11.4,0,22.3,0,33.2,0c-0.5,7-43.3,114.4-61.9,155.4
			c-11.2,0-22.7,0-35.4,0c-20.7-51.1-41.7-102.6-63.2-155.6c13-0.7,25,0,37.2-0.1c14.6,36.3,29.1,72.3,43.6,108.3
			C1529.3,332.4,1530.1,332.6,1530.8,332.7z"/>
		<path class="st1" d="M1256.6,224.5c11.2,0,21.8,0,32.3,0c2.1,6.6,2.6,144.2,0.5,155.1c-10.7,0-21.4,0-32.8,0
			C1256.6,328.1,1256.6,276.8,1256.6,224.5z"/>
	</g>
	<g>
		<path class="st1" d="M2549.8,180.3c0,11-2.7,21.2-8.2,30.7c-5.5,9.5-13,16.9-22.5,22.4c-9.5,5.5-19.7,8.2-30.7,8.2
			c-10.9,0-21.1-2.7-30.6-8.2s-17-12.9-22.5-22.4c-5.5-9.5-8.2-19.7-8.2-30.7c0-10.9,2.7-21.1,8.2-30.6c5.5-9.5,13-17,22.5-22.5
			c9.5-5.5,19.7-8.2,30.6-8.2c11,0,21.2,2.7,30.7,8.2c9.5,5.5,17,12.9,22.5,22.5C2547.1,159.2,2549.8,169.4,2549.8,180.3z
			 M2538,180.3c0-13.7-4.8-25.3-14.5-35c-9.7-9.7-21.3-14.5-35-14.5c-13.7,0-25.3,4.8-35,14.5c-9.7,9.7-14.5,21.3-14.5,35
			c0,13.7,4.8,25.3,14.5,35c9.7,9.7,21.3,14.5,35,14.5c13.7,0,25.3-4.8,35-14.5C2533.1,205.6,2538,194,2538,180.3z M2460.7,147.5
			h29.3c8.3,0,14.3,1.7,18,5c3.7,3.3,5.6,7.8,5.6,13.5c0,4.4-1.4,8.2-4.3,11.4c-2.8,3.2-7.3,5.5-13.4,7c2.5,1,4.4,2,5.5,3.1
			c1.7,1.5,3.4,3.7,5.2,6.7c0.1,0.2,3.6,6.5,10.6,19H2498c-6.3-12.5-10.5-19.9-12.6-22.4c-2.1-2.4-4.3-3.7-6.4-3.7
			c-0.5,0-1.2,0.1-2,0.2v25.8h-16.3V147.5z M2477,175.3h7.1c4.7,0,8-0.8,10-2.3c1.9-1.5,2.9-3.5,2.9-5.9c0-2.4-0.9-4.4-2.8-5.9
			c-1.8-1.5-5-2.3-9.4-2.3h-7.7V175.3z"/>
	</g>
</g>
</svg>
