<?xml version="1.0" encoding="utf-8"?>
<!-- Generator: Adobe Illustrator 25.3.1, SVG Export Plug-In . SVG Version: 6.00 Build 0)  -->
<svg version="1.1" id="图层_1" xmlns="http://www.w3.org/2000/svg" xmlns:xlink="http://www.w3.org/1999/xlink" x="0px" y="0px"
	 viewBox="150 50 580 480" style="enable-background:new 150 50 580 480;" xml:space="preserve">
<style type="text/css">
	.st0{fill:#276533;}
</style>
<g>
	<g id="PcWeFq_2_">
		<g>
			<path class="st0" d="M387,378.1c-14.5,8.2-29.9,13.4-46.2,15.6c-39.4,5.3-75.9-3.3-107.7-27.2c-34.7-26-56-60.7-62.7-104
				c-9.9-63.8,20.5-128.2,76.3-160.5c58-33.6,132.7-22.5,179.3,25.8c22.3,23.2,36.5,50.4,42.4,81.7c2,10.4,2,21.2,2.9,31.9
				c2.8,36.6,20.1,63.7,53.9,78.6c33,14.6,69.8,4.7,94.1-23.8c38.5-45.3,20.3-109.6-22.8-134.2c-38.1-21.8-84.8-10.2-110.5,29
				c-1.3,1.9-2.3,4-3.7,6.4c-4.9-12.1-8.8-23.9-14.2-34.9c-5.4-10.9-12.2-21-18.8-32c1.4-1.6,2.9-3.8,4.8-5.6
				c22-21.7,48.2-35,78.8-40.2c80.4-13.5,152.1,42,169.2,116.3c13.9,60.4-2.2,112.7-47,154.9c-53.2,50-131.2,52-188,9
				c-41.4-31.4-60.8-73.9-62.6-125.2c-1.3-35.5-16.6-63-48.2-79.7c-30.7-16.1-66-10.2-91.8,13c-41.8,37.8-37.4,104.8,6.4,137.1
				c32.2,23.8,78.9,22.4,108.3-10c2.4-2.6,4.7-5.3,8-8.9C387,320.7,387,348.9,387,378.1z"/>
			<path class="st0" d="M403,493.8c0-62.7,0-123.9,0-184.9c6.4,10.2,12.3,20.7,19.3,30.5c11.8,16.5,25.9,31,42.9,42.2
				c3.8,2.5,5.9,5.3,5.7,10.1c-0.4,16.3-0.6,32.6-0.6,49c0,27.4-23,52.3-54.9,53.1C411.7,493.9,407.9,493.8,403,493.8z"/>
		</g>
	</g>
</g>
</svg>
