<?xml version="1.0" encoding="utf-8"?>
<!-- Generator: Adobe Illustrator 25.3.1, SVG Export Plug-In . SVG Version: 6.00 Build 0)  -->
<svg version="1.1" id="图层_1" xmlns="http://www.w3.org/2000/svg" xmlns:xlink="http://www.w3.org/1999/xlink" x="0px" y="0px"
	 viewBox="0 0 2718.5 576.4" style="enable-background:new 0 0 2718.5 576.4;" xml:space="preserve">
<style type="text/css">
	.st0{fill:#276533;}
</style>
<g>
	<g id="PcWeFq_2_">
		<g>
			<path class="st0" d="M387,378.1c-14.5,8.2-29.9,13.4-46.2,15.6c-39.4,5.3-75.9-3.3-107.7-27.2c-34.7-26-56-60.7-62.7-104
				c-9.9-63.8,20.5-128.2,76.3-160.5c58-33.6,132.7-22.5,179.3,25.8c22.3,23.2,36.5,50.4,42.4,81.7c2,10.4,2,21.2,2.9,31.9
				c2.8,36.6,20.1,63.7,53.9,78.6c33,14.6,69.8,4.7,94.1-23.8c38.5-45.3,20.3-109.6-22.8-134.2c-38.1-21.8-84.8-10.2-110.5,29
				c-1.3,1.9-2.3,4-3.7,6.4c-4.9-12.1-8.8-23.9-14.2-34.9c-5.4-10.9-12.2-21-18.8-32c1.4-1.6,2.9-3.8,4.8-5.6
				c22-21.7,48.2-35,78.8-40.2c80.4-13.5,152.1,42,169.2,116.3c13.9,60.4-2.2,112.7-47,154.9c-53.2,50-131.2,52-188,9
				c-41.4-31.4-60.8-73.9-62.6-125.2c-1.3-35.5-16.6-63-48.2-79.7c-30.7-16.1-66-10.2-91.8,13c-41.8,37.8-37.4,104.8,6.4,137.1
				c32.2,23.8,78.9,22.4,108.3-10c2.4-2.6,4.7-5.3,8-8.9C387,320.7,387,348.9,387,378.1z"/>
			<path class="st0" d="M403,493.8c0-62.7,0-123.9,0-184.9c6.4,10.2,12.3,20.7,19.3,30.5c11.8,16.5,25.9,31,42.9,42.2
				c3.8,2.5,5.9,5.3,5.7,10.1c-0.4,16.3-0.6,32.6-0.6,49c0,27.4-23,52.3-54.9,53.1C411.7,493.9,407.9,493.8,403,493.8z"/>
		</g>
	</g>
	<g>
		<path class="st0" d="M2301.1,286.5c9.6-10.8,19.2-21.7,28.9-32.5c9.7-10.9,19.3-21.8,29.2-32.4c1.9-2,4.7-4.4,7.1-4.5
			c11.7-0.5,23.5-0.2,36.9-0.2c-20.6,23.4-40.2,45.6-60.2,68.4c21.1,28.9,42.1,57.5,64.3,87.9c-10,0-18.2-0.8-26.2,0.2
			c-11.3,1.3-18.6-2.6-24.7-12.3c-8.2-13-18.1-25-27.4-37.3c-2.8-3.8-5.9-7.3-9.7-12c-6.7,7.2-13.1,13.7-18.8,20.7
			c-1.6,2-1.8,5.5-1.8,8.4c-0.2,10.3-0.1,20.7-0.1,31.7c-11.8,0-22.6,0-34.1,0c0-51.7,0-103.1,0-155.2c11.4,0,22.2,0,34.1,0
			c0,23.3,0,45.9,0,68.5C2299.4,286.1,2300.2,286.3,2301.1,286.5z"/>
		<path class="st0" d="M1989.5,217.1c12.4,0,24.2,0,36.7,0c21.9,51.7,44.9,103,66.9,155.7c-13,0-24.5,0-36.8,0
			c-2.1-5.1-4.2-10.2-6.3-15.4c-1.5-3.9-3-7.7-4.4-11.6c-1.6-4.5-4.7-6.2-9.5-6.2c-19,0.2-38,0.2-57,0c-4.9,0-7.5,1.7-9.2,6.4
			c-3.2,8.9-7,17.6-10.7,26.7c-11.5,0-22.6,0-35.2,0C1946.1,320.1,1967.8,268.6,1989.5,217.1z M2008.6,254.3c-0.7,0.1-1.3,0.1-2,0.2
			c-7.4,18.5-14.9,37-22.9,57c16.7,0.6,31.6,0.3,48.3,0.1C2023.8,291.6,2016.2,273,2008.6,254.3z"/>
		<path class="st0" d="M1798.5,217.2c1.9-0.2,3.9-0.4,6-0.4c21.4,0,42.8-0.1,64.2,0.1c13.6,0.1,26.4,3.4,37.8,11.2
			c7.3,5,12.7,11.5,16.3,19.6c6.3,14.2,6.8,28.9,2.2,43.5c-5.3,17.1-17.1,28.5-34.3,33.3c-8.2,2.3-16.9,3.2-25.4,3.7
			c-10.6,0.6-21.3,0.2-32.9,0.2c-1.9,15-0.1,29.5-1.3,44.3c-11.2,0-21.7,0-32.3,0C1796.7,366.7,1796.4,225.1,1798.5,217.2z
			 M1832,298.7c11.2,0,21.2,0.1,31.3-0.1c2.9,0,5.9-0.5,8.8-1.1c14.1-3,21.1-12.3,20.4-26.8c-0.7-14-9.2-23.3-23.3-24.4
			c-10.3-0.8-20.7-0.7-31-0.9c-1.9,0-3.9,0.8-6.2,1.3C1832,264,1832,280.7,1832,298.7z"/>
		<path class="st0" d="M2240.2,240.9c-6.8,7.3-13.6,14.6-21.2,22.7c-13-14.1-28-21-46.5-18.2c-12,1.8-21.4,7.7-29.1,17.2
			c-16.2,19.9-13.6,50.1,4.1,68.4c9.9,10.2,22.7,13.2,36.7,12.6c14.3-0.6,25.1-7.9,34.8-18.4c7.7,7.2,15,14,22.2,20.8
			c-16.7,26.7-53.1,34.6-84.5,26.8c-29-7.2-57.3-31.5-59.1-74.5c-1.6-37.1,19-69,55.7-80.8C2185.3,207.1,2223.1,217,2240.2,240.9z"
			/>
	</g>
	<g>
		<path class="st0" d="M1085.7,224.4c11.2,0,21.7,0,33.6,0c0,19.7,0,39.1,0,59.6c22.8,0.6,44.4,0.6,66.9,0.2c0.4-3.7,1-6.8,1-9.8
			c0.2-12.8,0.1-25.5,0.2-38.3c0-3.5,0.4-7,0.6-11.4c11,0,21.5,0,32.7,0c0,51.4,0,102.8,0,155.5c-5.5,0-10.7,0-16,0s-10.6,0-16.4,0
			c-2.3-11.4-0.5-22-0.9-32.5c-0.4-10.6-0.6-21.2-0.8-32.5c-22.4,0-43.9,0-66.4,0c-1.8,21.4-0.2,42.6-1,64.4c-11.4,0-22.2,0-33.6,0
			C1085.7,327.9,1085.7,276.4,1085.7,224.4z"/>
		<path class="st0" d="M812.7,224.2c11.6,0,23.4,0,35.8,0c22.2,51.4,44.3,102.7,66.5,154.1c-6.6,2.3-23.9,2.8-37,1.2
			c-3.3-8.2-7-16.7-10-25.3c-2-5.7-5.1-7.6-11.2-7.5c-17.8,0.4-35.6,0-53.4,0.1c-8.7,0-8.7,0.2-12.1,8.5
			c-3.3,8.2-6.7,16.4-10.1,24.7c-11.4,0-22.4,0-33.3,0C748.3,373.5,805.1,236.9,812.7,224.2z M854.1,318.4
			c-8.1-20-15.7-38.5-23.2-56.9c-0.8-0.1-1.5-0.1-2.3-0.2c-7.1,18.8-15.1,37.2-22,57.1C822.7,318.4,837.4,318.4,854.1,318.4z"/>
		<path class="st0" d="M1436.9,224.5c0,9,0,17.5,0,26.9c-25.8,1.5-51.2,0.5-77.7,0.9c-1,11.4-0.3,21.8-0.1,33.6
			c23,1,45.4,0,68.6,0.5c0,9.2,0,17.8,0,27.7c-22.6,0-45,0-68.7,0c-0.5,12.4-0.5,23.8-0.1,36.1c9.2,1.5,18.1,0.5,26.8,0.7
			c9.2,0.2,18.4,0.1,27.6,0.1c8.8,0,17.6,0,26.8,0c0,10.1,0,18.9,0,27.7c-6.6,2-99.1,2.8-113.6,1c-2-6.1-2.7-142.3-0.7-155.1
			C1362.5,224.5,1399.1,224.5,1436.9,224.5z"/>
		<path class="st0" d="M1739.7,350.7c0,10.6,0,19.4,0,29.5c-38.2,0.1-76,0.1-115.1,0c0.2-52.3-0.3-103.7,0.2-155.8
			c37.6,0,74,0,111.5,0c1.4,8.5,0.8,17.3,0.4,27c-3.2,0.2-6.1,0.6-8.9,0.6c-19.6,0.1-39.2,0-58.8,0.1c-2.1,0-4.2,0-6.2,0.2
			c-2.8,0.2-4.5,1.6-4.5,4.5c-0.1,9.4,0,18.8,0,29.3c23.4,0,45.8,0,68.9,0c0,9.7,0,18.4,0,28.3c-22.8,0-45.2,0-68.5,0
			c-1,12.5-0.8,23.9-0.2,36.4C1685.7,350.7,1712.3,350.7,1739.7,350.7z"/>
		<path class="st0" d="M1040.8,332.9c7.7,7.1,14.8,13.7,21.9,20.2c-13.3,23.4-45.6,34.8-79.3,28c-37.6-7.6-60.5-33-64.1-73.2
			c-3.3-36.5,17.2-69.1,50.7-81.5c38.1-14.1,76.9-0.2,92.6,22.2c-7.2,6.9-14.6,13.9-22.4,21.2c-2.4-2.2-4.3-3.9-6.3-5.6
			c-15.6-13.6-38-16-55.7-6c-16.9,9.5-26.8,30.4-23.4,50.1c3.5,20.3,13.5,35.5,34.3,41.1c16.6,4.5,31.7,0.6,45-10.4
			C1036.2,337.2,1038.1,335.3,1040.8,332.9z"/>
		<path class="st0" d="M1530.8,332.7c14.7-36.1,29.5-72.2,44.3-108.4c11.4,0,22.3,0,33.2,0c-0.5,7-43.3,114.4-61.9,155.4
			c-11.2,0-22.7,0-35.4,0c-20.7-51.1-41.7-102.6-63.2-155.6c13-0.7,25,0,37.2-0.1c14.6,36.3,29.1,72.3,43.6,108.3
			C1529.3,332.4,1530.1,332.6,1530.8,332.7z"/>
		<path class="st0" d="M1256.6,224.5c11.2,0,21.8,0,32.3,0c2.1,6.6,2.6,144.2,0.5,155.1c-10.7,0-21.4,0-32.8,0
			C1256.6,328.1,1256.6,276.8,1256.6,224.5z"/>
	</g>
	<g>
		<path class="st0" d="M2549.8,180.3c0,11-2.7,21.2-8.2,30.7s-13,16.9-22.5,22.4s-19.7,8.2-30.7,8.2c-10.9,0-21.1-2.7-30.6-8.2
			s-17-12.9-22.5-22.4s-8.2-19.7-8.2-30.7c0-10.9,2.7-21.1,8.2-30.6s13-17,22.5-22.5s19.7-8.2,30.6-8.2c11,0,21.2,2.7,30.7,8.2
			s17,12.9,22.5,22.5C2547.1,159.2,2549.8,169.4,2549.8,180.3z M2538,180.3c0-13.7-4.8-25.3-14.5-35s-21.3-14.5-35-14.5
			s-25.3,4.8-35,14.5s-14.5,21.3-14.5,35s4.8,25.3,14.5,35s21.3,14.5,35,14.5s25.3-4.8,35-14.5C2533.1,205.6,2538,194,2538,180.3z
			 M2460.7,147.5h29.3c8.3,0,14.3,1.7,18,5s5.6,7.8,5.6,13.5c0,4.4-1.4,8.2-4.3,11.4c-2.8,3.2-7.3,5.5-13.4,7c2.5,1,4.4,2,5.5,3.1
			c1.7,1.5,3.4,3.7,5.2,6.7c0.1,0.2,3.6,6.5,10.6,19H2498c-6.3-12.5-10.5-19.9-12.6-22.4c-2.1-2.4-4.3-3.7-6.4-3.7
			c-0.5,0-1.2,0.1-2,0.2v25.8h-16.3V147.5z M2477,175.3h7.1c4.7,0,8-0.8,10-2.3c1.9-1.5,2.9-3.5,2.9-5.9s-0.9-4.4-2.8-5.9
			c-1.8-1.5-5-2.3-9.4-2.3h-7.7v16.4H2477z"/>
	</g>
</g>
</svg>
