<?xml version="1.0" encoding="utf-8"?>
<!-- Generator: Adobe Illustrator 25.3.1, SVG Export Plug-In . SVG Version: 6.00 Build 0)  -->
<svg version="1.1" id="图层_1" xmlns="http://www.w3.org/2000/svg" xmlns:xlink="http://www.w3.org/1999/xlink" x="0px" y="0px"
	 viewBox="0 0 1680 2917.6" style="enable-background:new 0 0 1680 2917.6;" xml:space="preserve">
<style type="text/css">
	.st0{fill:#FFFFFF;}
</style>
<g id="R9jx2R_2_">
	<g>
		<path class="st0" d="M1571.3,1194.5c0,409.7-332.5,742.2-743.2,741.1c-415.7-1.1-745-340.6-739.7-751.6
			c5.2-404.1,336.4-737.3,752.8-731.3C1245.2,458.5,1571.3,787.5,1571.3,1194.5z M1473.3,1194.5c-1.2-358.2-288.4-636.8-631-643.2
			c-359.1-6.7-649.9,281-655.7,632.2c-5.9,354.4,278.2,654.2,643.3,654.1C1187.4,1837.5,1472.3,1549,1473.3,1194.5z"/>
		<path class="st0" d="M89,2188.6c0-32.2,0-64.4,0-96.9c493,0,985.3,0,1478.4,0c0,32.2,0,64.3,0,96.9
			C1074.9,2188.6,582.2,2188.6,89,2188.6z"/>
		<path class="st0" d="M337.5,219.8c-2.4,60-47.3,105.4-105.8,108.6c-38.1,2-72.8-6.4-101.4-33.2c-21.2-20-33.3-45.1-38.3-73.7
			c-6.4-36.5-3.1-72,14.1-105.1c24.4-47.3,73.6-72.4,126.9-66.6c38.7,4.2,70.1,20,90.1,54.6c7.1,12.5,11.3,25.9,12.5,41.5
			c-18.3,0-36,0.1-53.6-0.1c-1.5,0-3.6-2.6-4.2-4.3c-7.5-24.3-24.4-38.1-48.9-41.5c-26.7-3.6-49.7,4.8-64.7,28.5
			c-15.6,24.2-18.4,51.3-14.5,78.8c2,14.1,6.6,28.5,13.4,40.9c13.2,24.3,40.7,35.3,68.7,30.3c25.1-4.4,42.2-22,47.4-50.2
			c1.3-7.2,4.2-8.7,10.7-8.5C305.7,220,321.3,219.8,337.5,219.8z"/>
		<path class="st0" d="M1311.8,2863.8c-16,0-32,0.4-47.8-0.3c-2.7-0.1-5.9-4.2-7.8-7.1c-29.4-45.4-58.5-90.9-87.8-136.3
			c-1.6-2.6-3.4-5.1-7-7c0,49.8,0,99.6,0,150.8c-15.4,0-29.9,0.1-44.3-0.1c-1.3,0-3.1-2.7-4-4.4c-0.7-1.5-0.1-3.5-0.1-5.2
			c0-69.3,0-138.4,0-207.7c0-3.1,0.3-6.3,0.5-10.3c16.6,0,32.5-0.3,48.5,0.3c2.6,0.1,5.4,3.9,7.1,6.6
			c29.4,45.4,58.5,90.9,87.8,136.3c1.7,2.7,3.5,5.2,7,7.8c0-49.9,0-99.8,0-150.4c16.6,0,31.8,0,47.9,0
			C1311.8,2711.8,1311.8,2787.3,1311.8,2863.8z"/>
		<path class="st0" d="M572.8,2713.3c0,49.7,0,99.3,0,149.7c-16.1,0-31.7,0-47.8,0c0-75.3,0-150.5,0-227c16.4,0,32.9-0.3,49.3,0.3
			c2.1,0.1,4.6,4,6.3,6.6c29.4,45.4,58.5,90.9,87.8,136.4c1.6,2.6,3.4,5,7,6.8c0-49.5,0-99.1,0-149.4c16.5,0,32,0,48.1,0
			c0.1,3.4,0.4,6.6,0.4,9.7c0,69-0.1,137.9,0.1,206.9c0,8.3-2,11.3-10.6,10.7c-11-0.7-22.2-0.5-33.2,0c-6,0.3-9.4-2-12.6-7
			c-29.1-45.5-58.4-91-87.7-136.5c-1.7-2.7-3.5-5.2-5.2-7.8C574.1,2712.9,573.4,2713.2,572.8,2713.3z"/>
		<path class="st0" d="M1567.6,322.4c-16.6,0-32.9,0-49.9,0c0-7.1,0-14.2,0-21.3c-10.3,11.8-22,20-36.9,23.9
			c-41.8,10.9-80.7-6.7-98-46.2c-16.9-38.5-16.6-77.7,4-114.9c20.3-36.2,64.2-49.9,101.9-32.6c9,4.2,16.5,11.1,25.2,17.2
			c0-29.8,0-60.5,0-92c18.5,0,35.7,0,53.6,0C1567.6,145,1567.6,233.5,1567.6,322.4z M1518.5,223.7c-0.5-0.1-1.1-0.3-1.6-0.3
			c-0.5-5.5-0.8-11-1.6-16.5c-3.9-26-20-42-42.8-42.6c-23.4-0.7-39.7,13.7-45.4,39.7c-0.8,3.4-1.3,6.8-1.6,10.3
			c-1.7,18.9,0,37.2,10.5,53.6c8.9,13.7,21.7,20.5,38.3,19.6c17.9-1.1,30.5-10.1,36-26.7C1514.3,248.8,1515.8,236,1518.5,223.7z"/>
		<path class="st0" d="M770.7,2862.7c0-75.2,0-150.2,0-226c2.3-0.3,4.6-0.9,6.7-0.9c34.6,0,69.3-0.4,103.8,0.4
			c52.6,1.3,91.7,39.2,96.7,91.7c2.4,25.9,1.1,51.2-8.9,75.3c-14.9,36.2-43,56.5-81.5,58.9c-37.1,2.3-74.4,1.2-111.6,1.5
			C774.3,2863.8,772.5,2863.1,770.7,2862.7z M822.2,2678.8c0,47.4,0,94.6,0,142.8c17.6,0,34.6,0.7,51.7-0.1
			c23.5-1.1,39.9-13.4,48.2-35.4c7.5-19.9,6.8-40.4,2.6-61c-5.5-26.6-21.5-43.2-48.7-46C858.5,2677.3,840.6,2678.8,822.2,2678.8z"/>
		<path class="st0" d="M1565.7,2710.6c-16.9,0-31.7,0.1-46.5-0.1c-1.9,0-4.6-2.3-5.2-4.2c-6.7-20-20.5-31.5-41.2-33.8
			c-23.5-2.6-43.9,3.8-58.1,24c-19.5,27.8-19.5,78-0.4,106.1c18.3,26.7,63.2,33.8,88.6,13.6c11.8-9.4,16.6-22.4,18.3-38.5
			c-17.7,0-34.6,0-52,0c0-12.6,0-23.9,0-35.8c32.4,0,64.7,0,97.7,0c0,40,0,80.3,0,122c-9.3,0-18.8,0.3-28.2-0.3
			c-1.7-0.1-4.2-3.6-4.8-5.9c-1.7-5.8-2.6-11.7-3.9-17.6c-0.9-0.7-2-1.2-3-1.9c-1.2,2.3-2,4.8-3.8,6.6c-18,18.5-40.4,25-65.8,23.8
			c-22.3-1.1-43.1-6.6-61.5-19.5c-32.1-22.4-45.5-54.8-47.4-92.6c-1.2-26,3.8-51,17.3-73.6c25-41.8,69.3-58,118.1-50.7
			c30.9,4.6,56,19.5,70.8,47.9C1559.7,2689.1,1562,2699.5,1565.7,2710.6z"/>
		<path class="st0" d="M485.4,2677.6c-41.2,0-82,0-123.5,0c0,16.5,0,32.2,0,49c37.7,0,75,0,113.3,0c0,13,0,25.2,0,38.5
			c-37.6,0-75,0-113.2,0c0,19.1,0,37.2,0,56.5c41.9,0,83.8,0,126.2,0c0,14.5,0,27.7,0,41.6c-59.3,0-118.4,0-178.2,0
			c0-75.6,0-150.6,0-226.6c58.1,0,116,0,175.2,0C485.4,2649.7,485.4,2662.9,485.4,2677.6z"/>
		<path class="st0" d="M1352.8,262.3c-7.8,23.5-18.7,43.1-40.4,53.7c-32.8,16-66.6,16.6-99.1,0.5c-37.1-18.4-49.7-52-49.9-91
			c-0.4-43.8,23-80.1,60.5-94.4c53.8-20.4,118.9,0.3,130.9,76.8c1.6,9.9,1.5,20,2.3,31.3c-24.6,0-47.8,0-70.9,0c-23,0-45.8,0-68.6,0
			c-0.8,23,9.5,39.6,27.4,45.4c23.6,7.5,46.9,0.4,58.9-17.7c1.5-2.1,4.7-4.4,7.1-4.6C1324.3,262.1,1337.7,262.3,1352.8,262.3z
			 M1302,204.7c-4.3-29.1-20.3-42.7-46.5-40.3c-22.4,2.1-38.4,19.1-37.6,40.3C1245.8,204.7,1273.4,204.7,1302,204.7z"/>
		<path class="st0" d="M549,239.5c-48.1,0-94,0-139.8,0c-0.1,24.2,9.7,39.6,28.5,45.4c23.6,7.4,45.2,0.3,58.5-18.8
			c1.2-1.7,3.9-3.6,5.9-3.6c13.7-0.3,27.3-0.1,42.3-0.1c-6.4,21.3-16.4,39.1-34.9,50.7c-65,40.8-146.1,1.5-153.7-74.5
			c-4.8-49.1,18.1-91.4,59.9-107.4c54-20.5,118.4,0.5,130.8,76C548.2,217.4,548.2,227.8,549,239.5z M409.2,204.5
			c28.6,0,56.7,0,84.7,0c-4.4-27.9-18.7-40.9-43.1-40.1C427,165,411.5,179.6,409.2,204.5z"/>
		<path class="st0" d="M139.7,2863.2c-17.2,0-33.3,0-49.8,0c0-75.7,0-150.9,0-226.5c1.9-0.3,3.2-0.8,4.6-0.8
			c37.7,0.1,75.6-0.9,113.3,0.7c28.9,1.2,52.8,13.8,63.5,42.4c10.7,28.5,8.3,56.3-12.9,79.9c-15.8,17.6-37.5,22.4-60.1,22.8
			c-16.5,0.4-33.2,0.4-49.7,0c-6.6-0.1-8.6,2-8.5,8.5c0.3,21.5,0.1,43,0.1,64.6C140.1,2857.2,139.8,2859.9,139.7,2863.2z
			 M140.1,2708.6c0,9.3-0.3,18.7,0.3,27.9c0.1,2.3,2.8,6.4,4.4,6.4c18.8-0.1,37.9,0.4,56.4-2c18-2.3,26.6-15,26-33.4
			c-0.4-17.6-9.8-29.7-27.4-31.4c-17.9-1.9-35.8-1.6-53.8-1.6c-1.9,0-5.4,3.9-5.5,6.2C139.7,2689.9,140.1,2699.3,140.1,2708.6z"/>
		<path class="st0" d="M1063.7,56c0,14.8,0,27.5,0,40.3c-6.8,0-13.2-0.1-19.5,0c-13.6,0.1-18.9,5.5-19.5,19.1c-0.1,4.3,0,8.6,0,14
			c12.2,0,24,0,36.1,0c0,12.2,0,23.5,0,35.6c-11.7,0-23.2,0-35.7,0c0,52.8,0,104.6,0,157.2c-18.3,0-35.4,0-54,0
			c0-51.8,0-103.9,0-156.8c-11,0-20.7,0-31.1,0c0-12.2,0-23.6,0-35.7c9.9,0,19.7,0,30.9,0c0-4.8,0-9.1,0-13.3
			c0.4-36.9,21.2-58.7,58-60.3C1040.1,55.6,1051.4,56,1063.7,56z"/>
		<path class="st0" d="M745.7,165.1c-10.9,0-20.9,0-31.3,0c0-12.2,0-23.5,0-35.6c10.3,0,20.4,0,31.3,0c0-19.6,0-38.4,0-57.6
			c18.1,0,35.4,0,53.8,0c0,19.1,0,37.9,0,57.1c13.2,0,25.2,0,38.1,0c0,11.9,0,23.5,0,36c-12.2,0-24.6,0-38,0c0,5.5,0,10.1,0,14.6
			c0,26.4,0,52.9,0,79.5c0,19.6,4.6,24,24.3,23.5c4.3-0.1,8.7-0.7,13.7-0.9c0,13.4,0,26.9,0,41.1c-21.1,2.6-42.2,3.6-62.8-1.9
			c-18.4-5-28.2-17.6-28.6-38c-0.7-35.7-0.3-71.6-0.4-107.4C745.7,172.4,745.7,169.3,745.7,165.1z"/>
		<path class="st0" d="M223.8,2432.6c13.4,0,26.4,0,39.5,0c-0.1,45.5-40.1,80.3-87.9,76.8c-55.7-4-91-47.1-86.7-105.3
			c2-27.7,10.7-52.2,32.2-71c38.7-33.8,106.5-25.6,131,16.1c5.2,9,7.8,19.6,12.2,31.1c-14.5,0-26.3,0.1-38.1-0.3
			c-1.7,0-4.6-2.6-5.1-4.4c-9.5-32.5-54.9-36.5-75-13.7c-20.1,22.7-21.1,73-1.3,96.1c12.8,14.9,29.3,18.5,47.4,14.8
			c17.2-3.6,25.9-16.5,30.1-32.8C222.6,2437.5,223.2,2435.1,223.8,2432.6z"/>
		<path class="st0" d="M586.9,2489.4c0,22.2,0,42.2,0,62.6c-12.4,0-24.2,0-36.8,0c0-60.8,0-121.6,0-182.9c11.7,0,23.1,0,34.9,0
			c0.3,4.7,0.4,9,0.7,14.5c3.4-3.1,5.8-5.8,8.6-8.1c22.2-18.5,61.4-12.8,79.2,11.7c19.1,26,19.7,70.6,1.6,97.2
			c-19.3,28.3-58.7,32.5-83.5,9C590.6,2492.6,589.5,2491.6,586.9,2489.4z M651.7,2436.5c-2.4-8.7-3.9-17.9-7.4-26.3
			c-4.8-11.5-14.6-17.1-27.1-16.8c-12.5,0.3-21.7,6.3-26.4,17.9c-6.8,16.8-6.8,34.1,0,50.9c4.8,12.1,14.8,17.9,27.4,17.9
			c12.6,0,22.8-5.5,27.4-17.7C648.5,2454.3,649.6,2445.6,651.7,2436.5z"/>
		<path class="st0" d="M572,129.6c16.8,0,32.8,0,49.5,0c0,10.7,0,21.3,0,32c18.1-26.7,41.5-40.8,74.5-36.4c0,17.2,0,33,0,49.8
			c-3.9-0.1-7.2-0.3-10.6-0.5c-36.7-3.4-58.8,15.3-60,52.1c-0.9,28.5-0.4,57.1-0.5,85.5c0,3.2,0,6.3,0,10.2c-17.9,0-35.2,0-52.9,0
			C572,258,572,194.3,572,129.6z"/>
		<path class="st0" d="M1008.4,2410.5c-11.8,0-23.6,0-35.4,0c-1.7-14.8,6.4-29.9,22.2-37.1c27-12.2,54.8-12.1,82-0.8
			c13.6,5.6,18.7,17.5,18.7,31.8c0,26.7,0.1,53.4,0.7,80.3c0.1,6.6,1.7,13.2,2.8,20c-11.8,0-23.9,0-36.8,0c-0.9-3.4-2-6.8-3.4-11.4
			c-14.6,12.2-31.7,16.1-50.1,15.2c-30.2-1.5-47.3-24.2-40.1-53c3.4-13.3,12.4-21.3,24.7-24.6c14-3.6,28.5-5.2,42.8-7.8
			c3.8-0.7,7.5-1.2,11-2.4c6.6-2.1,11.1-6.3,10.5-14.1c-0.5-7.7-4.2-13-11.9-15.2C1026.8,2386.4,1015.5,2392,1008.4,2410.5z
			 M1058.1,2439.9c-5.2,1.5-9.4,2.8-13.6,3.8c-4.3,0.9-8.6,1.1-12.9,2c-5.4,1.1-10.9,2.1-15.8,4.2c-8.2,3.4-11.7,10.7-10.2,19.9
			c1.3,8.1,7,11.5,14.5,12.8c23.8,3.9,37.3-7.2,37.9-31.4C1058.2,2447.6,1058.1,2444.1,1058.1,2439.9z"/>
		<path class="st0" d="M1067,2636c0,4.3,0,7.2,0,10.1c0,69.1-0.1,138.4,0.1,207.6c0,8.6-2.7,10.9-10.9,10.5
			c-11.3-0.7-22.7-0.4-34-0.1c-5.4,0.1-7-2-7-7.1c0.1-71.2,0-142.4,0.3-213.6c0-2.4,3.1-6.7,4.8-6.8
			C1035.4,2635.7,1050.4,2636,1067,2636z"/>
		<path class="st0" d="M1345.7,2365.2c43.6,0,70.6,27.5,70.6,71.8c0,44-27.5,71.6-71.2,71.6c-42.6,0-69.8-28.2-69.7-72.1
			C1275.5,2392.6,1302.6,2365.2,1345.7,2365.2z M1312.5,2434c0.5,6.3,0.8,10.3,1.5,14.4c0.7,3.8,1.5,7.4,2.7,11
			c4.8,13.4,15.4,20.9,29.1,20.8c13.7,0,24.7-7.5,29.1-20.8c5.1-15,5.1-30.3,0-45.4c-4.8-14-15.6-20.9-29.9-20.7
			c-14,0.3-24,7.7-28.5,21.6C1314.4,2421.8,1313.6,2429.1,1312.5,2434z"/>
		<path class="st0" d="M846.9,2437.1c0,31.8-14.6,55.7-40.5,66.1c-28.3,11.4-63.2,5.6-81.8-15c-22.3-25-24.2-54.2-12.2-84
			c11.1-27.7,34.1-39.1,63.1-39.1C819.9,2365,846.9,2392.3,846.9,2437.1z M809.7,2438.7c-0.7-6.6-0.9-11.3-1.6-15.8
			c-0.5-3.1-1.6-6.2-2.7-9.1c-5-13.4-15.2-20.4-29.3-20.3c-13.4,0.1-23.9,7.2-28.5,20.3c-5.2,14.6-5.4,29.7-0.5,44.4
			c4.7,14.4,15,22,29,22.2c14.2,0.1,25.4-7.7,29.9-22.2C808.1,2451.2,808.6,2444,809.7,2438.7z"/>
		<path class="st0" d="M279.6,2437c-0.4-68.1,62.2-83.8,103.5-65.1c28.9,13,37.9,38.5,37.5,68.2c-0.4,30.3-16.1,53.7-41.8,63.6
			c-28.5,11-62.3,4.3-81.6-16.1C285.6,2475.3,279.6,2457.9,279.6,2437z M384.3,2437.4c-2.3-9.4-3.5-18.4-6.7-26.6
			c-4.7-12.1-14.9-17.5-27.7-17.3c-12.8,0-22.7,5.6-27.7,17.6c-7,17.1-7.1,34.6,0.1,51.8c5,11.7,14.8,17.2,27,17.3
			c12.1,0.1,22.7-4.4,27.7-16.1C380.4,2455.5,381.9,2446.3,384.3,2437.4z"/>
		<path class="st0" d="M1567.6,2504.8c-12.5,0-24.4,0-37.3,0c0-3.5,0-6.6,0-9.7c0-22.2,0-44.2,0-66.3c0-4.3-0.3-8.7-0.8-13
			c-1.7-12.6-8.1-19.5-18.8-20.7c-14.8-1.7-25.6,3.6-29.4,16c-2.3,7.7-3.1,16-3.2,24c-0.4,23-0.1,45.9-0.1,69.4
			c-12.8,0-24.7,0-37.3,0c0-45,0-90,0-135.3c11.8,0,23.2,0,35,0c0.4,5.2,0.7,10.1,1.2,16.1c4.2-3.9,7.2-7.2,10.7-10.1
			c15.4-12.4,45.1-13.7,61.8-3c12.5,8.1,17.5,20.7,17.9,34.2C1568.1,2438.9,1567.6,2471.4,1567.6,2504.8z"/>
		<path class="st0" d="M865.2,129.7c17.9,0,34.9,0,52.5,0c0,64.2,0,127.9,0,192.4c-17.5,0-34.6,0-52.5,0
			C865.2,258,865.2,194.3,865.2,129.7z"/>
		<path class="st0" d="M1145.6,322.4c-17.5,0-34.5,0-52.2,0c0-64,0-127.8,0-192.4c16.9,0,34.2,0,52.2,0
			C1145.6,193.9,1145.6,257.9,1145.6,322.4z"/>
		<path class="st0" d="M1198.9,2393.8c-8.9,0-17.5,0-26.7,0c0,24.7-0.1,48.5,0.1,72.2c0.1,6.3,4.2,10.2,10.6,10.5
			c5.2,0.3,10.3,0,16.1,0c0,9.1,0,18.7,0,28.7c-15,2-30.1,2.8-44.8-1.6c-11.8-3.5-19.1-11.7-19.3-24c-0.7-24.2-0.5-48.2-0.8-72.4
			c0-4,0-8.1,0-13.2c-7.5,0-14.4,0-21.9,0c0-8.9,0-16.8,0-25.6c7.1,0,14,0,21.6,0c0-13.6,0-26.3,0-39.7c12.8,0,24.8,0,37.9,0
			c0,12.8,0,25.6,0,39.5c9.5,0,18.1,0,27.4,0C1198.9,2377,1198.9,2384.9,1198.9,2393.8z"/>
		<path class="st0" d="M442.5,2369.1c11.7,0,23,0,35,0c0,6.7,0,13,0,22.3c13.6-19.1,29.1-28.7,51.3-25.6c0,11.4,0,22.6,0,34.4
			c-3.4,0-6.7,0.1-10.1,0c-22.6-0.7-36.9,11.1-38.4,33.6c-1.3,20-0.7,40.1-0.9,60.1c0,3.5,0,6.8,0,10.7c-12.6,0-24.4,0-36.9,0
			C442.5,2459.7,442.5,2414.8,442.5,2369.1z"/>
		<path class="st0" d="M958.9,2400.7c-4.6-0.3-7.9-0.5-11.4-0.5c-21.9-0.7-36,10.5-37.7,32.2c-1.6,20.3-0.7,40.5-0.9,61
			c0,3.8,0,7.4,0,11.4c-12.9,0-24.7,0-37.2,0c0-45,0-89.8,0-135.5c11.1,0,22.6,0,34.5,0c0,6.8,0,13.4,0,20c0.5,0.3,1.1,0.5,1.6,0.8
			c1.6-2,3.1-4.2,4.7-6.2c10.1-12.6,22.8-19.2,39.2-18.9c4.8,0.1,7.5,1.2,7.2,6.8C958.6,2381.1,958.9,2390.4,958.9,2400.7z"/>
		<path class="st0" d="M1218.5,2368.9c12.4,0,24.2,0,36.5,0c0,45.1,0,90,0,135.5c-11.8,0-23.9,0-36.5,0
			C1218.5,2459.7,1218.5,2414.8,1218.5,2368.9z"/>
		<path class="st0" d="M1093.1,99c0-14.1,0-27.9,0-42.6c17.2,0,34.4,0,52.4,0c0,13.8,0,27.8,0,42.6C1128.6,99,1111.4,99,1093.1,99z"
			/>
		<path class="st0" d="M865.4,55.7c15.3,0,30.1,0,45,0c2.3,0,4.6,0.3,7.4,0.4c0,14.4,0,28.5,0,43c-17.5,0-34.5,0-52.2,0
			C865.4,85.1,865.4,71.2,865.4,55.7z"/>
		<path class="st0" d="M1522.3,2031.7c-25.2,0-44.6-19.7-44.3-45c0.3-24.7,19.9-43.9,44.7-43.8c24.7,0.1,44.3,19.6,44.3,44.2
			C1567.1,2012.3,1547.6,2031.8,1522.3,2031.7z M1522.6,2024.8c20.3-0.1,36.7-17.3,36.1-38.1c-0.4-20.7-16.6-36.9-36.5-36.8
			c-20,0.1-36,16.5-36.1,37.2C1486,2008.2,1502.3,2025,1522.6,2024.8z"/>
		<path class="st0" d="M1255.3,2317.2c0,10.2,0,19.9,0,30.2c-12.4,0-24.4,0-36.9,0c0-9.9,0-19.7,0-30.2
			C1230.3,2317.2,1242.4,2317.2,1255.3,2317.2z"/>
		<path class="st0" d="M1023.5,1169c13.4,4.2,25.2,7,36.5,11.3c74.2,28.6,114.1,84,123.6,161.9c7.7,63-5.1,121.6-41.9,173.9
			c-39.1,55.6-94.1,86.1-160.4,96.8c-19.2,3.1-38.8,4.4-58.1,4.4c-130.9,0.4-261.8,0.1-392.7,0.1c-3.2,0-6.3,0-10.2,0
			c0-282.2,0-563.6,0-846.2c2.8-0.1,5.9-0.4,9-0.4c111.4,0,222.9-0.4,334.3,0.1c47.1,0.3,94,2.4,140.4,12.5
			c66.1,14.4,130.8,77.2,143.1,157.9c8.9,58-0.3,112.4-35.4,160.7c-19.3,26.7-44.8,46-74.4,60.4
			C1033.3,1164.5,1029.1,1166.4,1023.5,1169z M632.6,1522c3.9,0,7.2,0,10.6,0c87.8,0,175.7,0,263.5,0c11,0,22.2-0.1,33-1.5
			c47.7-5.9,87.3-25.8,112.5-68.5c17.3-29.3,22-61.5,19.7-94.9c-3.5-49.8-27-86.2-72.9-107.1c-32.4-14.8-66.9-19.6-101.9-19.7
			c-85-0.4-169.8-0.1-254.8-0.1c-3.1,0-6.2,0-9.8,0C632.6,1327.6,632.6,1424.3,632.6,1522z M632.6,865.9c0,90.4,0,179.2,0,268.5
			c2.1,0.1,3.8,0.3,5.5,0.3c73.3,0,146.6,0.1,219.8-0.1c31.4-0.1,62.7-2.6,93-12.1c37.6-11.8,66.2-33.4,78.9-72.2
			c8.6-26.2,9.1-53.2,5.4-80.1c-6.2-43.6-28.6-74.8-70.8-90.2c-27.9-10.2-57.2-13.4-86.5-13.7c-79.1-0.5-158.2-0.4-237.2-0.4
			C638.1,865.9,635.6,865.9,632.6,865.9z"/>
		<path class="st0" d="M1530.7,1991c4.7,7.4,8.9,14,13.2,20.8c-5.8,2.7-9.1,0.8-11.7-4c-2.1-4-4.6-8.2-7.5-11.7
			c-2.3-2.6-5.6-4.2-10.6-7.8c0,10.1,0,16.8,0,24.2c-3.4,0-5.8,0-8.6,0c0-16.8,0-33.2,0-51.6c9.7,0.5,19.5,0.4,29,1.7
			c5.9,0.9,8.7,5.9,9.1,12.2C1544.1,1983.9,1539.4,1988.4,1530.7,1991z M1514,1986.4c7.5-2.4,13.8-4,19.7-6.7
			c0.9-0.4,0.7-7.2-0.3-7.5c-6-2.1-12.4-3.4-19.5-5.1C1514,1974.1,1514,1978.6,1514,1986.4z"/>
	</g>
</g>
</svg>
