<?xml version="1.0" encoding="utf-8"?>
<!-- Generator: Adobe Illustrator 25.3.1, SVG Export Plug-In . SVG Version: 6.00 Build 0)  -->
<svg version="1.1" id="图层_1" xmlns="http://www.w3.org/2000/svg" xmlns:xlink="http://www.w3.org/1999/xlink" x="0px" y="0px"
	 viewBox="0 0 12864 2744" style="enable-background:new 0 0 12864 2744;" xml:space="preserve">
<style type="text/css">
	.st0{fill:#FFFFFF;}
</style>
<g id="dZSGwj.tif">
	<g>
		<path class="st0" d="M7126.4,1294c15.4-50.9,65-59.9,102.7-18.1c47.1,52.2,99.1,99.9,149,149.6c2.9,2.9,6.1,5.5,11.2,10
			c6.7-25.2,12.9-48.4,19-71.7c40.3-154,80.3-308.2,135.4-457.9c34.9-94.8,75.2-187,132.1-271.1c39.3-58,85.1-109.8,145.8-146.5
			c175.8-106.2,404.2-21.7,469.5,174c4.9,14.6,12.1,22.4,26.1,29c96.9,45.5,152.7,122.3,169,227.9c6.8,44,1.1,87-12.8,128.9
			c-3.1,9.2-0.5,13.2,6,18.6c65.6,54.6,99.1,124.4,98.6,210.1c-0.6,122.4-96.3,232.3-217.6,250.5c-65.8,9.9-127.7-2.6-187.1-30.7
			c-4.1-1.9-8.2-3.8-14.9-6.9c0,7,0,11.9,0,16.8c0,48.4,0,96.7,0,145.1c0,36.4-21.2,58.5-57.2,58.6c-77,0.3-153.9,0.3-230.9,0
			c-32.7-0.1-54.3-22.3-54.3-54.8c-0.1-52.6,0-105.2,0-157.7c0-5.5,0-11,0-18.7c-21.7,2.7-41.5,5.1-61.3,7.5
			c-20.9,2.5-41.8,6.2-62.8,6.9c-30.8,1.2-53.9-20-55.3-48.1c-1.4-29,19.9-51.6,50.4-55.1c55.9-6.4,111.7-13.4,167.4-20.4
			c41.1-5.2,64.3,14.8,64.6,56.8c0.3,54,0.1,108,0.1,162c0,5.5,0,11,0,18.5c14.6,0,27.5,0,40.5,0c27.2,0,54.5-0.5,81.6,0.2
			c11.4,0.3,14.4-3.6,14.3-14.5c-0.4-55.9,1.3-111.8-0.7-167.6c-1.3-35.5,25.2-65,67-56c25.8,5.6,51.1,15.1,75.5,25.5
			c35,14.9,69.7,30.5,108.4,32c69,2.7,127.8-32.8,154.1-92.3c26.7-60.4,13.9-128.7-34.5-177.7c-13.7-13.9-29.4-26.2-45.5-37.5
			c-15.6-11-32.8-19.8-50.2-30.2c53.4-58.5,69.5-126,40-200.1c-29-73-84.2-114-163.4-120.2c-3.2-20.2-5-40.3-9.7-59.7
			c-21.8-90.2-100.8-155.2-193.3-162.5c-77.1-6.1-137.4,25.2-187.8,80.2c-55.2,60.2-93.2,131.3-126.8,204.9
			c-60.9,133.4-105.1,272.7-142.9,413.9c-26.2,97.7-48.9,196.2-73.6,294.3c-2.5,9.8-6.2,19.9-11.7,28.3
			c-16.8,25.4-46,30.7-71.1,13.6c-5-3.4-9.6-7.5-13.9-11.8c-72.6-72-145.1-144.3-217.9-216.1c-13.5-13.3-26-26.9-31.4-45.6
			C7126.4,1303.4,7126.4,1298.7,7126.4,1294z"/>
		<path class="st0" d="M7536.9,2005.9c26.4-1.6,51.1-2.3,75.7-4.9c17.2-1.8,29.9-10.3,31.6-29.8c0.5-5.5,2.6-10.9,4.2-16.3
			c3.2-10.8,11.2-12.5,21.1-11.4c10.7,1.2,11.8,8.1,11.9,17c0.6,38.4,1.5,76.9,2.7,115.3c0.3,9.2-1.4,16.1-11.7,17.1
			c-9.7,1-18.1-1.1-19.9-12.7c-7.5-45.7-22.8-46.5-63.6-46.6c-16.8-0.1-33.6,0-52.6,0c0,21.7-0.2,42.2,0,62.6
			c0.2,16.4,0.9,32.8,1.1,49.2c0.1,10,4,16.3,14.4,17.1c13,1,26.1,1.5,39.2,2.5c6.5,0.5,13.7,0.4,19.1,3.4c3.8,2.1,7.1,8.8,7,13.4
			c-0.1,3.6-5.2,9.5-8.9,10.2c-8,1.6-16.6,0.7-25,0.7c-59.5,0.4-119.1,0.7-178.6,1c-7.7,0-15.3-0.1-16.4-10.7
			c-1.2-11.1,3.7-17,14.5-17.9c13.5-1.1,27.1-1.6,40.6-2.8c8.7-0.8,13.2-5.9,13.2-15c0-85.8-0.1-171.6,0.3-257.4
			c0.1-15.1-7.3-21.3-21.1-22.2c-11.2-0.7-22.4-1.6-33.6-1.9c-9.6-0.2-15.6-4.3-15.4-14.1c0.2-9.5,5.7-14.1,15.6-13.9
			c23.4,0.5,46.9,1,70.3,0.9c80.7-0.2,161.4-0.6,242-0.9c6.1,0,12.7-1.3,18.1,0.7c6.3,2.3,13.9,6.3,16.7,11.7
			c9.3,18.3,16.7,37.6,24.7,56.6c5.7,13.5-0.1,21.8-14.4,19.1c-6.5-1.2-12.8-5.4-18.4-9.4c-12.6-8.9-25-18.2-37.1-27.9
			c-25.8-20.9-55.4-25.2-87.4-22.3c-21.4,1.9-43.1,1.8-64.6,2.3c-9.8,0.2-15.1,4.7-15.2,14.4
			C7536.9,1922.9,7536.9,1962.7,7536.9,2005.9z"/>
		<path class="st0" d="M8009.4,1833c23.1,3,53.3,6.3,83.3,11c19.5,3.1,23.1,8.5,24.6,28c1,13.1,1.9,26.2,3.8,39.2
			c1.8,12.1-2.6,19.6-14.5,21.2c-10.1,1.4-20.1,4.3-24.7-11.8c-10.6-37.1-34.8-55.6-73.3-55.5c-20.3,0-40.9,3.6-60.6,8.5
			c-14.5,3.5-25.8,13.7-28.2,30c-2.4,16.9,7.1,28.6,20.1,35.8c31.9,17.8,65.2,32.9,96.9,51c28.8,16.4,58.3,32.8,83.6,53.8
			c42.3,35.3,38.7,83.7-5.8,116.2c-34.7,25.3-75.1,32.9-116.8,34.8c-46.1,2.1-91.7-2.3-137-11.1c-14.9-2.9-22.8-10.2-25.5-25.3
			c-3.4-18.9-8.8-37.4-13.1-56.1c-2.4-10.2-1.3-19.7,10.9-21.8c9.9-1.8,19.9-4.8,25.8,10.3c23.2,59.6,70.4,79.2,132,74.8
			c15.1-1.1,30.8-5.1,44.5-11.5c32.4-15.1,39.7-49,13.9-73.3c-20.5-19.3-45.3-34.6-69.7-49c-27-15.9-56.1-28.1-83.7-43.1
			c-13.1-7.1-25.5-15.9-36.8-25.7c-34.2-29.7-31.3-73.3,6.2-98.8c23.4-16,50.3-22.7,77.8-26.3
			C7962.6,1835.9,7982.3,1835.1,8009.4,1833z"/>
		<path class="st0" d="M8524.9,1929.4c-8.2-42.8-28.2-60.2-71.7-64.4c-34.8-3.4-68.3,1.2-100.4,14.5
			c-59.6,24.8-90.8,79.2-82.7,143.2c11.4,89.7,77.4,144.3,167.9,140c33.1-1.6,65.1-6.7,95.6-20.2c13-5.8,17.1-3,28.9,16.7
			c-26.2,16.1-54.6,26.5-84.8,31.2c-64,9.9-127.5,9.9-187.2-19.1c-60.1-29.2-98.7-75.4-102.7-144.9c-3.3-58.5,23.1-103,68.5-137.2
			c45.6-34.4,98.6-50.5,154.6-53.1c41-1.9,82.3,2.5,123.4,4.6c14.1,0.7,20.5,8.9,19.6,23.5c-0.8,13.1-0.2,26.3-0.2,39.4
			C8553.7,1928,8550.5,1930.9,8524.9,1929.4z"/>
	</g>
</g>
<g>
	<path class="st0" d="M9696.9,1471.8c0,27.7,0,55.3,0,83.3c6.6,1.1,10.2,2.3,13.9,2.2c83.6-0.7,167.3-0.6,250.8-2.5
		c61.9-1.4,106.7-51.7,100.4-112.8c-2-18.9-9.9-38.4-19.3-55.2c-62.2-110.5-125.5-220.3-188.5-330.4c-4.7-8.3-11.4-16.4-12.9-25.3
		c-1.2-7.1,1.8-19,7-22.3c35.4-22.6,71.8-43.5,109.7-66c4.8,7.4,9.2,13.4,12.9,19.9c67.5,117.8,135.4,235.4,202.3,353.5
		c62.5,110.4,47.3,235.5-38.4,318c-43.8,42.2-96.7,67.5-157.5,69.8c-84.8,3.3-169.7,2.6-254.6,3.6c-7.5,0.1-15.1,0-25.2,0
		c0,28.7,0,55.7,0,86.6c-6.2-4.8-9.4-6.4-11.3-8.9c-33.1-44.5-66.1-89.1-99.1-133.7c-7.4-10.1-13.9-20.2-4.6-32.8
		c36.2-49.2,72.4-98.5,108.5-147.7C9693,1471.3,9694.9,1471.5,9696.9,1471.8z"/>
	<path class="st0" d="M11411,785.8c24.9-13.7,47.6-26.1,74.1-40.7c-2,8.2-2.6,12.9-4.3,17.1c-19,48.6-38.3,97.1-57,145.9
		c-5.7,14.8-14.1,24.2-31.1,22c-55-7-110-14.2-165-21.3c-3-0.4-5.8-1.6-13.7-3.9c24.4-15.5,45.5-28.9,67.6-42.9
		c-21-36.3-41.2-71.4-61.5-106.6c-22.6-39.2-45.5-78.2-67.9-117.5c-21-36.9-51.8-57.4-94.9-56.5c-42.5,0.9-70.8,23.4-90.8,59.8
		c-63.8,116.2-128.4,231.9-192.8,347.8c-4.3,7.7-9.2,15-15.3,24.9c-40.8-23.3-80.7-45.6-119.8-69.1c-2.7-1.6-1.9-13.7,0.9-19
		c38-70,76.5-139.7,115-209.4c29.3-53,58.2-106.2,88.2-158.8c95.1-167.2,329.5-171.6,430-7.6c42.3,69,81.5,139.9,122.1,209.9
		C11399.5,768.1,11404.8,776,11411,785.8z"/>
	<path class="st0" d="M9872.7,785.7c24.4-13.3,46.6-25.4,71.6-39c-0.7,6.9-0.3,11.2-1.7,14.8c-19,49.3-38.5,98.4-57.3,147.8
		c-5.9,15.4-16.3,22.4-32.4,20.4c-55.1-6.5-110.1-13.3-165.1-20c-3-0.4-6-1.9-12.9-4.2c24.2-15.2,45.9-28.8,69.3-43.5
		c-11.5-19.8-22.3-38.3-33.1-56.9c-33.5-57.9-66.1-116.3-100.7-173.6c-28.7-47.5-82.9-63.7-131.3-41.7
		c-24.4,11.1-39.7,30.8-52.4,53.7c-62.2,112.7-124.8,225.1-187.3,337.6c-5.5,10-11.6,19.7-19.3,32.8
		c-42.4-24.2-84.1-47.9-127.2-72.5c3.7-7.7,6.3-13.9,9.6-19.8c67.3-121.5,134.1-243.3,202.3-364.3c94.5-167.6,331.8-170.9,431.2-6
		c42.4,70.4,82.5,142.2,123.6,213.4C9863.3,771.4,9867.6,777.6,9872.7,785.7z"/>
	<path class="st0" d="M11236,1469c0,26.9,0.5,49.5-0.2,72.1c-0.4,12.1,3.1,16.8,16.1,16.6c80.4-1.1,160.9-0.2,241.2-2.5
		c89.5-2.5,134.8-84.7,90.7-163c-64.7-114.9-130.2-229.4-195.3-344.1c-16.8-29.6-16.3-31.9,12.4-48.8c30.2-17.8,60.4-35.5,90.7-53.2
		c1-0.6,2.5-0.4,5.4-0.8c2.7,3.8,6.4,8,9.1,12.8c69.8,121.6,141,242.4,208.9,365.1c88.7,160.3,0.2,345.4-179.6,378.6
		c-20.6,3.8-41.9,4.3-62.9,4.5c-77.8,0.5-155.7,0.2-236.8,0.2c0,29.4,0,56.8,0,84.2c-1.6,0.4-3.3,0.9-4.9,1.3
		c-3.5-4-7.3-7.7-10.5-12c-32.2-43.6-64-87.5-96.5-130.9c-8.5-11.4-9.7-21.6-1.3-33c34.1-46.2,68.1-92.4,102.2-138.6
		C11226.4,1475.4,11229.3,1474.1,11236,1469z"/>
	<path class="st0" d="M8929.2,1044.5c20.5-2.8,41-5.7,61.5-8.4c36.6-4.8,73.3-9.4,109.9-14.3c16.3-2.2,26.5,4.6,32.8,19.7
		c20.3,48.8,41,97.4,61.5,146.1c1.6,3.9,2.1,8.3,4.3,17.4c-27.1-14.6-50.5-27.3-75.3-40.6c-8.8,15.5-17.1,29.7-25.1,44
		c-33.1,59.6-65.9,119.3-99.3,178.8c-16.2,29-23.8,59-14.5,91.7c13.4,47.5,51.9,74.3,107.5,74.3c132.1-0.1,264.2-0.6,396.3-0.9
		c31.7-0.1,33.9,2.1,34,33.4c0.1,37.5,0,74.9,0,113.5c-7.4,0.6-12.9,1.4-18.5,1.4c-139.7,0.2-279.5,0.9-419.2,0.3
		c-130.7-0.5-227.5-81.6-249.9-210.3c-10.5-60.3,1.5-117.9,31.5-171.5c38.3-68.4,76.4-136.8,114.5-205.3c3.7-6.6,7.2-13.3,11.6-21.5
		c-21.8-14.1-42.9-27.8-64.1-41.4C8928.8,1048.6,8929,1046.5,8929.2,1044.5z"/>
	<path class="st0" d="M10531,1092.2c-22.7-14.8-43.8-28.6-64.9-42.3c0.3-1.8,0.5-3.5,0.8-5.3c20.9-2.8,41.8-5.5,62.8-8.3
		c36.6-4.9,73.2-9.9,109.9-14.9c13.5-1.8,23.7,2.4,29.4,15.6c22.5,52.7,45.1,105.3,67.6,158c0.6,1.5,0.1,3.6,0.1,9.1
		c-25.7-13.4-49.5-25.8-74.8-39c-3.6,5.8-7.1,10.9-10.2,16.3c-39.3,70-78.4,140.1-117.8,210.1c-13.3,23.6-18.6,48.5-14.8,75.5
		c6,42.9,39.8,77.7,82.7,83.7c14.5,2,29.3,2.1,43.9,2.1c127.6,0,255.3-0.3,382.9-0.4c30,0,31.8,1.8,31.9,30.9
		c0.1,38.2,0,76.3,0,115.6c-6.7,0.8-11.5,1.9-16.4,1.9c-144.2,0.1-288.5,1.2-432.7-0.2c-102.8-1-188.4-61.7-224.2-156.1
		c-27.4-72.3-24.4-144.3,11.6-212.8c39.2-74.4,81.3-147.2,122.1-220.7C10524.1,1105.2,10527,1099.6,10531,1092.2z"/>
	<path class="st0" d="M9656.7,2148.7c48.5,0,95.5,0,143.2,0c0,22.7,0,43.8,0,66.2c-77.5,0-153.1,0-229.7,0c0-104.8,0-208.5,0-313.7
		c74.9,0,149.7,0,226,0c0,20.4,0,40.5,0,63.5c-45.8,0-91.9,0-139.5,0c0,19,0,35.1,0,53.7c42.8,0,85.8,0,130.4,0
		c0,22.9,0,43.5,0,66.7c-43.1,0-86.1,0-130.5,0C9656.7,2107.1,9656.7,2126.5,9656.7,2148.7z"/>
	<path class="st0" d="M10938.3,1239c7.3-62.1,14.5-122.7,21.8-184.9c68.1,0,136,0,205.2,0c0,21.4,0,43.3,0,67.1
		c-45.6,0-90,0-135.7,0c-2.1,17.3-3.9,32.8-6,50.6c31.7-15,62-18.5,93.1-8.1c24.8,8.3,43.2,23.9,54.9,47.4
		c40.1,80.6-9.6,168-99,170.5c-27.4,0.8-56.2-3.4-82.3-11.7c-36.3-11.5-56.7-44.3-58.4-84.2c24.8,0,49.6-0.4,74.3,0.4
		c4,0.1,9.2,5.2,11.5,9.3c10.6,19.4,25.1,27.9,44.8,24.8c19.1-3,28.9-13.9,32.3-37c1.1-7.5,1.2-15.3,0.6-22.8
		c-1.3-17.6-7.3-33.4-26.1-38.2c-19.6-5.1-38-2.3-51.4,15.8c-2.5,3.4-7.9,7.1-11.7,6.9C10984.1,1243.6,10962.1,1241.2,10938.3,1239z
		"/>
	<path class="st0" d="M11194,2215.2c-30.8,0-58,0-86.8,0c0-104.7,0-208.7,0-316.9c57.6,2.1,115.3,0.1,171.7,7.5
		c55.7,7.3,84.2,51.8,78.8,108.3c-5.1,53.8-44.9,89.1-104.4,91.7c-19,0.8-38.2,0.1-59.3,0.1C11194,2142.3,11194,2177.7,11194,2215.2
		z M11193.4,2039.6c44,4.6,66,1.3,71.3-16c4.2-13.7,5-33.7-2.2-44.5c-16.5-24.9-44.6-12-69.1-15.3
		C11193.4,1990.5,11193.4,2014.5,11193.4,2039.6z"/>
	<path class="st0" d="M9354.1,2105.7c0,38.2,0,73.1,0,109.3c-28.4,0-55.5,0-84.5,0c0-104.5,0-208.7,0-311.2
		c56.2,0,112.6-4.6,167.8,1.3c55.3,5.8,85.9,51.7,81.4,106.7c-4.4,54.3-44.5,90.4-105,93.7
		C9394.8,2106.5,9375.7,2105.7,9354.1,2105.7z M9355.8,1963.5c0,27.5,0,52,0,77.9c25.3-3.2,54.2,9.4,69.4-17.7
		c6.3-11.2,6.2-31.8-0.1-42.9C9409.7,1953.7,9380.8,1967.2,9355.8,1963.5z"/>
	<path class="st0" d="M10891,2105.9c0,37.6,0,72.6,0,109c-28.1,0-55.2,0-84,0c0-103.9,0-208,0-314.5c19.2,0,38.7-0.2,58.3,0
		c29.3,0.3,58.7-0.2,88,1.8c65.6,4.4,102.8,42.5,102,102.6c-0.9,59.9-41.6,98.7-106.6,101.1
		C10930.3,2106.5,10911.8,2105.9,10891,2105.9z M10891.9,1963.5c0,27.2,0,51.7,0,77.9c25-2.6,53.3,9.6,69.5-15.9
		c6.8-10.7,7.3-31.4,1.4-42.8C10947.9,1953.7,10917.9,1967.5,10891.9,1963.5z"/>
	<path class="st0" d="M9533.6,1373.4c0-21.9,0-42.6,0-65.4c-48.7,0-95.6,0-144.7,0c0.7-32.4-5.3-62.1,14.7-91.1
		c33.6-48.7,63-100.4,95.2-150.1c4.2-6.5,14.4-12.6,22-13c30.4-1.5,61-0.6,93.6-0.6c0,63,0,124.6,0,187.8
		c11.8,0.8,21.7,1.5,32.7,2.3c0,21,0,41.1,0,63.6c-9.2,0.8-19.1,1.6-30.9,2.6c0,21.1,0,41.8,0,63.9
		C9588.4,1373.4,9562.6,1373.4,9533.6,1373.4z M9532,1242.7c0-38,0-73.9,0-115c-23.2,40.7-43.8,76.7-65.7,115
		C9490.4,1242.7,9510.6,1242.7,9532,1242.7z"/>
</g>
<g>
	<path class="st0" d="M2308.2,1335.8c-2.5-3.4-4.1-5.7-5.9-8c-15.9-19.8-29-41.4-40.4-64.1c-7.7-15.3-12.1-31.7-15.8-48.3
		c-5.3-23.8-6.9-48-5-72.2c2.2-27.6,9.1-54.1,20.3-79.4c18.2-41.1,45-75.6,79.1-104.7c52.7-45.1,113.6-74,180.6-90.3
		c24.5-6,49.5-9.8,74.8-12.1c23.1-2.1,46.3-2.2,69.4-1.4c24.2,0.8,48.2,3.9,72,8.6c32.4,6.4,63.8,15.6,94.2,28.4
		c53.7,22.7,101.4,54.1,140.3,97.8c27,30.3,47.1,64.8,58.8,103.9c8.1,27.3,11.8,55,10.2,83.5c-1.2,21.1-5.6,41.5-11.7,61.6
		c-6,19.8-14.9,38.3-25.6,56c-22.7,37.3-52.6,67.9-87.8,93.4c-39.3,28.5-82.6,48.9-129.1,62.5c-20.5,6-41.2,11-62.3,14.3
		c-15.3,2.4-30.8,4.2-46.3,4.9c-20.2,0.8-40.5,0.9-60.7,0.1c-16.2-0.7-32.4-2.8-48.5-5.1c-27.2-3.9-53.9-10.4-79.9-19.5
		c-4.7-1.7-9.1-1.2-13.8,0c-33.2,8.7-66.4,17.2-99.6,25.7c-42.7,10.9-85.4,21.7-128.1,32.4c-4.5,1.1-9.3,1.7-13.9,1.3
		c-8.9-0.6-14.5-9.8-11.3-18.2c1.7-4.4,4.1-8.4,6.5-12.5c23.4-40.3,46.9-80.6,70.3-120.9C2302.1,1347.9,2304.9,1342,2308.2,1335.8z
		 M2629.1,1177c-3.4,3.7-5.4,6.2-7.7,8.4c-26.4,25.8-45.7,56.7-63.3,88.8c-1.7,3.2-3.2,6.5-4.5,9.8c-2.2,5.5-1,8.2,4.9,9.5
		c6.3,1.3,12.9,1.8,19.2,2.8c11.9,2,23.8,1.8,35.7,0.9c22.7-1.9,45-6.2,66.8-13.1c30.8-9.8,58.2-25.2,81.5-47.7
		c15.2-14.7,27.4-31.7,38-49.8c17.9-30.6,28.1-64,35.5-98.4c4.5-20.9,6.9-42.1,7.9-63.4c0.4-9.4-0.4-18.8-0.8-28.2
		c-0.1-1.8-0.3-3.6-0.8-5.3c-1.4-4.8-5.8-6.9-10.2-4.7c-3.2,1.6-6.1,3.8-9,6c-6.9,5.3-14.3,9.8-22.3,13.2
		c-14,5.9-28.5,10.5-43.4,13.2c-17.7,3.2-35.6,5.9-53.4,8.6c-34.4,5.1-67.9,13.7-100.1,27c-31,12.7-58.8,30.5-82.7,54.4
		c-30.3,30.4-48.8,82.2-42.8,125.1c0.8,5.3,0.6,10.8,1,16.2c0.6,8.4-2.3,15.6-7.1,22.2c-2.6,3.5-5.5,6.7-8.2,10.1
		c-10.7,14.1-21.4,28.2-32,42.4c-1.9,2.6-3.6,5.5-4.6,8.5c-2.3,7,1.7,13.2,9,14.3c5.8,0.8,11.5,0.3,16.8-2.8
		c6.6-3.8,12.7-8.4,17.3-14.5c3.5-4.6,7-9.2,10.2-14c8.9-13.2,17.4-26.7,28.1-38.5c7-7.8,14.2-15.4,21.3-23.1
		c25.4-27.5,54-51.2,85.9-70.8C2619.1,1181.6,2622.9,1179,2629.1,1177z"/>
	<path class="st0" d="M1583.2,1114.3c10.3-4.5,20-9.3,30.1-13.1c20-7.7,40.7-12.1,62.1-14.5c24.2-2.8,47.5,0.2,70.7,6.9
		c11.9,3.4,22.8,8.9,33,15.9c3.3,2.2,6.5,4.4,9.6,6.5c1.6-0.3,2.8-0.3,3.6-0.8c21.3-12.8,44.6-20.2,68.7-25.6
		c24.6-5.4,49.5-7.1,74.4-4.2c22.7,2.6,44.9,8,64.1,21.4c16.8,11.7,29.1,27,36.4,46.1c7.7,20.1,11.5,40.9,12.9,62.4
		c2.7,44.4,2.1,88.9,2.9,133.4c0.1,4.3,0.5,8.6,0.8,12.9c6.4,2.5,12.4,3.1,18.5,3.5c18.9,1,18.8,5.3,22.9,17.9
		c3.5,10.6,6.5,21.4,9.8,32.1c1.6,5.4,1.4,10.7-0.5,16c-2.4,6.8-7.1,10.7-14.3,11.5c-2.5,0.3-5.1,0.4-7.6,0.4
		c-35.8,0.1-71.6,0.1-107.4,0.2c-2.9,0-5.8-0.2-8.7-0.3c-10-0.2-16.1-7.3-17.5-16.2c-0.7-4.3-1-8.6-1-13
		c-0.5-35.8-0.8-71.6-1.5-107.4c-0.5-27.5-1.2-54.9-2.2-82.4c-0.2-6.4-1.4-13-3.1-19.2c-5.7-21.2-20-33.1-41.6-35.6
		c-20.4-2.3-39.4,2.2-57.2,12.6c-8,4.7-11.4,10.9-11.3,20.4c0.3,47.4,0.1,94.8,0.1,142.1c0,4.7-0.1,9.4,0,14.1
		c0.2,6.3,1.5,7.8,7.4,8.4c3.9,0.4,7.9,0.5,11.9,0.6c2.9,0.1,5.8,0,8.7,0c6.5,0,10.9,3.2,13.4,9.1c0.6,1.3,1.1,2.7,1.5,4
		c3.1,8.9,6.2,17.7,9.1,26.6c1.3,4.1,2.6,8.3,3.2,12.6c1.6,13.3-6.7,23.4-20.1,24.6c-2.5,0.2-5.1,0.2-7.6,0.2
		c-31.1,0.3-62.2,0.6-93.3,0.8c-5.4,0-10.9,0-16.2-0.9c-9.4-1.5-16-6.8-17.9-16.4c-1-4.9-1.5-10-1.6-15c-0.5-31.8-0.8-63.7-1.3-95.5
		c-0.3-21.7-0.6-43.4-1.2-65.1c-0.4-12.6-0.8-25.3-2.2-37.9c-2.2-20.4-15.4-40.2-41.4-43.5c-22.7-2.9-43.8,2-63.3,14
		c-1.8,1.1-3.6,2.4-5.3,3.8c-2.1,1.7-3.2,3.9-3.3,6.6c0,1.8,0,3.6,0,5.4c0,52.1,0,104.2,0.1,156.3c0,2.9,0.3,5.7,0.4,8
		c2.6,3.6,6.1,3.5,9.2,3.7c5.8,0.3,11.6,0.3,17.4,0.4c9.5,0.2,15.4,4.8,18.1,14.1c2.8,9.7,6.2,19.3,9.2,28.9c1.1,3.4,1.9,7,2.3,10.6
		c1.9,15.5-8.4,21.5-18.5,23.5c-2.4,0.5-5,0.3-7.6,0.3c-54.3,0-108.5,0-162.8,0c-2.5,0-5.1,0.1-7.6-0.2c-9.9-1.1-18.2-9.5-18.6-19.5
		c-0.2-4.3,0.5-8.7,1.6-12.8c2.5-9.8,5.6-19.4,8.3-29.2c3.3-11.8,10.5-15.8,20.5-15.6c4.7,0.1,9.4,0,14.1-0.2
		c2.4-0.1,4.8-0.8,7.5-1.3c0.4-2.5,0.9-4.6,1-6.7c1.1-30.8,0.3-178.3-1-187c-3.3-1.7-7.1-2.5-11-3c-6.4-0.8-12.9-1.7-19.4-2.3
		c-5.8-0.5-9.4-3.6-11.2-8.8c-1.4-4.1-2.4-8.3-3.6-12.5c-2.4-8.3-4.9-16.6-7.1-25c-0.9-3.5-1.5-7.1-1.5-10.7c0-9.5,6-16.4,15.5-17.8
		c2.5-0.4,5.1-0.3,7.6-0.3c26.4-0.1,52.8,0.4,79.2-0.4c14.2-0.4,24,3.7,28,18.1c0.2,0.7,0.7,1.2,1.2,1.8
		C1582.1,1113.5,1582.4,1113.6,1583.2,1114.3z"/>
	<path class="st0" d="M1206.5,1967.4c-2.3,0.8-3.6,1.2-4.9,1.8c-15.6,7.5-32.1,11-49.3,11.3c-15.9,0.3-31.8,0.6-47.6-1.9
		c-33.6-5.4-62.3-20.2-86.9-43.4c-10.2-9.6-17.3-21.2-22.6-34.1c-6.2-15.1-10.8-30.7-13.3-46.8c-2.9-18.6-5.1-37.3-4.3-56.1
		c1.1-25.7,4.2-51.3,12.9-75.6c21.1-58.6,62.7-93.1,124.6-101.9c28.6-4.1,56.9-2.4,84.6,6.8c10.6,3.6,20.9,8.1,30.6,13.7
		c1.9,1.1,3.8,2.1,6.3,3.5c1.6-3,3.2-5.7,4.6-8.6c2.9-6.1,7.7-9.4,14.5-9.6c2.2-0.1,4.3-0.2,6.5-0.2c25.3-0.1,50.6-0.3,75.9-0.4
		c4.7,0,9.4,0.2,14,1.1c8.4,1.6,13.2,7.4,13.4,15.9c0.1,3.6-0.3,7.3-1.3,10.7c-3.1,11.5-7,22.8-9.7,34.4
		c-2.6,11.1-9.9,15.4-20.2,16.2c-4.3,0.3-8.7,0.3-13,0.6c-1.7,0.1-3.4,0.7-5.6,1.1c-0.4,2.4-1,4.4-1,6.5
		c-0.1,44.1-0.7,88.2,1.6,132.3c0.6,11.2,0.6,22.4,0.6,33.6c0.2,24.9,0.6,49.9,0.2,74.8c-0.3,22.1-3.7,43.9-10.2,65.1
		c-11.8,38.1-35.5,65.7-72.6,81.2c-20.4,8.6-41.6,14-63.8,16.1c-40.5,3.9-80-0.9-118.8-13c-6.9-2.1-13.6-4.8-20.3-7.6
		c-7.3-3.1-14.5-6.5-21.6-10c-2.9-1.4-5.8-3.1-8.1-5.2c-4.8-4.4-7.3-9.8-5.8-16.5c1-4.6,1.7-9.2,2.8-13.8c2.8-12,5.4-24,8.7-35.8
		c3.3-12,13.2-17.2,25.2-13.4c5.1,1.6,9.9,4.2,14.7,6.7c9.6,4.9,19.1,10.3,28.8,15.1c13.1,6.5,27.3,9.3,41.6,11.1
		c14,1.7,28,2.2,42.1,0.2c8.7-1.2,17.1-3.1,24.9-7c13.2-6.7,20.9-17.5,22.7-32.2C1208.6,1985.7,1209.3,1977.1,1206.5,1967.4z
		 M1215.5,1799.8c-0.4,0-0.8,0-1.2,0c0-7.2,0.2-14.4,0-21.6c-0.5-17-1.4-33.9-1.8-50.9c-0.1-6-2.5-10.5-7-13.9
		c-3.1-2.4-6.6-4.6-10.2-6c-17-7-34.5-10.2-52.9-6.9c-17.5,3.1-31.9,11.1-42.7,25.4c-10.6,14-15,30.3-16.7,47.4
		c-1.9,18.4-2.4,36.7-0.5,55.1c1.1,10.9,3.2,21.4,7.1,31.6c8.1,21.2,23.2,34.3,45.4,39.2c10,2.2,20,2.3,30.2,2.1
		c12.5-0.2,24.1-3.9,35.3-9.3c8.6-4.2,13.2-10.8,13.4-20.5c0.1-7.2,0.4-14.4,0.6-21.7C1214.7,1833,1215.1,1816.4,1215.5,1799.8z"/>
	<path class="st0" d="M2615.3,1894.5c9,0.7,16.9,1.5,24.8,2c8.1,0.5,13.8,4.1,16.4,11.9c4.3,12.7,8.5,25.3,12.4,38.1
		c0.9,3,0.9,6.5,0.6,9.7c-0.6,8.4-6.8,14.8-15.2,15.9c-3.9,0.5-7.9,0.5-11.9,0.5c-36.5,0.3-73.1,0.6-109.6,0.9
		c-14.8,0.1-29.7,0.2-44.5,0c-6.1-0.1-12.3-0.4-18.4-1.4c-11.2-1.9-17.4-11-15.4-22.1c0.4-2.1,0.8-4.3,1.5-6.3
		c3.2-10.3,6.5-20.7,9.8-31c0.5-1.7,1.1-3.4,1.7-5.1c2.6-6.8,7.7-10.3,14.9-10.5c6.5-0.2,13-0.1,19.5-0.3c4.8-0.2,6.7-1.9,6.8-6.6
		c0.2-7.9,0-15.9,0-23.9c0.1-51,0.1-102,0.2-153c0-3.2,0.8-6.5-2-10.3c-5.3-0.6-11.4-1.4-17.4-2.1c-2.2-0.2-4.3-0.3-6.5-0.5
		c-9.6-1-16.1-5.5-18.7-15.3c-3.2-12.2-7.1-24.3-10.1-36.5c-1-4-0.8-8.7,0.1-12.8c1.3-6.5,5.6-10.9,12.3-12.3
		c4.6-1,9.3-1.8,13.9-1.8c25.7-0.2,51.4,0,77-0.3c12.7-0.2,21.6,4.8,26.5,16.6c0.4,1,0.9,1.9,1.5,2.9c0.2,0.3,0.6,0.4,1.7,1.1
		c2.4-1.1,5.4-2.3,8.2-3.7c18.2-9,37.2-16.2,57.1-19.9c29.7-5.4,59.6-6.7,89.3,0.6c14.8,3.6,28.6,9.9,41.5,18.2
		c20.1,13,31.9,32,39.4,54.1c3.7,11,5.8,22.4,7.2,33.9c2.7,22.3,4,44.6,4,67.1c0,29.7,0.2,59.3,0.4,89c0,3.6,0.3,7.1,0.4,9.8
		c3.2,3.7,6.6,3.3,9.8,3.5c5,0.3,10.1,0.3,15.1,1.1c6.9,1,12,4.6,14.5,11.5c1.4,4.1,3.1,8.1,4.4,12.2c2.4,7.6,4.6,15.2,6.8,22.9
		c0.6,2.1,1.2,4.2,1.5,6.3c2.3,14.6-6.9,21.8-18,23.5c-1.8,0.3-3.6,0.2-5.4,0.2c-36.2,0.1-72.3,0.1-108.5,0.2
		c-4.7,0-9.4-0.1-13.6-2.7c-4.9-3-8.2-7.1-8.3-13.1c-0.1-2.5-0.1-5.1-0.2-7.6c-0.6-42.3-1.3-84.6-1.8-126.9
		c-0.2-11.9-0.1-23.9,0-35.8c0.1-14.2-1.6-28.1-4.3-42c-0.9-4.6-2.2-9.1-4-13.5c-6.8-17.3-19.5-27.3-37.8-30.2
		c-21.2-3.4-40.9,1.1-59.6,11c-6.4,3.4-9.7,8.2-10,15.5c-0.3,7.9-1.3,15.9-1.3,23.8c-0.1,31.5-0.1,62.9,0,94.4
		c0,13.7,0.3,27.5,0.5,41.2C2614.6,1888.5,2615,1890.9,2615.3,1894.5z"/>
	<path class="st0" d="M2187.2,1825c-0.9,6.7,0.9,12.6,2.3,18.5c2.8,12.1,8,23.2,15.3,33.2c6.8,9.4,15.6,16,26.5,19.9
		c14.1,5,28.5,7.6,43.6,5.3c8.2-1.2,16.4-2,24.5-4.3c17.7-5.1,33.1-14.2,46.9-26.3c3.3-2.9,6.5-5.8,9.9-8.5
		c5.7-4.5,12.4-5.9,19.4-4.8c6.5,1,11.5,4.1,13.7,10.8c0.6,1.7,1.2,3.4,1.6,5.2c2.7,11.2,5.4,22.5,8,33.8c0.8,3.5,1.2,7.1,1.5,10.7
		c0.5,5.4-1.5,9.9-4.9,13.9c-1.4,1.7-3,3.2-4.6,4.6c-26.3,23.4-56.2,39-91.5,43.7c-16.5,2.2-33,4.3-49.7,3.9
		c-32.3-0.8-63-7.9-91.2-24.2c-21-12.2-38-28.7-50.6-49.5c-11.8-19.4-19.2-40.4-23.3-62.7c-3.1-16.7-5-33.6-4.5-50.7
		c1-35.4,7.2-69.8,23.9-101.4c21.5-40.7,54.7-66.3,99.4-77.4c29.2-7.3,58.7-8.5,88.3-3.9c32.7,5.2,61.4,18.8,83.5,44.3
		c12,13.9,19.7,30.2,25.3,47.6c9.1,28.6,11.5,58,9.9,87.9c-0.2,4-0.8,7.9-1.7,11.8c-2,8.4-7.1,14.2-15.7,16
		c-4.2,0.9-8.6,1.3-12.9,1.4c-57.9,0.1-115.8,0.1-173.6,0.1c-4.7,0-9.4-0.1-14.1,0.1C2190.8,1824.1,2189.1,1824.6,2187.2,1825z
		 M2311.6,1754.4c1.6-14.9-0.6-28.7-6.3-41.8c-5.9-13.6-15.8-23.3-30.5-26.9c-8.1-2-16.4-2.9-24.7-2.1c-11.3,1.1-22.1,3.4-31.3,10.7
		c-9.1,7.3-16.8,15.9-22.3,26.2c-5.7,10.5-9.2,21.8-10.2,34.5c3.3,0.3,6.1,0.8,8.9,0.9C2247.5,1757.1,2302.7,1756.4,2311.6,1754.4z"
		/>
	<path class="st0" d="M1812.3,1827.4c2.4,16.9,5.9,32.6,15,46.6c7,10.6,16.3,18,27.9,23.1c17.6,7.8,35.9,7.6,54.3,5.1
		c24.3-3.4,45.3-14.3,63.2-30.9c2.7-2.5,5.3-4.9,8-7.3c4.6-4,10.2-6.1,16-5.5c12.1,1.3,15.8,4.3,18.6,14.8
		c3.4,12.5,6.2,25.2,9.1,37.9c2.6,11.2-0.1,20.8-9.6,27.9c-10.8,7.9-21.2,16.4-32.4,23.6c-17,10.9-36.2,16.1-55.9,19.5
		c-16.4,2.8-33,4.6-49.6,4.2c-28.5-0.7-55.8-6-81.8-18.5c-29.4-14.2-51.1-36.1-66.8-64.4c-8.1-14.6-12.9-30.6-16.6-46.8
		c-8.6-38.4-7.8-76.8,1.1-115c4.4-18.7,11.4-36.5,21.3-53.1c17.9-30,43.7-50.5,76.1-63.1c17.1-6.6,34.8-9.6,52.9-10.6
		c12.6-0.7,25.3-0.9,37.9-0.1c27.9,1.7,53.9,9.3,77,25.9c22.6,16.2,37.7,37.7,46.3,63.8c10.2,31.3,13,63.6,10.7,96.3
		c-0.2,3.2-0.9,6.5-2,9.5c-3,8.2-9,12.9-17.8,13.8c-3.6,0.4-7.2,0.2-10.8,0.2c-60,0.2-120,0.4-180.1,0.6
		C1820.7,1825,1816.6,1824.5,1812.3,1827.4z M1936.4,1756.6c1.8-16.6-0.8-30.9-6.8-44.7c-5.4-12.3-14.8-20.1-27.5-24.2
		c-7.7-2.5-15.6-2.5-23.6-2.4c-22.4,0.1-39.2,10.2-51.7,28.5c-7.7,11.2-11.6,23.9-14.5,37c-0.4,1.6,0.2,3.5,0.2,4.9
		c3.5,2.8,7.3,2,10.8,2c34.3-0.1,68.5-0.1,102.8-0.3C1929.4,1757.4,1932.5,1756.9,1936.4,1756.6z"/>
	<path class="st0" d="M1174.5,1059.2c-0.1,2.5-0.4,5.7-0.4,8.9c0,80.6,0.1,161.3,0.1,241.9c0,13.4-0.1,26.8-0.1,40.1
		c0,2.5,0,5.1,0.2,7.6c0.3,3,1.9,4.6,4.9,4.8c5.4,0.3,10.9,0.1,16.3,0.5c5,0.4,10,1.1,15,2.1c4.6,0.9,7.6,3.9,9.4,8.2
		c0.4,1,0.9,2,1.3,3c4,13.1,8.1,26.2,12,39.4c0.7,2.4,1.2,4.9,1.4,7.4c0.6,13.6-7.2,21-19.3,23.2c-2.5,0.4-5,0.2-7.6,0.2
		c-60,0-120.1,0-180.1,0c-1.4,0-2.9,0.1-4.3,0c-10.1-0.5-17-6.9-17.6-17c-0.2-3.9-0.1-8.1,1-11.8c3.6-12.5,7.6-24.9,11.5-37.3
		c2.7-8.5,8.1-13.4,17.3-13.8c6.9-0.3,13.7-0.9,20.5-1.4c2.1-0.2,4.2-0.6,6-0.8c3-3.5,2.1-7.3,2.2-10.8c0.1-16.3,0-32.5,0-48.8
		c0-77.7,0-155.5,0-233.2c0-3.9,0.8-7.9-1.4-12.5c-2.4-0.3-5.1-0.8-7.9-1.1c-7.5-0.7-15.1-1.3-22.6-2.1c-8.1-0.8-13.3-5.3-15.6-13
		c-4.2-14.2-8.6-28.3-12.1-42.7c-2.7-11,6.8-22.8,18.1-23.8c2.2-0.2,4.3-0.1,6.5-0.1c58.6-0.1,117.2-0.2,175.7-0.3
		c3.6,0,7.2-0.1,10.8,0.2c12.1,1,20.3,11.3,18.6,23.3c-0.5,3.2-1.4,6.3-2.3,9.5c-2.4,8.7-4.8,17.4-7.2,26.1c-0.6,2.1-1,4.2-1.6,6.3
		c-3.2,9.8-7.8,13.6-18,14.2c-6.5,0.4-13,0.2-19.5,0.5C1182,1056.4,1178.2,1055.8,1174.5,1059.2z"/>
	<path class="st0" d="M1537.9,1649.7c3.8-2.1,6.3-3.3,8.7-4.9c19.5-13.2,41.2-20.4,64.4-24c11.9-1.9,23.7-2.1,35.6-2.1
		c1.1,0,2.2,0,3.3,0.1c14.1,0.7,17.2,3.1,21,17.1c2,7.3,3.6,14.7,5.4,22.1c2.8,11.2,5.6,22.4,8.3,33.6c0.7,2.8,1.3,5.7,1.3,8.5
		c0,8.6-6.2,15.2-14.7,15.6c-3.9,0.1-7.9-0.5-11.8-1.2c-11-2-21.9-4.6-32.9-6.3c-18.6-3-35.8,1.5-52.2,10c-7,3.6-11,9.2-10.7,17.4
		c0.1,2.2-0.1,4.3-0.1,6.5c0.2,47.4,0.5,94.7,0.7,142.1c0,2.5,0.1,5.1,0.2,7.6c0.3,4.6,3,7.3,7.3,8.3c2.4,0.6,5,0.6,7.5,0.7
		c6.5,0.2,13,0.2,19.5,0.4c7.2,0.3,12.3,3.9,15.1,10.5c1.8,4.3,3.1,8.8,4.5,13.3c2.6,8.3,5.3,16.5,7.6,24.8c1,3.4,1.8,7.1,1.7,10.6
		c-0.2,8.4-4.9,14.3-13.1,16.4c-3.8,1-7.8,1.3-11.8,1.3c-48.8,0-97.6-0.1-146.4-0.2c-8.3,0-16.6,0.1-24.9-0.1
		c-3.9-0.1-7.9-0.7-11.8-1.2c-9.3-1.1-15.9-10.4-15-20.6c0.1-1.1,0.1-2.2,0.5-3.2c4-13.1,7.9-26.3,12.1-39.3
		c2.6-8.2,8.6-12.2,17.2-12.2c3.3,0,6.5,0,9.8,0c3.9-0.1,7.9-0.2,11.3-0.2c3.5-4,2.8-8.1,2.8-12c0.1-17,0-34,0.1-51
		c0-39,0.1-78.1,0.2-117.1c0-2.9,0.1-5.8-0.2-8.7c-0.4-4.7-1.9-6.3-6.7-7c-6.4-0.9-12.9-1.8-19.4-2.2c-9.2-0.6-14.4-5.3-16.9-14.1
		c-3.2-11.5-6.8-22.8-10.2-34.3c-0.4-1.4-0.6-2.8-0.8-4.3c-2-13.2,5.2-22.8,18.3-24.5c2.1-0.3,4.3-0.2,6.5-0.2
		c26.8-0.1,53.5-0.2,80.3-0.2c2.5,0,5.2-0.2,7.6,0.4c8.1,2.1,14.6,6.2,17.4,14.6C1535.3,1643.3,1536.4,1645.9,1537.9,1649.7z"/>
	<path class="st0" d="M1411.4,1016c-1.9,33.6-15.3,63-39,87.5c-14.1,14.5-29.6,27.6-47.6,37.4c-2.5,1.4-5.1,2.7-7.6,4.2
		c-5.1,3-9.7,1.8-14.1-1.4c-3.7-2.6-6.4-6-7.9-10.1c-3.5-9.8-6.7-19.8-10.2-29.7c-2.3-6.5-0.6-12.2,3.4-17.2
		c3.2-3.9,6.7-7.6,10.5-10.9c11.3-9.7,13.2-21.9,9.3-35.4c-1.7-5.9-4.3-11.5-6.6-17.2c-2.2-5.3-4.7-10.6-6.9-15.9
		c-2.4-5.7-3.3-11.8-3.6-18c-0.5-9.8,3.5-17.5,11.3-23.3c7.4-5.5,15.8-8.9,24.7-10.7c12.4-2.6,24.9-3.2,37.6-1
		c25.5,4.5,42.9,22.2,45.8,47.8C1411,1006.5,1411.1,1010.9,1411.4,1016z"/>
	<path class="st0" d="M2914.4,1623.9c2.6-0.1,5.1-0.3,8-0.4c6.6,10.6,7.8,23.1,12.6,34c3.4-0.1,3.8-2.4,4.3-4.4
		c2.6-9.8,5.3-19.5,9.8-29.2c2.7-0.2,5.4-0.3,7.7-0.5c0.9,1.1,1.7,1.6,1.8,2.2c0.5,2.8,1,5.7,1.1,8.5c0.2,10.1,0.1,20.2,0.2,30.4
		c0,1.4,0.2,3-0.3,4.3c-0.5,1.1-1.9,2.5-2.9,2.5c-1.1,0.1-3-1.2-3.2-2.1c-0.5-3.2-0.4-6.5-0.6-9.7c-0.3-6.8,0.4-13.6-0.7-20.4
		c-3,0.1-3.3,2.2-3.8,3.7c-2.4,6.4-4.5,12.9-6.7,19.4c-0.6,1.7-0.7,3.6-1.6,5.2c-0.8,1.4-2.2,3.1-3.7,3.5c-2.6,0.7-3.7-1.7-4.5-3.7
		c-0.7-1.7-1.1-3.4-1.7-5.1c-1.9-5.8-3.9-11.7-5.9-17.4c-0.7-2-1.7-3.9-2.6-5.7c-3.1,0.4-2.5,2.6-2.5,4.2c-0.1,7.6,0,15.2-0.1,22.8
		c-0.1,3.9-1.4,6-3.4,5.5c-2.8-0.6-2.8-3.1-2.8-5.1c0.1-12.6,0.2-25.3,0.5-37.9C2913.2,1626.9,2913.9,1625.5,2914.4,1623.9z"/>
	<path class="st0" d="M2891.1,1629.2c-0.3,3-0.8,5.8-0.8,8.6c0,8.3,0.1,16.5,0.2,24.8c0,1.8,0,3.6-0.1,5.4c-0.3,3.2-1.1,3.5-6.9,2.9
		c-1.8-13.6,0.9-27.7-1.2-41.8c-4.4-0.3-7.9-0.5-11.4-0.8c-1.2-0.1-1.5-0.8-1.9-4c8.1-1.5,26.4-1.4,33.9,0.3
		c0.8,2.4-0.8,3.2-2.6,3.6C2897.4,1628.6,2894.6,1628.8,2891.1,1629.2z"/>
</g>
<g>
	<path class="st0" d="M5240.5,1961.1c-2.9,0.1-5.9,0.2-8.8,0.2c-147.6,0-295.2,0.1-442.8,0.1c-144.1,0-288.2,0-432.3,0
		c-215.5,0-431,0-646.5,0c-14.8,0-29.5,0-44.3,0c-2.1,0-4.3,0.3-6.2-0.7c-0.6-1.5,0-2.7,0.5-4c2.2-5.5,4.5-10.9,6.7-16.4
		c10.1-24.9,18.2-50.5,23.7-76.8c3.1-15,5.9-30,7.4-45.2c0.8-8.3,1.5-16.6,1.8-24.9c0-1.3,0.2-2.7,0.4-4.3c1.3-1.8,2.6-3.8,4-5.7
		c8.4-11.2,15.8-23,22.6-35.2c18-32.3,31.6-66.3,41.1-102c3-11.4,5.8-22.9,7.5-34.6c0.2-1.3,0.6-2.6,1.9-3.6c2.4-1,5.1-0.6,7.8-0.6
		c14,0,27.9,0,41.9,0c171.8,0,343.5,0,515.3,0c158.3,0,316.7,0,475,0c135.3,0,270.5,0,405.8,0c4,0,8.1,0,12.1-0.1
		c1.9,0,3.7-0.4,5.6-0.6C5240.5,1724.9,5240.5,1843,5240.5,1961.1z M3788.1,1887.1c1.5,0.4,2.2,0.8,3,0.8c13.1,0,26.3,0,39.4-0.1
		c1,0,2-0.6,2.8-0.8c1.3-2.9,0.8-5.6,0.8-8.2c0-13.1,0-26.3,0-39.4c0-2.4,0-4.8,0.1-7.2c0.1-1,0.6-2,0.9-3c1.3-0.2,2.3-0.5,3.4-0.5
		c11.5-0.1,23.1-0.1,34.6,0c1.3,0,2.6,0.4,4,0.7c1.7,2.6,3.3,5.1,4.9,7.5c9.8,15.4,19.7,30.7,29.5,46c1.2,1.8,2.1,3.8,4.2,4.8
		c5.8,0.5,32.1,0.7,46.6,0.3c0.4,0,0.8-0.5,1.4-0.9c-0.2-0.7-0.2-1.5-0.6-2.1c-8.2-12.6-16.5-25.1-24.7-37.7
		c-5-7.6-9.9-15.3-14.9-23c-0.8-1.3-2-2.5-1.8-4.6c1.4-2.2,4.1-3.1,6.3-4.4c14.4-8.8,23.8-21.4,28.7-37.4
		c4.9-15.9,4.4-31.8-0.2-47.6c-3.1-10.5-8.5-19.6-16.3-27.4c-5-4.9-10.6-9-16.9-12.2c-12.6-6.5-25.9-10.1-40.2-10
		c-29.2,0-58.5,0-87.7,0c-1.6,0-3.2,0-4.8,0.2c-0.7,0.1-1.5,0.5-1.9,0.6c-0.4,0.5-0.7,0.7-0.7,0.9c-0.8,66.2-0.2,132.5-0.4,198.7
		C3787.8,1883,3788,1884.8,3788.1,1887.1z M4966.3,1681.2c-1.1,3.5-0.8,6.5-0.8,9.4c0,61.2,0,122.4,0,183.5c0,3.2,0,6.4,0.1,9.7
		c0,1,0.4,2,0.6,3.2c1.2,0.3,2.2,0.7,3.2,0.8c2.1,0.1,4.3,0.1,6.4,0.1c45.3,0,90.7,0.1,136,0.1c1.9,0,3.8,0,5.6-0.2
		c1-0.1,1.9-0.8,2.6-1.1c0.2-0.7,0.4-0.9,0.4-1.2c0.1-11.3,0.1-22.5,0.1-33.8c0-0.7-0.6-1.4-1-2.2c-2.8-1.2-5.8-0.7-8.7-0.7
		c-29.2,0-58.5,0-87.7,0.1c-2.7,0-5.4,0-8-0.1c-1.1,0-2.1-0.4-3-1.9c-0.1-1.3-0.3-3.2-0.3-5c0-6.2,0-12.3,0-18.5
		c0-5.9,0-11.8,0.1-17.7c0-1.3,0.1-2.7,1.5-3.9c2.3-0.7,5-0.4,7.6-0.4c17.4,0,34.9,0,52.3,0c8.6,0,17.2,0,25.8-0.1
		c1.3,0,2.7,0.1,3.8-1c0.2-0.5,0.7-0.9,0.7-1.4c0.1-11,0.1-22,0-33c0-0.7-0.7-1.4-1.1-2.1c-3-0.9-5.9-0.5-8.9-0.5
		c-23.6,0-47.2,0-70.8,0c-2.4,0-4.8,0-7.2-0.1c-1,0-2.2,0-3.3-1.5c-0.1-0.5-0.4-1.5-0.4-2.5c-0.1-3.8-0.1-7.5-0.1-11.3
		c0-8,0-16.1,0-24.1c0-1.3,0-2.7,1.4-3.8c2.4-0.9,5.1-0.5,7.8-0.5c28.4,0,56.9,0,85.3,0c2.4,0,4.8,0.1,7.2-0.1
		c1-0.1,1.9-0.6,2.8-0.9c0.6-5.3,0.7-29.7,0.1-35.7c0-0.5-0.5-0.9-0.8-1.3c-0.5-0.2-1-0.6-1.4-0.6c-47.8-0.1-95.5-0.2-143.3-0.2
		C4969.5,1680.8,4968.2,1681,4966.3,1681.2z M4148.1,1681.9c-3.1-1.7-5.8-1.1-8.4-1.1c-44,0-88,0-132,0c-2.4,0-4.8,0-7.2,0.2
		c-1,0.1-1.9,0.7-2.8,1.1c-0.1,1.6-0.3,3-0.3,4.3c0,66,0,132,0.1,198c0,0.8,0.3,1.6,0.5,2.6c0.9,0.3,1.8,0.9,2.8,1
		c2.1,0.2,4.3,0.2,6.4,0.2c29.5,0,59,0,88.5,0c16.4,0,32.7,0,49.1,0c2.1,0,4.3,0.5,6.2-0.7c0.3-0.5,0.9-0.9,0.9-1.3
		c0.2-9.9,0.3-19.8,0.4-29.7c0-2.1,0.3-4.3-0.9-6.5c-0.6-0.2-1.3-0.7-2.1-0.8c-2.1-0.2-4.3-0.2-6.4-0.2c-29.8,0-59.6,0-89.3,0
		c-2.1,0-4.3,0-6.4-0.1c-1.1,0-2.1-0.2-3.2-1.7c-0.1-0.8-0.3-2.1-0.4-3.4c-0.1-2.9,0-5.9,0-8.9c0-9.4,0-18.8,0.1-28.2
		c0-1.6-0.2-3.3,1.6-4.7c2.5-0.8,5.5-0.4,8.4-0.4c24.1,0,48.3,0,72.4,0c2.1,0,4.3,0.1,6.4-0.1c1-0.1,1.9-0.6,2.8-0.9
		c0.7-5.6,0.8-28.5,0.2-34.9c0-0.5-0.5-0.9-1-1.7c-2.6-0.8-5.5-0.4-8.4-0.5c-23.9,0-47.8,0-71.6-0.1c-2.4,0-4.8,0-7.2-0.1
		c-1-0.1-1.9-0.6-3.1-1c-0.1-2.6-0.3-5-0.3-7.4c0-8.3,0-16.6,0-25c0-2.4-0.1-4.8,0.1-7.2c0.1-1,0.7-1.9,1.1-3
		c2.7-0.1,5.1-0.2,7.5-0.2c28.2,0,56.3,0,84.5,0c2.7,0,5.4,0,8-0.1c1.1,0,2.1-0.2,2.8-1.2c0.2-0.5,0.5-1,0.5-1.5
		c0.1-9.9,0.1-19.8,0.1-29.8C4148.4,1685.5,4148.2,1683.9,4148.1,1681.9z M4759.2,1715.5c-0.3-1.4-0.2-2-0.5-2.4
		c-0.9-1.3-1.8-2.7-2.9-3.9c-14.3-15.3-31.6-25.4-52.2-29.9c-6.6-1.4-13.3-2-20-2.2c-12.1-0.4-24.1,0.5-35.9,3.8
		c-26.8,7.5-47.6,23.1-61.7,47.1c-9.5,16-13.9,33.6-14.4,52.2c-0.6,22.6,4.4,43.6,16.4,62.9c5.7,9.2,12.7,17.3,21,24.2
		c19.1,15.8,41.3,23.5,65.9,24.3c10.2,0.3,20.4-0.8,30.3-3.2c20.7-5,38.2-15.4,51.5-32.2c0.8-1,1.4-2.2,2.3-3.5
		c-0.9-1.2-1.6-2.3-2.6-3.2c-8.2-7.7-16.5-15.4-24.8-23c-0.5-0.5-1.4-0.6-2.3-0.9c-0.8,0.7-1.7,1.3-2.4,2.1
		c-1.7,1.7-3.3,3.5-5.1,5.2c-9.1,8.9-19.8,14.7-32.4,16.4c-4.5,0.6-9.1,0.7-13.6,0.6c-11.8-0.4-22.6-4.1-32.2-11.2
		c-11.9-8.8-19.4-20.6-23.2-34.8c-2.5-9.4-3-19-2-28.7c1.4-14.3,6.7-26.9,16.2-37.8c7.1-8.1,15.9-13.5,26.3-16.3
		c9.4-2.5,19-3,28.7-1.7c8.6,1.2,16.7,4,24,8.8c4.7,3.1,8.8,7,12.7,11.1c1.1,1.1,1.9,2.6,3.7,2.8c0.5-0.2,1.1-0.2,1.5-0.5
		C4740.8,1732.9,4749.9,1724.3,4759.2,1715.5z M4364.1,1714.3c-0.8-2.5-2.8-4.3-4.6-6.2c-16.5-17.4-36.8-27.6-60.6-30.2
		c-15.3-1.7-30.5-0.9-45.5,3.2c-17.7,4.8-33.3,13.5-46.2,26.5c-12.7,12.8-21.5,28.1-26.2,45.5c-5.8,21.4-5.7,43.1,0.8,64.3
		c7.9,25.9,23.5,46.2,47.1,59.9c16.4,9.5,34.1,14,53,14.4c6.2,0.2,12.3-0.5,18.4-1.3c25.8-3.3,46.6-15.3,63-35.2
		c0.7-0.8,1.2-1.8,0.8-3c-0.3-0.4-0.5-0.9-0.9-1.3c-8.7-8.3-17.5-16.6-26.3-24.9c-0.5-0.5-1.4-0.6-2.3-0.9c-2.3,2.4-4.4,4.8-6.7,7
		c-7.1,7.1-15.3,12.6-25.1,15.5c-6.2,1.8-12.6,2.4-19.1,2.4c-26,0-47-17-55.1-37.6c-2.8-7.1-4.2-14.3-4.9-21.9
		c-1.1-11.1,0.1-22.1,3.8-32.5c7-19.5,20.4-32.4,40.8-37.5c7.9-2,15.8-2.2,24-1.4c11,1.2,20.8,5,29.4,11.8c3.1,2.5,6,5.3,9,8.1
		c1.4,1.3,2.6,2.6,3.9,3.8c0.7-0.3,1.4-0.4,1.7-0.7c9.1-8.7,18.2-17.4,27.3-26.2C4363.8,1715.6,4363.8,1715,4364.1,1714.3z
		 M4371.1,1681.4c-0.7,1.5,0.2,2.5,0.9,3.7c5.5,9.5,11.1,19,16.6,28.5c18.5,31.7,37,63.4,55.5,95.2c0.8,1.4,1.5,2.8,2.5,4.6
		c0,5.8,0,12,0,18.2c0,6.2,0,12.3,0,18.5s-0.1,12.3,0.1,18.5c0.1,6.1-0.6,12.3,0.5,18.7c1.3,0.3,2.6,0.8,3.9,0.8
		c12.6,0,25.2,0,37.8,0c1.4,0,2.7-0.3,4.1-2.1c0.1-7.6,0-15.9,0.1-24.2c0-8,0-16.1,0-24.1c0-8.3-0.3-16.6,0.2-25
		c1-1.8,2.1-3.7,3.1-5.6c21.4-36.6,42.7-73.1,64.1-109.7c2.4-4.2,4.8-8.4,7.2-12.6c0.5-0.9,1-1.9,0.6-3c-1.1-1.1-2.4-0.9-3.7-0.9
		c-20.9-0.6-35-0.4-41.3,0.8c-0.8,1.3-1.9,2.9-2.8,4.5c-5.6,9.5-11.1,19-16.6,28.5c-10,17.1-20.1,34.2-30.2,51.3
		c-0.6,1.1-1,2.5-3.4,2.8c-3.5-5.3-6.7-11.1-10.1-16.8c-3.6-6-7-12-10.5-18.1c-3.4-5.8-6.7-11.6-10.1-17.4c-3.5-6-7-12.1-10.7-18
		c-3.5-5.7-6.3-11.8-10.3-17.1c-1-0.2-1.8-0.5-2.6-0.5c-14.5,0-29,0.1-43.4,0.2C4372.1,1680.9,4371.6,1681.3,4371.1,1681.4z
		 M4838.5,1847.5c-0.3-1.3-0.7-2.3-0.7-3.3c-0.1-2.4-0.1-4.8-0.1-7.2c0-48.5,0-97.1-0.1-145.6c0-2.4,0.1-4.8-0.1-7.2
		c-0.1-1-0.6-2-1-3.1c-2.3-0.1-4.4-0.3-6.6-0.3c-7,0-13.9,0-20.9,0c-4.8,0-9.7,0-14.5,0.2c-1,0-1.9,0.6-2.8,0.9
		c-1,3.2-0.6,6.2-0.6,9.1c0,61.4,0,122.8,0,184.2c0,2.9,0,5.9,0.1,8.8c0,1,0.3,2.1,0.5,2.9c2.7,1.8,5.4,1.2,8,1.2
		c42.4,0,84.7,0,127.1,0c2.4,0,4.8,0,7.2-0.2c1-0.1,1.9-0.7,2.7-1c0.7-5.6,0.9-29.6,0.3-36.4c0-0.5-0.5-0.9-0.9-1.5
		c-2.7-1.2-5.6-0.7-8.5-0.7c-26.5,0-53.1,0-79.6,0C4845.2,1848.2,4842.2,1848.5,4838.5,1847.5z"/>
	<path class="st0" d="M4808.7,1579.1c-341.9,0-683,0-1024.2,0c-1.1,0-2.1-0.2-2.9-0.3c-1.5-1-1.7-2.4-1.7-3.7
		c0.2-4.3,0.3-8.6,0.6-12.9c1.1-14.5,1.2-28.9,0-43.4c-0.1-1.6-0.3-3.2-0.3-4.8c-0.8-17.2-3.2-34.2-6.7-51
		c-3.7-18.4-8.6-36.5-14.3-54.5c-5.4-16.9-12.1-33.3-19.6-49.3c-16.9-36.7-38.4-70.7-63.9-102.1c-8.8-10.8-18-21.3-27.9-31.2
		c-2.1-2.1-4.4-4-5.7-6.7c-0.2-2.5,1-4.6,1.9-6.8c7.5-19.3,16.8-37.7,26.9-55.8c7-12.4,14.3-24.6,22.3-36.4
		c14.7-21.8,30.3-43,48.2-62.3c7.8-8.5,15.7-16.9,24-25c20.3-20,42.1-38.2,65.4-54.7c34.7-24.6,71.6-45.2,110.5-62.5
		c20.1-8.9,40.7-16.7,61.6-23.7c27.5-9.2,55.5-16.5,83.9-22.5c20.5-4.4,41.1-7.8,61.8-10.9c6.9-1,13.9-1.5,20.8-2.3
		c6.7-0.7,13.3-1.3,20-1.9c5.1-0.5,10.2-0.9,15.2-1.3c29.7-2.3,59.5-1.9,89.3-1.9c194.3,0,388.6,0,582.9,0c92.6,0,185.2,0,277.8,0
		c3.2,0,6.4,0,9.7,0.1c1.3,0,2.6,0.4,4.1,0.6c0.3,1.2,0.7,2.2,0.7,3.2c0.1,1.6,0.1,3.2,0,4.8c-0.4,7.5-0.8,15-1.4,22.5
		c-0.7,9.1-1.5,18.2-2.5,27.2c-1.2,11.5-2.4,22.9-3.9,34.4c-2.5,18.6-5.1,37.2-8.7,55.6c-2.7,14.2-5.3,28.5-8.8,42.5
		c-2.7,10.9-5.5,21.9-8.2,32.8c-4.6,18.2-9.7,36.3-15.4,54.2c-6.7,21.2-14.6,42.1-22.8,62.8c-10.6,27-22.5,53.4-35.7,79.2
		c-27,52.7-58,102.8-94.4,149.5c-19.8,25.4-40.9,49.8-63.3,72.9c-3.2,3.3-6.2,6.7-9.4,9.9c-23.8,24.1-49.3,46.3-75.7,67.5
		C4815.6,1573.8,4812.2,1576.4,4808.7,1579.1z M4845.6,1419.1c0.7-1.4,0-2.5-0.7-3.7c-5.2-8.5-10.4-16.9-15.6-25.4
		c-2.7-4.3-5.4-8.6-8.1-13c-10-16.5-20-33-30-49.6c-7.5-12.4-14.9-24.9-22.3-37.3c-0.8-1.4-1.3-2.9-2-4.2c0.4-0.9,0.8-1.7,1.2-2.5
		c3.7-1.9,7.6-3.8,11.3-5.9c3-1.7,6.1-3.5,8.9-5.5c11.2-8.2,20.3-18.2,27.5-30.1c5.6-9.2,10.1-18.9,13.3-29.2
		c3.3-10.4,3.6-21.1,4.7-31.7c0.1-0.8-0.1-1.6-0.2-2.4c-0.3-3.7-0.6-7.5-0.9-11.2c-0.1-1.6-0.1-3.2-0.4-4.8
		c-2.7-16-8-31.2-16.5-45.1c-8.5-13.9-19.7-25.4-33.4-34.3c-17.3-11.3-36.4-17.1-57-17.2c-48-0.2-96.1-0.1-144.1-0.1
		c-2.7,0-5.4,0-8,0.1c-1.4,0-2.7,0.4-3.6,1.7c-0.9,2.8-0.6,5.7-0.6,8.7c0,25.8,0,51.5,0,77.3c0,83.7,0,167.5,0,251.2
		c0,3.8,0,7.5,0.2,11.3c0,1,0.6,2,0.9,2.7c2.4,1.2,4.5,1,6.7,1c12.9,0,25.8,0,38.6,0c1.3,0,2.7,0,4-0.2c1-0.1,2-0.6,2.6-0.8
		c1.5-2.7,1-5.1,1-7.5c0.1-12.6,0-25.2,0.1-37.8c0-23.6,0-47.2,0-70.9c0-2.7-0.5-5.4,1-8.2c0.7-0.3,1.6-1,2.6-1.2
		c2.1-0.3,4.3-0.3,6.4-0.3c22,0,44-0.1,66-0.1c1.9,0,3.8,0,5.6,0.1c1.9,0.1,3.7,0.5,5.9,2.4c1.5,2.5,3.5,5.6,5.4,8.8
		c1.2,2.1,2.4,4.2,3.6,6.3c8.1,13.3,16.2,26.6,24.3,39.9c13.1,21.6,26.1,43.2,39.1,64.7c0.9,1.6,2.3,2.9,3.3,4.2
		c1.4,0.2,2.5,0.5,3.5,0.5c18,0,36,0,53.9-0.1C4844.6,1419.6,4845.1,1419.3,4845.6,1419.1z M3912.6,1066.7c-0.2,2.9-0.4,5-0.4,7.1
		c-0.1,7.8-0.1,15.6-0.1,23.3c0,103.6,0,207.2,0,310.7c0,2.7,0,5.4,0.2,8c0.1,1,0.6,2,0.8,2.7c2.6,1.6,5.1,1.2,7.4,1.2
		c11.8,0,23.6,0,35.4,0c2.1,0,4.3,0,6.4-0.1c1-0.1,2-0.5,3.1-0.8c0.3-1.2,0.7-2.2,0.8-3.2c0.1-2.4,0.1-4.8,0.1-7.2
		c0-24.4,0-48.8,0-73.3c0-11,0-22,0-33c0-2.1-0.3-4.3,1.3-6.3c1.4-1.2,3.3-1.3,5.2-1.3c7.2,0,14.5,0,21.7,0c25,0,49.9-0.1,74.9,0
		c7.3,0,14.5-0.8,21.5-2.4c13.5-3,26-8.1,37.2-16.6c4.9-3.7,9.5-7.9,13.9-12.2c9.6-9.3,16.4-20.5,21.9-32.5
		c4.4-9.6,7.6-19.6,9.4-29.9c1.3-7.1,1.8-14.4,1.9-21.6c0.1-5.6-0.5-11.3-1.4-16.8c-2.4-14.7-6.8-28.7-14.5-41.5
		c-6.4-10.6-13.7-20.3-23.2-28.6c-13.2-11.6-28.4-19.1-45.3-23.5c-8-2.1-16.3-3-24.7-3c-44.3,0-88.6,0-132.8,0
		c-5.1,0-10.2,0-15.3,0.1C3916.5,1066,3915,1066.4,3912.6,1066.7z M4474.2,1316.1c-1.5,2.6-2.6,4.4-3.7,6.3
		c-8.1,14.2-18.9,26-32.5,35.2c-16,10.8-33.9,15.9-52.9,17.5c-10.2,0.8-20.3-0.2-30.4-2.4c-10.6-2.3-20.5-6.3-29.9-11.6
		c-9.6-5.5-18.4-12.1-25.9-20.2c-2.2-2.4-4.1-4.9-6.2-7.4c-10.7-12.7-18.1-27.2-23.3-42.9c-4.9-14.8-7.7-30.1-7.1-45.9
		c0.1-2.9,0-5.9,0.1-8.9c0.1-5.4,0.5-10.7,1.3-16c2-13.9,5.9-27.2,11.7-40c6.8-15.1,15.8-28.6,27.9-40c8.3-7.8,17.7-14,27.9-18.8
		c12.7-6,26.3-9.1,40.5-9c5.6,0,11.3,0.1,16.9,0.1c3.2,0,6.4,0.5,9.6,1.1c11.2,2.1,21.5,6.4,31.6,11.5c6.8,3.4,12.6,8.1,18.3,13
		c2,1.7,3.9,3.7,5.6,5.8c5.7,6.8,10.9,14,15.2,21.8c0.5,0.9,1.3,1.6,1.8,2.2c0.9-0.1,1.5,0,1.9-0.2c11.1-7.5,22.3-14.9,33.3-22.5
		c2.4-1.6,5-3.1,6.7-5.2c0.3-2.7-1.2-4.4-2.2-6.2c-6.6-11.2-14.9-21-24.2-30c-9.5-9.3-20.1-16.9-31.8-23c-8.8-4.6-18.1-8-27.6-11
		c-2.3-0.7-4.7-1.2-7-1.7c-7.6-1.7-15.2-3.4-23-3.6c-0.5,0-1.1-0.1-1.6-0.2c-4-0.9-8-1-12-1c-8.3,0-16.6,0-24.9,1.1
		c-5.8,0.8-11.7,1.4-17.5,2.6c-22.9,4.7-43.9,14-62.6,28.2c-3,2.3-6,4.5-8.7,7.1c-10.3,9.8-20.5,19.7-28.5,31.6
		c-6.6,9.8-12.8,19.8-17.2,30.9c-2.1,5.2-4,10.5-6.1,15.8c-3.6,9.3-5.7,19-7.7,28.7c-0.9,4.2-1.6,8.5-1.7,12.7
		c-0.3,17.1-1.6,34.3,1.5,51.4c0.8,4.5,1.3,9,2.5,13.4c5.1,19.3,12,37.8,22.4,54.9c8.1,13.4,18.1,25.3,28.9,36.5
		c2.4,2.5,5.4,4.5,7.9,6.8c9.8,8.9,20.7,16.1,32.5,22.2c11.5,6,23.8,9.8,36.3,12.8c7.3,1.7,14.7,3.1,22.2,3.3
		c9.7,0.3,19.3,0.1,29,0.1c1.6,0,3.2,0,4.8-0.3c9.3-1.5,18.5-3.1,27.6-5.6c13-3.6,25.4-8.6,37-15.5c7.2-4.2,14-8.9,20.5-14.1
		c11.4-9.1,21.1-19.8,29.2-31.9c2.5-3.8,4.6-7.9,6.7-11.9c0.5-0.9,0.6-2,0.9-3.1c-0.9-0.8-1.6-1.7-2.5-2.2
		C4502.4,1330.8,4488.8,1323.4,4474.2,1316.1z"/>
	<path class="st0" d="M3612.5,1384.4c-0.4,1.4-0.1,2.6,0.6,3.9c5.9,10.9,10.3,22.4,15,33.8c9.1,22.4,15.8,45.6,21,69.2
		c2.7,12.3,5.5,24.6,7.2,37.1c1.4,10.6,2.9,21.3,4.1,31.9c1.1,9.9,2,19.8,2.2,29.7c0,1.3,0.4,2.6-1,3.8c-0.5-0.6-1.1-1-1.4-1.7
		c-2.8-5.8-5.6-11.6-8.5-17.4c-11.9-24.4-26.3-47.4-42.3-69.3c-14.9-20.5-31.3-39.6-49.5-57.1c-19.6-18.8-40.2-36.3-63.2-51
		c-5-3.2-9.8-6.6-14.7-10c-0.2-1.8-0.5-3.3-0.4-4.9c0.7-9.1,1.5-18.2,2.4-27.3c1.3-12,2.8-24,4.2-36c0.8-6.7,1.3-13.3,2.2-20
		c1.5-12,1.5-24.1,2.3-36.1c0.6-9.9-0.3-19.8-0.8-29.8c-0.9-16.1-3-32-5.9-47.9c-2.2-12.2-4.9-24.2-8.4-36c-0.5-1.5-0.6-3.2-0.8-4.7
		c0-0.2,0.3-0.4,0.4-0.6c1.1-0.6,2.1,0,3,0.4c11.5,4.5,22.8,9.4,33.7,15.3c24.8,13.5,48.5,28.7,70.6,46.3
		c26.4,20.9,50.1,44.6,71.4,70.6c22.6,27.6,41.1,57.6,56.5,89.7c10.6,22.1,19.3,44.8,25.8,68.4c4.8,17.3,8.8,34.8,11.4,52.7
		c1.9,13.3,3.1,26.7,4,40c0.8,12.3,0.8,24.7-0.4,37c-0.6,6.1-1,12.3-1.5,18.4c-1.1,11.5-3.3,22.8-5.8,34.1
		c-3.2,14.7-6.4,29.4-11,43.7c-7.1,22-15.9,43.3-26.9,63.7c-2.3,4.2-4.9,8.3-7.4,12.4c-0.3,0.5-1.3,0.5-2.3,0.9
		c-0.5-4.9-0.4-9.4,0.2-13.9c3.8-30.2,5-60.5,3.8-90.8c-0.8-21.2-2.4-42.3-6-63.3c-5.5-32.7-14.6-64.4-27.4-94.9
		c-11.4-27.1-25.8-52.5-43.8-75.8c-3.9-5.1-7.7-10.3-12.6-14.6c-0.1,0-0.3-0.1-0.4-0.1C3612.2,1384.4,3612.4,1384.4,3612.5,1384.4z"
		/>
	<path class="st0" d="M3835,1788.7c-0.4-1.5-0.7-2.3-0.7-3c0-20.9,0-41.8,0-62.6c0-0.8,0.4-1.5,0.6-2.6c0.9-0.2,1.9-0.7,2.9-0.7
		c13.4-0.1,26.8-0.1,40.2,0c4.9,0,9.5,1.2,14.1,2.9c10.9,4,17.9,11.4,20.4,22.9c1.6,7.2,1.6,14.3-0.7,21.4
		c-2.1,6.6-6,11.9-11.8,15.7c-5.5,3.6-11.5,5.6-18,6.3c-2.4,0.2-4.8,0.3-7.2,0.3c-11.5,0-23,0-34.5,0
		C3838.6,1789.1,3837,1788.9,3835,1788.7z"/>
	<path class="st0" d="M4624.3,1245.3c-0.3-1.1-0.8-2.1-0.9-3.1c-0.2-1.9-0.2-3.7-0.2-5.6c0-36.7,0-73.4,0-110.2c0-2.7,0-5.4,0.1-8
		c0-1,0.4-2,0.6-2.7c1.2-1.5,2.5-1.8,3.9-1.8c2.1-0.1,4.3-0.1,6.4-0.1c27.9,0,55.8-0.1,83.6-0.1c1.1,0,2.1,0,3.2,0
		c16.7-0.3,30.1,6.8,40.9,19c8.4,9.4,13.8,20.4,15.8,32.9c1.1,6.6,1.4,13.2,1,20c-0.5,8.7-2.4,17-5.5,25c-3.2,8.3-7.8,15.8-14.4,22
		c-4.9,4.7-10.5,8.3-16.9,10.6c-6.1,2.2-12.3,3.5-18.9,3.4c-30.3-0.1-60.6,0-90.9,0C4629.9,1246.4,4627.4,1246.6,4624.3,1245.3z"/>
	<path class="st0" d="M3967.2,1246.1c-1.2-3.2-0.8-6.2-0.8-9.1c0-28.4,0-56.9,0-85.3c0-9.4,0-18.8,0-28.2c0-2.7-0.2-5.4,0.6-7.7
		c1-1.5,2.2-2,3.6-2c1.9-0.1,3.8-0.1,5.6-0.1c28.7,0,57.4,0.1,86.1-0.1c6.3,0,12.2,1,18.1,3c11.1,3.8,19.7,10.8,26.4,20.1
		c7.6,10.7,12.3,22.5,13.1,35.8c0.1,1.3,0.2,2.7,0.5,4c0.6,2.9,0.3,5.8,0,8.8c-0.7,6.7-1.8,13.3-3.7,19.7c-4,13.2-11.2,24.3-22,32.9
		c-4.9,3.9-10.5,6.5-16.6,7.9c-4.9,1.1-9.9,2.1-15.1,2.1c-29.2-0.1-58.5,0-87.7,0c-1.9,0-3.8,0-5.6-0.3
		C3968.7,1247.3,3967.9,1246.5,3967.2,1246.1z"/>
	<path class="st0" d="M3509.7,1602.7c-0.7,2.5,0.1,3.6,0.8,4.8c6.9,11.6,12.6,23.6,18,35.9c6.7,15.2,12.5,30.8,17.5,46.7
		c6.1,19.4,11.5,39.1,15.2,59.2c2.3,12.1,4.3,24.3,6.2,36.5c1,6.3,1.1,12.8,2.3,19.1c1.7,9,0.8,18.2,2.6,27.2
		c0.3,1.6,0.2,3.2,0.2,4.8c0,20.1,0.2,40.3-0.1,60.4c-0.1,8.8-1.1,17.7-1.9,26.5c-1,11.7-2.9,23.4-4.4,35.1
		c-0.1,0.8-0.4,1.5-0.7,2.5c-0.8,0-1.7,0.3-2.3,0c-5.5-2.7-11-5.5-16.5-8.3c-1.7-0.9-3.2-1.9-4.9-2.7c-16.6-8.3-32-18.6-46.8-29.7
		c-7.9-5.9-15.7-12.1-22.8-19.1c-3-3-6.6-5.6-9.6-8.6c-11.7-11.8-22.3-24.6-31.9-38.3c-6-8.6-11.6-17.4-16.5-26.7
		c-3.5-6.7-6.6-13.5-9.5-20.4c-4.5-10.9-8.7-21.9-11.8-33.4c-2.6-9.6-4.6-19.3-6.3-29.1c-1.1-6.1-1.9-12.2-2.8-18.3
		c-0.3-2.1-0.3-4.3-0.5-6.4c-0.3-3.7-0.8-7.5-1.1-11.2c-0.2-2.7-0.5-5.4-0.5-8c0-21.7,0.1-43.5,0.1-65.2c0-1.3-0.1-2.7,0.2-4
		c1.3-6.4,1-12.8,1.3-19.2c0.2-3.5,0.6-6.9,0.9-10.4c0.2-2.4,0.4-4.8,0.5-7.2c0.2-5.1,0.2-10.2,1.2-15.2c0.4-2.1,0.3-4.3,0.4-6.4
		c0.2-4.8,0.2-9.7,1.2-14.4c0.4-1.6,0.3-3.2,0.4-4.8c0.2-4.8,0.2-9.6,1.2-14.4c0.4-2.1,0.4-4.3,0.4-6.4c0-21.5,0.1-42.9-0.1-64.4
		c-0.1-6.1-0.8-12.3-1.7-18.4c-1.2-8.8-2.7-17.5-4.3-26.2c-2.5-13.7-5.6-27.3-10.4-40.5c-0.9-2.5-1.6-5.1-2.4-7.7
		c0.4-0.7,0.8-1.4,1.3-2.3c1.1,0.2,2.2,0.1,3.1,0.5c4.3,1.6,8.6,3.1,12.8,4.9c14.8,6.3,29.3,13.4,43.5,21
		c7.1,3.8,13.9,8.1,20.7,12.4c15.2,9.6,30,19.9,44.1,31c7.8,6.1,15.4,12.5,22.5,19.5c3.4,3.4,7.2,6.4,10.7,9.8
		c3.7,3.5,7.2,7.2,10.8,10.9c2.2,2.3,4.2,4.9,6.5,7.2c5.8,5.6,10.8,11.9,15.9,18.2c9.5,11.7,18.2,23.9,26.4,36.5
		c6,9.2,11.8,18.5,16.8,28.4c2.3,4.5,5,8.9,7.3,13.5c8.5,16.8,15.8,34,22.1,51.8c4.7,13.4,9.3,26.9,12.4,40.8
		c2.4,10.7,5.1,21.4,6.2,32.4c0.3,2.7,0.9,5.3,1.3,7.9c1,7.4,2.2,14.9,2.9,22.3c0.5,5.1,0.4,10.2,0.6,15.3
		c0.2,5.4-0.2,10.7,0.9,16.1c0.3,1.5,0,3.2-0.1,4.8c-0.2,3.7-0.6,7.5-0.8,11.2c-0.3,8.6,0.1,17.2-1.7,25.7
		c-1.8,24.4-7,48.3-13.6,71.8c-4.7,16.5-10,32.9-17.2,48.5c-2.2,4.6-4.1,9.3-6.2,14c-0.4,1-1,1.8-1.4,2.6c-0.9,0.3-1.4,0.1-1.5-0.6
		c-0.1-1.9-0.1-3.7-0.1-5.6c0-21.2,0.1-42.4,0.1-63.6c0-4.8,0-9.7-1-14.4c-0.2-1-0.3-2.1-0.3-3.2c0.3-8.9-0.9-17.7-2.1-26.4
		c-1.7-13.3-2.9-26.6-5.7-39.8c-2.8-13.1-5.8-26.2-9.4-39.1c-4.8-17.3-10.8-34.3-17.8-50.9c-12.3-29.7-28.7-57-48.4-82.3
		c-5.9-7.6-12.4-14.8-19.3-21.5C3512,1604.3,3511.1,1603.7,3509.7,1602.7z"/>
</g>
<g>
	<path class="st0" d="M6525.6,757.2c-5.1,4.6-10.5,8.1-13.9,13.2c0.6,1.2,0.8,1.7,1.1,2c0.3,0.2,0.8,0.2,1.3,0.3
		c0.9,0.1,1.7,0.2,2.6,0.2c0.4,0,0.9,0,1.3,0c0.9,0,1.7,0,2.6,0c5.7,0,11.3,0,17,0c141.4-0.2,282.8-0.3,424.2-0.5
		c1.7,0,3.5,0,5.2-0.1c1.3,0,2.6,0,3.9-0.1c2.6-0.1,5.2-0.2,7.8-0.3c0.4,0,0.9,0,1.3,0c0.4,0,0.9,0,1.3,0c0.4,0,0.9,0,1.3,0.1
		c0.4,0.1,0.9,0.1,1.3,0.3c0.4,0.1,0.7,0.4,1.9,0.9c-1.3,4.7-5.2,7.6-8.5,10.5c-16.6,14.7-32.7,30.1-50.3,43.6
		c-53.9,41.2-112.9,73.2-177,95.8c-26.7,9.4-54,16.4-81.8,21.3c-24.1,4.2-48.5,5-72.8,3c-19.6-1.6-38.6-6.5-56.4-15.1
		c-34.5-16.7-57.3-43.3-65.7-81.1c-1.7-7.6-1.6-15.5-2.2-23.3c-0.2-2.9-0.1-5.8-0.2-8.4c-4.4-1.2-5.4,1.8-6.9,3.6
		c-13.9,16.7-27.9,33.4-41.5,50.4c-28.1,35.4-56,71-84,106.6c-3.2,4-6.7,7.9-8.1,13.5c4.1,2,8,4,11.9,5.8
		c67.8,30.3,130.7,68.9,188.8,115.1c49.3,39.3,92.2,84.9,125.7,138.5c34.5,55.2,57.4,114.9,68.5,179.1c7.3,42.3,9,84.8,4.4,127.4
		c-6.5,59.3-22.8,115.8-50.8,168.8c-32.3,60.9-76.3,111.9-129.6,155.1c-54.5,44.2-115,78-180.4,103.1c-13.4,5.1-26.4,11-39.1,17.8
		c-45.1,24.2-92.8,41.3-143.4,49.8c-39.2,6.6-78.6,7.7-118.3,4c-33.5-3.2-66.1-10.1-97.7-21.4c-51-18.2-96.6-45.6-136.5-82.2
		c-56.1-51.6-94.2-114.5-116.2-187.3c-11.1-36.9-16-74.7-16.6-113.2c-0.9-65.3,12.3-127.7,36.4-188.2
		c25.4-63.5,60.6-121.2,102-175.3c9-11.7,18.5-23.1,27.7-34.7c3-3.7,5.7-7.5,8.3-10.9c-0.8-4.3-3.8-3.9-6.2-4.2
		c-29.3-3.5-58.7-7.3-88.1-10.2c-26-2.6-52-4.2-78-6c-22.1-1.5-44.3-2.8-66.4-4.1c-2.2-0.1-4.3-0.4-6.5-0.4
		c-41.3-0.8-82.6-1.7-124-2.5c-3.3-0.1-6.7-0.4-9.9-0.6c-0.1-1.6-0.5-2.6-0.2-3.3c4.1-9.9,182.7-340.9,191.1-354.1
		c3-0.2,6.4-0.5,9.8-0.5c27-0.2,53.9,2.3,80.7,4.6c14.7,1.3,29.5,2.3,44.2,3.6c10.4,0.9,20.8,1.9,31.1,3.2
		c25.9,3.2,51.8,6,77.5,10.1c42,6.7,83.8,14.6,125.3,24.3c46.9,11.1,93.5,23.3,139.8,38.1c2.8-1.9,5.8-3.7,8.4-5.9
		c50.5-40.6,101.8-80.2,153.6-119.1c55.3-41.6,111.6-81.6,168.8-120.6c8.2-5.6,16.4-11.6,23.7-18.3c33.1-30.4,71.2-52.7,112.4-69.8
		c23.4-9.7,47.7-16.4,72.6-20.5c44.9-7.4,89.5-4.9,132,12.6c43.4,17.9,78.7,45.8,102.7,86.9c11.3,19.4,17.8,40.5,21.1,62.6
		c0.2,1.2-0.2,2.5-0.3,3.8c-3.3,3.3-7.4,2.1-11.1,2.1c-40.5,0.1-80.9,0.1-121.4,0.2c-107,0.1-214.1,0.3-321.1,0.4
		C6533.1,757.2,6529.2,757.2,6525.6,757.2z M6430.3,1922.9c4,1.6,6.3-1.2,8.8-2.5c52.1-28,99.2-62.7,140.2-105.4
		c71-73.9,111-162.3,121.6-263.8c4.5-43.5,1.5-86.9-7.7-129.8c-19.4-89.9-61.7-167.4-125.5-233.5c-30.7-31.8-65-59-101.1-84.2
		c-46.6-32.4-96.6-58.5-148-82.3c-2.3-1.1-4.8-1.8-7.1-2.7c-1.3,1.2-2.5,2-3.2,3c-12,16.6-24.1,33-35.8,49.8
		c-11.9,17.2-23.2,34.7-34.8,52.1c-2.1,3.1-3.5,7.1-7.3,8c-15.2-6.6-29.8-13.3-44.8-19.2c-14.5-5.7-29.2-11.1-44.1-15.8
		c-15.3-4.9-30.8-9-46.3-13.2c-15.3-4.2-31.4-5.5-47-9.7c0.8-5.8,4.9-7.9,8-10.6c36.2-31.2,72.5-62.4,108.8-93.6
		c0.8-0.7,1.1-1.9,1.7-2.9c-19.1-9.1-107.9-32.7-184.4-46.7c-91.5-16.8-183.7-28.7-277.8-30.5c-2.7,4.8-5.5,9.6-8.1,14.5
		c-33.3,61.6-66.5,123.2-99.7,184.8c-16.1,29.8-32.4,59.6-48.4,89.4c-1.5,2.7-4.3,5.6-1.7,9.9c4.6,0,9.3-0.1,14.1,0
		c18.3,0.3,36.5,0.4,54.8,1.2c23.5,1,46.9,2.5,70.3,3.9c17.4,1.1,34.7,2.5,52,3.8c10,0.7,20,1.3,29.9,2.3
		c20.7,2.1,41.5,4.4,62.2,6.9c30.2,3.6,60.5,6.7,90.5,11.4c37.7,5.8,75.4,12.1,112.8,20.2c37.3,8.1,74.8,15.7,111.5,26.2
		c62.3,17.9,123.4,38.6,181.8,67.1c51.1,24.9,98.6,55.3,141,93.2c36.5,32.6,65.2,70.9,84.5,116.1c13.5,31.6,20.3,64.6,20.9,98.9
		c0.4,24.9-3,49.4-8.9,73.6c-10.1,41.5-28.3,79.3-52.1,114.5c-21,31.1-45.3,59.5-72.5,85.4
		C6436.3,1915.8,6432.4,1918.5,6430.3,1922.9z M6143.6,1295.5c-1.2,2-2.5,3.7-3.4,5.5c-10.5,21.5-21.5,42.7-31.4,64.5
		c-13.6,29.6-25.7,59.9-36.5,90.7c-15,42.8-26.7,86.3-32,131.4c-6.1,52.4,0.2,103.3,19.7,152.3c17.7,44.6,44.9,82.2,82.4,112.3
		c33.6,27.1,71.9,45.2,112.5,59c20.2,6.8,41,11.4,61.9,15.1c14.9,2.6,30.2,3.8,45.2,6.1c7.2,1.1,12.6-1.4,17.6-6.2
		c5.7-5.4,11.8-10.3,17.6-15.6c34.5-31.4,66.8-64.9,92.2-104.3c26-40.2,45.8-82.9,51.6-131.1c5.7-46.9-0.5-91.8-21.3-134.6
		c-20.1-41.4-49.1-75.9-84.3-105c-40.4-33.5-85-60.3-132.3-82.8c-47.2-22.5-96.6-39-146.4-54.3
		C6152.5,1297.3,6148.2,1296.6,6143.6,1295.5z"/>
	<path class="st0" d="M5915.3,470.8c0.4-0.2,0.8-0.6,1.1-0.5c2.4,0.8,4.9,1.4,7.2,2.6c164.1,85.3,328.2,170.7,492.6,256.2
		c-0.7,2.1-1,3.7-1.7,5.2c-19.7,40-51.4,65-94.7,75c-37.6,8.7-74.2,4-110.1-9c-25.9-9.4-49.9-22.4-72.8-37.5
		c-36.2-23.7-68-52.5-97.6-84.1c-29.3-31.2-54.9-65.2-77.3-101.5c-18.3-29.6-33.6-60.8-44.5-94c-1.1-3.3-2-6.6-2.8-10
		C5914.6,472.4,5915.1,471.6,5915.3,470.8z"/>
	<path class="st0" d="M6419,711.2c-1.2,0.4-1.7,0.8-2,0.6c-7.4-3.6-14.8-7.2-22.1-11c-158.3-82.4-316.7-164.8-475.7-247.6
		c1.9-2,3-3.8,4.7-4.9c11.3-7.4,22.4-15,34-21.7c23.3-13.3,48.9-20.1,75.3-23.9c13.7-2,27.6-3.9,41.6-3c13.4,0.9,26.9,1.4,40.3,3
		c20.3,2.5,40.3,6.3,60,11.7c22.3,6.1,43.7,14.5,64.3,24.9c30,15.2,57.5,34.1,82,57.3c44.6,42.2,76.2,92.3,91.5,152.1
		c4.8,18.6,7.3,37.5,6.8,56.8C6419.6,707.5,6419.2,709.5,6419,711.2z"/>
	<path class="st0" d="M5907.9,2249.5c-9.4,0-17.1,0-25.6,0c-0.4-3.4-1.1-6.2-1.2-9.1c-1.3-50.5-0.6-82.7,1.9-92.9
		c7-1.3,14.2-0.7,22-0.4c1.2,3.3,2.2,6.4,3.4,9.6c16.7-15.8,38.5-18.2,56.2,2.4c2.5-2.3,5-4.8,7.6-7c17.2-14.7,50.6-8.7,55.1,21
		c0.4,2.6,0.5,5.2,0.5,7.8c0.1,20,0.1,40,0.1,60c0,2.5-0.4,5-0.7,7.5c-4.6,2.6-9,1.4-13.2,1.6c-3.9,0.2-7.8,0-12.4,0
		c-0.6-3.5-1.5-6.4-1.6-9.2c-0.2-14.8,0-29.6-0.1-44.4c0-4.8-0.1-9.6-0.4-14.3c-0.3-6.7-3.3-11.6-10-13.6
		c-6.3-1.9-13.2,0.4-17.5,5.7c-3.1,3.9-4.1,8.5-4.1,13.4c0.1,12.6,0.1,25.2,0.1,37.8c0,5.7,0.1,11.3,0,17c0,2.1-0.5,4.1-0.9,6.9
		c-8.2,1.3-15.9,0.9-24.4,0.3c-0.6-3-1.5-5.8-1.6-8.6c-0.2-15.7,0-31.3-0.2-47c-0.1-4.8-0.3-9.6-1.2-14.2
		c-1.5-7.6-6.2-11.4-13.5-11.8c-7.1-0.4-13.5,2.9-15.8,9.2c-1.4,4-1.9,8.5-1.9,12.7c-0.2,15.2,0,30.5,0,45.7
		C5908.4,2239.9,5908.1,2244.2,5907.9,2249.5z"/>
	<path class="st0" d="M6077.7,2242.9c-1.1,15.7,0.5,30.4-0.9,45.6c-3.3,0.3-5.8,0.7-8.3,0.8c-5.6,0-11.1-0.1-17-0.2
		c-0.6-2.9-1.5-5-1.5-7.1c-0.1-44.2-0.1-88.4-0.1-132.8c7.9-3.9,15.7-1.9,23.9-2.2c1,3.2,2,6.2,3.3,10c1.9-1.5,3.3-2.4,4.5-3.5
		c13.7-13.2,38.5-11.6,52.1,1.7c5,4.9,9,10.6,11.4,17.2c6.4,17.4,6.3,35,0.1,52.2c-5.1,14.4-15.2,24.1-30.6,27.2
		c-10.7,2.2-20.6-0.1-30-5.6C6082.6,2245.2,6080.4,2244.2,6077.7,2242.9z M6121.8,2200.6c0.1-9.8-2.4-18.1-6.2-23.8
		c-7.6-11.4-27.8-10.7-33.9,1.6c-6.5,13.2-7.2,26.7-1.1,40c6.4,13.8,27.1,16.3,36.1,1.6C6120.4,2213.9,6122.1,2207.3,6121.8,2200.6z
		"/>
	<path class="st0" d="M6559.4,2249.1c-0.3-3.4-0.8-6.4-0.8-9.3c-1.1-66.7-0.6-116.2,1.5-128.3c7.7-2.2,15.8-1.5,24.5-0.4
		c3.5,14.4-0.3,29.2,2.1,43.2c3.9,0.5,5.2-2.2,7.3-3.6c17.2-11.4,38-6.4,49,5.3c4.1,4.4,8.1,9.4,10.2,14.9c7.7,19.9,7.5,40-1.9,59.4
		c-4.9,10.2-12.8,17.2-24,20.6c-11.5,3.5-22.3,2.1-32.6-3.9c-2.2-1.3-4.3-2.9-7.1-4.9c-1.7,2.6-3.2,4.9-4.9,7.5
		C6575.3,2250,6567.7,2250.8,6559.4,2249.1z M6630.4,2199.1c-0.3-7-1.7-13.7-4.8-20.1c-7.1-14.3-29.3-13-35.5-0.6
		c-6.6,13.3-7.2,26.7-0.3,40c1.4,2.6,3.6,4.9,5.9,6.9c7.6,6.5,23.2,7.4,30-6C6628.8,2212.9,6629.9,2206.1,6630.4,2199.1z"/>
	<path class="st0" d="M6792.5,2219.4c8.6-0.4,17.2-1,26,0.3c0.4,6.1-2.8,10.3-5.6,14.6c-3.6,5.6-8.5,9.9-14.4,12.9
		c-11.7,6.1-24.1,7-36.8,4.7c-23.4-4.2-37.6-19.1-41-42.6c-1.7-11.3-0.6-22.6,3.1-33.4c9-26.3,33.5-34.5,54.9-31.4
		c22,3.2,36.7,18.2,40.2,40.2c0.8,5.1,1.2,10.3,1.6,15.5c0.1,1.2-0.6,2.5-1.1,4.4c-2.3,0.4-4.8,1-7.2,1c-16.5,0.1-33,0.1-49.5,0.1
		c-4.3,0-8.6,0-12.9,0c-2.3,5.9-0.1,10.3,2.2,14.2c1.9,3.2,5,6,8.3,7.9c5.4,3.3,11.6,2.8,17.7,2
		C6784.6,2229,6788.2,2223.9,6792.5,2219.4z M6790.9,2187c0.7-6.7-2.2-11.3-6.6-15c-4.9-4.1-10.7-5.5-16.9-4.9
		c-11,1.1-17.5,9-16.6,19.9C6764.1,2187,6777.4,2187,6790.9,2187z"/>
	<path class="st0" d="M6475.9,2179.5c-9.1,0-16.8,0-24.5,0c-0.3-14.8,5.8-25.4,17.9-30.5c15.9-6.6,32-6.8,48.2-0.5
		c12.6,4.9,19.6,13.9,19.7,27.7c0.1,13.9,0.1,27.8,0.1,41.7c0,5.2-0.5,10.5,0.3,15.6c0.8,4.9,3,9.6,4.6,14.3
		c-0.2,0.6-0.3,1.1-0.6,1.4c-0.3,0.3-0.8,0.4-1.2,0.4c-8.6,0-17.3,0-26.5,0c-1.4-2.4-2.8-4.9-4.5-7.9c-2.9,1.9-5.6,3.9-8.6,5.6
		c-10.3,5.9-21.2,7.1-32.6,3.8c-12.7-3.7-20.9-13.2-21.9-26.1c-1.1-13.3,3.7-23.9,15.5-30.6c6.9-3.9,14.5-5.6,22.3-6.6
		c6-0.8,12.1-1.6,18-2.8c4.9-1,6.8-3.7,6.8-8.1c-0.1-4.5-2-7.3-6.4-8.8c-5.5-1.9-11.1-1.7-16.7-0.2
		C6480.2,2169.5,6477.5,2173.9,6475.9,2179.5z M6510.7,2202.2c-10.6,1.2-18.9,3.3-27.1,5.9c-2.4,0.8-4.8,2.2-6.5,4
		c-5.8,5.8-3.5,16.8,3.9,19.5c10.6,3.9,24.2-2.7,27.2-13.6C6509.5,2213.6,6509.7,2208.8,6510.7,2202.2z"/>
	<path class="st0" d="M6266,2200.4c0.3,12-3.3,23.8-11,34.3c-5.9,8-13.5,13.2-23.1,15.9c-9.4,2.6-18.9,3-28.4,1.6
		c-21.1-3.1-34.9-16.3-40.3-37.3c-3.3-13.1-2.6-25.9,2.1-38.4c9.3-25,32.2-35.9,57.5-32C6254.7,2149.5,6266.9,2176.8,6266,2200.4z
		 M6238.8,2198.5c-1.5-6.2-2.4-12.8-4.7-18.7c-3.4-8.5-10.9-12.4-19.7-12.4c-8.7-0.1-16.1,3.2-20.2,11.7
		c-6.5,13.4-6.1,26.6,0.6,39.9c7.3,14.3,30,15.1,38.5-0.2C6236.9,2212.5,6237.8,2205.7,6238.8,2198.5z"/>
	<path class="st0" d="M5863.3,2199.8c0.6,13.6-3.2,25.8-11.8,36.3c-2.5,3-5.3,5.9-8.4,8.1c-25,18.3-65,8.7-78.7-18.8
		c-6.1-12.2-6.7-25.1-4.7-38.2c5.2-33,33.4-47.1,60.9-42.5c24.6,4.1,40.8,22.5,42.6,47.3C5863.5,2194.5,5863.3,2197.2,5863.3,2199.8
		z M5835.1,2199.2c0.4-8-1-15.7-5.4-22.4c-8.3-12.7-28-12.9-36.6-0.4c-7.4,10.9-7.4,32.3-0.5,43.6c8.1,13.3,31,14.1,38.7-1.9
		C5834.1,2212.1,5835.3,2205.8,5835.1,2199.2z"/>
	<path class="st0" d="M6278.1,2217.9c1.8-0.5,3-1.2,4.2-1.2c6.9-0.1,13.9,0,20.7,0c0.8,0.9,1.6,1.5,1.9,2.2
		c2.3,5.3,4.8,10.1,11.1,11.8c7.4,2,14.5,2.2,21.6-1c3.4-1.5,5.9-4,5.8-7.8c0-4.1-3.1-6.1-6.4-7.4c-3.6-1.4-7.4-2.3-11.2-3.4
		c-8.3-2.4-16.9-4.2-24.9-7.3c-21.2-8.1-26.2-28.5-12-46.1c3.3-4.1,7.3-7.3,12.3-9.3c15.7-6.4,31.4-6.4,46.8,0.4
		c11.8,5.3,19.3,14.2,19.7,28.5c-8.8,1.8-16.8,0.1-25.1,0.1c-3-3.8-4.2-9-9.5-10.4c-6-1.6-12-2.3-17.9-0.2c-1.9,0.7-3.8,2-5.3,3.5
		c-2.1,2.1-1.9,6.6,0.5,8.2c2.5,1.7,5.2,3.2,8.1,4c6.6,2,13.4,3.5,20.1,5.3c5.4,1.5,10.9,3,16,5.2c10.6,4.4,16.3,12.8,17,24.1
		c0.7,11.7-3.7,21.2-13.8,27.7c-5.6,3.6-11.8,5.6-18.2,6.8c-14.4,2.7-28.7,2-42.1-4.1C6285,2241.9,6278.1,2232.1,6278.1,2217.9z"/>
	<path class="st0" d="M5721.4,2212.1c8.9,0,17,0,25.7,0c1.2,7.2-1.3,13.1-4.3,18.8c-15.3,29.2-66.7,29.2-81.4,1.8
		c-0.2-0.4-0.5-0.7-0.7-1.1c-9.5-15.5-9.3-51.2,1.9-67.6c9.8-14.4,23.9-19.6,40.3-19.7c6.4,0,13,1.5,19,3.6
		c15.9,5.6,24.2,17.3,25.7,33.9c-7.9,3.2-9.6,3.3-26.4,1.8c-1.1-2.2-2.4-5-3.9-7.5c-6.3-10.6-20.6-11.8-28.8-2.5
		c-0.6,0.7-1.1,1.3-1.6,2.1c-7,10.5-7,36.2,0.2,46.3c6.1,8.6,13.4,9.4,21.8,6.9c3-0.9,5.8-3.8,7.8-6.5
		C5718.9,2219.7,5719.7,2216.1,5721.4,2212.1z"/>
	<path class="st0" d="M7031,484.7c0,38.3-29.4,68.4-67.5,68.1c-40.2-0.3-67.6-31.1-68-67.9c-0.4-39.5,31.4-68,67.7-67.9
		C7001,417.1,7031.9,447.2,7031,484.7z M6909.8,484.3c-1.2,26.5,19.7,54.9,52.4,55.3c36.2,0.4,55.1-30.1,54.9-54.5
		c-0.2-28.9-22.7-55.4-54.1-55.2C6937.6,430,6908.8,451.9,6909.8,484.3z"/>
	<path class="st0" d="M6437,2230.4c0,6.9,0,12.4,0,18.6c-10.2,2.9-20.5,2.9-30.5,0.1c-8.8-2.5-13.4-9.3-13.5-18.6
		c-0.1-13.4-0.1-26.9-0.2-40.3c0-6.9-0.1-13.8-0.1-21.3c-4.8-0.9-8.9-1.7-13.3-2.5c-2.1-5.5-1.2-10.9-0.7-17.1
		c4.4-0.9,8.5-1.7,13.1-2.6c2.1-9-0.2-18.3,1.8-27.3c8.6-1.7,16.6-1.6,24.9-0.2c2.8,8.9,0.2,17.7,2,26c4.4,4.4,10.3,1.1,15.7,3.9
		c2.4,5.2,1.2,11,0.9,17.6c-5.5,0.7-10.5,1.3-16.1,2c-0.4,2.8-1,5.2-1.1,7.7c-0.1,13.9,0,27.8,0,41.6c0,1.7,0,3.5,0.2,5.2
		c0.5,4.3,2.2,6,6.6,6.6C6429.8,2230,6432.8,2230.1,6437,2230.4z"/>
	<path class="st0" d="M6677.5,2110.7c4.4-0.2,8.2-0.6,12-0.6c4.3,0,8.5,0.3,13.4,0.5c2.1,15.7,0.7,30.8,0.9,45.8
		c0.2,15.6,0.2,31.2,0,46.8c-0.2,15.1,0.8,30.2-0.6,45.2c-4.5,2.7-8.9,1.5-13.2,1.7c-3.9,0.2-7.8,0-12,0c-0.8-2.6-1.9-4.5-1.9-6.5
		c0-42.5,0-85,0.1-127.5C6676.3,2114.9,6676.8,2113.6,6677.5,2110.7z"/>
	<path class="st0" d="M6977.8,490.1c5.9,10.4,11.4,20.1,17.4,30.7c-5.8,2.4-10.7,1.2-16.5,1.2c-3.1-5.6-6.2-11.2-9.3-16.9
		c-1.9-3.4-3.6-7-5.8-10.1c-2.4-3.5-5.9-5-10.9-3.4c-2.6,4.5-1,9.7-1.3,14.8c-0.3,4.7-0.3,9.4-0.4,14.2c-4.6,2.6-8.9,1.7-13.5,1.1
		c-2.9-7.9-1.2-16.2-1.5-24.3c-0.3-8.3-0.1-16.5,0-24.8c0.1-8.1-0.6-16.4,0.8-25.1c13.6-1,26.5-1.6,39.3,0.8c9.1,1.6,15,6.6,16.5,16
		c1.5,9.3-0.9,17.2-9.3,22.6C6981.7,487.9,6979.9,488.9,6977.8,490.1z M6951.9,478.5c7.1,1.2,12.7,1.2,18.2-0.1c4.5-1,7.6-5,7.5-9.4
		c-0.1-4.3-3.4-8.8-7.6-9.3c-5.9-0.7-11.9-1.7-18,0.9C6951.9,466.5,6951.9,472,6951.9,478.5z"/>
</g>
</svg>
