<?xml version="1.0" encoding="utf-8"?>
<!-- Generator: Adobe Illustrator 25.3.1, SVG Export Plug-In . SVG Version: 6.00 Build 0)  -->
<svg version="1.1" id="图层_1" xmlns="http://www.w3.org/2000/svg" xmlns:xlink="http://www.w3.org/1999/xlink" x="0px" y="0px"
	 viewBox="0 0 12864 2744" style="enable-background:new 0 0 12864 2744;" xml:space="preserve">
<style type="text/css">
	.st0{fill:#FFFFFF;}
</style>
<g id="R9jx2R_1_">
	<g>
		<path class="st0" d="M5964.8,1249.7c0,305.2-247.7,552.8-553.6,552c-309.6-0.8-554.9-253.7-551-559.8
			c3.9-301,250.6-549.2,560.7-544.7C5721.9,701.5,5964.8,946.6,5964.8,1249.7z M5891.8,1249.7c-0.9-266.8-214.8-474.3-470-479.1
			c-267.5-5-484.1,209.3-488.4,470.9c-4.4,264,207.2,487.3,479.2,487.2C5678.8,1728.7,5891,1513.8,5891.8,1249.7z"/>
		<path class="st0" d="M4860.7,1990.2c0-24,0-48,0-72.2c367.2,0,733.9,0,1101.2,0c0,24,0,47.9,0,72.2
			C5595,1990.2,5228,1990.2,4860.7,1990.2z"/>
		<path class="st0" d="M5045.8,523.7c-1.8,44.7-35.2,78.5-78.8,80.9c-28.4,1.5-54.2-4.8-75.5-24.7c-15.8-14.9-24.8-33.6-28.5-54.9
			c-4.8-27.2-2.3-53.6,10.5-78.3c18.2-35.2,54.8-53.9,94.5-49.6c28.8,3.1,52.2,14.9,67.1,40.7c5.3,9.3,8.4,19.3,9.3,30.9
			c-13.6,0-26.8,0.1-39.9-0.1c-1.1,0-2.7-1.9-3.1-3.2c-5.6-18.1-18.2-28.4-36.4-30.9c-19.9-2.7-37,3.6-48.2,21.2
			c-11.6,18-13.7,38.2-10.8,58.7c1.5,10.5,4.9,21.2,10,30.5c9.8,18.1,30.3,26.3,51.2,22.6c18.7-3.3,31.4-16.4,35.3-37.4
			c1-5.4,3.1-6.5,8-6.3C5022.1,523.9,5033.7,523.7,5045.8,523.7z"/>
		<path class="st0" d="M5771.5,2493.1c-11.9,0-23.8,0.3-35.6-0.2c-2-0.1-4.4-3.1-5.8-5.3c-21.9-33.8-43.6-67.7-65.4-101.5
			c-1.2-1.9-2.5-3.8-5.2-5.2c0,37.1,0,74.2,0,112.3c-11.5,0-22.3,0.1-33-0.1c-1,0-2.3-2-3-3.3c-0.5-1.1-0.1-2.6-0.1-3.9
			c0-51.6,0-103.1,0-154.7c0-2.3,0.2-4.7,0.4-7.7c12.4,0,24.2-0.2,36.1,0.2c1.9,0.1,4,2.9,5.3,4.9c21.9,33.8,43.6,67.7,65.4,101.5
			c1.3,2,2.6,3.9,5.2,5.8c0-37.2,0-74.3,0-112c12.4,0,23.7,0,35.7,0C5771.5,2379.9,5771.5,2436.1,5771.5,2493.1z"/>
		<path class="st0" d="M5221,2381c0,37,0,74,0,111.5c-12,0-23.6,0-35.6,0c0-56.1,0-112.1,0-169.1c12.2,0,24.5-0.2,36.7,0.2
			c1.6,0.1,3.4,3,4.7,4.9c21.9,33.8,43.6,67.7,65.4,101.6c1.2,1.9,2.5,3.7,5.2,5.1c0-36.9,0-73.8,0-111.3c12.3,0,23.8,0,35.8,0
			c0.1,2.5,0.3,4.9,0.3,7.2c0,51.4-0.1,102.7,0.1,154.1c0,6.2-1.5,8.4-7.9,8c-8.2-0.5-16.5-0.4-24.7,0c-4.5,0.2-7-1.5-9.4-5.2
			c-21.7-33.9-43.5-67.8-65.3-101.7c-1.3-2-2.6-3.9-3.9-5.8C5222,2380.7,5221.5,2380.9,5221,2381z"/>
		<path class="st0" d="M5962,600.1c-12.4,0-24.5,0-37.2,0c0-5.3,0-10.6,0-15.9c-7.7,8.8-16.4,14.9-27.5,17.8
			c-31.1,8.1-60.1-5-73-34.4c-12.6-28.7-12.4-57.9,3-85.6c15.1-27,47.8-37.2,75.9-24.3c6.7,3.1,12.3,8.3,18.8,12.8
			c0-22.2,0-45.1,0-68.5c13.8,0,26.6,0,39.9,0C5962,468,5962,533.9,5962,600.1z M5925.4,526.6c-0.4-0.1-0.8-0.2-1.2-0.2
			c-0.4-4.1-0.6-8.2-1.2-12.3c-2.9-19.4-14.9-31.3-31.9-31.7c-17.4-0.5-29.6,10.2-33.8,29.6c-0.6,2.5-1,5.1-1.2,7.7
			c-1.3,14.1,0,27.7,7.8,39.9c6.6,10.2,16.2,15.3,28.5,14.6c13.3-0.8,22.7-7.5,26.8-19.9C5922.3,545.3,5923.4,535.8,5925.4,526.6z"
			/>
		<path class="st0" d="M5368.4,2492.3c0-56,0-111.9,0-168.3c1.7-0.2,3.4-0.7,5-0.7c25.8,0,51.6-0.3,77.3,0.3
			c39.2,1,68.3,29.2,72,68.3c1.8,19.3,0.8,38.1-6.6,56.1c-11.1,27-32,42.1-60.7,43.9c-27.6,1.7-55.4,0.9-83.1,1.1
			C5371.1,2493.1,5369.8,2492.6,5368.4,2492.3z M5406.8,2355.3c0,35.3,0,70.5,0,106.4c13.1,0,25.8,0.5,38.5-0.1
			c17.5-0.8,29.7-10,35.9-26.4c5.6-14.8,5.1-30.1,1.9-45.4c-4.1-19.8-16-32.2-36.3-34.3C5433.8,2354.2,5420.5,2355.3,5406.8,2355.3z
			"/>
		<path class="st0" d="M5960.6,2379c-12.6,0-23.6,0.1-34.6-0.1c-1.4,0-3.4-1.7-3.9-3.1c-5-14.9-15.3-23.5-30.7-25.2
			c-17.5-1.9-32.7,2.8-43.3,17.9c-14.5,20.7-14.5,58.1-0.3,79c13.6,19.9,47.1,25.2,66,10.1c8.8-7,12.4-16.7,13.6-28.7
			c-13.2,0-25.8,0-38.7,0c0-9.4,0-17.8,0-26.7c24.1,0,48.2,0,72.8,0c0,29.8,0,59.8,0,90.9c-6.9,0-14,0.2-21-0.2
			c-1.3-0.1-3.1-2.7-3.6-4.4c-1.3-4.3-1.9-8.7-2.9-13.1c-0.7-0.5-1.5-0.9-2.2-1.4c-0.9,1.7-1.5,3.6-2.8,4.9
			c-13.4,13.8-30.1,18.6-49,17.7c-16.6-0.8-32.1-4.9-45.8-14.5c-23.9-16.7-33.9-40.8-35.3-69c-0.9-19.4,2.8-38,12.9-54.8
			c18.6-31.1,51.6-43.2,88-37.8c23,3.4,41.7,14.5,52.7,35.7C5956.1,2363,5957.8,2370.7,5960.6,2379z"/>
		<path class="st0" d="M5155.9,2354.4c-30.7,0-61.1,0-92,0c0,12.3,0,24,0,36.5c28.1,0,55.9,0,84.4,0c0,9.7,0,18.8,0,28.7
			c-28,0-55.9,0-84.3,0c0,14.2,0,27.7,0,42.1c31.2,0,62.4,0,94,0c0,10.8,0,20.6,0,31c-44.2,0-88.2,0-132.7,0c0-56.3,0-112.2,0-168.8
			c43.3,0,86.4,0,130.5,0C5155.9,2333.6,5155.9,2343.5,5155.9,2354.4z"/>
		<path class="st0" d="M5802,555.4c-5.8,17.5-13.9,32.1-30.1,40c-24.4,11.9-49.6,12.4-73.8,0.4c-27.6-13.7-37-38.7-37.2-67.8
			c-0.3-32.6,17.1-59.7,45.1-70.3c40.1-15.2,88.6,0.2,97.5,57.2c1.2,7.4,1.1,14.9,1.7,23.3c-18.3,0-35.6,0-52.8,0
			c-17.1,0-34.1,0-51.1,0c-0.6,17.1,7.1,29.5,20.4,33.8c17.6,5.6,34.9,0.3,43.9-13.2c1.1-1.6,3.5-3.3,5.3-3.4
			C5780.8,555.2,5790.8,555.4,5802,555.4z M5764.2,512.5c-3.2-21.7-15.1-31.8-34.6-30c-16.7,1.6-28.6,14.2-28,30
			C5722.3,512.5,5742.9,512.5,5764.2,512.5z"/>
		<path class="st0" d="M5203.3,538.4c-35.8,0-70,0-104.1,0c-0.1,18,7.2,29.5,21.2,33.8c17.6,5.5,33.7,0.2,43.6-14
			c0.9-1.3,2.9-2.7,4.4-2.7c10.2-0.2,20.3-0.1,31.5-0.1c-4.8,15.9-12.2,29.1-26,37.8c-48.4,30.4-108.8,1.1-114.5-55.5
			c-3.6-36.6,13.5-68.1,44.6-80c40.2-15.3,88.2,0.4,97.4,56.6C5202.7,521.9,5202.7,529.7,5203.3,538.4z M5099.2,512.3
			c21.3,0,42.2,0,63.1,0c-3.3-20.8-13.9-30.5-32.1-29.9C5112.4,482.9,5100.9,493.8,5099.2,512.3z"/>
		<path class="st0" d="M4898.4,2492.7c-12.8,0-24.8,0-37.1,0c0-56.4,0-112.4,0-168.7c1.4-0.2,2.4-0.6,3.4-0.6
			c28.1,0.1,56.3-0.7,84.4,0.5c21.5,0.9,39.3,10.3,47.3,31.6c8,21.2,6.2,41.9-9.6,59.5c-11.8,13.1-27.9,16.7-44.8,17
			c-12.3,0.3-24.7,0.3-37,0c-4.9-0.1-6.4,1.5-6.3,6.3c0.2,16,0.1,32,0.1,48.1C4898.7,2488.2,4898.5,2490.2,4898.4,2492.7z
			 M4898.7,2377.5c0,6.9-0.2,13.9,0.2,20.8c0.1,1.7,2.1,4.8,3.3,4.8c14-0.1,28.2,0.3,42-1.5c13.4-1.7,19.8-11.2,19.4-24.9
			c-0.3-13.1-7.3-22.1-20.4-23.4c-13.3-1.4-26.7-1.2-40.1-1.2c-1.4,0-4,2.9-4.1,4.6C4898.4,2363.6,4898.7,2370.6,4898.7,2377.5z"/>
		<path class="st0" d="M5586.7,401.7c0,11,0,20.5,0,30c-5.1,0-9.8-0.1-14.5,0c-10.1,0.1-14.1,4.1-14.5,14.2c-0.1,3.2,0,6.4,0,10.4
			c9.1,0,17.9,0,26.9,0c0,9.1,0,17.5,0,26.5c-8.7,0-17.3,0-26.6,0c0,39.3,0,77.9,0,117.1c-13.6,0-26.4,0-40.2,0
			c0-38.6,0-77.4,0-116.8c-8.2,0-15.4,0-23.2,0c0-9.1,0-17.6,0-26.6c7.4,0,14.7,0,23,0c0-3.6,0-6.8,0-9.9
			c0.3-27.5,15.8-43.7,43.2-44.9C5569.1,401.4,5577.5,401.7,5586.7,401.7z"/>
		<path class="st0" d="M5349.8,483c-8.1,0-15.6,0-23.3,0c0-9.1,0-17.5,0-26.5c7.7,0,15.2,0,23.3,0c0-14.6,0-28.6,0-42.9
			c13.5,0,26.4,0,40.1,0c0,14.2,0,28.2,0,42.5c9.8,0,18.8,0,28.4,0c0,8.9,0,17.5,0,26.8c-9.1,0-18.3,0-28.3,0c0,4.1,0,7.5,0,10.9
			c0,19.7,0,39.4,0,59.2c0,14.6,3.4,17.9,18.1,17.5c3.2-0.1,6.5-0.5,10.2-0.7c0,10,0,20,0,30.6c-15.7,1.9-31.4,2.7-46.8-1.4
			c-13.7-3.7-21-13.1-21.3-28.3c-0.5-26.6-0.2-53.3-0.3-80C5349.8,488.4,5349.8,486.1,5349.8,483z"/>
		<path class="st0" d="M4961.1,2171.9c10,0,19.7,0,29.4,0c-0.1,33.9-29.9,59.8-65.5,57.2c-41.5-3-67.8-35.1-64.6-78.4
			c1.5-20.6,8-38.9,24-52.9c28.8-25.2,79.3-19.1,97.6,12c3.9,6.7,5.8,14.6,9.1,23.2c-10.8,0-19.6,0.1-28.4-0.2
			c-1.3,0-3.4-1.9-3.8-3.3c-7.1-24.2-40.9-27.2-55.9-10.2c-15,16.9-15.7,54.4-1,71.6c9.5,11.1,21.8,13.8,35.3,11
			c12.8-2.7,19.3-12.3,22.4-24.4C4960.2,2175.6,4960.6,2173.8,4961.1,2171.9z"/>
		<path class="st0" d="M5231.5,2214.2c0,16.5,0,31.4,0,46.6c-9.2,0-18,0-27.4,0c0-45.3,0-90.6,0-136.2c8.7,0,17.2,0,26,0
			c0.2,3.5,0.3,6.7,0.5,10.8c2.5-2.3,4.3-4.3,6.4-6c16.5-13.8,45.7-9.5,59,8.7c14.2,19.4,14.7,52.6,1.2,72.4
			c-14.4,21.1-43.7,24.2-62.2,6.7C5234.3,2216.6,5233.5,2215.9,5231.5,2214.2z M5279.8,2174.8c-1.8-6.5-2.9-13.3-5.5-19.6
			c-3.6-8.6-10.9-12.7-20.2-12.5c-9.3,0.2-16.2,4.7-19.7,13.3c-5.1,12.5-5.1,25.4,0,37.9c3.6,9,11,13.3,20.4,13.3s17-4.1,20.4-13.2
			C5277.4,2188.1,5278.2,2181.6,5279.8,2174.8z"/>
		<path class="st0" d="M5220.4,456.5c12.5,0,24.4,0,36.9,0c0,8,0,15.9,0,23.8c13.5-19.9,30.9-30.4,55.5-27.1c0,12.8,0,24.6,0,37.1
			c-2.9-0.1-5.4-0.2-7.9-0.4c-27.3-2.5-43.8,11.4-44.7,38.8c-0.7,21.2-0.3,42.5-0.4,63.7c0,2.4,0,4.7,0,7.6c-13.3,0-26.2,0-39.4,0
			C5220.4,552.2,5220.4,504.7,5220.4,456.5z"/>
		<path class="st0" d="M5545.5,2155.5c-8.8,0-17.6,0-26.4,0c-1.3-11,4.8-22.3,16.5-27.6c20.1-9.1,40.8-9,61.1-0.6
			c10.1,4.2,13.9,13,13.9,23.7c0,19.9,0.1,39.8,0.5,59.8c0.1,4.9,1.3,9.8,2.1,14.9c-8.8,0-17.8,0-27.4,0c-0.7-2.5-1.5-5.1-2.5-8.5
			c-10.9,9.1-23.6,12-37.3,11.3c-22.5-1.1-35.2-18-29.9-39.5c2.5-9.9,9.2-15.9,18.4-18.3c10.4-2.7,21.2-3.9,31.9-5.8
			c2.8-0.5,5.6-0.9,8.2-1.8c4.9-1.6,8.3-4.7,7.8-10.5c-0.4-5.7-3.1-9.7-8.9-11.3C5559.2,2137.5,5550.8,2141.7,5545.5,2155.5z
			 M5582.5,2177.4c-3.9,1.1-7,2.1-10.1,2.8c-3.2,0.7-6.4,0.8-9.6,1.5c-4,0.8-8.1,1.6-11.8,3.1c-6.1,2.5-8.7,8-7.6,14.8
			c1,6,5.2,8.6,10.8,9.5c17.7,2.9,27.8-5.4,28.2-23.4C5582.6,2183.1,5582.5,2180.5,5582.5,2177.4z"/>
		<path class="st0" d="M5589.1,2323.4c0,3.2,0,5.4,0,7.5c0,51.5-0.1,103.1,0.1,154.6c0,6.4-2,8.1-8.1,7.8
			c-8.4-0.5-16.9-0.3-25.3-0.1c-4,0.1-5.2-1.5-5.2-5.3c0.1-53,0-106.1,0.2-159.1c0-1.8,2.3-5,3.6-5.1
			C5565.6,2323.2,5576.8,2323.4,5589.1,2323.4z"/>
		<path class="st0" d="M5796.7,2121.7c32.5,0,52.6,20.5,52.6,53.5c0,32.8-20.5,53.3-53,53.3c-31.7,0-52-21-51.9-53.7
			C5744.4,2142.1,5764.6,2121.7,5796.7,2121.7z M5772,2173c0.4,4.7,0.6,7.7,1.1,10.7c0.5,2.8,1.1,5.5,2,8.2
			c3.6,10,11.5,15.6,21.7,15.5c10.2,0,18.4-5.6,21.7-15.5c3.8-11.2,3.8-22.6,0-33.8c-3.6-10.4-11.6-15.6-22.3-15.4
			c-10.4,0.2-17.9,5.7-21.2,16.1C5773.4,2163.9,5772.8,2169.3,5772,2173z"/>
		<path class="st0" d="M5425.2,2175.3c0,23.7-10.9,41.5-30.2,49.2c-21.1,8.5-47.1,4.2-60.9-11.2c-16.6-18.6-18-40.4-9.1-62.6
			c8.3-20.6,25.4-29.1,47-29.1C5405.1,2121.6,5425.2,2141.9,5425.2,2175.3z M5397.5,2176.5c-0.5-4.9-0.7-8.4-1.2-11.8
			c-0.4-2.3-1.2-4.6-2-6.8c-3.7-10-11.3-15.2-21.8-15.1c-10,0.1-17.8,5.4-21.2,15.1c-3.9,10.9-4,22.1-0.4,33.1
			c3.5,10.7,11.2,16.4,21.6,16.5c10.6,0.1,18.9-5.7,22.3-16.5C5396.3,2185.8,5396.7,2180.4,5397.5,2176.5z"/>
		<path class="st0" d="M5002.6,2175.2c-0.3-50.7,46.3-62.4,77.1-48.5c21.5,9.7,28.2,28.7,27.9,50.8c-0.3,22.6-12,40-31.1,47.4
			c-21.2,8.2-46.4,3.2-60.8-12C5007.1,2203.7,5002.6,2190.8,5002.6,2175.2z M5080.6,2175.5c-1.7-7-2.6-13.7-5-19.8
			c-3.5-9-11.1-13-20.6-12.9c-9.5,0-16.9,4.2-20.6,13.1c-5.2,12.7-5.3,25.8,0.1,38.6c3.7,8.7,11,12.8,20.1,12.9
			c9,0.1,16.9-3.3,20.6-12C5077.7,2189,5078.8,2182.1,5080.6,2175.5z"/>
		<path class="st0" d="M5962,2225.7c-9.3,0-18.2,0-27.8,0c0-2.6,0-4.9,0-7.2c0-16.5,0-32.9,0-49.4c0-3.2-0.2-6.5-0.6-9.7
			c-1.3-9.4-6-14.5-14-15.4c-11-1.3-19.1,2.7-21.9,11.9c-1.7,5.7-2.3,11.9-2.4,17.9c-0.3,17.1-0.1,34.2-0.1,51.7
			c-9.5,0-18.4,0-27.8,0c0-33.5,0-67,0-100.8c8.8,0,17.3,0,26.1,0c0.3,3.9,0.5,7.5,0.9,12c3.1-2.9,5.4-5.4,8-7.5
			c11.5-9.2,33.6-10.2,46-2.2c9.3,6,13,15.4,13.3,25.5C5962.4,2176.6,5962,2200.8,5962,2225.7z"/>
		<path class="st0" d="M5438.8,456.6c13.3,0,26,0,39.1,0c0,47.8,0,95.3,0,143.3c-13,0-25.8,0-39.1,0
			C5438.8,552.2,5438.8,504.7,5438.8,456.6z"/>
		<path class="st0" d="M5647.7,600.1c-13,0-25.7,0-38.9,0c0-47.7,0-95.2,0-143.3c12.6,0,25.5,0,38.9,0
			C5647.7,504.4,5647.7,552.1,5647.7,600.1z"/>
		<path class="st0" d="M5687.4,2143c-6.6,0-13,0-19.9,0c0,18.4-0.1,36.1,0.1,53.8c0.1,4.7,3.1,7.6,7.9,7.8c3.9,0.2,7.7,0,12,0
			c0,6.8,0,13.9,0,21.4c-11.2,1.5-22.4,2.1-33.4-1.2c-8.8-2.6-14.2-8.7-14.4-17.9c-0.5-18-0.4-35.9-0.6-53.9c0-3,0-6,0-9.8
			c-5.6,0-10.7,0-16.3,0c0-6.6,0-12.5,0-19.1c5.3,0,10.4,0,16.1,0c0-10.1,0-19.6,0-29.6c9.5,0,18.5,0,28.2,0c0,9.5,0,19.1,0,29.4
			c7.1,0,13.5,0,20.4,0C5687.4,2130.5,5687.4,2136.4,5687.4,2143z"/>
		<path class="st0" d="M5124,2124.6c8.7,0,17.1,0,26.1,0c0,5,0,9.7,0,16.6c10.1-14.2,21.7-21.4,38.2-19.1c0,8.5,0,16.8,0,25.6
			c-2.5,0-5,0.1-7.5,0c-16.8-0.5-27.5,8.3-28.6,25c-1,14.9-0.5,29.9-0.7,44.8c0,2.6,0,5.1,0,8c-9.4,0-18.2,0-27.5,0
			C5124,2192.1,5124,2158.7,5124,2124.6z"/>
		<path class="st0" d="M5508.6,2148.2c-3.4-0.2-5.9-0.4-8.5-0.4c-16.3-0.5-26.8,7.8-28.1,24c-1.2,15.1-0.5,30.2-0.7,45.4
			c0,2.8,0,5.5,0,8.5c-9.6,0-18.4,0-27.7,0c0-33.5,0-66.9,0-100.9c8.3,0,16.8,0,25.7,0c0,5.1,0,10,0,14.9c0.4,0.2,0.8,0.4,1.2,0.6
			c1.2-1.5,2.3-3.1,3.5-4.6c7.5-9.4,17-14.3,29.2-14.1c3.6,0.1,5.6,0.9,5.4,5.1C5508.4,2133.6,5508.6,2140.5,5508.6,2148.2z"/>
		<path class="st0" d="M5702,2124.5c9.2,0,18,0,27.2,0c0,33.6,0,67,0,100.9c-8.8,0-17.8,0-27.2,0
			C5702,2192.1,5702,2158.7,5702,2124.5z"/>
		<path class="st0" d="M5608.6,433.7c0-10.5,0-20.8,0-31.7c12.8,0,25.6,0,39,0c0,10.3,0,20.7,0,31.7
			C5635,433.7,5622.2,433.7,5608.6,433.7z"/>
		<path class="st0" d="M5439,401.5c11.4,0,22.4,0,33.5,0c1.7,0,3.4,0.2,5.5,0.3c0,10.7,0,21.2,0,32c-13,0-25.7,0-38.9,0
			C5439,423.4,5439,413,5439,401.5z"/>
		<path class="st0" d="M5928.3,1873.3c-18.8,0-33.2-14.7-33-33.5c0.2-18.4,14.8-32.7,33.3-32.6c18.4,0.1,33,14.6,33,32.9
			C5961.6,1858.9,5947.1,1873.4,5928.3,1873.3z M5928.5,1868.2c15.1-0.1,27.3-12.9,26.9-28.4c-0.3-15.4-12.4-27.5-27.2-27.4
			c-14.9,0.1-26.8,12.3-26.9,27.7C5901.2,1855.8,5913.4,1868.3,5928.5,1868.2z"/>
		<path class="st0" d="M5729.4,2086c0,7.6,0,14.8,0,22.5c-9.2,0-18.2,0-27.5,0c0-7.4,0-14.7,0-22.5
			C5710.8,2086,5719.8,2086,5729.4,2086z"/>
		<path class="st0" d="M5556.7,1230.7c10,3.1,18.8,5.2,27.2,8.4c55.3,21.3,85,62.6,92.1,120.6c5.7,46.9-3.8,90.6-31.2,129.5
			c-29.1,41.4-70.1,64.1-119.5,72.1c-14.3,2.3-28.9,3.3-43.3,3.3c-97.5,0.3-195,0.1-292.5,0.1c-2.4,0-4.7,0-7.6,0
			c0-210.2,0-419.8,0-630.3c2.1-0.1,4.4-0.3,6.7-0.3c83,0,166-0.3,249,0.1c35.1,0.2,70,1.8,104.6,9.3
			c49.2,10.7,97.4,57.5,106.6,117.6c6.6,43.2-0.2,83.7-26.4,119.7c-14.4,19.9-33.4,34.3-55.4,45
			C5564,1227.4,5560.9,1228.8,5556.7,1230.7z M5265.6,1493.7c2.9,0,5.4,0,7.9,0c65.4,0,130.9,0,196.3,0c8.2,0,16.5-0.1,24.6-1.1
			c35.5-4.4,65-19.2,83.8-51c12.9-21.8,16.4-45.8,14.7-70.7c-2.6-37.1-20.1-64.2-54.3-79.8c-24.1-11-49.8-14.6-75.9-14.7
			c-63.3-0.3-126.5-0.1-189.8-0.1c-2.3,0-4.6,0-7.3,0C5265.6,1348.9,5265.6,1420.9,5265.6,1493.7z M5265.6,1005
			c0,67.3,0,133.5,0,200c1.6,0.1,2.8,0.2,4.1,0.2c54.6,0,109.2,0.1,163.7-0.1c23.4-0.1,46.7-1.9,69.3-9c28-8.8,49.3-24.9,58.8-53.8
			c6.4-19.5,6.8-39.6,4-59.7c-4.6-32.5-21.3-55.7-52.7-67.2c-20.8-7.6-42.6-10-64.4-10.2c-58.9-0.4-117.8-0.3-176.7-0.3
			C5269.7,1005,5267.8,1005,5265.6,1005z"/>
		<path class="st0" d="M5934.5,1843c3.5,5.5,6.6,10.4,9.8,15.5c-4.3,2-6.8,0.6-8.7-3c-1.6-3-3.4-6.1-5.6-8.7
			c-1.7-1.9-4.2-3.1-7.9-5.8c0,7.5,0,12.5,0,18c-2.5,0-4.3,0-6.4,0c0-12.5,0-24.7,0-38.4c7.2,0.4,14.5,0.3,21.6,1.3
			c4.4,0.7,6.5,4.4,6.8,9.1C5944.5,1837.7,5941,1841.1,5934.5,1843z M5922.1,1839.6c5.6-1.8,10.3-3,14.7-5c0.7-0.3,0.5-5.4-0.2-5.6
			c-4.5-1.6-9.2-2.5-14.5-3.8C5922.1,1830.4,5922.1,1833.8,5922.1,1839.6z"/>
	</g>
</g>
<g>
	<path class="st0" d="M9634.3,1572.4c0,30.8,0,61.6,0,92.7c7.3,1.2,11.4,2.5,15.4,2.5c93.1-0.7,186.1-0.7,279.2-2.8
		c68.9-1.6,118.8-57.5,111.7-125.6c-2.2-21.1-11-42.7-21.5-61.4c-69.2-123-139.7-245.2-209.8-367.7c-5.3-9.2-12.6-18.3-14.3-28.2
		c-1.3-7.9,2-21.1,7.8-24.8c39.4-25.1,79.9-48.4,122.1-73.4c5.4,8.2,10.2,14.9,14.3,22.1c75.1,131.1,150.7,261.9,225.1,393.4
		c69.6,122.8,52.6,262-42.7,353.9c-48.7,47-107.7,75.1-175.3,77.7c-94.4,3.6-188.9,2.9-283.4,4c-8.4,0.1-16.8,0-28,0
		c0,31.9,0,62,0,96.4c-6.9-5.3-10.5-7.1-12.6-10c-36.9-49.5-73.6-99.2-110.3-148.8c-8.3-11.2-15.4-22.5-5.2-36.5
		c40.3-54.8,80.5-109.6,120.8-164.4C9630,1571.8,9632.1,1572.1,9634.3,1572.4z"/>
	<path class="st0" d="M11822.8,808.9c27.7-15.2,53-29.1,82.5-45.3c-2.3,9.2-2.9,14.3-4.8,19.1c-21.1,54.1-42.6,108.1-63.5,162.4
		c-6.3,16.4-15.7,26.9-34.6,24.5c-61.2-7.8-122.4-15.8-183.6-23.7c-3.3-0.4-6.5-1.8-15.3-4.4c27.2-17.3,50.6-32.1,75.2-47.8
		c-23.3-40.4-45.9-79.5-68.5-118.6c-25.2-43.6-50.7-87-75.5-130.8c-23.4-41.1-57.7-63.9-105.6-62.8c-47.3,1-78.8,26-101.1,66.6
		c-71,129.3-142.9,258.1-214.5,387c-4.8,8.6-10.2,16.7-17,27.7c-45.4-25.9-89.8-50.7-133.3-76.9c-3-1.8-2.2-15.3,1-21.1
		c42.2-77.9,85.1-155.5,128-233c32.6-59,64.8-118.1,98.1-176.7c105.9-186,366.7-191,478.6-8.4c47.1,76.8,90.7,155.7,135.9,233.5
		C11810.1,789.2,11816,798,11822.8,808.9z"/>
	<path class="st0" d="M9830,808.9c27.1-14.8,51.9-28.2,79.7-43.4c-0.8,7.7-0.4,12.5-1.9,16.5c-21.2,54.9-42.8,109.5-63.8,164.5
		c-6.6,17.2-18.2,24.9-36,22.8c-61.3-7.3-122.5-14.8-183.8-22.3c-3.4-0.4-6.6-2.1-14.3-4.7c27-16.9,51.1-32,77.1-48.4
		c-12.8-22-24.8-42.7-36.8-63.3c-37.3-64.4-73.6-129.5-112.1-193.1c-32-52.9-92.3-70.8-146.1-46.4c-27.2,12.3-44.2,34.3-58.3,59.8
		c-69.3,125.4-138.9,250.5-208.5,375.7c-6.2,11.1-12.9,21.9-21.4,36.5c-47.2-26.9-93.6-53.3-141.6-80.7c4.1-8.6,7.1-15.5,10.7-22
		c74.9-135.2,149.3-270.7,225.1-405.4c105.1-186.6,369.3-190.3,479.8-6.7c47.2,78.4,91.8,158.3,137.6,237.5
		C9819.6,792.9,9824.3,799.9,9830,808.9z"/>
	<path class="st0" d="M11628.1,1569.3c0,29.9,0.5,55.1-0.2,80.2c-0.4,13.4,3.4,18.7,17.9,18.5c89.5-1.3,179-0.3,268.5-2.7
		c99.7-2.7,150.1-94.2,100.9-181.4c-72.1-127.9-144.8-255.3-217.4-383c-18.7-33-18.1-35.5,13.8-54.3c33.6-19.8,67.2-39.5,100.9-59.2
		c1.1-0.7,2.7-0.4,6-0.9c3.1,4.2,7.1,8.9,10.1,14.2c77.7,135.3,156.9,269.8,232.5,406.3c98.7,178.4,0.2,384.4-199.9,421.4
		c-22.9,4.2-46.6,4.8-70,5c-86.6,0.6-173.3,0.2-263.5,0.2c0,32.7,0,63.2,0,93.7c-1.8,0.5-3.6,1-5.4,1.5c-3.9-4.4-8.2-8.6-11.7-13.3
		c-35.8-48.6-71.2-97.4-107.4-145.7c-9.5-12.7-10.8-24-1.4-36.7c37.9-51.4,75.8-102.9,113.8-154.2
		C11617.5,1576.4,11620.6,1574.9,11628.1,1569.3z"/>
	<path class="st0" d="M8780,1096.8c22.8-3.1,45.6-6.4,68.4-9.4c40.8-5.4,81.6-10.5,122.4-15.9c18.2-2.4,29.5,5.1,36.5,21.9
		c22.5,54.3,45.7,108.4,68.4,162.6c1.8,4.3,2.3,9.2,4.8,19.4c-30.2-16.3-56.2-30.3-83.8-45.2c-9.8,17.2-19,33-27.9,49
		c-36.9,66.3-73.4,132.8-110.5,198.9c-18.1,32.2-26.4,65.7-16.2,102.1c14.9,52.9,57.8,82.7,119.6,82.7c147-0.1,294-0.7,441-1
		c35.3-0.1,37.7,2.3,37.8,37.1c0.1,41.7,0,83.4,0,126.4c-8.2,0.7-14.4,1.6-20.6,1.6c-155.5,0.2-311,0.9-466.6,0.3
		c-145.4-0.6-253.2-90.8-278.1-234.1c-11.7-67.1,1.7-131.2,35.1-190.9c42.6-76.1,85-152.3,127.4-228.5c4.1-7.4,8-14.8,12.9-24
		c-24.3-15.7-47.8-30.9-71.3-46.1C8779.5,1101.4,8779.7,1099.1,8780,1096.8z"/>
	<path class="st0" d="M10843.5,1150c-25.2-16.5-48.7-31.8-72.2-47.1c0.3-2,0.6-3.9,0.9-5.9c23.3-3.1,46.6-6.1,69.8-9.3
		c40.8-5.5,81.5-11,122.3-16.5c15.1-2,26.4,2.7,32.7,17.4c25.1,58.6,50.2,117.2,75.3,175.9c0.7,1.7,0.1,4,0.1,10.1
		c-28.6-14.9-55.1-28.7-83.3-43.4c-4,6.5-8,12.2-11.3,18.2c-43.7,77.9-87.3,155.9-131.1,233.8c-14.8,26.3-20.7,54-16.5,84
		c6.7,47.7,44.3,86.5,92.1,93.2c16.1,2.2,32.6,2.4,48.9,2.4c142.1,0,284.1-0.3,426.2-0.5c33.4,0,35.4,2,35.5,34.4
		c0.1,42.5,0,84.9,0,128.6c-7.4,0.9-12.8,2.1-18.3,2.1c-160.5,0.1-321,1.3-481.5-0.3c-114.4-1.1-209.6-68.6-249.5-173.8
		c-30.5-80.5-27.2-160.6,12.9-236.8c43.6-82.8,90.5-163.8,135.9-245.7C10835.8,1164.4,10839.1,1158.2,10843.5,1150z"/>
	<path class="st0" d="M9589.6,2325.7c54,0,106.3,0,159.4,0c0,25.2,0,48.8,0,73.7c-86.3,0-170.3,0-255.6,0c0-116.6,0-232,0-349.1
		c83.4,0,166.6,0,251.5,0c0,22.7,0,45.1,0,70.7c-50.9,0-102.2,0-155.2,0c0,21.1,0,39.1,0,59.7c47.7,0,95.5,0,145.2,0
		c0,25.4,0,48.4,0,74.2c-48,0-95.8,0-145.2,0C9589.6,2279.4,9589.6,2301,9589.6,2325.7z"/>
	<path class="st0" d="M11296.7,1313.3c8.2-69.1,16.1-136.5,24.3-205.8c75.7,0,151.3,0,228.4,0c0,23.8,0,48.2,0,74.7
		c-50.8,0-100.1,0-151,0c-2.3,19.3-4.3,36.5-6.7,56.3c35.2-16.7,69-20.6,103.6-9c27.6,9.2,48.1,26.6,61.1,52.8
		c44.7,89.7-10.7,186.9-110.2,189.8c-30.5,0.9-62.5-3.8-91.6-13c-40.4-12.8-63.1-49.3-65-93.7c27.6,0,55.2-0.5,82.7,0.5
		c4.5,0.2,10.3,5.8,12.8,10.3c11.8,21.6,27.9,31,49.8,27.6c21.2-3.3,32.2-15.5,35.9-41.2c1.2-8.3,1.3-17,0.7-25.4
		c-1.5-19.6-8.2-37.1-29.1-42.5c-21.9-5.7-42.3-2.6-57.2,17.5c-2.8,3.8-8.7,7.9-13,7.6
		C11347.8,1318.4,11323.2,1315.7,11296.7,1313.3z"/>
	<path class="st0" d="M11581.4,2399.7c-34.2,0-64.5,0-96.7,0c0-116.5,0-232.3,0-352.7c64.1,2.4,128.3,0.1,191.1,8.3
		c62,8.1,93.7,57.7,87.7,120.5c-5.7,59.9-50,99.1-116.2,102.1c-21.2,0.9-42.5,0.1-66,0.1
		C11581.4,2318.6,11581.4,2358,11581.4,2399.7z M11580.7,2204.3c49,5.2,73.4,1.5,79.3-17.8c4.7-15.2,5.6-37.5-2.5-49.6
		c-18.4-27.7-49.6-13.3-76.9-17C11580.7,2149.7,11580.7,2176.4,11580.7,2204.3z"/>
	<path class="st0" d="M9252.9,2277.9c0,42.5,0,81.3,0,121.6c-31.6,0-61.8,0-94.1,0c0-116.3,0-232.3,0-346.3
		c62.6,0,125.3-5.1,186.7,1.4c61.5,6.5,95.6,57.5,90.6,118.8c-4.9,60.5-49.5,100.7-116.8,104.3
		C9298.2,2278.8,9276.9,2277.9,9252.9,2277.9z M9254.7,2119.7c0,30.6,0,57.8,0,86.7c28.2-3.6,60.4,10.4,77.3-19.7
		c7-12.4,6.9-35.4-0.1-47.8C9314.7,2108.8,9282.5,2123.8,9254.7,2119.7z"/>
	<path class="st0" d="M11244.1,2278.1c0,41.9,0,80.8,0,121.3c-31.3,0-61.4,0-93.4,0c0-115.6,0-231.5,0-350c21.3,0,43.1-0.2,64.9,0
		c32.6,0.4,65.4-0.2,97.9,2c73,4.9,114.5,47.3,113.5,114.1c-1,66.7-46.3,109.9-118.7,112.5
		C11287.8,2278.7,11267.3,2278.1,11244.1,2278.1z M11245.2,2119.6c0,30.3,0,57.5,0,86.6c27.9-2.9,59.4,10.7,77.3-17.7
		c7.5-11.9,8.1-35,1.5-47.6C11307.4,2108.8,11274.1,2124,11245.2,2119.6z"/>
	<path class="st0" d="M9452.7,1462.9c0-24.3,0-47.5,0-72.8c-54.2,0-106.4,0-161,0c0.7-36.1-5.9-69.1,16.4-101.4
		c37.4-54.3,70.1-111.7,106-167.1c4.7-7.3,16-14.1,24.5-14.5c33.9-1.6,67.8-0.7,104.2-0.7c0,70.2,0,138.7,0,209
		c13.2,0.9,24.1,1.7,36.4,2.5c0,23.3,0,45.7,0,70.7c-10.3,0.9-21.2,1.8-34.4,2.9c0,23.5,0,46.5,0,71.1
		C9513.6,1462.9,9484.9,1462.9,9452.7,1462.9z M9450.9,1317.4c0-42.3,0-82.3,0-127.9c-25.8,45.3-48.7,85.3-73.1,127.9
		C9404.6,1317.4,9427,1317.4,9450.9,1317.4z"/>
</g>
<g>
	<path class="st0" d="M1977.5,1357.7c-2.4-3.3-4.1-5.7-5.8-7.9c-15.7-19.6-28.7-40.9-39.9-63.3c-7.6-15.1-11.9-31.3-15.6-47.6
		c-5.3-23.5-6.9-47.4-5-71.3c2.2-27.2,9-53.4,20-78.4c17.9-40.6,44.4-74.6,78-103.3c52-44.5,112.1-73,178.2-89.1
		c24.2-5.9,48.9-9.7,73.8-11.9c22.8-2.1,45.7-2.1,68.5-1.4c23.9,0.8,47.6,3.8,71.1,8.4c31.9,6.3,63,15.4,93,28
		c53,22.4,100.1,53.4,138.5,96.6c26.7,29.9,46.5,64,58,102.6c8,26.9,11.7,54.3,10.1,82.4c-1.2,20.8-5.5,40.9-11.5,60.8
		c-5.9,19.6-14.7,37.8-25.3,55.3c-22.4,36.9-52,67-86.7,92.2c-38.8,28.1-81.5,48.2-127.4,61.7c-20.2,5.9-40.7,10.9-61.5,14.1
		c-15.1,2.3-30.4,4.2-45.7,4.8c-20,0.8-40,0.9-59.9,0.1c-16-0.7-32-2.8-47.8-5.1c-26.9-3.9-53.2-10.3-78.8-19.3
		c-4.7-1.6-9-1.2-13.6,0c-32.8,8.5-65.5,17-98.4,25.4c-42.1,10.7-84.3,21.5-126.5,32c-4.4,1.1-9.2,1.6-13.7,1.3
		c-8.8-0.6-14.4-9.7-11.1-18c1.7-4.3,4.1-8.3,6.4-12.3c23.1-39.8,46.3-79.5,69.4-119.4C1971.4,1369.6,1974.2,1363.8,1977.5,1357.7z
		 M2294.2,1201c-3.4,3.7-5.4,6.1-7.6,8.3c-26.1,25.5-45.1,56-62.5,87.6c-1.7,3.1-3.2,6.4-4.5,9.7c-2.1,5.4-1,8.1,4.8,9.3
		c6.2,1.3,12.7,1.7,19,2.8c11.7,2,23.5,1.8,35.2,0.8c22.4-1.8,44.4-6.1,65.9-12.9c30.4-9.7,57.4-24.9,80.5-47.1
		c15-14.5,27.1-31.3,37.5-49.2c17.6-30.2,27.7-63.2,35-97.1c4.4-20.6,6.8-41.5,7.8-62.6c0.4-9.2-0.4-18.5-0.8-27.8
		c-0.1-1.8-0.3-3.6-0.8-5.3c-1.4-4.7-5.7-6.8-10.1-4.6c-3.2,1.6-6.1,3.7-8.9,5.9c-6.8,5.3-14.1,9.7-22.1,13
		c-13.8,5.8-28.1,10.3-42.9,13c-17.5,3.2-35.1,5.8-52.7,8.4c-34,5-67,13.6-98.8,26.6c-30.6,12.6-58.1,30.1-81.6,53.7
		c-29.9,30-48.2,81.1-42.2,123.5c0.7,5.3,0.6,10.7,1,16c0.6,8.3-2.2,15.4-7,21.9c-2.5,3.4-5.5,6.6-8.1,10
		c-10.6,13.9-21.1,27.8-31.6,41.8c-1.9,2.5-3.6,5.4-4.6,8.4c-2.3,6.9,1.7,13.1,8.9,14.1c5.8,0.8,11.4,0.2,16.6-2.7
		c6.5-3.8,12.5-8.3,17.1-14.3c3.5-4.5,6.9-9.1,10.1-13.8c8.8-13,17.1-26.3,27.7-38c7-7.7,14-15.2,21-22.8
		c25.1-27.2,53.3-50.6,84.8-69.9C2284.3,1205.5,2288,1202.9,2294.2,1201z"/>
	<path class="st0" d="M1261.9,1139.1c10.1-4.5,19.8-9.2,29.7-13c19.7-7.6,40.2-11.9,61.3-14.3c23.9-2.7,46.9,0.2,69.8,6.8
		c11.8,3.4,22.6,8.8,32.6,15.7c3.2,2.2,6.4,4.4,9.4,6.4c1.5-0.3,2.7-0.3,3.6-0.8c21-12.7,44-20,67.9-25.2c24.3-5.3,48.9-7,73.4-4.1
		c22.4,2.6,44.3,7.9,63.3,21.1c16.5,11.5,28.7,26.6,35.9,45.5c7.6,19.8,11.4,40.4,12.7,61.5c2.7,43.9,2.1,87.8,2.9,131.7
		c0.1,4.2,0.5,8.5,0.7,12.7c6.3,2.4,12.2,3.1,18.3,3.4c18.7,1,18.6,5.2,22.6,17.6c3.4,10.5,6.4,21.1,9.7,31.7
		c1.6,5.3,1.4,10.5-0.5,15.8c-2.4,6.7-7,10.6-14.1,11.3c-2.5,0.3-5,0.4-7.5,0.4c-35.3,0.1-70.7,0.1-106,0.2c-2.9,0-5.7-0.2-8.6-0.3
		c-9.9-0.2-15.9-7.2-17.2-15.9c-0.7-4.2-0.9-8.5-1-12.8c-0.5-35.3-0.8-70.7-1.4-106c-0.5-27.1-1.2-54.2-2.2-81.3
		c-0.2-6.4-1.4-12.8-3-18.9c-5.7-20.9-19.8-32.7-41-35.1c-20.1-2.3-38.9,2.2-56.5,12.5c-7.9,4.6-11.2,10.8-11.2,20.1
		c0.3,46.8,0.1,93.5,0.1,140.3c0,4.6-0.1,9.3,0,13.9c0.2,6.2,1.4,7.7,7.3,8.3c3.9,0.4,7.8,0.5,11.8,0.6c2.9,0.1,5.7,0,8.6,0
		c6.4,0,10.8,3.2,13.3,9c0.6,1.3,1.1,2.6,1.5,4c3,8.8,6.1,17.5,9,26.3c1.3,4.1,2.6,8.2,3.1,12.4c1.6,13.1-6.6,23.1-19.8,24.2
		c-2.5,0.2-5,0.2-7.5,0.2c-30.7,0.3-61.4,0.6-92.1,0.8c-5.3,0-10.8,0-16-0.9c-9.3-1.5-15.8-6.7-17.7-16.2c-1-4.8-1.5-9.9-1.5-14.8
		c-0.5-31.4-0.8-62.8-1.3-94.2c-0.3-21.4-0.6-42.8-1.2-64.2c-0.4-12.5-0.8-25-2.2-37.4c-2.2-20.2-15.2-39.7-40.8-43
		c-22.4-2.9-43.3,2-62.5,13.8c-1.8,1.1-3.5,2.4-5.2,3.7c-2.1,1.6-3.2,3.8-3.2,6.5c0,1.8,0,3.6,0,5.4c0,51.4,0,102.8,0.1,154.2
		c0,2.8,0.3,5.6,0.4,7.9c2.6,3.6,6,3.5,9.1,3.6c5.7,0.3,11.4,0.3,17.1,0.4c9.4,0.2,15.2,4.7,17.8,13.9c2.7,9.6,6.1,19,9.1,28.5
		c1,3.4,1.9,6.9,2.3,10.4c1.9,15.3-8.3,21.2-18.2,23.2c-2.4,0.5-5,0.3-7.5,0.3c-53.6,0-107.1,0-160.7,0c-2.5,0-5,0.1-7.5-0.2
		c-9.8-1.1-17.9-9.4-18.3-19.2c-0.2-4.2,0.5-8.6,1.5-12.6c2.5-9.7,5.5-19.2,8.2-28.8c3.2-11.6,10.3-15.6,20.2-15.4
		c4.6,0.1,9.3,0,13.9-0.2c2.4-0.1,4.8-0.8,7.4-1.3c0.4-2.5,0.9-4.6,1-6.6c1.1-30.4,0.3-176-1-184.6c-3.2-1.6-7-2.5-10.9-3
		c-6.4-0.8-12.7-1.7-19.1-2.3c-5.7-0.5-9.3-3.5-11.1-8.7c-1.4-4-2.4-8.2-3.6-12.3c-2.3-8.2-4.8-16.4-7-24.7c-0.9-3.4-1.4-7-1.5-10.5
		c0-9.4,5.9-16.2,15.3-17.6c2.5-0.4,5-0.3,7.5-0.3c26.1-0.1,52.1,0.4,78.2-0.4c14-0.4,23.7,3.7,27.6,17.8c0.2,0.7,0.7,1.2,1.2,1.8
		C1260.8,1138.2,1261.1,1138.4,1261.9,1139.1z"/>
	<path class="st0" d="M890.1,1981.1c-2.2,0.8-3.6,1.2-4.8,1.8c-15.4,7.4-31.7,10.8-48.6,11.2c-15.7,0.3-31.4,0.6-47-1.9
		c-33.1-5.3-61.4-19.9-85.7-42.8c-10.1-9.5-17.1-21-22.3-33.6c-6.1-14.9-10.7-30.3-13.1-46.2c-2.9-18.3-5-36.8-4.3-55.4
		c1.1-25.4,4.1-50.6,12.8-74.6c20.8-57.9,61.9-91.9,123-100.6c28.2-4,56.2-2.4,83.5,6.8c10.5,3.5,20.6,8,30.2,13.5
		c1.8,1.1,3.7,2.1,6.2,3.5c1.6-3,3.2-5.6,4.5-8.4c2.9-6.1,7.6-9.3,14.3-9.5c2.1-0.1,4.3-0.2,6.4-0.2c25-0.1,50-0.3,74.9-0.3
		c4.6,0,9.3,0.2,13.8,1.1c8.3,1.6,13.1,7.3,13.2,15.7c0.1,3.5-0.3,7.2-1.2,10.6c-3.1,11.4-6.9,22.5-9.6,33.9
		c-2.6,10.9-9.7,15.2-19.9,16c-4.3,0.3-8.6,0.3-12.8,0.6c-1.7,0.1-3.4,0.7-5.5,1.1c-0.4,2.3-1,4.4-1,6.4
		c-0.1,43.5-0.7,87.1,1.6,130.6c0.6,11,0.6,22.1,0.6,33.2c0.2,24.6,0.6,49.2,0.2,73.8c-0.3,21.8-3.6,43.3-10.1,64.3
		c-11.6,37.7-35.1,64.8-71.6,80.2c-20.2,8.4-41.1,13.8-63,15.9c-40,3.8-79-0.9-117.2-12.8c-6.8-2.1-13.5-4.7-20-7.5
		c-7.2-3-14.3-6.4-21.4-9.9c-2.8-1.4-5.7-3-8-5.2c-4.7-4.3-7.2-9.7-5.7-16.3c1-4.5,1.7-9.1,2.7-13.6c2.8-11.8,5.4-23.6,8.6-35.3
		c3.3-11.8,13-17,24.8-13.2c5,1.6,9.8,4.2,14.5,6.6c9.5,4.9,18.8,10.2,28.4,14.9c12.9,6.4,26.9,9.2,41.1,11
		c13.8,1.7,27.7,2.2,41.6,0.2c8.5-1.2,16.9-3.1,24.6-7c13.1-6.6,20.6-17.3,22.4-31.8C892.2,1999.2,892.8,1990.7,890.1,1981.1z
		 M898.9,1815.7c-0.4,0-0.8,0-1.2,0c0-7.1,0.2-14.3,0-21.4c-0.5-16.7-1.4-33.5-1.8-50.2c-0.1-5.9-2.5-10.4-7-13.7
		c-3.1-2.3-6.5-4.5-10-6c-16.8-6.9-34-10.1-52.2-6.8c-17.2,3.1-31.5,11-42.1,25c-10.5,13.8-14.8,29.9-16.5,46.7
		c-1.8,18.1-2.4,36.2-0.5,54.4c1.1,10.7,3.2,21.1,7,31.2c8,20.9,22.9,33.8,44.8,38.7c9.9,2.2,19.8,2.2,29.8,2.1
		c12.4-0.2,23.8-3.9,34.8-9.2c8.5-4.1,13.1-10.7,13.2-20.3c0.1-7.1,0.4-14.3,0.6-21.4C898.2,1848.4,898.6,1832.1,898.9,1815.7z"/>
	<path class="st0" d="M2280.6,1909.1c8.9,0.7,16.7,1.5,24.5,1.9c8,0.5,13.6,4.1,16.2,11.7c4.2,12.5,8.4,25,12.2,37.6
		c0.9,3,0.9,6.4,0.6,9.5c-0.6,8.3-6.7,14.6-15,15.7c-3.9,0.5-7.8,0.5-11.8,0.5c-36.1,0.3-72.1,0.6-108.2,0.9
		c-14.6,0.1-29.3,0.2-43.9,0c-6.1-0.1-12.2-0.4-18.1-1.4c-11.1-1.8-17.1-10.9-15.2-21.8c0.4-2.1,0.8-4.2,1.5-6.2
		c3.2-10.2,6.4-20.4,9.7-30.6c0.5-1.7,1-3.4,1.7-5.1c2.6-6.8,7.6-10.2,14.7-10.4c6.4-0.2,12.9-0.1,19.3-0.3c4.7-0.2,6.6-1.8,6.7-6.5
		c0.2-7.8,0-15.7,0-23.6c0.1-50.3,0.1-100.7,0.2-151c0-3.2,0.8-6.5-2-10.2c-5.3-0.6-11.2-1.4-17.2-2.1c-2.1-0.2-4.3-0.3-6.4-0.5
		c-9.4-1-15.9-5.4-18.4-15.1c-3.2-12.1-7-24-10-36.1c-1-4-0.8-8.5,0.1-12.6c1.3-6.4,5.5-10.8,12.1-12.2c4.5-1,9.1-1.8,13.7-1.8
		c25.3-0.2,50.7,0,76-0.3c12.5-0.2,21.3,4.7,26.2,16.3c0.4,1,0.9,1.9,1.5,2.8c0.2,0.3,0.6,0.4,1.6,1.1c2.4-1.1,5.3-2.3,8.1-3.7
		c18-8.8,36.7-16,56.4-19.6c29.3-5.3,58.8-6.6,88.1,0.6c14.6,3.6,28.3,9.8,40.9,18c19.8,12.8,31.5,31.6,38.9,53.4
		c3.7,10.9,5.7,22.1,7.1,33.4c2.7,22,3.9,44.1,3.9,66.2c0,29.3,0.2,58.5,0.4,87.8c0,3.5,0.3,7,0.4,9.7c3.2,3.7,6.5,3.2,9.7,3.4
		c5,0.3,10,0.3,14.9,1c6.8,1,11.9,4.6,14.3,11.3c1.4,4,3,8,4.3,12.1c2.3,7.5,4.5,15,6.7,22.6c0.6,2,1.2,4.1,1.5,6.2
		c2.3,14.5-6.8,21.5-17.8,23.2c-1.8,0.3-3.6,0.2-5.3,0.2c-35.7,0.1-71.4,0.1-107.1,0.2c-4.7,0-9.3-0.1-13.4-2.7
		c-4.9-3-8.1-7-8.2-12.9c-0.1-2.5-0.1-5-0.2-7.5c-0.6-41.8-1.2-83.5-1.8-125.3c-0.2-11.8-0.1-23.6,0-35.3c0.1-14-1.6-27.8-4.2-41.4
		c-0.9-4.5-2.2-9-3.9-13.3c-6.7-17-19.3-26.9-37.3-29.8c-20.9-3.4-40.3,1.1-58.8,10.8c-6.3,3.3-9.6,8.1-9.8,15.3
		c-0.3,7.8-1.3,15.7-1.3,23.5c-0.1,31.1-0.1,62.1,0,93.2c0,13.6,0.3,27.1,0.5,40.7C2279.9,1903.2,2280.3,1905.6,2280.6,1909.1z"/>
	<path class="st0" d="M1858.1,1840.5c-0.9,6.6,0.9,12.4,2.3,18.3c2.8,12,7.9,22.9,15.1,32.8c6.8,9.2,15.4,15.8,26.1,19.6
		c13.9,5,28.1,7.5,43.1,5.3c8.1-1.2,16.2-1.9,24.2-4.2c17.5-5.1,32.7-14,46.3-25.9c3.2-2.8,6.4-5.7,9.8-8.4
		c5.6-4.5,12.2-5.8,19.2-4.8c6.4,0.9,11.4,4.1,13.5,10.6c0.5,1.7,1.2,3.4,1.6,5.1c2.7,11.1,5.4,22.2,7.9,33.3
		c0.8,3.5,1.1,7,1.5,10.6c0.5,5.3-1.5,9.8-4.8,13.8c-1.4,1.6-2.9,3.1-4.5,4.6c-25.9,23.1-55.5,38.5-90.3,43.2
		c-16.3,2.2-32.5,4.3-49,3.9c-31.9-0.8-62.2-7.8-90-23.9c-20.8-12-37.5-28.3-50-48.9c-11.7-19.1-18.9-39.9-23-61.8
		c-3.1-16.5-4.9-33.2-4.4-50c1-35,7.1-68.9,23.6-100.1c21.2-40.1,54-65.4,98.1-76.4c28.8-7.2,58-8.4,87.1-3.8
		c32.3,5.1,60.6,18.6,82.4,43.7c11.9,13.7,19.5,29.8,24.9,46.9c9,28.2,11.3,57.3,9.8,86.7c-0.2,3.9-0.7,7.8-1.6,11.7
		c-2,8.3-7,14-15.5,15.8c-4.1,0.9-8.5,1.3-12.7,1.3c-57.1,0.1-114.3,0.1-171.4,0.1c-4.6,0-9.3-0.1-13.9,0.1
		C1861.6,1839.6,1859.9,1840.1,1858.1,1840.5z M1980.8,1770.8c1.6-14.7-0.6-28.3-6.2-41.3c-5.9-13.4-15.6-23-30.2-26.6
		c-8-2-16.2-2.8-24.4-2c-11.1,1.1-21.8,3.3-30.9,10.6c-9,7.2-16.6,15.7-22,25.9c-5.6,10.4-9.1,21.5-10,34.1c3.2,0.3,6,0.8,8.8,0.9
		C1917.6,1773.5,1972.1,1772.8,1980.8,1770.8z"/>
	<path class="st0" d="M1488,1842.9c2.3,16.7,5.8,32.2,14.8,46c6.9,10.5,16.1,17.7,27.5,22.8c17.4,7.7,35.4,7.5,53.6,5
		c24-3.4,44.7-14.1,62.4-30.5c2.6-2.4,5.2-4.8,7.9-7.2c4.5-4,10.1-6,15.8-5.4c12,1.2,15.6,4.3,18.4,14.7c3.4,12.4,6.2,24.9,9,37.4
		c2.5,11.1-0.1,20.5-9.5,27.5c-10.6,7.8-20.9,16.2-32,23.3c-16.7,10.8-35.7,15.9-55.2,19.2c-16.2,2.8-32.5,4.5-49,4.1
		c-28.1-0.7-55.1-5.9-80.7-18.2c-29.1-14-50.4-35.7-65.9-63.5c-8-14.5-12.8-30.2-16.3-46.2c-8.5-37.9-7.7-75.8,1-113.5
		c4.3-18.5,11.3-36,21.1-52.4c17.7-29.6,43.1-49.9,75.1-62.3c16.8-6.6,34.4-9.4,52.2-10.5c12.4-0.7,25-0.9,37.5-0.1
		c27.5,1.7,53.2,9.2,76,25.6c22.3,16,37.2,37.2,45.7,63c10.1,30.9,12.8,62.8,10.6,95.1c-0.2,3.2-0.9,6.4-2,9.4
		c-3,8.1-8.9,12.7-17.5,13.6c-3.5,0.4-7.1,0.2-10.7,0.2c-59.2,0.2-118.5,0.4-177.7,0.6C1496.2,1840.5,1492.3,1840,1488,1842.9z
		 M1610.5,1773c1.8-16.4-0.8-30.5-6.8-44.1c-5.3-12.2-14.6-19.9-27.1-23.9c-7.6-2.5-15.4-2.4-23.3-2.4c-22.1,0.1-38.7,10.1-51,28.1
		c-7.6,11.1-11.4,23.6-14.4,36.5c-0.4,1.6,0.1,3.4,0.2,4.9c3.5,2.8,7.2,2,10.6,2c33.8-0.1,67.7-0.1,101.5-0.3
		C1603.5,1773.8,1606.7,1773.3,1610.5,1773z"/>
	<path class="st0" d="M858.5,1084.7c-0.1,2.5-0.4,5.7-0.4,8.8c0,79.6,0.1,159.2,0.1,238.8c0,13.2-0.1,26.4-0.1,39.6
		c0,2.5,0,5,0.2,7.5c0.3,2.9,1.8,4.6,4.8,4.7c5.3,0.3,10.7,0.1,16,0.5c4.9,0.4,9.9,1.1,14.8,2c4.5,0.9,7.5,3.9,9.3,8.1
		c0.4,1,0.9,1.9,1.2,3c4,12.9,7.9,25.9,11.8,38.9c0.7,2.4,1.2,4.9,1.3,7.3c0.6,13.5-7.1,20.8-19.1,22.9c-2.4,0.4-5,0.2-7.5,0.2
		c-59.2,0-118.5,0-177.7,0c-1.4,0-2.9,0.1-4.3,0c-10-0.5-16.7-6.8-17.4-16.8c-0.2-3.9-0.1-8,1-11.6c3.5-12.3,7.5-24.5,11.4-36.8
		c2.6-8.4,8-13.2,17.1-13.6c6.8-0.3,13.5-0.9,20.3-1.4c2.1-0.2,4.2-0.6,5.9-0.8c2.9-3.4,2.1-7.2,2.1-10.6c0.1-16.1,0-32.1,0-48.2
		c0-76.7,0-153.5,0-230.2c0-3.8,0.8-7.8-1.4-12.3c-2.4-0.3-5.1-0.8-7.8-1c-7.4-0.7-14.9-1.3-22.3-2.1c-8-0.8-13.2-5.2-15.4-12.8
		c-4.1-14-8.5-28-11.9-42.2c-2.6-10.9,6.7-22.5,17.9-23.5c2.1-0.2,4.3-0.1,6.4-0.1c57.8-0.1,115.6-0.2,173.5-0.3
		c3.6,0,7.2-0.1,10.7,0.2c12,1,20.1,11.1,18.4,23c-0.5,3.2-1.4,6.3-2.2,9.4c-2.3,8.6-4.7,17.2-7.1,25.8c-0.6,2.1-1,4.2-1.6,6.2
		c-3.1,9.7-7.7,13.4-17.8,14c-6.4,0.4-12.8,0.2-19.3,0.5C865.9,1081.9,862.1,1081.3,858.5,1084.7z"/>
	<path class="st0" d="M1217.2,1667.5c3.7-2.1,6.3-3.3,8.6-4.9c19.3-13,40.7-20.1,63.5-23.7c11.7-1.9,23.4-2,35.2-2
		c1.1,0,2.1,0,3.2,0.1c14,0.7,17,3.1,20.7,16.9c1.9,7.2,3.5,14.5,5.3,21.8c2.7,11.1,5.5,22.1,8.2,33.2c0.7,2.8,1.3,5.6,1.3,8.4
		c0,8.5-6.1,15-14.6,15.4c-3.9,0.1-7.8-0.5-11.6-1.2c-10.9-2-21.6-4.5-32.5-6.3c-18.3-3-35.4,1.5-51.6,9.9
		c-6.9,3.6-10.8,9.1-10.6,17.2c0.1,2.1-0.1,4.3-0.1,6.4c0.2,46.7,0.5,93.5,0.7,140.2c0,2.5,0.1,5,0.2,7.5c0.3,4.5,3,7.2,7.2,8.2
		c2.4,0.6,4.9,0.6,7.4,0.7c6.4,0.2,12.8,0.2,19.3,0.4c7.1,0.3,12.2,3.8,14.9,10.3c1.8,4.3,3.1,8.7,4.5,13.1
		c2.6,8.2,5.2,16.3,7.5,24.5c1,3.4,1.8,7,1.7,10.4c-0.2,8.3-4.8,14.1-12.9,16.2c-3.7,1-7.7,1.3-11.6,1.3c-48.2,0-96.3-0.1-144.5-0.2
		c-8.2,0-16.4,0.1-24.6-0.1c-3.9-0.1-7.8-0.7-11.7-1.2c-9.2-1.1-15.7-10.3-14.8-20.4c0.1-1.1,0.1-2.2,0.4-3.2
		c3.9-13,7.8-25.9,11.9-38.8c2.6-8.1,8.5-12,17-12.1c3.2,0,6.4,0,9.6,0c3.9-0.1,7.7-0.2,11.2-0.2c3.4-3.9,2.8-8,2.8-11.8
		c0.1-16.8,0-33.5,0.1-50.3c0-38.5,0.1-77.1,0.2-115.6c0-2.9,0.1-5.7-0.2-8.6c-0.4-4.6-1.9-6.2-6.6-6.9c-6.4-0.9-12.7-1.8-19.1-2.2
		c-9.1-0.6-14.2-5.2-16.6-13.9c-3.1-11.3-6.7-22.5-10-33.8c-0.4-1.4-0.6-2.8-0.8-4.2c-1.9-13,5.1-22.5,18.1-24.2
		c2.1-0.3,4.3-0.2,6.4-0.2c26.4-0.1,52.8-0.2,79.2-0.2c2.5,0,5.1-0.2,7.5,0.4c8,2,14.4,6.1,17.2,14.4
		C1214.6,1661.2,1215.7,1663.8,1217.2,1667.5z"/>
	<path class="st0" d="M1092.3,1042c-1.9,33.1-15.1,62.2-38.5,86.3c-13.9,14.3-29.3,27.2-47,36.9c-2.5,1.4-5,2.7-7.5,4.2
		c-5,3-9.5,1.8-13.9-1.3c-3.6-2.5-6.3-5.9-7.8-10c-3.5-9.7-6.6-19.6-10.1-29.3c-2.3-6.4-0.6-12,3.4-17c3.1-3.9,6.6-7.5,10.4-10.7
		c11.2-9.6,13-21.6,9.2-35c-1.7-5.8-4.2-11.3-6.5-16.9c-2.2-5.3-4.6-10.4-6.8-15.7c-2.4-5.7-3.3-11.6-3.6-17.7
		c-0.4-9.7,3.5-17.3,11.2-23c7.3-5.5,15.6-8.7,24.3-10.6c12.3-2.5,24.6-3.2,37.2-0.9c25.2,4.5,42.3,21.9,45.2,47.2
		C1091.9,1032.6,1092,1036.9,1092.3,1042z"/>
	<path class="st0" d="M2575.8,1642c2.6-0.1,5-0.3,7.9-0.4c6.6,10.5,7.7,22.8,12.5,33.6c3.4-0.1,3.8-2.3,4.3-4.3
		c2.6-9.6,5.3-19.2,9.7-28.9c2.6-0.2,5.3-0.3,7.6-0.5c0.9,1.1,1.7,1.6,1.8,2.2c0.5,2.8,1,5.6,1.1,8.4c0.2,10,0.1,20,0.2,30
		c0,1.4,0.2,3-0.3,4.2c-0.5,1.1-1.8,2.4-2.9,2.5c-1.1,0.1-3-1.2-3.2-2.1c-0.5-3.1-0.4-6.4-0.5-9.6c-0.3-6.7,0.4-13.5-0.7-20.1
		c-3,0.1-3.2,2.2-3.8,3.7c-2.3,6.4-4.5,12.8-6.7,19.2c-0.6,1.7-0.7,3.6-1.6,5.1c-0.8,1.4-2.2,3-3.6,3.4c-2.6,0.6-3.6-1.7-4.5-3.7
		c-0.7-1.6-1.1-3.4-1.7-5.1c-1.9-5.7-3.8-11.5-5.8-17.2c-0.7-2-1.7-3.8-2.5-5.7c-3,0.4-2.5,2.6-2.5,4.1c-0.1,7.5,0,15-0.1,22.5
		c-0.1,3.9-1.4,5.9-3.4,5.5c-2.8-0.6-2.8-3-2.7-5.1c0.1-12.5,0.2-25,0.4-37.4C2574.7,1645,2575.3,1643.6,2575.8,1642z"/>
	<path class="st0" d="M2552.8,1647.3c-0.3,3-0.8,5.7-0.8,8.4c0,8.2,0.1,16.3,0.2,24.5c0,1.8,0,3.6-0.1,5.3c-0.3,3.1-1.1,3.5-6.8,2.9
		c-1.8-13.5,0.9-27.3-1.2-41.3c-4.3-0.3-7.8-0.5-11.3-0.8c-1.2-0.1-1.5-0.8-1.9-4c8-1.5,26.1-1.4,33.5,0.3c0.8,2.4-0.8,3.2-2.6,3.5
		C2559,1646.7,2556.2,1646.9,2552.8,1647.3z"/>
</g>
<g>
	<path class="st0" d="M8423.4,2032.8c-3.3,0.1-6.6,0.2-9.8,0.2c-164.3,0-328.5,0.1-492.8,0.1c-160.4,0-320.8,0-481.2,0
		c-239.8,0-479.7,0-719.5,0c-16.4,0-32.9,0-49.3,0c-2.3,0-4.8,0.3-6.9-0.8c-0.6-1.7,0-3,0.6-4.4c2.5-6.1,5-12.2,7.5-18.2
		c11.2-27.7,20.2-56.2,26.4-85.4c3.5-16.6,6.5-33.4,8.2-50.3c0.9-9.2,1.7-18.4,2-27.7c0-1.5,0.3-3,0.4-4.8c1.4-2,2.9-4.3,4.5-6.4
		c9.3-12.4,17.6-25.6,25.2-39.1c20.1-35.9,35.1-73.8,45.7-113.5c3.4-12.7,6.5-25.5,8.3-38.5c0.2-1.5,0.7-2.9,2.2-4
		c2.7-1.1,5.7-0.6,8.7-0.6c15.5,0,31.1,0,46.6,0c191.2,0,382.3,0,573.5,0c176.2,0,352.4,0,528.7,0c150.5,0,301.1,0,451.6,0
		c4.5,0,9,0,13.4-0.1c2.1-0.1,4.1-0.4,6.2-0.7C8423.4,1769.9,8423.4,1901.3,8423.4,2032.8z M6807.1,1950.4c1.7,0.5,2.5,0.9,3.3,0.9
		c14.6,0,29.3,0,43.9-0.1c1.1,0,2.2-0.7,3.1-0.9c1.4-3.2,0.9-6.2,0.9-9.1c0-14.6,0-29.3,0-43.9c0-2.7,0-5.4,0.2-8.1
		c0.1-1.1,0.6-2.2,1-3.3c1.4-0.2,2.6-0.6,3.8-0.6c12.8-0.1,25.7-0.1,38.5,0c1.4,0,2.9,0.5,4.4,0.8c1.9,2.9,3.6,5.6,5.4,8.4
		c11,17.1,21.9,34.2,32.9,51.2c1.3,2,2.3,4.2,4.6,5.4c6.4,0.6,35.8,0.8,51.9,0.3c0.5,0,0.9-0.6,1.6-1c-0.2-0.7-0.2-1.7-0.7-2.3
		c-9.1-14-18.4-27.9-27.5-41.9c-5.6-8.5-11.1-17-16.5-25.6c-0.9-1.5-2.3-2.8-2-5.1c1.5-2.5,4.5-3.4,7-4.9c16-9.8,26.5-23.8,32-41.7
		c5.4-17.6,4.9-35.4-0.2-52.9c-3.4-11.7-9.4-21.9-18.1-30.5c-5.6-5.5-11.8-10-18.8-13.6c-14-7.2-28.9-11.2-44.7-11.2
		c-32.5,0-65.1,0-97.6,0c-1.8,0-3.6,0-5.4,0.2c-0.8,0.1-1.6,0.5-2.1,0.7c-0.4,0.5-0.8,0.7-0.8,1c-0.9,73.7-0.2,147.5-0.4,221.2
		C6806.7,1945.8,6806.9,1947.9,6807.1,1950.4z M8118.2,1721.3c-1.2,3.9-0.9,7.2-0.9,10.4c0,68.1,0,136.2,0,204.3
		c0,3.6,0,7.2,0.1,10.7c0,1.1,0.4,2.3,0.7,3.6c1.3,0.3,2.4,0.8,3.5,0.9c2.4,0.2,4.8,0.1,7.2,0.1c50.5,0,100.9,0.1,151.4,0.1
		c2.1,0,4.2,0,6.3-0.2c1.1-0.1,2.1-0.9,2.8-1.2c0.2-0.7,0.4-1,0.4-1.3c0.1-12.5,0.1-25.1,0.1-37.6c0-0.8-0.7-1.6-1.1-2.5
		c-3.2-1.4-6.5-0.8-9.7-0.8c-32.6,0-65.1,0-97.7,0.1c-3,0-6,0-9-0.2c-1.2,0-2.3-0.4-3.4-2.1c-0.1-1.5-0.3-3.5-0.3-5.6
		c-0.1-6.9,0-13.7,0-20.6c0-6.6,0-13.1,0.1-19.7c0-1.5,0.1-3,1.7-4.3c2.6-0.8,5.6-0.5,8.5-0.5c19.4,0,38.8,0,58.2,0
		c9.6,0,19.1,0,28.7-0.1c1.5,0,3,0.1,4.2-1.1c0.3-0.5,0.7-1.1,0.7-1.6c0.1-12.2,0.1-24.5,0-36.7c0-0.8-0.8-1.5-1.2-2.3
		c-3.3-1-6.6-0.6-9.9-0.6c-26.3,0-52.6,0-78.8,0c-2.7,0-5.4,0-8.1-0.1c-1.2,0-2.4-0.1-3.7-1.7c-0.1-0.5-0.4-1.6-0.4-2.8
		c-0.1-4.2-0.1-8.4-0.1-12.5c0-9,0-17.9,0-26.9c0-1.5,0-3,1.6-4.2c2.7-1,5.7-0.6,8.6-0.6c31.7,0,63.3,0,95,0c2.7,0,5.4,0.1,8.1-0.1
		c1.1-0.1,2.2-0.7,3.1-1c0.7-5.9,0.8-33,0.1-39.7c0-0.5-0.6-1-0.9-1.5c-0.5-0.2-1.1-0.6-1.6-0.6c-53.2-0.1-106.3-0.2-159.5-0.2
		C8121.8,1720.8,8120.3,1721.1,8118.2,1721.3z M7207.7,1722c-3.4-1.9-6.5-1.3-9.4-1.3c-49,0-97.9,0-146.9,0c-2.7,0-5.4,0-8.1,0.2
		c-1.1,0.1-2.1,0.8-3.1,1.2c-0.1,1.8-0.4,3.3-0.4,4.8c0,73.5,0,146.9,0.1,220.4c0,0.9,0.3,1.7,0.5,2.9c1,0.4,2,1,3.1,1.1
		c2.4,0.2,4.8,0.2,7.2,0.2c32.8,0,65.7,0,98.5,0c18.2,0,36.4,0,54.6,0c2.3,0,4.8,0.5,6.9-0.8c0.4-0.5,1-1,1-1.5
		c0.2-11,0.3-22.1,0.5-33.1c0-2.4,0.3-4.8-1-7.2c-0.7-0.3-1.5-0.8-2.3-0.9c-2.4-0.2-4.8-0.2-7.2-0.2c-33.1,0-66.3,0-99.4,0
		c-2.4,0-4.8,0-7.2-0.1c-1.2,0-2.4-0.3-3.5-1.9c-0.1-0.9-0.4-2.3-0.4-3.8c-0.1-3.3,0-6.6,0-9.9c0-10.5,0-20.9,0.1-31.4
		c0-1.7-0.2-3.6,1.7-5.2c2.8-0.9,6.1-0.5,9.4-0.5c26.9,0,53.8,0,80.6,0c2.4,0,4.8,0.1,7.2-0.1c1.1-0.1,2.2-0.7,3.1-1
		c0.7-6.2,0.9-31.8,0.2-38.8c0-0.5-0.6-1-1.1-1.9c-2.9-0.9-6.2-0.5-9.4-0.5c-26.6,0-53.2,0-79.7-0.1c-2.7,0-5.4,0-8.1-0.2
		c-1.1-0.1-2.2-0.7-3.5-1.1c-0.1-2.9-0.3-5.6-0.3-8.2c0-9.3,0-18.5,0-27.8c0-2.7-0.1-5.4,0.1-8.1c0.1-1.1,0.8-2.1,1.3-3.3
		c3-0.1,5.6-0.2,8.3-0.2c31.4,0,62.7,0,94.1,0c3,0,6,0,9-0.1c1.2,0,2.4-0.2,3.2-1.3c0.2-0.5,0.6-1.1,0.6-1.6
		c0.1-11,0.1-22.1,0.2-33.1C7208,1726.1,7207.8,1724.3,7207.7,1722z M7887.8,1759.4c-0.3-1.5-0.3-2.2-0.6-2.6c-1-1.5-2-3-3.2-4.3
		c-16-17-35.2-28.3-58.1-33.3c-7.3-1.6-14.8-2.2-22.2-2.4c-13.5-0.4-26.9,0.6-39.9,4.3c-29.8,8.4-52.9,25.7-68.7,52.4
		c-10.5,17.8-15.5,37.4-16.1,58.1c-0.7,25.1,4.9,48.6,18.3,70c6.4,10.2,14.1,19.3,23.4,26.9c21.3,17.6,45.9,26.1,73.4,27.1
		c11.4,0.4,22.7-0.9,33.7-3.6c23.1-5.5,42.5-17.1,57.3-35.8c0.9-1.1,1.6-2.4,2.6-3.9c-1-1.3-1.8-2.6-2.9-3.6
		c-9.2-8.6-18.4-17.1-27.6-25.6c-0.6-0.5-1.6-0.6-2.6-1c-0.9,0.8-1.9,1.5-2.7,2.3c-1.9,1.9-3.7,3.9-5.6,5.8
		c-10.1,9.9-22,16.4-36.1,18.3c-5,0.7-10.1,0.8-15.2,0.6c-13.2-0.5-25.2-4.6-35.8-12.5c-13.2-9.8-21.6-22.9-25.8-38.7
		c-2.8-10.5-3.3-21.2-2.3-32c1.6-15.9,7.5-30,18.1-42.1c7.9-9,17.7-15,29.2-18.1c10.5-2.8,21.2-3.4,32-1.9
		c9.6,1.3,18.5,4.4,26.7,9.8c5.3,3.5,9.8,7.7,14.2,12.3c1.2,1.3,2.1,2.9,4.2,3.1c0.6-0.2,1.3-0.2,1.6-0.6
		C7867.3,1778.8,7877.5,1769.2,7887.8,1759.4z M7448.1,1758.1c-0.9-2.8-3.1-4.8-5.1-6.9c-18.4-19.4-40.9-30.7-67.5-33.6
		c-17-1.9-34-1-50.6,3.5c-19.7,5.3-37.1,15-51.5,29.5c-14.1,14.2-24,31.3-29.2,50.7c-6.4,23.9-6.3,48,0.9,71.6
		c8.8,28.8,26.1,51.4,52.4,66.7c18.2,10.6,38,15.6,58.9,16.1c6.9,0.2,13.7-0.6,20.5-1.4c28.7-3.6,51.8-17,70.1-39.2
		c0.8-0.9,1.3-2,0.9-3.3c-0.3-0.5-0.6-1-1-1.4c-9.7-9.3-19.5-18.5-29.2-27.7c-0.6-0.5-1.6-0.6-2.5-1c-2.5,2.6-4.9,5.3-7.4,7.8
		c-7.9,7.9-17,14.1-27.9,17.2c-6.9,2-14,2.7-21.2,2.6c-29-0.1-52.3-18.9-61.3-41.8c-3.1-7.9-4.7-16-5.5-24.4
		c-1.2-12.4,0.1-24.5,4.3-36.2c7.8-21.7,22.7-36.1,45.4-41.8c8.8-2.2,17.6-2.5,26.7-1.5c12.2,1.3,23.2,5.6,32.8,13.1
		c3.5,2.8,6.7,5.9,10,9c1.5,1.4,2.9,2.9,4.3,4.3c0.8-0.3,1.5-0.4,1.9-0.8c10.1-9.7,20.2-19.4,30.3-29.2
		C7447.7,1759.6,7447.8,1758.9,7448.1,1758.1z M7455.9,1721.5c-0.8,1.6,0.2,2.8,0.9,4.1c6.2,10.6,12.3,21.1,18.5,31.7
		c20.6,35.3,41.2,70.6,61.8,105.9c0.9,1.5,1.7,3.1,2.8,5.1c0,6.5,0,13.4,0,20.2c0,6.9,0,13.7,0,20.6s-0.1,13.7,0.1,20.6
		c0.2,6.8-0.6,13.7,0.5,20.8c1.5,0.3,2.9,0.9,4.3,0.9c14,0,28.1,0,42.1,0c1.5,0,3-0.3,4.5-2.4c0.1-8.5,0.1-17.7,0.1-26.9
		c0-9,0-17.9,0-26.9c0.1-9.2-0.3-18.5,0.3-27.8c1.2-2.1,2.3-4.1,3.5-6.2c23.8-40.7,47.6-81.4,71.3-122.1c2.7-4.6,5.4-9.3,8-14
		c0.6-1,1.1-2.1,0.6-3.4c-1.2-1.2-2.7-1-4.1-1c-23.3-0.7-38.9-0.4-45.9,0.9c-0.9,1.5-2.1,3.2-3.1,5c-6.2,10.6-12.3,21.1-18.5,31.7
		c-11.2,19-22.4,38.1-33.6,57.1c-0.7,1.2-1.2,2.8-3.7,3.1c-3.9-5.9-7.5-12.4-11.3-18.7c-4-6.7-7.8-13.4-11.7-20.1
		c-3.7-6.5-7.5-12.9-11.2-19.4c-3.9-6.7-7.8-13.4-11.9-20c-3.9-6.3-7.1-13.1-11.4-19c-1.1-0.2-2-0.6-2.9-0.6
		c-16.1,0-32.2,0.1-48.3,0.2C7457,1720.9,7456.4,1721.3,7455.9,1721.5z M7976,1906.4c-0.3-1.4-0.7-2.5-0.8-3.7
		c-0.1-2.7-0.1-5.4-0.1-8.1c0-54,0-108-0.1-162c0-2.7,0.1-5.4-0.1-8.1c-0.1-1.1-0.7-2.2-1.1-3.5c-2.6-0.1-4.9-0.4-7.3-0.4
		c-7.8,0-15.5,0-23.3,0c-5.4,0-10.7,0-16.1,0.2c-1.1,0-2.2,0.7-3.1,1c-1.1,3.6-0.7,6.9-0.7,10.1c0,68.3,0,136.7,0,205
		c0,3.3,0,6.6,0.1,9.8c0,1.1,0.4,2.3,0.5,3.3c3,2,6,1.3,8.9,1.3c47.2,0,94.3,0,141.5,0c2.7,0,5.4,0,8-0.2c1.1-0.1,2.1-0.8,3.1-1.1
		c0.8-6.2,1-32.9,0.4-40.5c0-0.5-0.6-1-1-1.7c-3-1.3-6.3-0.7-9.5-0.7c-29.5,0-59.1,0-88.6,0
		C7983.5,1907.1,7980.2,1907.5,7976,1906.4z"/>
	<path class="st0" d="M7942.8,1607.6c-380.5,0-760.2,0-1139.8,0c-1.2,0-2.4-0.2-3.2-0.3c-1.7-1.1-1.9-2.6-1.8-4.1
		c0.2-4.8,0.3-9.6,0.6-14.3c1.2-16.1,1.4-32.2,0-48.3c-0.2-1.8-0.3-3.6-0.4-5.4c-0.9-19.1-3.6-38-7.4-56.8
		c-4.2-20.5-9.5-40.7-15.9-60.6c-6-18.8-13.5-37-21.8-54.9c-18.9-40.9-42.8-78.6-71.1-113.6c-9.8-12.1-20.1-23.7-31-34.7
		c-2.3-2.3-4.8-4.5-6.4-7.5c-0.2-2.8,1.2-5.1,2.1-7.6c8.4-21.5,18.7-42,30-62.1c7.8-13.8,16-27.4,24.8-40.5
		c16.4-24.3,33.8-47.8,53.7-69.4c8.7-9.4,17.5-18.8,26.7-27.8c22.6-22.2,46.9-42.5,72.8-60.9c38.6-27.4,79.7-50.3,123-69.5
		c22.4-9.9,45.3-18.6,68.5-26.4c30.6-10.3,61.8-18.3,93.3-25c22.8-4.8,45.7-8.7,68.8-12.1c7.7-1.1,15.4-1.7,23.1-2.5
		c7.4-0.8,14.9-1.5,22.3-2.1c5.6-0.5,11.3-1,16.9-1.4c33.1-2.6,66.3-2.1,99.4-2.1c216.3,0,432.5,0,648.8,0c103,0,206.1,0,309.1,0
		c3.6,0,7.2,0,10.8,0.1c1.4,0,2.9,0.4,4.6,0.7c0.3,1.3,0.7,2.4,0.8,3.5c0.1,1.8,0.1,3.6,0,5.4c-0.5,8.3-0.9,16.7-1.6,25
		c-0.8,10.1-1.7,20.2-2.8,30.3c-1.3,12.8-2.6,25.5-4.3,38.3c-2.7,20.7-5.7,41.4-9.7,61.9c-3.1,15.8-6,31.7-9.8,47.3
		c-3,12.2-6.1,24.3-9.1,36.5c-5.1,20.3-10.8,40.4-17.2,60.3c-7.5,23.6-16.3,46.8-25.3,69.9c-11.8,30.1-25.1,59.4-39.8,88.1
		c-30,58.6-64.6,114.4-105.1,166.4c-22,28.3-45.5,55.4-70.4,81.2c-3.5,3.6-6.9,7.4-10.5,11.1c-26.5,26.8-54.8,51.5-84.2,75.1
		C7950.5,1601.7,7946.7,1604.6,7942.8,1607.6z M7984,1429.6c0.8-1.6,0-2.8-0.8-4.1c-5.8-9.4-11.6-18.8-17.4-28.2
		c-3-4.8-6.1-9.6-9-14.4c-11.1-18.4-22.3-36.8-33.4-55.2c-8.3-13.8-16.5-27.7-24.8-41.5c-0.9-1.5-1.5-3.2-2.2-4.7
		c0.5-1,0.8-1.8,1.3-2.8c4.1-2.1,8.5-4.2,12.6-6.5c3.4-1.9,6.8-3.8,9.9-6.1c12.4-9.1,22.6-20.2,30.6-33.4
		c6.2-10.3,11.2-21,14.8-32.5c3.7-11.5,4.1-23.5,5.2-35.3c0.1-0.9-0.1-1.8-0.2-2.7c-0.3-4.2-0.7-8.3-1-12.5
		c-0.1-1.8-0.1-3.6-0.4-5.4c-3-17.8-8.9-34.7-18.3-50.2c-9.5-15.5-21.9-28.3-37.2-38.2c-19.2-12.6-40.5-19-63.4-19.1
		c-53.5-0.2-106.9-0.1-160.4-0.1c-3,0-6,0-9,0.1c-1.5,0-3,0.4-4,1.8c-1,3.1-0.6,6.4-0.6,9.6c0,28.7,0,57.3,0,86
		c0,93.2,0,186.4-0.1,279.6c0,4.2,0,8.4,0.2,12.5c0,1.1,0.7,2.2,1,3c2.6,1.3,5,1.1,7.4,1.1c14.3,0,28.7,0,43,0c1.5,0,3,0,4.5-0.2
		c1.1-0.2,2.2-0.7,2.9-0.9c1.6-3,1.1-5.7,1.2-8.3c0.1-14,0.1-28.1,0.1-42.1c0-26.3,0-52.6,0-78.9c0-3-0.5-6,1.1-9.2
		c0.8-0.4,1.8-1.2,2.9-1.3c2.4-0.3,4.8-0.3,7.1-0.4c24.5,0,49-0.1,73.5-0.1c2.1,0,4.2,0,6.3,0.1c2.1,0.1,4.1,0.6,6.6,2.7
		c1.7,2.7,3.9,6.3,6,9.8c1.4,2.3,2.6,4.7,4,7c9,14.8,18.1,29.5,27,44.4c14.5,24,29,48,43.5,72c1.1,1.7,2.5,3.2,3.7,4.7
		c1.6,0.2,2.7,0.6,3.9,0.6c20,0,40,0,60-0.1C7982.8,1430.2,7983.4,1429.8,7984,1429.6z M6945.6,1037.4c-0.2,3.2-0.5,5.6-0.5,7.9
		c-0.1,8.7-0.1,17.3-0.1,26c0,115.3,0,230.6,0,345.8c0,3,0,6,0.2,9c0.1,1.1,0.6,2.2,0.8,3c2.9,1.8,5.6,1.3,8.3,1.3
		c13.1,0,26.3,0,39.4,0c2.4,0,4.8,0,7.2-0.2c1.1-0.1,2.2-0.6,3.5-0.9c0.3-1.4,0.8-2.5,0.9-3.6c0.1-2.7,0.1-5.4,0.1-8.1
		c0-27.2,0-54.4,0-81.5c0-12.2,0-24.5,0-36.7c0-2.3-0.4-4.8,1.4-7.1c1.5-1.4,3.6-1.4,5.7-1.4c8.1,0,16.1,0,24.2,0
		c27.8,0,55.6-0.1,83.3,0c8.1,0,16.1-0.9,24-2.6c15-3.4,29-9.1,41.4-18.4c5.5-4.2,10.6-8.8,15.5-13.6c10.7-10.4,18.3-22.8,24.4-36.2
		c4.9-10.6,8.4-21.8,10.4-33.2c1.4-7.9,2-16,2.1-24c0.1-6.2-0.6-12.5-1.6-18.7c-2.7-16.3-7.6-31.9-16.1-46.2
		c-7.1-11.8-15.3-22.6-25.8-31.8c-14.7-13-31.6-21.2-50.4-26.1c-9-2.3-18.2-3.3-27.5-3.3c-49.3,0-98.6,0-147.8,0
		c-5.7,0-11.4,0-17,0.1C6950,1036.6,6948.2,1037,6945.6,1037.4z M7570.6,1314.9c-1.7,2.9-2.9,4.9-4.1,7c-9,15.8-21,29-36.1,39.2
		c-17.8,12-37.7,17.7-58.9,19.4c-11.3,0.9-22.6-0.2-33.8-2.6c-11.8-2.5-22.8-7-33.2-12.9c-10.7-6.1-20.4-13.4-28.8-22.5
		c-2.4-2.6-4.6-5.5-6.9-8.2c-11.9-14.2-20.2-30.3-25.9-47.7c-5.5-16.5-8.6-33.5-7.9-51.1c0.1-3.3,0-6.6,0.1-9.9
		c0.1-6,0.6-11.9,1.5-17.8c2.3-15.5,6.6-30.2,13.1-44.5c7.6-16.8,17.6-31.8,31.1-44.5c9.3-8.7,19.7-15.6,31.1-20.9
		c14.2-6.7,29.3-10.1,45.1-10.1c6.3,0,12.5,0.1,18.8,0.1c3.6,0,7.1,0.6,10.6,1.2c12.5,2.3,23.9,7.2,35.2,12.8
		c7.6,3.8,14.1,9,20.4,14.4c2.3,1.9,4.3,4.2,6.2,6.5c6.3,7.6,12.1,15.5,16.9,24.2c0.5,1,1.4,1.8,2,2.5c1-0.1,1.7,0,2.1-0.3
		c12.4-8.3,24.8-16.6,37.1-25.1c2.6-1.8,5.5-3.5,7.4-5.8c0.3-3-1.3-4.9-2.5-6.9c-7.3-12.5-16.6-23.3-26.9-33.4
		c-10.6-10.3-22.4-18.8-35.4-25.6c-9.8-5.1-20.2-9-30.7-12.2c-2.6-0.8-5.2-1.4-7.8-1.9c-8.5-1.8-16.9-3.8-25.6-4
		c-0.6,0-1.2-0.1-1.8-0.2c-4.4-1-8.9-1.1-13.4-1.1c-9.2,0-18.5,0-27.7,1.3c-6.5,0.9-13.1,1.6-19.5,2.9
		c-25.5,5.2-48.8,15.6-69.6,31.4c-3.3,2.5-6.7,5-9.7,7.9c-11.5,10.9-22.8,21.9-31.8,35.1c-7.4,10.9-14.2,22.1-19.1,34.4
		c-2.3,5.8-4.5,11.7-6.8,17.5c-4.1,10.3-6.3,21.1-8.6,31.9c-1,4.7-1.8,9.4-1.9,14.2c-0.4,19.1-1.8,38.2,1.7,57.2
		c0.9,5,1.4,10.1,2.7,14.9c5.6,21.5,13.4,42,25,61.1c9.1,14.9,20.1,28.2,32.2,40.6c2.7,2.8,6,5,8.8,7.6
		c10.9,9.9,23.1,17.9,36.1,24.7c12.8,6.7,26.5,11,40.4,14.3c8.1,1.9,16.4,3.4,24.7,3.7c10.7,0.3,21.5,0.1,32.3,0.1
		c1.8,0,3.6-0.1,5.4-0.3c10.3-1.7,20.6-3.4,30.7-6.2c14.5-4,28.2-9.6,41.2-17.2c8-4.7,15.6-9.9,22.9-15.7
		c12.7-10.2,23.5-22,32.5-35.5c2.8-4.2,5.1-8.8,7.5-13.2c0.5-1,0.6-2.2,1-3.5c-1-0.9-1.7-1.9-2.7-2.5
		C7602,1331.3,7586.9,1323,7570.6,1314.9z"/>
	<path class="st0" d="M6611.7,1390.9c-0.4,1.5-0.1,2.9,0.6,4.3c6.6,12.1,11.5,24.9,16.6,37.7c10.1,25,17.6,50.8,23.4,77
		c3.1,13.7,6.1,27.4,8,41.3c1.6,11.8,3.2,23.7,4.6,35.5c1.2,11,2.3,22,2.4,33c0,1.4,0.5,2.9-1.2,4.2c-0.5-0.6-1.2-1.2-1.6-1.9
		c-3.2-6.4-6.3-12.9-9.4-19.3c-13.3-27.2-29.3-52.7-47-77.2c-16.5-22.8-34.9-44-55.1-63.5c-21.8-21-44.8-40.4-70.3-56.8
		c-5.5-3.5-10.9-7.4-16.4-11.1c-0.2-2-0.6-3.7-0.5-5.5c0.8-10.1,1.6-20.2,2.7-30.3c1.4-13.4,3.1-26.7,4.7-40
		c0.9-7.4,1.5-14.9,2.4-22.3c1.7-13.4,1.7-26.8,2.5-40.2c0.7-11-0.3-22.1-0.9-33.1c-0.9-17.9-3.4-35.7-6.5-53.3
		c-2.4-13.5-5.5-26.9-9.4-40.1c-0.5-1.7-0.6-3.5-0.9-5.3c0-0.2,0.3-0.5,0.5-0.7c1.2-0.6,2.3,0,3.3,0.5c12.8,5.1,25.4,10.5,37.5,17.1
		c27.6,15,53.9,32,78.6,51.5c29.4,23.3,55.7,49.6,79.5,78.6c25.1,30.7,45.8,64.1,62.9,99.8c11.8,24.6,21.5,49.9,28.7,76.2
		c5.3,19.3,9.8,38.8,12.7,58.6c2.1,14.8,3.4,29.7,4.4,44.6c0.9,13.7,0.8,27.5-0.5,41.2c-0.7,6.8-1.1,13.7-1.7,20.5
		c-1.2,12.8-3.7,25.4-6.4,38c-3.6,16.3-7.1,32.7-12.3,48.6c-7.9,24.5-17.6,48.2-29.9,70.9c-2.6,4.7-5.4,9.3-8.2,13.8
		c-0.3,0.5-1.5,0.6-2.5,1c-0.5-5.4-0.4-10.5,0.2-15.5c4.2-33.6,5.5-67.3,4.2-101.1c-0.9-23.6-2.7-47.1-6.7-70.4
		c-6.2-36.4-16.2-71.6-30.5-105.6c-12.6-30.2-28.7-58.4-48.7-84.3c-4.4-5.7-8.6-11.5-14.1-16.2c-0.1,0-0.3-0.1-0.4-0.1
		C6611.3,1390.9,6611.5,1390.9,6611.7,1390.9z"/>
	<path class="st0" d="M6859.2,1840.9c-0.4-1.7-0.8-2.5-0.8-3.4c0-23.2,0-46.5,0-69.7c0-0.8,0.4-1.7,0.7-2.9c1-0.3,2.1-0.8,3.2-0.8
		c14.9-0.1,29.8-0.1,44.7,0c5.4,0,10.6,1.3,15.7,3.2c12.1,4.4,19.9,12.7,22.7,25.5c1.8,8,1.8,16-0.8,23.8
		c-2.4,7.3-6.7,13.2-13.2,17.5c-6.1,4-12.8,6.3-20,7c-2.7,0.3-5.4,0.3-8,0.4c-12.8,0-25.6,0-38.4,0
		C6863.3,1841.4,6861.5,1841.1,6859.2,1840.9z"/>
	<path class="st0" d="M7737.7,1236.1c-0.4-1.3-0.9-2.4-1-3.5c-0.2-2.1-0.2-4.2-0.2-6.3c0-40.9,0-81.7,0-122.6c0-3,0-6,0.2-8.9
		c0.1-1.1,0.5-2.3,0.7-3c1.3-1.7,2.8-2,4.3-2c2.4-0.1,4.8-0.1,7.2-0.1c31,0,62-0.1,93.1-0.1c1.2,0,2.4,0,3.6,0
		c18.6-0.4,33.4,7.6,45.5,21.1c9.3,10.5,15.4,22.7,17.6,36.6c1.2,7.3,1.6,14.7,1.1,22.2c-0.6,9.7-2.7,18.9-6.2,27.8
		c-3.6,9.2-8.7,17.6-16,24.5c-5.5,5.2-11.7,9.2-18.8,11.7c-6.8,2.4-13.7,3.9-21,3.8c-33.7-0.1-67.4,0-101.1-0.1
		C7743.9,1237.3,7741.1,1237.6,7737.7,1236.1z"/>
	<path class="st0" d="M7006.4,1237c-1.4-3.6-0.9-6.9-0.9-10.1c0-31.6,0-63.3,0-94.9c0-10.4,0-20.9,0-31.3c0-3-0.3-6,0.7-8.6
		c1.1-1.6,2.4-2.2,4-2.2c2.1-0.1,4.2-0.1,6.3-0.1c31.9,0,63.9,0.1,95.8-0.1c7,0,13.6,1.1,20.2,3.3c12.4,4.2,22,12,29.4,22.4
		c8.5,11.9,13.7,25.1,14.6,39.8c0.1,1.5,0.2,3,0.5,4.4c0.7,3.3,0.4,6.5,0,9.8c-0.8,7.4-2,14.8-4.1,21.9c-4.4,14.7-12.5,27-24.5,36.6
		c-5.4,4.3-11.7,7.2-18.5,8.8c-5.5,1.3-11.1,2.3-16.8,2.3c-32.5-0.1-65.1,0-97.6,0c-2.1,0-4.2,0-6.2-0.4
		C7008,1238.3,7007.1,1237.4,7006.4,1237z"/>
	<path class="st0" d="M6497.3,1633.9c-0.8,2.8,0.1,4.1,0.8,5.3c7.6,12.9,14,26.3,20.1,40c7.5,17,13.9,34.3,19.5,52
		c6.8,21.6,12.8,43.5,16.9,65.8c2.5,13.5,4.8,27,7,40.6c1.1,7.1,1.2,14.3,2.6,21.3c1.9,10,0.9,20.3,2.9,30.3
		c0.4,1.7,0.2,3.6,0.2,5.4c0,22.4,0.2,44.8-0.1,67.2c-0.1,9.8-1.3,19.6-2.1,29.4c-1.1,13.1-3.2,26-4.9,39c-0.1,0.9-0.5,1.7-0.8,2.8
		c-0.9,0-1.9,0.3-2.5,0c-6.2-3-12.3-6.1-18.4-9.3c-1.9-1-3.6-2.1-5.5-3.1c-18.5-9.3-35.6-20.7-52.1-33.1
		c-8.8-6.6-17.5-13.5-25.4-21.3c-3.4-3.4-7.3-6.2-10.6-9.6c-13-13.2-24.8-27.4-35.5-42.6c-6.7-9.6-13-19.4-18.3-29.7
		c-3.8-7.4-7.4-15-10.6-22.7c-5-12.1-9.6-24.4-13.1-37.1c-2.9-10.7-5.1-21.5-7-32.3c-1.2-6.7-2.2-13.5-3.1-20.3
		c-0.3-2.4-0.4-4.8-0.6-7.1c-0.4-4.2-0.8-8.3-1.2-12.5c-0.3-3-0.5-6-0.5-8.9c0-24.2,0.1-48.4,0.1-72.6c0-1.5-0.1-3,0.2-4.5
		c1.4-7.1,1.1-14.3,1.5-21.4c0.2-3.9,0.7-7.7,1-11.6c0.2-2.7,0.5-5.4,0.6-8c0.2-5.7,0.2-11.3,1.4-16.9c0.5-2.3,0.3-4.8,0.4-7.1
		c0.2-5.4,0.2-10.7,1.4-16c0.4-1.7,0.3-3.6,0.4-5.4c0.2-5.4,0.2-10.7,1.4-16c0.5-2.3,0.4-4.8,0.4-7.1c0-23.9,0.1-47.8-0.1-71.7
		c-0.1-6.8-0.9-13.7-1.9-20.5c-1.4-9.7-3-19.4-4.8-29.1c-2.8-15.3-6.2-30.4-11.5-45c-1-2.8-1.8-5.7-2.7-8.5c0.5-0.8,0.9-1.6,1.4-2.5
		c1.2,0.2,2.4,0.1,3.5,0.5c4.8,1.7,9.6,3.5,14.2,5.4c16.5,7,32.6,14.9,48.4,23.4c7.9,4.2,15.5,9,23.1,13.7
		c16.9,10.6,33.3,22.1,49.1,34.5c8.7,6.8,17.1,13.9,25,21.7c3.8,3.8,8,7.2,11.9,10.9c4.1,3.9,8,8,12,12.1c2.5,2.6,4.6,5.5,7.2,8
		c6.5,6.3,12,13.3,17.6,20.2c10.5,13,20.3,26.6,29.4,40.6c6.7,10.2,13.2,20.6,18.7,31.6c2.6,5.1,5.5,9.9,8.1,15
		c9.5,18.7,17.6,37.9,24.6,57.6c5.3,14.9,10.3,29.9,13.8,45.4c2.7,11.9,5.7,23.8,6.9,36c0.3,3,1,5.9,1.4,8.8
		c1.1,8.3,2.4,16.5,3.2,24.8c0.6,5.6,0.5,11.3,0.6,17c0.2,6-0.2,11.9,1,17.9c0.3,1.7,0,3.6-0.1,5.3c-0.3,4.2-0.7,8.3-0.8,12.5
		c-0.3,9.5,0.1,19.1-1.8,28.6c-2,27.2-7.8,53.7-15.1,79.9c-5.2,18.4-11.1,36.6-19.2,53.9c-2.4,5.1-4.6,10.4-6.9,15.6
		c-0.5,1.1-1.1,2.1-1.6,2.9c-1.1,0.4-1.6,0.1-1.6-0.6c-0.1-2.1-0.2-4.2-0.1-6.2c0-23.6,0.1-47.2,0.1-70.8c0-5.4,0-10.8-1.1-16.1
		c-0.3-1.2-0.3-2.4-0.3-3.6c0.3-9.9-1-19.7-2.3-29.4c-1.9-14.8-3.2-29.6-6.3-44.3c-3.1-14.6-6.4-29.1-10.4-43.5
		c-5.4-19.3-12.1-38.1-19.8-56.6c-13.7-33-32-63.4-53.9-91.6c-6.6-8.5-13.8-16.5-21.5-24C6499.8,1635.6,6498.8,1635,6497.3,1633.9z"
		/>
</g>
<g>
	<path class="st0" d="M4094.3,786.3c-5.7,5.1-11.7,9-15.5,14.6c0.7,1.4,0.8,1.9,1.2,2.2c0.4,0.3,0.9,0.3,1.4,0.3
		c1,0.1,1.9,0.2,2.9,0.2c0.5,0,1,0,1.5,0c1,0,1.9,0,2.9,0c6.3,0,12.6,0,18.9,0c157.4-0.2,314.8-0.3,472.1-0.5c1.9,0,3.9,0,5.8-0.1
		c1.5,0,2.9,0,4.4-0.1c2.9-0.1,5.8-0.2,8.7-0.3c0.5,0,1,0,1.5-0.1c0.5,0,1,0,1.5,0s1,0,1.4,0.1c0.5,0.1,1,0.2,1.4,0.3
		c0.4,0.1,0.8,0.4,2.1,1c-1.4,5.2-5.7,8.5-9.4,11.7c-18.5,16.4-36.4,33.5-55.9,48.5c-60,45.8-125.7,81.5-197,106.6
		c-29.7,10.5-60.1,18.3-91.1,23.7c-26.8,4.7-54,5.6-81.1,3.3c-21.8-1.8-43-7.3-62.7-16.8c-38.4-18.6-63.7-48.1-73.1-90.2
		c-1.9-8.4-1.8-17.3-2.5-25.9c-0.3-3.2-0.1-6.4-0.2-9.3c-4.9-1.4-6,2-7.7,4c-15.5,18.6-31.1,37.1-46.1,56.1
		c-31.3,39.4-62.4,79-93.5,118.7c-3.5,4.5-7.5,8.8-9.1,15c4.6,2.3,8.8,4.5,13.2,6.5c75.5,33.8,145.5,76.7,210.1,128.2
		c54.9,43.8,102.6,94.5,139.9,154.2c38.3,61.4,63.9,127.8,76.2,199.3c8.1,47.1,10.1,94.4,4.9,141.8c-7.3,66-25.4,128.8-56.6,187.8
		c-35.9,67.8-84.9,124.5-144.2,172.7c-60.7,49.2-128,86.8-200.8,114.7c-14.9,5.7-29.4,12.2-43.5,19.8
		c-50.2,27-103.3,45.9-159.6,55.4c-43.7,7.4-87.5,8.6-131.7,4.4c-37.3-3.5-73.5-11.3-108.8-23.8c-56.8-20.2-107.5-50.7-151.9-91.5
		c-62.4-57.4-104.8-127.4-129.3-208.4c-12.4-41.1-17.9-83.1-18.4-126c-1-72.7,13.6-142.1,40.5-209.5
		c28.2-70.7,67.4-134.9,113.5-195.1c10-13.1,20.6-25.7,30.8-38.6c3.3-4.1,6.4-8.4,9.2-12.1c-0.9-4.7-4.3-4.4-7-4.7
		c-32.7-3.9-65.3-8.2-98-11.4c-28.9-2.8-57.9-4.6-86.8-6.6c-24.6-1.7-49.3-3.1-73.9-4.6c-2.4-0.1-4.8-0.4-7.2-0.5
		c-46-0.9-92-1.8-138-2.8c-3.7-0.1-7.4-0.4-11-0.6c-0.1-1.8-0.5-2.9-0.2-3.6c4.6-11.1,203.3-379.4,212.7-394.1
		c3.3-0.2,7.1-0.5,10.9-0.5c30.1-0.3,59.9,2.6,89.9,5.1c16.4,1.4,32.8,2.6,49.2,4c11.6,1,23.1,2.1,34.6,3.6
		c28.8,3.6,57.7,6.7,86.3,11.3c46.8,7.4,93.3,16.2,139.4,27.1c52.2,12.3,104,25.9,155.6,42.4c3.1-2.2,6.4-4.2,9.4-6.5
		c56.2-45.2,113.3-89.3,171-132.6c61.5-46.2,124.2-90.8,187.8-134.2c9.2-6.3,18.2-12.9,26.4-20.4c36.8-33.8,79.2-58.6,125.1-77.7
		c26-10.8,53.1-18.3,80.8-22.8c50-8.2,99.6-5.5,146.9,14c48.3,19.9,87.6,50.9,114.2,96.7c12.6,21.6,19.8,45.1,23.4,69.7
		c0.2,1.4-0.2,2.8-0.4,4.2c-3.7,3.7-8.3,2.3-12.4,2.4c-45,0.1-90.1,0.1-135.1,0.2c-119.1,0.2-238.2,0.3-357.4,0.5
		C4102.7,786.4,4098.4,786.3,4094.3,786.3z M3988.3,2083.7c4.5,1.8,7-1.3,9.8-2.8c58-31.1,110.3-69.8,156-117.3
		c79-82.2,123.6-180.6,135.4-293.6c5-48.4,1.7-96.7-8.6-144.4c-21.6-100.1-68.6-186.3-139.6-259.9c-34.1-35.4-72.3-65.7-112.5-93.7
		c-51.8-36-107.5-65.1-164.7-91.6c-2.6-1.2-5.3-2-7.9-3c-1.5,1.4-2.7,2.2-3.6,3.3c-13.3,18.4-26.9,36.7-39.8,55.4
		c-13.2,19.1-25.8,38.7-38.7,57.9c-2.3,3.5-3.9,7.9-8.2,8.9c-16.9-7.3-33.2-14.8-49.8-21.3c-16.2-6.4-32.5-12.3-49.1-17.6
		c-17-5.4-34.3-10-51.5-14.7c-17.1-4.7-34.9-6.1-52.3-10.8c0.9-6.4,5.5-8.8,8.9-11.8c40.3-34.8,80.7-69.4,121.1-104.2
		c0.9-0.8,1.3-2.1,1.9-3.3c-21.3-10.1-120.1-36.3-205.2-51.9c-101.8-18.7-204.4-31.9-309.1-34c-3,5.3-6.1,10.7-9.1,16.2
		c-37,68.5-74,137.1-111,205.6c-17.9,33.2-36,66.3-53.9,99.5c-1.6,3.1-4.8,6.3-1.8,11c5.1,0,10.4-0.1,15.7,0
		c20.3,0.4,40.7,0.5,61,1.3c26.1,1.1,52.2,2.7,78.3,4.4c19.3,1.2,38.6,2.8,57.9,4.2c11.1,0.8,22.2,1.5,33.3,2.6
		c23.1,2.4,46.2,4.9,69.2,7.6c33.6,4,67.3,7.5,100.7,12.7c42,6.5,84,13.4,125.5,22.5c41.5,9,83.2,17.5,124.1,29.2
		c69.3,19.9,137.4,43,202.3,74.7c56.9,27.7,109.7,61.5,156.9,103.7c40.6,36.3,72.6,78.9,94.1,129.2c15,35.2,22.6,71.9,23.3,110
		c0.5,27.7-3.4,55-9.9,81.9c-11.2,46.2-31.5,88.2-58,127.4c-23.4,34.6-50.4,66.2-80.7,95.1C3995,2075.8,3990.7,2078.8,3988.3,2083.7
		z M3669.2,1385.5c-1.4,2.2-2.8,4.1-3.8,6.2c-11.7,23.9-23.9,47.6-35,71.7c-15.1,33-28.6,66.6-40.6,100.9
		c-16.7,47.6-29.7,96-35.6,146.3c-6.8,58.4,0.2,114.9,21.9,169.5c19.7,49.6,50,91.5,91.7,125c37.4,30.2,80.1,50.4,125.2,65.6
		c22.5,7.6,45.6,12.7,68.9,16.8c16.6,2.9,33.6,4.3,50.3,6.8c8,1.2,14-1.6,19.6-6.9c6.4-6,13.1-11.5,19.5-17.4
		c38.4-35,74.3-72.2,102.6-116.1c28.9-44.8,50.9-92.2,57.4-145.9c6.3-52.2-0.6-102.2-23.7-149.8c-22.4-46.1-54.6-84.4-93.8-116.9
		c-44.9-37.2-94.7-67.1-147.3-92.2c-52.5-25-107.5-43.4-162.9-60.5C3679.1,1387.4,3674.4,1386.7,3669.2,1385.5z"/>
	<path class="st0" d="M3415.1,467.6c0.4-0.2,0.9-0.7,1.2-0.6c2.7,0.9,5.5,1.6,8,2.9c182.6,94.9,365.2,189.9,548.3,285.1
		c-0.7,2.3-1.1,4.2-1.9,5.8c-21.9,44.5-57.2,72.3-105.4,83.4c-41.8,9.7-82.6,4.4-122.5-10c-28.8-10.4-55.5-25-81-41.7
		c-40.3-26.4-75.7-58.5-108.6-93.6c-32.6-34.7-61.1-72.6-86-113c-20.3-33-37.4-67.7-49.5-104.7c-1.2-3.7-2.2-7.4-3.2-11.1
		C3414.3,469.4,3414.9,468.5,3415.1,467.6z"/>
	<path class="st0" d="M3975.8,735.2c-1.3,0.4-1.9,0.8-2.2,0.7c-8.2-4-16.5-8-24.6-12.2c-176.2-91.7-352.4-183.4-529.4-275.5
		c2.1-2.2,3.4-4.3,5.2-5.5c12.5-8.2,24.9-16.7,37.9-24.2c25.9-14.9,54.4-22.4,83.8-26.6c15.3-2.2,30.7-4.4,46.2-3.3
		c14.9,1,30,1.6,44.8,3.4c22.5,2.7,44.8,7,66.8,13c24.8,6.8,48.6,16.1,71.5,27.7c33.4,16.9,64,37.9,91.3,63.7
		c49.7,47,84.8,102.7,101.8,169.3c5.3,20.7,8.2,41.8,7.5,63.2C3976.4,731.1,3976,733.3,3975.8,735.2z"/>
	<path class="st0" d="M3406.9,2447.2c-10.5,0-19.1,0-28.5,0c-0.5-3.7-1.2-6.9-1.3-10.2c-1.4-56.2-0.7-92,2.1-103.4
		c7.8-1.4,15.8-0.8,24.5-0.4c1.3,3.7,2.5,7.1,3.7,10.7c18.6-17.6,42.8-20.3,62.5,2.7c2.8-2.6,5.5-5.3,8.4-7.8
		c19.1-16.3,56.4-9.7,61.3,23.3c0.4,2.9,0.5,5.8,0.5,8.7c0.1,22.3,0.1,44.5,0.1,66.8c0,2.8-0.5,5.6-0.7,8.3
		c-5.1,2.9-10,1.6-14.7,1.8c-4.3,0.2-8.6,0-13.8,0c-0.7-3.9-1.7-7.1-1.7-10.3c-0.2-16.5-0.1-32.9-0.1-49.4c0-5.3-0.2-10.6-0.4-16
		c-0.3-7.5-3.6-12.9-11.2-15.1c-7-2.1-14.7,0.4-19.4,6.4c-3.5,4.4-4.6,9.4-4.6,14.9c0.1,14,0.1,28.1,0.1,42.1
		c0,6.3,0.1,12.6-0.1,18.9c0,2.3-0.6,4.6-1,7.6c-9.1,1.4-17.7,1-27.1,0.4c-0.6-3.3-1.7-6.4-1.7-9.6c-0.2-17.4,0-34.9-0.2-52.3
		c-0.1-5.3-0.3-10.7-1.4-15.8c-1.7-8.4-6.9-12.6-15-13.2c-7.8-0.5-15,3.2-17.5,10.3c-1.6,4.4-2.1,9.4-2.2,14.2
		c-0.2,16.9,0,33.9,0,50.8C3407.5,2436.5,3407.1,2441.3,3406.9,2447.2z"/>
	<path class="st0" d="M3595.9,2439.9c-1.2,17.5,0.6,33.8-1,50.7c-3.7,0.4-6.5,0.8-9.2,0.8c-6.2,0-12.4-0.1-18.9-0.2
		c-0.7-3.3-1.7-5.6-1.7-7.9c-0.1-49.2-0.1-98.4-0.1-147.8c8.8-4.4,17.5-2.1,26.6-2.4c1.2,3.5,2.3,6.9,3.6,11.2
		c2.1-1.6,3.7-2.6,5-3.9c15.3-14.7,42.9-12.9,58,1.9c5.6,5.5,10,11.8,12.7,19.1c7.2,19.3,7,38.9,0.1,58.1
		c-5.7,16-16.9,26.8-34.1,30.3c-11.9,2.4-23-0.1-33.3-6.2C3601.3,2442.3,3598.9,2441.3,3595.9,2439.9z M3645,2392.8
		c0.1-10.9-2.7-20.1-6.9-26.5c-8.4-12.7-31-11.9-37.7,1.8c-7.3,14.7-8.1,29.7-1.2,44.5c7.1,15.4,30.1,18.1,40.1,1.8
		C3643.4,2407.6,3645.3,2400.3,3645,2392.8z"/>
	<path class="st0" d="M4132,2446.7c-0.4-3.8-0.9-7.1-0.9-10.3c-1.3-74.3-0.6-129.3,1.7-142.8c8.6-2.5,17.5-1.7,27.3-0.5
		c3.9,16-0.3,32.4,2.4,48.1c4.3,0.6,5.8-2.5,8.1-4c19.1-12.6,42.3-7.1,54.5,5.9c4.6,4.8,9,10.5,11.4,16.6
		c8.6,22.2,8.4,44.5-2.1,66.1c-5.5,11.3-14.3,19.2-26.7,23c-12.9,3.9-24.8,2.3-36.3-4.3c-2.5-1.4-4.7-3.2-7.9-5.4
		c-1.9,2.8-3.5,5.4-5.5,8.4C4149.7,2447.7,4141.2,2448.7,4132,2446.7z M4211,2391.1c-0.4-7.8-1.9-15.2-5.4-22.4
		c-7.9-15.9-32.6-14.5-39.6-0.6c-7.4,14.8-8,29.7-0.3,44.5c1.5,2.9,4,5.5,6.5,7.7c8.4,7.3,25.8,8.2,33.4-6.7
		C4209.2,2406.5,4210.4,2398.9,4211,2391.1z"/>
	<path class="st0" d="M4391.4,2413.6c9.6-0.5,19.1-1.1,28.9,0.4c0.5,6.8-3.1,11.5-6.2,16.3c-4,6.2-9.4,11-16,14.4
		c-13,6.7-26.9,7.8-40.9,5.3c-26-4.6-41.8-21.2-45.6-47.5c-1.8-12.6-0.6-25.2,3.4-37.2c10-29.3,37.3-38.4,61.1-35
		c24.5,3.5,40.8,20.3,44.7,44.7c0.9,5.7,1.3,11.5,1.7,17.3c0.1,1.3-0.7,2.7-1.2,4.9c-2.6,0.4-5.3,1.1-8,1.2
		c-18.4,0.1-36.7,0.1-55.1,0.1c-4.8,0-9.6,0-14.4,0c-2.6,6.5-0.1,11.5,2.5,15.8c2.1,3.5,5.6,6.6,9.2,8.8c6,3.6,12.9,3.1,19.7,2.2
		C4382.6,2424.3,4386.6,2418.6,4391.4,2413.6z M4389.7,2377.6c0.8-7.5-2.5-12.5-7.4-16.7c-5.4-4.6-11.9-6.2-18.8-5.4
		c-12.2,1.3-19.5,10-18.4,22.1C4359.8,2377.6,4374.6,2377.6,4389.7,2377.6z"/>
	<path class="st0" d="M4039,2369.3c-10.1,0-18.7,0-27.3,0c-0.4-16.5,6.5-28.3,19.9-33.9c17.7-7.4,35.7-7.6,53.6-0.5
		c14,5.5,21.8,15.5,21.9,30.9c0.1,15.5,0.1,30.9,0.2,46.4c0,5.8-0.6,11.7,0.4,17.4c0.9,5.5,3.4,10.7,5.1,15.9
		c-0.3,0.7-0.3,1.3-0.7,1.6c-0.3,0.3-0.9,0.5-1.3,0.5c-9.6,0-19.2,0-29.5,0c-1.5-2.6-3.1-5.4-5-8.8c-3.2,2.1-6.3,4.4-9.5,6.3
		c-11.5,6.6-23.6,7.9-36.3,4.2c-14.1-4.1-23.2-14.7-24.4-29.1c-1.2-14.7,4.1-26.6,17.3-34.1c7.6-4.3,16.1-6.2,24.8-7.4
		c6.7-0.9,13.4-1.8,20-3.1c5.4-1.1,7.6-4.1,7.5-9c-0.1-5-2.2-8.1-7.1-9.8c-6.1-2.1-12.4-1.9-18.5-0.2
		C4043.8,2358.1,4040.9,2363,4039,2369.3z M4077.8,2394.6c-11.8,1.4-21.1,3.7-30.2,6.6c-2.6,0.9-5.3,2.5-7.3,4.4
		c-6.5,6.4-3.9,18.7,4.3,21.7c11.8,4.3,27-3,30.3-15.1C4076.4,2407.2,4076.7,2401.9,4077.8,2394.6z"/>
	<path class="st0" d="M3805.5,2392.6c0.4,13.3-3.7,26.5-12.2,38.2c-6.5,8.9-15.1,14.7-25.8,17.7c-10.5,2.9-21.1,3.3-31.6,1.8
		c-23.4-3.4-38.9-18.2-44.9-41.5c-3.7-14.6-2.9-28.9,2.3-42.8c10.4-27.9,35.9-39.9,64-35.6
		C3792.9,2335.8,3806.5,2366.2,3805.5,2392.6z M3775.2,2390.4c-1.7-7-2.6-14.2-5.3-20.8c-3.8-9.4-12.1-13.8-21.9-13.8
		c-9.7-0.1-17.9,3.6-22.5,13c-7.2,14.9-6.8,29.7,0.7,44.4c8.1,15.9,33.4,16.8,42.9-0.2C3773,2406.1,3774.1,2398.5,3775.2,2390.4z"/>
	<path class="st0" d="M3357.3,2391.8c0.7,15.1-3.5,28.7-13.1,40.4c-2.7,3.3-5.9,6.5-9.3,9.1c-27.8,20.3-72.3,9.6-87.6-21
		c-6.7-13.5-7.5-28-5.2-42.5c5.8-36.8,37.2-52.4,67.8-47.3c27.3,4.5,45.4,25,47.4,52.7C3357.5,2386,3357.3,2388.9,3357.3,2391.8z
		 M3325.9,2391.2c0.4-8.9-1.1-17.4-6-25c-9.2-14.2-31.2-14.3-40.7-0.4c-8.3,12.1-8.2,35.9-0.6,48.5c9,14.8,34.5,15.7,43-2.1
		C3324.8,2405.5,3326.2,2398.6,3325.9,2391.2z"/>
	<path class="st0" d="M3818.9,2412c2-0.6,3.3-1.3,4.7-1.3c7.7-0.1,15.4-0.1,23-0.1c0.9,1,1.8,1.6,2.1,2.4
		c2.5,5.9,5.3,11.3,12.3,13.2c8.2,2.2,16.2,2.4,24.1-1.1c3.8-1.7,6.5-4.4,6.5-8.7c0-4.5-3.4-6.8-7.1-8.2c-4-1.6-8.3-2.6-12.5-3.8
		c-9.3-2.7-18.8-4.6-27.7-8.1c-23.5-9-29.2-31.7-13.3-51.3c3.7-4.6,8.1-8.1,13.7-10.4c17.5-7.2,35-7.1,52.1,0.5
		c13.2,5.9,21.5,15.8,21.9,31.7c-9.8,2-18.7,0.1-27.9,0.1c-3.3-4.3-4.7-10-10.6-11.6c-6.7-1.8-13.4-2.5-20-0.2
		c-2.2,0.8-4.2,2.2-5.9,3.9c-2.4,2.3-2.1,7.4,0.5,9.1c2.8,1.8,5.8,3.5,9,4.5c7.4,2.2,15,3.8,22.4,6c6,1.7,12.1,3.4,17.9,5.8
		c11.8,4.9,18.2,14.2,19,26.9c0.8,13.1-4.1,23.6-15.4,30.8c-6.2,4-13.1,6.2-20.2,7.5c-16,3-31.9,2.2-46.9-4.6
		C3826.6,2438.7,3818.9,2427.8,3818.9,2412z"/>
	<path class="st0" d="M3199.4,2405.5c9.9,0,19,0,28.5,0c1.3,8.1-1.5,14.6-4.8,20.9c-17,32.5-74.2,32.5-90.6,2
		c-0.2-0.4-0.5-0.8-0.8-1.2c-10.6-17.3-10.4-57,2.1-75.3c10.9-16,26.6-21.8,44.8-22c7.1,0,14.5,1.7,21.2,4
		c17.7,6.2,26.9,19.2,28.7,37.7c-8.8,3.5-10.7,3.6-29.4,2c-1.3-2.5-2.6-5.5-4.3-8.3c-7-11.8-23-13.1-32-2.7
		c-0.6,0.7-1.2,1.5-1.8,2.3c-7.8,11.7-7.8,40.3,0.2,51.6c6.8,9.6,14.9,10.5,24.2,7.7c3.3-1,6.5-4.2,8.6-7.2
		C3196.5,2414,3197.5,2410.1,3199.4,2405.5z"/>
	<path class="st0" d="M4656.8,483.1c0,42.6-32.7,76.1-75.1,75.8c-44.7-0.4-75.2-34.6-75.6-75.6c-0.5-43.9,34.9-75.6,75.3-75.5
		C4623.4,407.9,4657.8,441.4,4656.8,483.1z M4522,482.7c-1.4,29.4,21.9,61.1,58.3,61.5c40.3,0.4,61.3-33.5,61.2-60.6
		c-0.2-32.2-25.2-61.7-60.2-61.5C4552.8,422.2,4520.8,446.6,4522,482.7z"/>
	<path class="st0" d="M3995.8,2425.9c0,7.6,0,13.8,0,20.7c-11.4,3.2-22.9,3.2-34,0.1c-9.8-2.8-14.9-10.3-15-20.7
		c-0.1-15-0.1-29.9-0.2-44.9c0-7.7-0.1-15.3-0.1-23.8c-5.3-1-9.9-1.9-14.8-2.8c-2.3-6.1-1.3-12.2-0.7-19c4.9-1,9.4-1.9,14.6-2.9
		c2.4-10-0.2-20.3,2-30.4c9.6-1.9,18.5-1.8,27.7-0.2c3.1,9.8,0.2,19.7,2.2,28.9c4.9,4.9,11.5,1.2,17.4,4.3c2.7,5.8,1.3,12.3,1,19.6
		c-6.1,0.8-11.7,1.4-18,2.2c-0.4,3.1-1.2,5.8-1.2,8.5c-0.1,15.4,0,30.9,0,46.3c0,1.9,0,3.9,0.2,5.8c0.6,4.8,2.5,6.7,7.3,7.3
		C3987.7,2425.4,3991.1,2425.6,3995.8,2425.9z"/>
	<path class="st0" d="M4263.4,2292.7c4.9-0.3,9.1-0.7,13.4-0.7c4.7,0,9.5,0.3,15,0.5c2.4,17.5,0.8,34.2,1,50.9
		c0.3,17.4,0.2,34.8,0,52.1c-0.2,16.8,0.9,33.6-0.7,50.3c-5,3-10,1.6-14.6,1.9c-4.3,0.2-8.6,0-13.4,0c-0.9-2.9-2.1-5-2.1-7.2
		c0-47.3,0-94.6,0.2-141.9C4262.1,2297.4,4262.7,2296,4263.4,2292.7z"/>
	<path class="st0" d="M4597.6,489.1c6.5,11.5,12.7,22.4,19.4,34.2c-6.4,2.7-12,1.4-18.3,1.3c-3.4-6.2-6.9-12.5-10.3-18.8
		c-2.1-3.8-4-7.7-6.5-11.3c-2.7-3.9-6.6-5.6-12.1-3.8c-2.9,5-1.1,10.8-1.4,16.4c-0.3,5.2-0.3,10.5-0.4,15.8
		c-5.1,2.9-9.9,1.9-15.1,1.2c-3.2-8.8-1.3-18-1.6-27c-0.3-9.2-0.1-18.4,0-27.6c0.1-9.1-0.6-18.2,0.9-28c15.1-1.1,29.4-1.7,43.8,0.8
		c10.1,1.8,16.7,7.4,18.4,17.8c1.7,10.4-1,19.2-10.3,25.1C4601.9,486.6,4599.9,487.7,4597.6,489.1z M4568.8,476.2
		c7.9,1.3,14.1,1.3,20.3-0.1c5-1.2,8.4-5.6,8.3-10.4c-0.1-4.8-3.8-9.8-8.5-10.4c-6.6-0.8-13.3-1.9-20.1,1
		C4568.8,462.8,4568.8,469,4568.8,476.2z"/>
</g>
</svg>
