<?xml version="1.0" encoding="utf-8"?>
<!-- Generator: Adobe Illustrator 25.3.1, SVG Export Plug-In . SVG Version: 6.00 Build 0)  -->
<svg version="1.1" id="图层_1" xmlns="http://www.w3.org/2000/svg" xmlns:xlink="http://www.w3.org/1999/xlink" x="0px" y="0px"
	 viewBox="0 0 4450.9 2744" style="enable-background:new 0 0 4450.9 2744;" xml:space="preserve">
<style type="text/css">
	.st0{fill:#FFFFFF;}
</style>
<g id="R9jx2R_1_">
	<g>
		<path class="st0" d="M3995.8,1249.7c0,305.2-247.7,552.8-553.6,552c-309.6-0.8-554.9-253.7-551-559.8
			c3.9-301,250.6-549.2,560.7-544.7C3752.9,701.5,3995.8,946.6,3995.8,1249.7z M3922.8,1249.7c-0.9-266.8-214.8-474.3-470-479.1
			c-267.5-5-484.1,209.3-488.4,470.9c-4.4,264,207.2,487.3,479.2,487.2C3709.8,1728.7,3922,1513.8,3922.8,1249.7z"/>
		<path class="st0" d="M2891.7,1990.2c0-24,0-48,0-72.2c367.2,0,733.9,0,1101.2,0c0,24,0,47.9,0,72.2
			C3626,1990.2,3259,1990.2,2891.7,1990.2z"/>
		<path class="st0" d="M3076.8,523.7c-1.8,44.7-35.2,78.5-78.8,80.9c-28.4,1.5-54.2-4.8-75.5-24.7c-15.8-14.9-24.8-33.6-28.5-54.9
			c-4.8-27.2-2.3-53.6,10.5-78.3c18.2-35.2,54.8-53.9,94.5-49.6c28.8,3.1,52.2,14.9,67.1,40.7c5.3,9.3,8.4,19.3,9.3,30.9
			c-13.6,0-26.8,0.1-39.9-0.1c-1.1,0-2.7-1.9-3.1-3.2c-5.6-18.1-18.2-28.4-36.4-30.9c-19.9-2.7-37,3.6-48.2,21.2
			c-11.6,18-13.7,38.2-10.8,58.7c1.5,10.5,4.9,21.2,10,30.5c9.8,18.1,30.3,26.3,51.2,22.6c18.7-3.3,31.4-16.4,35.3-37.4
			c1-5.4,3.1-6.5,8-6.3C3053.1,523.9,3064.7,523.7,3076.8,523.7z"/>
		<path class="st0" d="M3802.5,2493.1c-11.9,0-23.8,0.3-35.6-0.2c-2-0.1-4.4-3.1-5.8-5.3c-21.9-33.8-43.6-67.7-65.4-101.5
			c-1.2-1.9-2.5-3.8-5.2-5.2c0,37.1,0,74.2,0,112.3c-11.5,0-22.3,0.1-33-0.1c-1,0-2.3-2-3-3.3c-0.5-1.1-0.1-2.6-0.1-3.9
			c0-51.6,0-103.1,0-154.7c0-2.3,0.2-4.7,0.4-7.7c12.4,0,24.2-0.2,36.1,0.2c1.9,0.1,4,2.9,5.3,4.9c21.9,33.8,43.6,67.7,65.4,101.5
			c1.3,2,2.6,3.9,5.2,5.8c0-37.2,0-74.3,0-112c12.4,0,23.7,0,35.7,0C3802.5,2379.9,3802.5,2436.1,3802.5,2493.1z"/>
		<path class="st0" d="M3252,2381c0,37,0,74,0,111.5c-12,0-23.6,0-35.6,0c0-56.1,0-112.1,0-169.1c12.2,0,24.5-0.2,36.7,0.2
			c1.6,0.1,3.4,3,4.7,4.9c21.9,33.8,43.6,67.7,65.4,101.6c1.2,1.9,2.5,3.7,5.2,5.1c0-36.9,0-73.8,0-111.3c12.3,0,23.8,0,35.8,0
			c0.1,2.5,0.3,4.9,0.3,7.2c0,51.4-0.1,102.7,0.1,154.1c0,6.2-1.5,8.4-7.9,8c-8.2-0.5-16.5-0.4-24.7,0c-4.5,0.2-7-1.5-9.4-5.2
			c-21.7-33.9-43.5-67.8-65.3-101.7c-1.3-2-2.6-3.9-3.9-5.8C3253,2380.7,3252.5,2380.9,3252,2381z"/>
		<path class="st0" d="M3993,600.1c-12.4,0-24.5,0-37.2,0c0-5.3,0-10.6,0-15.9c-7.7,8.8-16.4,14.9-27.5,17.8
			c-31.1,8.1-60.1-5-73-34.4c-12.6-28.7-12.4-57.9,3-85.6c15.1-27,47.8-37.2,75.9-24.3c6.7,3.1,12.3,8.3,18.8,12.8
			c0-22.2,0-45.1,0-68.5c13.8,0,26.6,0,39.9,0C3993,468,3993,533.9,3993,600.1z M3956.4,526.6c-0.4-0.1-0.8-0.2-1.2-0.2
			c-0.4-4.1-0.6-8.2-1.2-12.3c-2.9-19.4-14.9-31.3-31.9-31.7c-17.4-0.5-29.6,10.2-33.8,29.6c-0.6,2.5-1,5.1-1.2,7.7
			c-1.3,14.1,0,27.7,7.8,39.9c6.6,10.2,16.2,15.3,28.5,14.6c13.3-0.8,22.7-7.5,26.8-19.9C3953.3,545.3,3954.4,535.8,3956.4,526.6z"
			/>
		<path class="st0" d="M3399.4,2492.3c0-56,0-111.9,0-168.3c1.7-0.2,3.4-0.7,5-0.7c25.8,0,51.6-0.3,77.3,0.3
			c39.2,1,68.3,29.2,72,68.3c1.8,19.3,0.8,38.1-6.6,56.1c-11.1,27-32,42.1-60.7,43.9c-27.6,1.7-55.4,0.9-83.1,1.1
			C3402.1,2493.1,3400.8,2492.6,3399.4,2492.3z M3437.8,2355.3c0,35.3,0,70.5,0,106.4c13.1,0,25.8,0.5,38.5-0.1
			c17.5-0.8,29.7-10,35.9-26.4c5.6-14.8,5.1-30.1,1.9-45.4c-4.1-19.8-16-32.2-36.3-34.3C3464.8,2354.2,3451.5,2355.3,3437.8,2355.3z
			"/>
		<path class="st0" d="M3991.6,2379c-12.6,0-23.6,0.1-34.6-0.1c-1.4,0-3.4-1.7-3.9-3.1c-5-14.9-15.3-23.5-30.7-25.2
			c-17.5-1.9-32.7,2.8-43.3,17.9c-14.5,20.7-14.5,58.1-0.3,79c13.6,19.9,47.1,25.2,66,10.1c8.8-7,12.4-16.7,13.6-28.7
			c-13.2,0-25.8,0-38.7,0c0-9.4,0-17.8,0-26.7c24.1,0,48.2,0,72.8,0c0,29.8,0,59.8,0,90.9c-6.9,0-14,0.2-21-0.2
			c-1.3-0.1-3.1-2.7-3.6-4.4c-1.3-4.3-1.9-8.7-2.9-13.1c-0.7-0.5-1.5-0.9-2.2-1.4c-0.9,1.7-1.5,3.6-2.8,4.9
			c-13.4,13.8-30.1,18.6-49,17.7c-16.6-0.8-32.1-4.9-45.8-14.5c-23.9-16.7-33.9-40.8-35.3-69c-0.9-19.4,2.8-38,12.9-54.8
			c18.6-31.1,51.6-43.2,88-37.8c23,3.4,41.7,14.5,52.7,35.7C3987.1,2363,3988.8,2370.7,3991.6,2379z"/>
		<path class="st0" d="M3186.9,2354.4c-30.7,0-61.1,0-92,0c0,12.3,0,24,0,36.5c28.1,0,55.9,0,84.4,0c0,9.7,0,18.8,0,28.7
			c-28,0-55.9,0-84.3,0c0,14.2,0,27.7,0,42.1c31.2,0,62.4,0,94,0c0,10.8,0,20.6,0,31c-44.2,0-88.2,0-132.7,0c0-56.3,0-112.2,0-168.8
			c43.3,0,86.4,0,130.5,0C3186.9,2333.6,3186.9,2343.5,3186.9,2354.4z"/>
		<path class="st0" d="M3833,555.4c-5.8,17.5-13.9,32.1-30.1,40c-24.4,11.9-49.6,12.4-73.8,0.4c-27.6-13.7-37-38.7-37.2-67.8
			c-0.3-32.6,17.1-59.7,45.1-70.3c40.1-15.2,88.6,0.2,97.5,57.2c1.2,7.4,1.1,14.9,1.7,23.3c-18.3,0-35.6,0-52.8,0
			c-17.1,0-34.1,0-51.1,0c-0.6,17.1,7.1,29.5,20.4,33.8c17.6,5.6,34.9,0.3,43.9-13.2c1.1-1.6,3.5-3.3,5.3-3.4
			C3811.8,555.2,3821.8,555.4,3833,555.4z M3795.2,512.5c-3.2-21.7-15.1-31.8-34.6-30c-16.7,1.6-28.6,14.2-28,30
			C3753.3,512.5,3773.9,512.5,3795.2,512.5z"/>
		<path class="st0" d="M3234.3,538.4c-35.8,0-70,0-104.1,0c-0.1,18,7.2,29.5,21.2,33.8c17.6,5.5,33.7,0.2,43.6-14
			c0.9-1.3,2.9-2.7,4.4-2.7c10.2-0.2,20.3-0.1,31.5-0.1c-4.8,15.9-12.2,29.1-26,37.8c-48.4,30.4-108.8,1.1-114.5-55.5
			c-3.6-36.6,13.5-68.1,44.6-80c40.2-15.3,88.2,0.4,97.4,56.6C3233.7,521.9,3233.7,529.7,3234.3,538.4z M3130.2,512.3
			c21.3,0,42.2,0,63.1,0c-3.3-20.8-13.9-30.5-32.1-29.9C3143.4,482.9,3131.9,493.8,3130.2,512.3z"/>
		<path class="st0" d="M2929.4,2492.7c-12.8,0-24.8,0-37.1,0c0-56.4,0-112.4,0-168.7c1.4-0.2,2.4-0.6,3.4-0.6
			c28.1,0.1,56.3-0.7,84.4,0.5c21.5,0.9,39.3,10.3,47.3,31.6c8,21.2,6.2,41.9-9.6,59.5c-11.8,13.1-27.9,16.7-44.8,17
			c-12.3,0.3-24.7,0.3-37,0c-4.9-0.1-6.4,1.5-6.3,6.3c0.2,16,0.1,32,0.1,48.1C2929.7,2488.2,2929.5,2490.2,2929.4,2492.7z
			 M2929.7,2377.5c0,6.9-0.2,13.9,0.2,20.8c0.1,1.7,2.1,4.8,3.3,4.8c14-0.1,28.2,0.3,42-1.5c13.4-1.7,19.8-11.2,19.4-24.9
			c-0.3-13.1-7.3-22.1-20.4-23.4c-13.3-1.4-26.7-1.2-40.1-1.2c-1.4,0-4,2.9-4.1,4.6C2929.4,2363.6,2929.7,2370.6,2929.7,2377.5z"/>
		<path class="st0" d="M3617.7,401.7c0,11,0,20.5,0,30c-5.1,0-9.8-0.1-14.5,0c-10.1,0.1-14.1,4.1-14.5,14.2c-0.1,3.2,0,6.4,0,10.4
			c9.1,0,17.9,0,26.9,0c0,9.1,0,17.5,0,26.5c-8.7,0-17.3,0-26.6,0c0,39.3,0,77.9,0,117.1c-13.6,0-26.4,0-40.2,0
			c0-38.6,0-77.4,0-116.8c-8.2,0-15.4,0-23.2,0c0-9.1,0-17.6,0-26.6c7.4,0,14.7,0,23,0c0-3.6,0-6.8,0-9.9
			c0.3-27.5,15.8-43.7,43.2-44.9C3600.1,401.4,3608.5,401.7,3617.7,401.7z"/>
		<path class="st0" d="M3380.8,483c-8.1,0-15.6,0-23.3,0c0-9.1,0-17.5,0-26.5c7.7,0,15.2,0,23.3,0c0-14.6,0-28.6,0-42.9
			c13.5,0,26.4,0,40.1,0c0,14.2,0,28.2,0,42.5c9.8,0,18.8,0,28.4,0c0,8.9,0,17.5,0,26.8c-9.1,0-18.3,0-28.3,0c0,4.1,0,7.5,0,10.9
			c0,19.7,0,39.4,0,59.2c0,14.6,3.4,17.9,18.1,17.5c3.2-0.1,6.5-0.5,10.2-0.7c0,10,0,20,0,30.6c-15.7,1.9-31.4,2.7-46.8-1.4
			c-13.7-3.7-21-13.1-21.3-28.3c-0.5-26.6-0.2-53.3-0.3-80C3380.8,488.4,3380.8,486.1,3380.8,483z"/>
		<path class="st0" d="M2992.1,2171.9c10,0,19.7,0,29.4,0c-0.1,33.9-29.9,59.8-65.5,57.2c-41.5-3-67.8-35.1-64.6-78.4
			c1.5-20.6,8-38.9,24-52.9c28.8-25.2,79.3-19.1,97.6,12c3.9,6.7,5.8,14.6,9.1,23.2c-10.8,0-19.6,0.1-28.4-0.2
			c-1.3,0-3.4-1.9-3.8-3.3c-7.1-24.2-40.9-27.2-55.9-10.2c-15,16.9-15.7,54.4-1,71.6c9.5,11.1,21.8,13.8,35.3,11
			c12.8-2.7,19.3-12.3,22.4-24.4C2991.2,2175.6,2991.6,2173.8,2992.1,2171.9z"/>
		<path class="st0" d="M3262.5,2214.2c0,16.5,0,31.4,0,46.6c-9.2,0-18,0-27.4,0c0-45.3,0-90.6,0-136.2c8.7,0,17.2,0,26,0
			c0.2,3.5,0.3,6.7,0.5,10.8c2.5-2.3,4.3-4.3,6.4-6c16.5-13.8,45.7-9.5,59,8.7c14.2,19.4,14.7,52.6,1.2,72.4
			c-14.4,21.1-43.7,24.2-62.2,6.7C3265.3,2216.6,3264.5,2215.9,3262.5,2214.2z M3310.8,2174.8c-1.8-6.5-2.9-13.3-5.5-19.6
			c-3.6-8.6-10.9-12.7-20.2-12.5s-16.2,4.7-19.7,13.3c-5.1,12.5-5.1,25.4,0,37.9c3.6,9,11,13.3,20.4,13.3s17-4.1,20.4-13.2
			C3308.4,2188.1,3309.2,2181.6,3310.8,2174.8z"/>
		<path class="st0" d="M3251.4,456.5c12.5,0,24.4,0,36.9,0c0,8,0,15.9,0,23.8c13.5-19.9,30.9-30.4,55.5-27.1c0,12.8,0,24.6,0,37.1
			c-2.9-0.1-5.4-0.2-7.9-0.4c-27.3-2.5-43.8,11.4-44.7,38.8c-0.7,21.2-0.3,42.5-0.4,63.7c0,2.4,0,4.7,0,7.6c-13.3,0-26.2,0-39.4,0
			C3251.4,552.2,3251.4,504.7,3251.4,456.5z"/>
		<path class="st0" d="M3576.5,2155.5c-8.8,0-17.6,0-26.4,0c-1.3-11,4.8-22.3,16.5-27.6c20.1-9.1,40.8-9,61.1-0.6
			c10.1,4.2,13.9,13,13.9,23.7c0,19.9,0.1,39.8,0.5,59.8c0.1,4.9,1.3,9.8,2.1,14.9c-8.8,0-17.8,0-27.4,0c-0.7-2.5-1.5-5.1-2.5-8.5
			c-10.9,9.1-23.6,12-37.3,11.3c-22.5-1.1-35.2-18-29.9-39.5c2.5-9.9,9.2-15.9,18.4-18.3c10.4-2.7,21.2-3.9,31.9-5.8
			c2.8-0.5,5.6-0.9,8.2-1.8c4.9-1.6,8.3-4.7,7.8-10.5c-0.4-5.7-3.1-9.7-8.9-11.3C3590.2,2137.5,3581.8,2141.7,3576.5,2155.5z
			 M3613.5,2177.4c-3.9,1.1-7,2.1-10.1,2.8c-3.2,0.7-6.4,0.8-9.6,1.5c-4,0.8-8.1,1.6-11.8,3.1c-6.1,2.5-8.7,8-7.6,14.8
			c1,6,5.2,8.6,10.8,9.5c17.7,2.9,27.8-5.4,28.2-23.4C3613.6,2183.1,3613.5,2180.5,3613.5,2177.4z"/>
		<path class="st0" d="M3620.1,2323.4c0,3.2,0,5.4,0,7.5c0,51.5-0.1,103.1,0.1,154.6c0,6.4-2,8.1-8.1,7.8
			c-8.4-0.5-16.9-0.3-25.3-0.1c-4,0.1-5.2-1.5-5.2-5.3c0.1-53,0-106.1,0.2-159.1c0-1.8,2.3-5,3.6-5.1
			C3596.6,2323.2,3607.8,2323.4,3620.1,2323.4z"/>
		<path class="st0" d="M3827.7,2121.7c32.5,0,52.6,20.5,52.6,53.5c0,32.8-20.5,53.3-53,53.3c-31.7,0-52-21-51.9-53.7
			C3775.4,2142.1,3795.6,2121.7,3827.7,2121.7z M3803,2173c0.4,4.7,0.6,7.7,1.1,10.7c0.5,2.8,1.1,5.5,2,8.2
			c3.6,10,11.5,15.6,21.7,15.5c10.2,0,18.4-5.6,21.7-15.5c3.8-11.2,3.8-22.6,0-33.8c-3.6-10.4-11.6-15.6-22.3-15.4
			c-10.4,0.2-17.9,5.7-21.2,16.1C3804.4,2163.9,3803.8,2169.3,3803,2173z"/>
		<path class="st0" d="M3456.2,2175.3c0,23.7-10.9,41.5-30.2,49.2c-21.1,8.5-47.1,4.2-60.9-11.2c-16.6-18.6-18-40.4-9.1-62.6
			c8.3-20.6,25.4-29.1,47-29.1C3436.1,2121.6,3456.2,2141.9,3456.2,2175.3z M3428.5,2176.5c-0.5-4.9-0.7-8.4-1.2-11.8
			c-0.4-2.3-1.2-4.6-2-6.8c-3.7-10-11.3-15.2-21.8-15.1c-10,0.1-17.8,5.4-21.2,15.1c-3.9,10.9-4,22.1-0.4,33.1
			c3.5,10.7,11.2,16.4,21.6,16.5c10.6,0.1,18.9-5.7,22.3-16.5C3427.3,2185.8,3427.7,2180.4,3428.5,2176.5z"/>
		<path class="st0" d="M3033.6,2175.2c-0.3-50.7,46.3-62.4,77.1-48.5c21.5,9.7,28.2,28.7,27.9,50.8c-0.3,22.6-12,40-31.1,47.4
			c-21.2,8.2-46.4,3.2-60.8-12C3038.1,2203.7,3033.6,2190.8,3033.6,2175.2z M3111.6,2175.5c-1.7-7-2.6-13.7-5-19.8
			c-3.5-9-11.1-13-20.6-12.9c-9.5,0-16.9,4.2-20.6,13.1c-5.2,12.7-5.3,25.8,0.1,38.6c3.7,8.7,11,12.8,20.1,12.9
			c9,0.1,16.9-3.3,20.6-12C3108.7,2189,3109.8,2182.1,3111.6,2175.5z"/>
		<path class="st0" d="M3993,2225.7c-9.3,0-18.2,0-27.8,0c0-2.6,0-4.9,0-7.2c0-16.5,0-32.9,0-49.4c0-3.2-0.2-6.5-0.6-9.7
			c-1.3-9.4-6-14.5-14-15.4c-11-1.3-19.1,2.7-21.9,11.9c-1.7,5.7-2.3,11.9-2.4,17.9c-0.3,17.1-0.1,34.2-0.1,51.7
			c-9.5,0-18.4,0-27.8,0c0-33.5,0-67,0-100.8c8.8,0,17.3,0,26.1,0c0.3,3.9,0.5,7.5,0.9,12c3.1-2.9,5.4-5.4,8-7.5
			c11.5-9.2,33.6-10.2,46-2.2c9.3,6,13,15.4,13.3,25.5C3993.4,2176.6,3993,2200.8,3993,2225.7z"/>
		<path class="st0" d="M3469.8,456.6c13.3,0,26,0,39.1,0c0,47.8,0,95.3,0,143.3c-13,0-25.8,0-39.1,0
			C3469.8,552.2,3469.8,504.7,3469.8,456.6z"/>
		<path class="st0" d="M3678.7,600.1c-13,0-25.7,0-38.9,0c0-47.7,0-95.2,0-143.3c12.6,0,25.5,0,38.9,0
			C3678.7,504.4,3678.7,552.1,3678.7,600.1z"/>
		<path class="st0" d="M3718.4,2143c-6.6,0-13,0-19.9,0c0,18.4-0.1,36.1,0.1,53.8c0.1,4.7,3.1,7.6,7.9,7.8c3.9,0.2,7.7,0,12,0
			c0,6.8,0,13.9,0,21.4c-11.2,1.5-22.4,2.1-33.4-1.2c-8.8-2.6-14.2-8.7-14.4-17.9c-0.5-18-0.4-35.9-0.6-53.9c0-3,0-6,0-9.8
			c-5.6,0-10.7,0-16.3,0c0-6.6,0-12.5,0-19.1c5.3,0,10.4,0,16.1,0c0-10.1,0-19.6,0-29.6c9.5,0,18.5,0,28.2,0c0,9.5,0,19.1,0,29.4
			c7.1,0,13.5,0,20.4,0C3718.4,2130.5,3718.4,2136.4,3718.4,2143z"/>
		<path class="st0" d="M3155,2124.6c8.7,0,17.1,0,26.1,0c0,5,0,9.7,0,16.6c10.1-14.2,21.7-21.4,38.2-19.1c0,8.5,0,16.8,0,25.6
			c-2.5,0-5,0.1-7.5,0c-16.8-0.5-27.5,8.3-28.6,25c-1,14.9-0.5,29.9-0.7,44.8c0,2.6,0,5.1,0,8c-9.4,0-18.2,0-27.5,0
			C3155,2192.1,3155,2158.7,3155,2124.6z"/>
		<path class="st0" d="M3539.6,2148.2c-3.4-0.2-5.9-0.4-8.5-0.4c-16.3-0.5-26.8,7.8-28.1,24c-1.2,15.1-0.5,30.2-0.7,45.4
			c0,2.8,0,5.5,0,8.5c-9.6,0-18.4,0-27.7,0c0-33.5,0-66.9,0-100.9c8.3,0,16.8,0,25.7,0c0,5.1,0,10,0,14.9c0.4,0.2,0.8,0.4,1.2,0.6
			c1.2-1.5,2.3-3.1,3.5-4.6c7.5-9.4,17-14.3,29.2-14.1c3.6,0.1,5.6,0.9,5.4,5.1C3539.4,2133.6,3539.6,2140.5,3539.6,2148.2z"/>
		<path class="st0" d="M3733,2124.5c9.2,0,18,0,27.2,0c0,33.6,0,67,0,100.9c-8.8,0-17.8,0-27.2,0
			C3733,2192.1,3733,2158.7,3733,2124.5z"/>
		<path class="st0" d="M3639.6,433.7c0-10.5,0-20.8,0-31.7c12.8,0,25.6,0,39,0c0,10.3,0,20.7,0,31.7
			C3666,433.7,3653.2,433.7,3639.6,433.7z"/>
		<path class="st0" d="M3470,401.5c11.4,0,22.4,0,33.5,0c1.7,0,3.4,0.2,5.5,0.3c0,10.7,0,21.2,0,32c-13,0-25.7,0-38.9,0
			C3470,423.4,3470,413,3470,401.5z"/>
		<path class="st0" d="M3959.3,1873.3c-18.8,0-33.2-14.7-33-33.5c0.2-18.4,14.8-32.7,33.3-32.6c18.4,0.1,33,14.6,33,32.9
			C3992.6,1858.9,3978.1,1873.4,3959.3,1873.3z M3959.5,1868.2c15.1-0.1,27.3-12.9,26.9-28.4c-0.3-15.4-12.4-27.5-27.2-27.4
			c-14.9,0.1-26.8,12.3-26.9,27.7C3932.2,1855.8,3944.4,1868.3,3959.5,1868.2z"/>
		<path class="st0" d="M3760.4,2086c0,7.6,0,14.8,0,22.5c-9.2,0-18.2,0-27.5,0c0-7.4,0-14.7,0-22.5
			C3741.8,2086,3750.8,2086,3760.4,2086z"/>
		<path class="st0" d="M3587.7,1230.7c10,3.1,18.8,5.2,27.2,8.4c55.3,21.3,85,62.6,92.1,120.6c5.7,46.9-3.8,90.6-31.2,129.5
			c-29.1,41.4-70.1,64.1-119.5,72.1c-14.3,2.3-28.9,3.3-43.3,3.3c-97.5,0.3-195,0.1-292.5,0.1c-2.4,0-4.7,0-7.6,0
			c0-210.2,0-419.8,0-630.3c2.1-0.1,4.4-0.3,6.7-0.3c83,0,166-0.3,249,0.1c35.1,0.2,70,1.8,104.6,9.3
			c49.2,10.7,97.4,57.5,106.6,117.6c6.6,43.2-0.2,83.7-26.4,119.7c-14.4,19.9-33.4,34.3-55.4,45
			C3595,1227.4,3591.9,1228.8,3587.7,1230.7z M3296.6,1493.7c2.9,0,5.4,0,7.9,0c65.4,0,130.9,0,196.3,0c8.2,0,16.5-0.1,24.6-1.1
			c35.5-4.4,65-19.2,83.8-51c12.9-21.8,16.4-45.8,14.7-70.7c-2.6-37.1-20.1-64.2-54.3-79.8c-24.1-11-49.8-14.6-75.9-14.7
			c-63.3-0.3-126.5-0.1-189.8-0.1c-2.3,0-4.6,0-7.3,0C3296.6,1348.9,3296.6,1420.9,3296.6,1493.7z M3296.6,1005
			c0,67.3,0,133.5,0,200c1.6,0.1,2.8,0.2,4.1,0.2c54.6,0,109.2,0.1,163.7-0.1c23.4-0.1,46.7-1.9,69.3-9c28-8.8,49.3-24.9,58.8-53.8
			c6.4-19.5,6.8-39.6,4-59.7c-4.6-32.5-21.3-55.7-52.7-67.2c-20.8-7.6-42.6-10-64.4-10.2c-58.9-0.4-117.8-0.3-176.7-0.3
			C3300.7,1005,3298.8,1005,3296.6,1005z"/>
		<path class="st0" d="M3965.5,1843c3.5,5.5,6.6,10.4,9.8,15.5c-4.3,2-6.8,0.6-8.7-3c-1.6-3-3.4-6.1-5.6-8.7
			c-1.7-1.9-4.2-3.1-7.9-5.8c0,7.5,0,12.5,0,18c-2.5,0-4.3,0-6.4,0c0-12.5,0-24.7,0-38.4c7.2,0.4,14.5,0.3,21.6,1.3
			c4.4,0.7,6.5,4.4,6.8,9.1C3975.5,1837.7,3972,1841.1,3965.5,1843z M3953.1,1839.6c5.6-1.8,10.3-3,14.7-5c0.7-0.3,0.5-5.4-0.2-5.6
			c-4.5-1.6-9.2-2.5-14.5-3.8C3953.1,1830.4,3953.1,1833.8,3953.1,1839.6z"/>
	</g>
</g>
<g>
	<path class="st0" d="M1643.9,2437.7H550.5v-805.9c110.5,110.2,252.4,185,407.3,213.3c46.3,8.5,93.5,12.8,140.2,12.8
		c115.5,0,231.6-26.7,335.9-77.1c77.4-37.5,148.9-88.3,210-149V2437.7z M1650.7,1530.1c-158.4,196-416.2,301.5-681.6,252.9
		c-174.5-31.9-322.4-125-425.6-253.2c-18.7-23.2-56.2-9.8-56.2,19.9v919.4c0,17.5,14.2,31.7,31.7,31.7h1156.3
		c17.5,0,31.7-14.2,31.7-31.7V1550C1707,1520.1,1669.5,1506.9,1650.7,1530.1"/>
	<path class="st0" d="M1880.3,2411.9c-4.6,2.5-7,6.6-7,12.3c0,4.4,1.2,8,3.5,10.6s6.4,4.6,12.3,6s13.9,2.3,23.9,2.7
		s22.6,0.6,37.8,0.6c15.2,0,27.8-0.2,37.8-0.6c10-0.4,18-1.3,23.9-2.7s10-3.4,12.3-6s3.5-6.2,3.5-10.6c0-3.6-0.9-6.5-2.7-8.8
		c-1.8-2.3-4.8-4.1-9-5.4c-4.2-1.3-9.9-2.2-16.9-2.7c-7.1-0.5-16-0.8-26.7-0.8v-56.9h16.7c15.8,0,28.8,2.1,38.9,6.3
		s18.1,9.8,23.9,16.7c5.8,7,9.7,14.9,11.7,23.9s3,18.2,3,27.7c0,16.4-2,29.9-6,40.5c-4,10.5-10.7,18.8-20.1,24.6
		c-9.4,5.9-21.5,9.9-36.3,12.2c-14.9,2.2-32.8,3.3-53.9,3.3c-21.5,0-39.7-1.3-54.7-4c-15-2.6-27.1-7.1-36.4-13.4
		c-9.3-6.3-16-14.6-20.1-25c-4.1-10.3-6.2-23.1-6.2-38.2c0-13.3,1.7-24.5,5.1-33.8s8.2-16.8,14.4-22.6c6.2-5.8,13.7-10,22.4-12.6
		c8.7-2.6,18.6-4,29.5-4h14.2v56.9h-12.6C1893.7,2408.1,1884.9,2409.4,1880.3,2411.9"/>
	<path class="st0" d="M1988.5,2243.8c10-0.4,18-1.3,23.9-2.7s10-3.4,12.3-6s3.5-6.2,3.5-10.6c0-4.4-1.2-7.9-3.5-10.6
		c-2.3-2.6-6.4-4.6-12.3-6s-13.9-2.3-23.9-2.7s-22.6-0.6-37.8-0.6c-15.2,0-27.8,0.2-37.8,0.6c-10,0.4-18,1.3-23.9,2.7
		s-10,3.4-12.3,6s-3.5,6.2-3.5,10.6c0,4.4,1.1,8,3.5,10.6c2.3,2.6,6.4,4.6,12.3,6s13.9,2.3,23.9,2.7s22.6,0.6,37.8,0.6
		C1965.9,2244.5,1978.5,2244.3,1988.5,2243.8 M1896.9,2301c-14.9-2.7-27-7.3-36.3-13.6c-9.4-6.3-16.2-14.6-20.5-25
		c-4.3-10.3-6.5-23-6.5-37.9c0-15,2.2-27.6,6.5-37.9c4.3-10.3,11.2-18.6,20.5-25c9.4-6.3,21.5-10.8,36.3-13.6
		c14.9-2.7,32.8-4.1,53.9-4.1s39,1.4,53.9,4.1c14.9,2.7,27,7.3,36.3,13.6c9.4,6.3,16.1,14.7,20.1,25s6,23,6,37.9c0,15-2,27.6-6,37.9
		c-4,10.3-10.7,18.6-20.1,25c-9.4,6.3-21.5,10.9-36.3,13.6c-14.9,2.7-32.8,4.1-53.9,4.1C1929.7,2305.2,1911.7,2303.8,1896.9,2301"/>
	<polygon class="st0" points="1837.9,2011 1971.6,1987.2 1971.6,1986.6 1837.9,1962.9 1837.9,1878.8 2063.6,1878.8 2063.6,1933.8 
		1895.5,1933.8 1895.5,1934.5 2063.6,1965.7 2063.6,2008.1 1895.5,2039.4 1895.5,2040 2063.6,2040 2063.6,2095 1837.9,2095 	"/>
	<path class="st0" d="M1935.3,1755.6c0-7.4-2.2-13-6.6-16.9s-11.4-5.9-20.9-5.9c-18.3,0-27.5,7.6-27.5,22.8v11.1h55V1755.6z
		 M1837.9,1737.3c0-11.2,1.8-20.9,5.4-29.1s8.5-15,14.7-20.4s13.5-9.3,22-11.9c8.4-2.5,17.6-3.8,27.5-3.8c23.4,0,40.9,6.3,52.6,18.8
		s17.5,30.9,17.5,55.2v20.5h86v58.8h-225.7L1837.9,1737.3L1837.9,1737.3z"/>
	<path class="st0" d="M1988.5,1579.9c10-0.4,18-1.3,23.9-2.7c5.9-1.4,10-3.4,12.3-6s3.5-6.2,3.5-10.6s-1.2-7.9-3.5-10.6
		c-2.3-2.6-6.4-4.6-12.3-6s-13.9-2.3-23.9-2.7c-10-0.4-22.6-0.6-37.8-0.6c-15.2,0-27.8,0.2-37.8,0.6s-18,1.3-23.9,2.7
		c-5.9,1.4-10,3.4-12.3,6s-3.5,6.2-3.5,10.6s1.1,8,3.5,10.6c2.3,2.6,6.4,4.6,12.3,6s13.9,2.3,23.9,2.7c10,0.4,22.6,0.6,37.8,0.6
		S1978.5,1580.3,1988.5,1579.9 M1896.9,1637.1c-14.9-2.7-27-7.3-36.3-13.6c-9.4-6.3-16.2-14.6-20.5-25c-4.3-10.3-6.5-23-6.5-37.9
		c0-15,2.2-27.6,6.5-37.9s11.2-18.6,20.5-25c9.4-6.3,21.5-10.8,36.3-13.6c14.9-2.7,32.8-4.1,53.9-4.1s39,1.4,53.9,4.1
		s27,7.3,36.3,13.6c9.4,6.3,16.1,14.6,20.1,25c4,10.3,6,23,6,37.9c0,15-2,27.6-6,37.9s-10.7,18.7-20.1,25s-21.5,10.9-36.3,13.6
		c-14.9,2.7-32.8,4.1-53.9,4.1C1929.7,1641.2,1911.7,1639.8,1896.9,1637.1"/>
	<path class="st0" d="M1897.7,1352c-6.7,0-12.5,1.4-17.2,4.1s-7.1,7-7.1,12.7c0,6.3,2.1,11,6.2,13.9c4.1,3,8.7,4.4,13.8,4.4
		c7.4,0,13.2-2.4,17.5-7.1s8.1-10.7,11.2-17.9c3.2-7.2,6.4-14.9,9.6-23.1c3.3-8.2,7.5-15.9,12.8-23.1s12.2-13.1,20.7-17.9
		c8.5-4.7,19.7-7.1,33.4-7.1c24,0,41.5,6.8,52.3,20.5c10.9,13.7,16.3,33.5,16.3,59.4c0,12.2-1,23-3,32.4s-5.5,17.3-10.4,23.7
		c-5,6.4-11.4,11.3-19.4,14.7c-8,3.4-17.9,5.1-29.7,5.1h-7.9v-56.9h5.4c9.7,0,16.5-1.8,20.4-5.4s5.8-8.2,5.8-13.9
		c0-6.1-2.1-10.8-6.3-14.1c-4.2-3.3-9.4-4.9-15.5-4.9c-7.4,0-13.2,2.3-17.5,6.8s-8,10.2-11.1,17.1s-6.2,14.3-9.3,22.3
		c-3.2,8-7.3,15.4-12.3,22.3c-5.1,6.8-11.7,12.5-19.9,17.1c-8.2,4.5-19,6.8-32.2,6.8c-23,0-40.5-6.1-52.5-18.3
		c-12-12.2-18-30.8-18-55.6c0-25.7,5.5-44.3,16.6-55.8s28.7-17.2,52.9-17.2v55H1897.7z"/>
	<polygon class="st0" points="1887.9,1265.1 1837.9,1265.1 1837.9,1118.4 1887.9,1118.4 1887.9,1162.7 2063.6,1162.7 2063.6,1221.5 
		1887.9,1221.5 	"/>
	<path class="st0" d="M1884.1,1018.9l95.8,16.1v-32.9l-95.8,16.1V1018.9z M1837.9,981.6l225.7-55v62.6l-39.5,6v46.8l39.5,6v61.6
		l-225.7-54L1837.9,981.6L1837.9,981.6z"/>
	<path class="st0" d="M2021.2,817.1c0-5.5-2.3-10.3-6.8-14.5s-11.5-6.3-21-6.3c-8.8,0-15.6,2.1-20.2,6.3s-6.9,9.1-6.9,14.5v16.4h55
		L2021.2,817.1L2021.2,817.1z M1926.4,819.3c0-6.1-2.3-10.8-6.8-13.9c-4.5-3.2-9.9-4.7-16-4.7c-6.3,0-11.8,1.6-16.4,4.7
		c-4.6,3.2-7,7.8-7,13.9v14.2h46.1v-14.2H1926.4z M1837.9,803.5c0-21.1,5.1-36.6,15.3-46.6c10.2-10,23.9-15,40.9-15
		c5.9,0,11.7,0.7,17.2,2c5.6,1.4,10.6,3.5,15.2,6.3c4.5,2.8,8.4,6.5,11.5,10.9c3.2,4.4,5.4,9.8,6.6,16.1h0.6
		c0.6-7.4,2.6-13.7,5.8-19c3.3-5.3,7.3-9.6,12.2-13c4.8-3.4,10.2-5.8,16-7.4c5.8-1.6,11.6-2.4,17.5-2.4c9.7,0,18.6,1.3,26.9,3.8
		c8.2,2.5,15.3,6.5,21.2,11.9c5.9,5.4,10.5,12.4,13.7,21c3.3,8.6,4.9,19.1,4.9,31.3v88.8h-225.7v-88.7H1837.9z"/>
	<polygon class="st0" points="1837.9,635 2015.6,635 2015.6,562.7 2063.6,562.7 2063.6,693.8 1837.9,693.8 	"/>
	<polygon class="st0" points="1837.9,391.1 1886,391.1 1886,466.1 1924.5,466.1 1924.5,395.9 1970.7,395.9 1970.7,466.1 
		2015.6,466.1 2015.6,388.3 2063.6,388.3 2063.6,524.8 1837.9,524.8 	"/>
	<path class="st0" d="M1659.3,539c-38.3,0-66.7-30-66.7-68.2c0-37.2,28.4-67.7,65.6-67.7h0.6c37.2,0,65.1,30.5,65.1,68.2
		C1723.9,509.1,1696,539.6,1659.3,539 M1659.3,388.6h-0.5c-47,0-84.3,36.2-84.3,82.2c0,47.1,37.3,83.2,84.3,83.2
		s83.2-36.1,83.2-83.2C1742,424.8,1705.8,388.6,1659.3,388.6"/>
	<path class="st0" d="M1654.6,467.7h-10.8v-26.9c2.6-0.5,6.2-1.1,12.4-1.1c15,0,20.7,6.2,20.7,14.5
		C1676.9,464,1666,467.7,1654.6,467.7 M1676.9,473.9v-1.1c8.8-3.1,16.6-9.8,16.6-20.1c0-8.3-3.6-15-8.8-18.6
		c-5.2-4.2-12.4-6.7-26.9-6.7c-11.9,0-21.2,1-30,2.5v86.4h16.1v-36.2h10.3c11.9,0,17.6,4.2,19.6,13.9c2.6,11.4,4.7,19.2,7.3,22.3
		h16.5c-2.1-3.1-4.2-8.3-6.7-21.2C1688.3,483.7,1684.1,477,1676.9,473.9"/>
	<path class="st0" d="M1525.8,1325.3c-3.8,7.8-10.8,11.2-17.8,11.1c-10.1-0.2-20.2-7.9-19.9-20.5c0-0.3,0-0.6,0-0.9
		c4.4-249.9-142-468.1-355.1-567.5l-55.7,137.7c-2.6,7.5-9.3,11.2-16,11.1c-6.6-0.1-13.2-4-15.6-11.7l-44.4-179
		c0,0-7.3,48.8-15.6,74c-5.7,17.1-19.1,38.8-26.6,46.5c-1.6,1.7-3.7,2.4-5.7,2.3c-3.6-0.1-7-2.6-7.6-6.7c-2.8-21-9-61.2-20.4-98.4
		c-14.3-46.8-38-93.2-38-93.2s-5.1,28.2-9.3,46c-3.2,13.6-9.7,30.9-13.7,37.3c-2.8,4.5-7.4,6.7-12,6.6c-5.3-0.1-10.6-3.2-12.8-8.9
		c-9.7-25.1-33.4-70.3-63.2-89.7c-18.9-12.3-44-17.8-70.3-18.3c-14-0.2-28.4,1-42.3,3.3c-0.4,0.1-0.8,0.1-1.2,0.1
		c-5.4-0.1-7.7-7.7-2.4-10.5c48.9-25.9,137.8-72,191.2-94.1c52-21.5,102.7-40.5,133.5-51.8c1.2-0.4,2.3-0.6,3.4-0.6
		c7,0.1,11.8,8.6,6.9,14.9L968,498.7c0,0,61.7-23.7,125.7-37.8c33.5-7.4,67.6-12.2,92.5-15.2c0.5-0.1,1-0.1,1.4-0.1
		c8.9,0.2,13.1,11.8,5.6,17.5s-15.4,12.1-22.4,18.7c-21,19.7-33.2,41.2-33.2,41.2s58.2-18.4,127.5-22.7c30.5-1.9,66.9-3.5,96-3
		c12.4,0.2,23.5,0.8,32.2,2c9.9,1.3,11.4,14.9,2.1,18.5L1252,617.9c0.3,0.1,0.6,0.2,0.8,0.3c193.4,78,328.6,269.3,324.7,489.8
		C1576.4,1184.6,1558.3,1258.5,1525.8,1325.3 M1266,1556.9c-24,14-95.4,29.8-171.3,26.7c-154.9-6.3-263.8-57.8-358.5-156
		c-94.1-97.5-145.7-229-143.2-364.4c1.4-76.1,19.4-149.4,52-215.7c6.6-13.5,25.4-14.5,33.5-1.9c15.5,24.4,34.2,44.5,53.3,60.8
		c141.3,121,313.1,95.9,418.6,170.3c141.5,99.7,153.8,265.6,165.8,348.6C1328.2,1508.4,1292,1541.7,1266,1556.9 M1425.4,567.4
		c23.1-13.1,36.6-39,33.4-66.1c-3.5-30.4-27.2-54.6-57.6-58.7c-10.5-1.4-23.3-2.3-38.9-2.5c-25.6-0.5-58.5,0.6-100.5,3.1
		c-2.7,0.2-5.4,0.3-8,0.6c-0.5-3-1.3-6-2.3-9c-8.9-27.3-34.1-45.9-62.6-46.4l0,0c-3,0-6.1,0.1-9.1,0.5c-24.6,2.9-61.6,8-98.2,16.1
		c-14.5,3.2-28.9,6.9-42.5,10.6c-12.2-14.4-30-23-49.4-23.3l0,0c-8.2-0.2-16.3,1.2-24.1,4.1c-33.2,12.1-83.7,31.1-135.7,52.6
		c-55.9,23-147,70.2-196.4,96.3c-25.4,13.5-38.5,42.4-31.8,70.3c6.1,25.6,27.2,44.3,52.7,47.8C555.1,769.3,493.3,911,490.6,1067.6
		c-5.9,335.2,261.1,611.8,596.3,617.7c335.3,5.9,611.8-261.1,617.7-596.3C1708.4,870.8,1596.5,677.4,1425.4,567.4"/>
	<rect x="1386.7" y="1924.9" class="st0" width="97.8" height="412.4"/>
	<path class="st0" d="M1215.7,2063.9c0,27.2-10.6,37.9-37.9,37.9h-35.7v-89h35.7c27.2,0,37.9,10.6,37.9,37.9V2063.9z M1180.7,1924.9
		h-136.3v412.4h97.8v-147.7h38.6c86.9,0,132.8-39,132.8-112.9v-38.9C1313.5,1963.9,1267.5,1924.9,1180.7,1924.9"/>
	<path class="st0" d="M865.4,2219.2c0,20.7-10.1,30.7-30.7,30.7h-41.4v-80.5h41.4c20.7,0,30.7,10.1,30.7,30.7V2219.2z M793.2,2011.3
		h38.5c20.7,0,30.8,10.1,30.8,30.7v11.7c0,20.7-10.1,30.7-30.8,30.7h-38.5V2011.3z M922.3,2125.5c27.6-15.4,38-49.3,38-78.1v-16.7
		c0-66.2-47.5-105.8-127.1-105.8H695.5v411.5h136.3c81,0,131.4-40.5,131.4-105.8v-26.1C963.2,2165.9,948.8,2138.6,922.3,2125.5"/>
	<path class="st0" d="M1218.2,1470.6c-36-21.9-71.1-43.7-105.5-66.4c-7.6-5-14.4-11.1-20.4-18l-0.1-0.1
		c-17.8-20.4-34.6-41-49.6-62.6s-28.2-44-39.2-68.1c-8.6-18.6-15.6-38.2-22-59.1c-1.6-5.2-9.1-4.8-10,0.6
		c-3.7,22.5-2.4,45.9,2.5,68.5c3.5,15.7,8.9,31,15.7,45.5c0.7,1.5-1.1,3-2.4,2c-19.6-15.6-38.8-31.5-57.6-48c0-0.1-0.1-0.1-0.2-0.2
		l-14.2-17.2c-10.3-17.6-19.7-35.2-27.9-53.2c-8.9-19.6-16.2-39.7-21.5-60.7c-4-15.4-6.6-31.2-8.6-47.9c-0.6-5.3-7.9-6-9.6-1
		c-5.6,16.6-7.8,34.6-7.2,52.4c0.6,16.7,3.7,33.3,8.9,49.2c0.4,1.2-1.1,2.2-2,1.3c-15.8-15.8-31.4-31.9-46.7-48.4
		c-36-38.9-70.6-79.3-104-122.2c-3.7-4.8-11.4-0.6-9.3,5.1c7.7,21.1,17.2,41.5,27.3,61.5c15,29,32.2,56.9,51.1,83.8
		c19,26.9,39.8,52.6,61.9,77.1c1.5,1.7,0,4.3-2.2,3.7c-18.3-5.2-37.4-8.1-56.5-7.9c-13.8,0.2-27.5,1.9-40.7,5.3
		c-7.9,2.1-7.1,13.6,1,14.4c12.8,1.4,25.2,3.1,37.5,5.6c21.9,4.3,43,10.5,63.7,18.2c20,7.4,39.6,16.2,59.3,26c6.1,4,12.2,8,18.3,12
		c36.7,31,113.6,79.2,130.2,89.4c0.8,0.5,0.4,1.7-0.5,1.7c-37.1-2.1-81.8,11.7-81.8,11.7c-13.5,4.8-26.5,10.9-38.5,18.6
		c-7.9,5.1-2.8,17.5,6.5,15.5c13-2.8,25.8-5.2,38.7-6.8c24.2-3.2,48.2-4.1,72.3-3.3c22.1,0.7,44.3,2.9,66.7,6
		c4.2,0.6,8.4,1.4,12.6,2.4l99.9,23.7C1220.2,1481.9,1223.5,1473.8,1218.2,1470.6"/>
</g>
</svg>
