<?xml version="1.0" encoding="utf-8"?>
<!-- Generator: Adobe Illustrator 25.3.1, SVG Export Plug-In . SVG Version: 6.00 Build 0)  -->
<svg version="1.1" id="图层_1" xmlns="http://www.w3.org/2000/svg" xmlns:xlink="http://www.w3.org/1999/xlink" x="0px" y="0px"
	 viewBox="0 0 1200 321.9" style="enable-background:new 0 0 1200 321.9;" xml:space="preserve">
<style type="text/css">
	.st0{fill:#FFFFFF;}
</style>
<g id="CrF0Md_1_">
	<g>
		<path class="st0" d="M749.6,219.6c0.4-13.2,3.2-24.4,8.2-34.9c4.9-10.1,11-19.7,16.9-30.1c-20.3,14.7-33.8,33.3-37.3,59.6
			c-4.4-3.8-7.8-10.2-12.4-2c-12.3-38.9-23.6-55.6-65.4-79.5c1.1,1.4,2,3,3.3,4.1c21.9,19.7,36.3,43.9,43.7,72.3
			c0.8,2.9,1,5.9,1.4,8.9c0.1,0.6-0.1,1.2-0.4,3.3c-9.7-6-19-11-27.6-17.1c-21.5-15.2-39.4-33.8-52.4-56.8
			c-10.5-18.6-17.4-38.5-20-59.7c-0.8-6.3-1.1-12.6-1.8-18.9c-0.4-3.8,1.1-4.8,4.7-4.9c29.8-0.3,56.6,9,81.2,25.3
			c17.5,11.6,31.8,26.1,42.3,44.4c0.9,1.5,2,2.9,2.9,4.1c7.3-6.4,13.9-12.9,21.2-18.4c13.5-10.1,28.8-16.5,45.4-19.6
			c5.8-1.1,7.1-0.1,7.4,5.9c2.7,46.5-17.3,81.8-53.7,109C755.3,216.3,752.9,217.5,749.6,219.6z M783.9,183.1
			c0.6,0.3,1.1,0.6,1.7,0.9c1.7-2.6,3.4-5.3,5.1-7.9c-0.6-0.4-1.1-0.7-1.7-1.1C787.3,177.8,785.6,180.4,783.9,183.1z"/>
		<path class="st0" d="M40.1,211c0,5.3,0,9.7,0,14.2c0,13.2-0.1,26.3,0,39.5c0,3.7-1.2,4.9-4.9,4.8c-5.8-0.3-11.6-0.1-17.7-0.1
			c0-55,0-109.4,0-164.3c6.4,0,12.7,0,19.7,0c0.1,2.7,0.3,5.4,0.5,8.7c1.3-0.7,2.2-1.2,3.1-1.8c25.1-19.3,61.7-11.4,76,16.9
			c11.1,22,10.9,44.5,0.1,66.4c-15.7,31.6-57.1,33.2-74.4,17.1C42.1,212.1,41.7,211.9,40.1,211z M100.7,162.6
			c-0.2-9.9-1.5-18.9-6.7-26.9c-6.3-9.8-15.4-14.7-26.9-14.2c-11.4,0.5-20,6-24.6,16.7c-6.7,15.3-6.6,30.7-0.5,46.1
			c4.3,10.9,13,16.2,24.3,17.1c11.3,1,20.6-2.9,27.2-12.4C99.1,180.9,100.4,171.6,100.7,162.6z"/>
		<path class="st0" d="M862.3,168.6c-0.1,15.8,8.9,27.9,22.9,31.6c14,3.8,29.6-2.2,36.4-14.2c1.3-2.3,2.3-3.1,5-2.1
			c6.1,2.1,12.4,3.8,19.1,5.8c-4.4,11-11.5,19.1-21.3,24.7c-32.9,19.1-81,3.5-86.2-43c-2.1-18.5,0.6-36.1,13.1-50.7
			c15.7-18.4,36.2-22.6,58.5-16.9c21.1,5.4,32.2,20.8,35.7,41.8c0.9,5.6,1.1,11.2,1.6,16.9c0.4,4.5-1.2,6.3-6.2,6.3
			c-24.2-0.3-48.3-0.1-72.5-0.1C866.5,168.6,864.5,168.6,862.3,168.6z M923,150.8c1-15.8-10.8-28.7-26.6-29.6
			c-18.6-1.1-32.6,11.2-33.4,29.6C882.9,150.8,902.8,150.8,923,150.8z"/>
		<path class="st0" d="M525.6,218.9c-7.9,0-14.8,0-22.1,0c0-50.9,0-101.4,0-152.4c6.4,0,12.8,0,19.9,0c0,16.6,0,33.1,0,50.7
			c2.5-2.2,4.1-3.5,5.7-4.9c15-12.5,41-14.5,56.7-4.3c12.5,8.1,18.5,20.6,19.2,34.6c1.3,24.9,0.8,49.9,1.1,74.9
			c0,0.3-0.2,0.6-0.5,1.3c-6.9,0-14,0-21.8,0c0-2,0-3.9,0-5.9c-0.1-19.3,0-38.7-0.5-58c-0.1-5.2-1.5-10.6-3.4-15.5
			c-4.9-12.5-14-17.4-28.2-16.3c-12.4,1-21.6,8.8-24.1,21.1c-1.2,5.7-1.8,11.5-1.9,17.3c-0.2,17.2-0.1,34.3-0.1,51.5
			C525.6,214.8,525.6,216.6,525.6,218.9z"/>
		<path class="st0" d="M1125.8,101.7c31.9,0.1,55.2,23.3,56.5,56.4c0.7,17.2-3,33.3-14.9,46.3c-15.9,17.4-36.1,21.3-58,15.5
			c-22.4-5.9-35-21.5-39.1-43.9c-2.2-12.1-2-24.3,1.9-36.1C1080.3,115.5,1099.9,101.6,1125.8,101.7z M1159.5,162.4
			c-0.3-0.1-0.5-0.2-0.8-0.3c-0.5-4.1-0.8-8.3-1.6-12.3c-3.2-16.4-15.4-26.9-31.7-27.2c-14.6-0.4-26.6,9.3-30.7,25.1
			c-2.8,10.9-2.6,21.8,1.2,32.5c4.5,12.8,14.4,20.3,27.6,21.1c13.6,0.8,25.2-5.7,30.5-18.2C1156.7,176.4,1157.7,169.2,1159.5,162.4z
			"/>
		<path class="st0" d="M191.4,101.6c29.4-0.5,52.2,19.5,56,49.1c2.4,18.4,0.1,35.9-11.6,50.7C220.2,221,199.1,226,175.6,220
			c-22.7-5.8-35.1-21.9-39.2-44.4c-2.6-14.4-1.7-28.7,4.5-42.1C150.7,111.9,168.2,102.2,191.4,101.6z M158.3,161.7
			c1.4,6.5,2.2,13.1,4.3,19.3c4.2,12.6,13.8,19.1,26.6,19.9c13.1,0.8,23.8-4.1,30-16.4c6.8-13.8,6.9-28,1.6-42.1
			c-4.5-12-13.8-18.6-26.5-19.7c-11.1-1-20.7,2.6-27.5,11.9C161,142.6,159.1,151.8,158.3,161.7z"/>
		<path class="st0" d="M345.3,206.2c-9.9,11.8-22.3,16.2-36.7,16c-24.1-0.3-40.8-14.3-44.2-38.3c-1.4-10.2-1.5-20.6-1.7-30.9
			c-0.2-14.7,0.1-29.3-0.1-44c0-3.5,1.1-4.8,4.6-4.6c5.8,0.2,11.6,0.1,17.8,0.1c0.1,1.9,0.4,3.3,0.4,4.7c0.1,18.2-0.2,36.3,0.3,54.5
			c0.2,6.7,1.5,13.6,3.5,20c3.5,11.2,12.6,17.1,24.8,17.2c12.1,0.1,22.5-6,25.9-16.7c2.1-6.5,2.8-13.7,3-20.6c0.4-18,0.3-36,0-54
			c-0.1-4.4,1.3-5.5,5.4-5.3c5.6,0.3,11.2,0.1,17.3,0.1c0,2.6,0,4.4,0,6.2c0,34.1,0,68.3,0.2,102.4c0,4.7-1.1,6.7-6.1,6.1
			c-4.1-0.5-9.3,1.1-12.1-0.9C345.3,216.8,346,211.1,345.3,206.2z"/>
		<path class="st0" d="M488.2,136.7c-7.7,2.2-14.9,4.3-22.1,6.4c-0.5-0.9-0.9-1.4-1.1-2c-4.8-14.5-17.4-18.7-27.3-18.5
			c-14.5,0.3-24.8,8.1-28.8,21.9c-4.1,14-4.2,28,2.8,41.2c5.7,10.8,14.9,15.9,27,15.5c12-0.4,21.1-5.3,25.8-17
			c0.2-0.6,0.6-1.1,1.2-2.1c7.2,1.8,14.4,3.5,23,5.6c-3.1,5.7-5.1,11.3-8.6,15.6c-14.3,17.9-33.7,21.7-54.9,17.5
			c-22.2-4.4-35.2-18.9-40.8-40.4c-3.5-13.7-3.2-27.4,1.2-40.9c8.1-25.2,29.9-39.5,56.3-37.7c14,0.9,26.3,5.5,36.1,15.8
			C483,122.8,486.3,129,488.2,136.7z"/>
		<path class="st0" d="M1041.4,181.9c7.5,1.8,14.6,3.6,22.1,5.4c-3.7,13.3-11.2,22.8-23,28.9c-20.2,10.5-47.1,7.3-64.1-7.7
			c-10.4-9.2-15.7-21.4-17.6-34.9c-2.7-20.1,0.4-38.9,14.1-54.8c22-25.5,69.2-22.2,85.9,6.1c2,3.4,3.3,7.2,5.2,11.5
			c-7.9,2.4-15.2,4.5-22.8,6.8c-3.4-11.3-10.7-17.8-21.8-20.1c-14.5-2.9-28.4,4.3-33.8,18.4c-5.6,14.6-5.3,29.3,1.6,43.6
			c5.3,10.9,14.4,15.9,26.2,15.9c12,0.1,21.3-4.6,26.4-16.1C1040.2,184,1040.8,183.2,1041.4,181.9z"/>
	</g>
</g>
</svg>
