<?xml version="1.0" encoding="utf-8"?>
<!-- Generator: Adobe Illustrator 25.3.1, SVG Export Plug-In . SVG Version: 6.00 Build 0)  -->
<svg version="1.1" id="图层_1" xmlns="http://www.w3.org/2000/svg" xmlns:xlink="http://www.w3.org/1999/xlink" x="0px" y="0px"
	 viewBox="0 0 9492 1224" style="enable-background:new 0 0 9492 1224;" xml:space="preserve">
<style type="text/css">
	.st0{fill:#FFFFFF;}
</style>
<g id="R9jx2R_1_">
	<g>
		<path class="st0" d="M5383.3-9445.3c0,305.2-247.7,552.8-553.6,552c-309.6-0.8-554.9-253.7-551-559.8
			c3.9-301,250.6-549.2,560.7-544.7C5140.5-9993.5,5383.3-9748.4,5383.3-9445.3z M5310.3-9445.3c-0.9-266.8-214.8-474.3-470-479.1
			c-267.5-5-484.1,209.3-488.4,470.9c-4.4,264,207.2,487.3,479.2,487.2C5097.3-8966.3,5309.6-9181.2,5310.3-9445.3z"/>
		<path class="st0" d="M4279.2-8704.8c0-24,0-48,0-72.2c367.2,0,733.9,0,1101.2,0c0,24,0,47.9,0,72.2
			C5013.5-8704.8,4646.5-8704.8,4279.2-8704.8z"/>
		<path class="st0" d="M4464.3-10171.3c-1.8,44.7-35.2,78.5-78.8,80.9c-28.4,1.5-54.2-4.8-75.5-24.7c-15.8-14.9-24.8-33.6-28.5-54.9
			c-4.8-27.2-2.3-53.6,10.5-78.3c18.2-35.2,54.8-53.9,94.5-49.6c28.8,3.1,52.2,14.9,67.1,40.7c5.3,9.3,8.4,19.3,9.3,30.9
			c-13.6,0-26.8,0.1-39.9-0.1c-1.1,0-2.7-1.9-3.1-3.2c-5.6-18.1-18.2-28.4-36.4-30.9c-19.9-2.7-37,3.6-48.2,21.2
			c-11.6,18-13.7,38.2-10.8,58.7c1.5,10.5,4.9,21.2,10,30.5c9.8,18.1,30.3,26.3,51.2,22.6c18.7-3.3,31.4-16.4,35.3-37.4
			c1-5.4,3.1-6.5,8-6.3C4440.6-10171.1,4452.3-10171.3,4464.3-10171.3z"/>
		<path class="st0" d="M5190-8201.9c-11.9,0-23.8,0.3-35.6-0.2c-2-0.1-4.4-3.1-5.8-5.3c-21.9-33.8-43.6-67.7-65.4-101.5
			c-1.2-1.9-2.5-3.8-5.2-5.2c0,37.1,0,74.2,0,112.3c-11.5,0-22.3,0.1-33-0.1c-1,0-2.3-2-3-3.3c-0.5-1.1-0.1-2.6-0.1-3.9
			c0-51.6,0-103.1,0-154.7c0-2.3,0.2-4.7,0.4-7.7c12.4,0,24.2-0.2,36.1,0.2c1.9,0.1,4,2.9,5.3,4.9c21.9,33.8,43.6,67.7,65.4,101.5
			c1.3,2,2.6,3.9,5.2,5.8c0-37.2,0-74.3,0-112c12.4,0,23.7,0,35.7,0C5190-8315.1,5190-8258.9,5190-8201.9z"/>
		<path class="st0" d="M4639.5-8314c0,37,0,74,0,111.5c-12,0-23.6,0-35.6,0c0-56.1,0-112.1,0-169.1c12.2,0,24.5-0.2,36.7,0.2
			c1.6,0.1,3.4,3,4.7,4.9c21.9,33.8,43.6,67.7,65.4,101.5c1.2,1.9,2.5,3.7,5.2,5.1c0-36.9,0-73.8,0-111.3c12.3,0,23.8,0,35.8,0
			c0.1,2.5,0.3,4.9,0.3,7.2c0,51.4-0.1,102.7,0.1,154.1c0,6.2-1.5,8.4-7.9,8c-8.2-0.5-16.5-0.4-24.7,0c-4.5,0.2-7-1.5-9.4-5.2
			c-21.7-33.9-43.5-67.8-65.3-101.7c-1.3-2-2.6-3.9-3.9-5.8C4640.5-8314.3,4640-8314.1,4639.5-8314z"/>
		<path class="st0" d="M5380.5-10094.9c-12.4,0-24.5,0-37.2,0c0-5.3,0-10.6,0-15.9c-7.7,8.8-16.4,14.9-27.5,17.8
			c-31.1,8.1-60.1-5-73-34.4c-12.6-28.7-12.4-57.9,3-85.6c15.1-27,47.8-37.2,75.9-24.3c6.7,3.1,12.3,8.3,18.8,12.8
			c0-22.2,0-45.1,0-68.5c13.8,0,26.6,0,39.9,0C5380.5-10227,5380.5-10161.2,5380.5-10094.9z M5343.9-10168.4
			c-0.4-0.1-0.8-0.2-1.2-0.2c-0.4-4.1-0.6-8.2-1.2-12.3c-2.9-19.4-14.9-31.3-31.9-31.7c-17.4-0.5-29.6,10.2-33.8,29.6
			c-0.5,2.5-1,5.1-1.2,7.7c-1.3,14.1,0,27.7,7.8,39.9c6.6,10.2,16.2,15.3,28.5,14.6c13.3-0.8,22.7-7.5,26.8-19.9
			C5340.8-10149.7,5342-10159.2,5343.9-10168.4z"/>
		<path class="st0" d="M4786.9-8202.7c0-56,0-111.9,0-168.3c1.7-0.2,3.4-0.7,5-0.7c25.8,0,51.6-0.3,77.3,0.3
			c39.2,1,68.3,29.2,72,68.3c1.8,19.3,0.8,38.1-6.6,56.1c-11.1,27-32,42.1-60.7,43.9c-27.6,1.7-55.4,0.9-83.1,1.1
			C4789.6-8201.9,4788.4-8202.4,4786.9-8202.7z M4825.3-8339.8c0,35.3,0,70.5,0,106.4c13.1,0,25.8,0.5,38.5-0.1
			c17.5-0.8,29.7-10,35.9-26.4c5.6-14.8,5.1-30.1,1.9-45.4c-4.1-19.8-16-32.2-36.3-34.3C4852.3-8340.8,4839-8339.8,4825.3-8339.8z"
			/>
		<path class="st0" d="M5379.1-8316c-12.6,0-23.6,0.1-34.6-0.1c-1.4,0-3.4-1.7-3.9-3.1c-5-14.9-15.3-23.5-30.7-25.2
			c-17.5-1.9-32.7,2.8-43.3,17.9c-14.5,20.7-14.5,58.1-0.3,79c13.6,19.9,47.1,25.2,66,10.1c8.8-7,12.4-16.7,13.6-28.7
			c-13.2,0-25.8,0-38.7,0c0-9.4,0-17.8,0-26.7c24.1,0,48.2,0,72.8,0c0,29.8,0,59.8,0,90.9c-6.9,0-14,0.2-21-0.2
			c-1.3-0.1-3.1-2.7-3.6-4.4c-1.3-4.3-1.9-8.7-2.9-13.1c-0.7-0.5-1.5-0.9-2.2-1.4c-0.9,1.7-1.5,3.6-2.8,4.9
			c-13.4,13.8-30.1,18.6-49,17.7c-16.6-0.8-32.1-4.9-45.8-14.5c-23.9-16.7-33.9-40.8-35.3-69c-0.9-19.4,2.8-38,12.9-54.8
			c18.6-31.1,51.6-43.2,88-37.8c23,3.4,41.7,14.5,52.7,35.7C5374.7-8332,5376.3-8324.3,5379.1-8316z"/>
		<path class="st0" d="M4574.4-8340.6c-30.7,0-61.1,0-92,0c0,12.3,0,24,0,36.5c28.1,0,55.9,0,84.4,0c0,9.7,0,18.8,0,28.7
			c-28,0-55.9,0-84.3,0c0,14.2,0,27.7,0,42.1c31.2,0,62.4,0,94,0c0,10.8,0,20.6,0,31c-44.2,0-88.2,0-132.7,0c0-56.3,0-112.2,0-168.8
			c43.3,0,86.4,0,130.5,0C4574.4-8361.4,4574.4-8351.5,4574.4-8340.6z"/>
		<path class="st0" d="M5220.6-10139.7c-5.8,17.5-13.9,32.1-30.1,40c-24.4,11.9-49.6,12.4-73.8,0.4c-27.6-13.7-37-38.7-37.2-67.8
			c-0.3-32.6,17.1-59.7,45.1-70.3c40.1-15.2,88.6,0.2,97.5,57.2c1.2,7.4,1.1,14.9,1.7,23.3c-18.3,0-35.6,0-52.8,0
			c-17.1,0-34.1,0-51.1,0c-0.6,17.1,7.1,29.5,20.4,33.8c17.6,5.6,34.9,0.3,43.9-13.2c1.1-1.6,3.5-3.3,5.3-3.4
			C5199.4-10139.8,5209.3-10139.7,5220.6-10139.7z M5182.7-10182.5c-3.2-21.7-15.1-31.8-34.6-30c-16.7,1.6-28.6,14.2-28,30
			C5140.8-10182.5,5161.5-10182.5,5182.7-10182.5z"/>
		<path class="st0" d="M4621.8-10156.6c-35.8,0-70,0-104.1,0c-0.1,18,7.2,29.5,21.2,33.8c17.6,5.5,33.7,0.2,43.6-14
			c0.9-1.3,2.9-2.7,4.4-2.7c10.2-0.2,20.3-0.1,31.5-0.1c-4.8,15.9-12.2,29.1-26,37.8c-48.4,30.4-108.8,1.1-114.5-55.5
			c-3.6-36.6,13.5-68.1,44.6-80c40.2-15.3,88.2,0.4,97.4,56.6C4621.2-10173.1,4621.2-10165.3,4621.8-10156.6z M4517.7-10182.7
			c21.3,0,42.2,0,63.1,0c-3.3-20.8-13.9-30.5-32.1-29.9C4530.9-10212.1,4519.5-10201.2,4517.7-10182.7z"/>
		<path class="st0" d="M4316.9-8202.3c-12.8,0-24.8,0-37.1,0c0-56.4,0-112.4,0-168.7c1.4-0.2,2.4-0.6,3.4-0.6
			c28.1,0.1,56.3-0.7,84.4,0.5c21.5,0.9,39.3,10.3,47.3,31.6c8,21.2,6.2,41.9-9.6,59.5c-11.8,13.1-27.9,16.7-44.8,17
			c-12.3,0.3-24.7,0.3-37,0c-4.9-0.1-6.4,1.5-6.3,6.3c0.2,16,0.1,32,0.1,48.1C4317.2-8206.8,4317-8204.9,4316.9-8202.3z
			 M4317.2-8317.5c0,6.9-0.2,13.9,0.2,20.8c0.1,1.7,2.1,4.8,3.3,4.8c14-0.1,28.2,0.3,42-1.5c13.4-1.7,19.8-11.2,19.4-24.9
			c-0.3-13.1-7.3-22.1-20.4-23.4c-13.3-1.4-26.7-1.2-40.1-1.2c-1.4,0-4,2.9-4.1,4.6C4317-8331.4,4317.2-8324.5,4317.2-8317.5z"/>
		<path class="st0" d="M5005.2-10293.3c0,11,0,20.5,0,30c-5.1,0-9.8-0.1-14.5,0c-10.1,0.1-14.1,4.1-14.5,14.2c-0.1,3.2,0,6.4,0,10.4
			c9.1,0,17.8,0,26.9,0c0,9.1,0,17.5,0,26.5c-8.7,0-17.3,0-26.6,0c0,39.3,0,77.9,0,117.1c-13.6,0-26.4,0-40.2,0
			c0-38.6,0-77.4,0-116.8c-8.2,0-15.4,0-23.2,0c0-9.1,0-17.6,0-26.6c7.4,0,14.7,0,23,0c0-3.6,0-6.8,0-9.9
			c0.3-27.5,15.8-43.7,43.2-44.9C4987.6-10293.7,4996-10293.3,5005.2-10293.3z"/>
		<path class="st0" d="M4768.3-10212c-8.1,0-15.6,0-23.3,0c0-9.1,0-17.5,0-26.5c7.7,0,15.2,0,23.3,0c0-14.6,0-28.6,0-42.9
			c13.5,0,26.4,0,40.1,0c0,14.2,0,28.2,0,42.5c9.8,0,18.8,0,28.4,0c0,8.9,0,17.5,0,26.8c-9.1,0-18.3,0-28.3,0c0,4.1,0,7.5,0,10.9
			c0,19.7,0,39.4,0,59.2c0,14.6,3.4,17.9,18.1,17.5c3.2-0.1,6.5-0.5,10.2-0.7c0,10,0,20,0,30.6c-15.7,1.9-31.4,2.7-46.8-1.4
			c-13.7-3.7-21-13.1-21.3-28.3c-0.5-26.6-0.2-53.3-0.3-80C4768.3-10206.6,4768.3-10208.9,4768.3-10212z"/>
		<path class="st0" d="M4379.6-8523.2c10,0,19.7,0,29.4,0c-0.1,33.9-29.9,59.8-65.5,57.2c-41.5-3-67.8-35.1-64.6-78.4
			c1.5-20.6,8-38.9,24-52.9c28.8-25.2,79.3-19.1,97.6,12c3.9,6.7,5.8,14.6,9.1,23.2c-10.8,0-19.6,0.1-28.4-0.2
			c-1.3,0-3.4-1.9-3.8-3.3c-7.1-24.2-40.9-27.2-55.9-10.2c-15,16.9-15.7,54.4-1,71.6c9.5,11.1,21.8,13.8,35.3,11
			c12.8-2.7,19.3-12.3,22.4-24.4C4378.7-8519.4,4379.1-8521.3,4379.6-8523.2z"/>
		<path class="st0" d="M4650-8480.8c0,16.5,0,31.4,0,46.6c-9.2,0-18,0-27.4,0c0-45.3,0-90.6,0-136.2c8.7,0,17.2,0,26,0
			c0.2,3.5,0.3,6.7,0.5,10.8c2.5-2.3,4.3-4.3,6.4-6c16.5-13.8,45.7-9.5,59,8.7c14.2,19.4,14.7,52.6,1.2,72.4
			c-14.4,21.1-43.7,24.2-62.2,6.7C4652.8-8478.5,4652-8479.1,4650-8480.8z M4698.3-8520.2c-1.8-6.5-2.9-13.3-5.5-19.6
			c-3.6-8.6-10.9-12.7-20.2-12.5c-9.3,0.2-16.2,4.7-19.7,13.3c-5.1,12.5-5.1,25.4,0,37.9c3.6,9,11,13.3,20.4,13.3
			c9.4,0,17-4.1,20.4-13.2C4695.9-8506.9,4696.7-8513.4,4698.3-8520.2z"/>
		<path class="st0" d="M4638.9-10238.5c12.5,0,24.4,0,36.9,0c0,8,0,15.9,0,23.8c13.5-19.9,30.9-30.4,55.5-27.1c0,12.8,0,24.6,0,37.1
			c-2.9-0.1-5.4-0.2-7.9-0.4c-27.3-2.5-43.8,11.4-44.7,38.8c-0.7,21.2-0.3,42.5-0.4,63.7c0,2.4,0,4.7,0,7.6c-13.3,0-26.2,0-39.4,0
			C4638.9-10142.8,4638.9-10190.3,4638.9-10238.5z"/>
		<path class="st0" d="M4964-8539.5c-8.8,0-17.6,0-26.4,0c-1.3-11,4.8-22.3,16.5-27.6c20.1-9.1,40.8-9,61.1-0.6
			c10.1,4.2,13.9,13,13.9,23.7c0,19.9,0.1,39.8,0.5,59.8c0.1,4.9,1.3,9.8,2.1,14.9c-8.8,0-17.8,0-27.4,0c-0.7-2.5-1.5-5.1-2.5-8.5
			c-10.9,9.1-23.6,12-37.3,11.3c-22.5-1.1-35.2-18-29.9-39.5c2.5-9.9,9.2-15.9,18.4-18.3c10.4-2.7,21.2-3.9,31.9-5.8
			c2.8-0.5,5.6-0.9,8.2-1.8c4.9-1.6,8.3-4.7,7.8-10.5c-0.4-5.7-3.1-9.7-8.9-11.3C4977.8-8557.5,4969.3-8553.3,4964-8539.5z
			 M5001-8517.6c-3.9,1.1-7,2.1-10.1,2.8c-3.2,0.7-6.4,0.8-9.6,1.5c-4,0.8-8.1,1.6-11.8,3.1c-6.1,2.5-8.7,8-7.6,14.8
			c1,6,5.2,8.6,10.8,9.5c17.7,2.9,27.8-5.4,28.2-23.4C5001.1-8511.9,5001-8514.5,5001-8517.6z"/>
		<path class="st0" d="M5007.6-8371.6c0,3.2,0,5.4,0,7.5c0,51.5-0.1,103.1,0.1,154.6c0,6.4-2,8.1-8.1,7.8
			c-8.4-0.5-16.9-0.3-25.3-0.1c-4,0.1-5.2-1.5-5.2-5.3c0.1-53,0-106.1,0.2-159.1c0-1.8,2.3-5,3.6-5.1
			C4984.1-8371.8,4995.4-8371.6,5007.6-8371.6z"/>
		<path class="st0" d="M5215.2-8573.3c32.5,0,52.6,20.5,52.6,53.5c0,32.8-20.5,53.3-53,53.3c-31.7,0-52-21-51.9-53.7
			C5163-8552.9,5183.1-8573.4,5215.2-8573.3z M5190.5-8522c0.4,4.7,0.6,7.7,1.1,10.7c0.5,2.8,1.1,5.5,2,8.2
			c3.6,10,11.5,15.6,21.7,15.5c10.2,0,18.4-5.6,21.7-15.5c3.8-11.2,3.8-22.6,0-33.8c-3.6-10.4-11.6-15.6-22.3-15.4
			c-10.4,0.2-17.9,5.7-21.2,16.1C5191.9-8531.2,5191.3-8525.7,5190.5-8522z"/>
		<path class="st0" d="M4843.7-8519.7c0,23.7-10.9,41.5-30.2,49.2c-21.1,8.5-47.1,4.2-60.9-11.2c-16.6-18.6-18-40.4-9.1-62.6
			c8.3-20.6,25.4-29.1,47-29.1C4823.6-8573.4,4843.7-8553.1,4843.7-8519.7z M4816-8518.5c-0.5-4.9-0.7-8.4-1.2-11.8
			c-0.4-2.3-1.2-4.6-2-6.8c-3.7-10-11.3-15.2-21.9-15.1c-10,0.1-17.8,5.4-21.2,15.1c-3.9,10.9-4,22.1-0.4,33.1
			c3.5,10.7,11.2,16.4,21.6,16.5c10.6,0.1,18.9-5.7,22.3-16.5C4814.8-8509.2,4815.2-8514.6,4816-8518.5z"/>
		<path class="st0" d="M4421.2-8519.8c-0.3-50.7,46.3-62.4,77.1-48.5c21.5,9.7,28.2,28.7,27.9,50.8c-0.3,22.6-12,40-31.1,47.4
			c-21.2,8.2-46.4,3.2-60.8-12C4425.6-8491.3,4421.2-8504.2,4421.2-8519.8z M4499.1-8519.5c-1.7-7-2.6-13.7-5-19.8
			c-3.5-9-11.1-13-20.6-12.9c-9.5,0-16.9,4.2-20.6,13.1c-5.2,12.7-5.3,25.8,0.1,38.6c3.7,8.7,11,12.8,20.1,12.9
			c9,0.1,16.9-3.3,20.6-12C4496.3-8506,4497.3-8512.9,4499.1-8519.5z"/>
		<path class="st0" d="M5380.5-8469.4c-9.3,0-18.2,0-27.8,0c0-2.6,0-4.9,0-7.2c0-16.5,0-32.9,0-49.4c0-3.2-0.2-6.5-0.6-9.7
			c-1.3-9.4-6-14.5-14-15.4c-11-1.3-19.1,2.7-21.9,11.9c-1.7,5.7-2.3,11.9-2.4,17.9c-0.3,17.1-0.1,34.2-0.1,51.7
			c-9.5,0-18.4,0-27.8,0c0-33.5,0-67,0-100.8c8.8,0,17.3,0,26.1,0c0.3,3.9,0.5,7.5,0.9,12c3.1-2.9,5.4-5.4,8-7.5
			c11.5-9.2,33.6-10.2,46-2.2c9.3,6,13,15.4,13.3,25.5C5380.9-8518.4,5380.5-8494.2,5380.5-8469.4z"/>
		<path class="st0" d="M4857.3-10238.4c13.3,0,26,0,39.1,0c0,47.8,0,95.3,0,143.3c-13,0-25.8,0-39.1,0
			C4857.3-10142.8,4857.3-10190.3,4857.3-10238.4z"/>
		<path class="st0" d="M5066.2-10094.9c-13,0-25.7,0-38.9,0c0-47.7,0-95.2,0-143.3c12.6,0,25.5,0,38.9,0
			C5066.2-10190.6,5066.2-10142.9,5066.2-10094.9z"/>
		<path class="st0" d="M5105.9-8552c-6.6,0-13,0-19.9,0c0,18.4-0.1,36.1,0.1,53.8c0.1,4.7,3.1,7.6,7.9,7.8c3.9,0.2,7.7,0,12,0
			c0,6.8,0,13.9,0,21.4c-11.2,1.5-22.4,2.1-33.4-1.2c-8.8-2.6-14.2-8.7-14.4-17.9c-0.5-18-0.4-35.9-0.6-53.9c0-3,0-6,0-9.8
			c-5.6,0-10.7,0-16.3,0c0-6.6,0-12.5,0-19.1c5.3,0,10.4,0,16.1,0c0-10.1,0-19.6,0-29.6c9.5,0,18.5,0,28.2,0c0,9.5,0,19.1,0,29.4
			c7.1,0,13.5,0,20.4,0C5105.9-8564.5,5105.9-8558.6,5105.9-8552z"/>
		<path class="st0" d="M4542.5-8570.4c8.7,0,17.1,0,26.1,0c0,5,0,9.7,0,16.6c10.1-14.2,21.7-21.4,38.2-19.1c0,8.5,0,16.8,0,25.6
			c-2.5,0-5,0.1-7.5,0c-16.8-0.5-27.5,8.3-28.6,25c-1,14.9-0.5,29.9-0.7,44.8c0,2.6,0,5.1,0,8c-9.4,0-18.2,0-27.5,0
			C4542.5-8502.9,4542.5-8536.3,4542.5-8570.4z"/>
		<path class="st0" d="M4927.2-8546.8c-3.4-0.2-5.9-0.4-8.5-0.4c-16.3-0.5-26.8,7.8-28.1,24c-1.2,15.1-0.5,30.2-0.7,45.4
			c0,2.8,0,5.5,0,8.5c-9.6,0-18.4,0-27.7,0c0-33.5,0-66.9,0-100.9c8.3,0,16.8,0,25.7,0c0,5.1,0,10,0,14.9c0.4,0.2,0.8,0.4,1.2,0.6
			c1.2-1.5,2.3-3.1,3.5-4.6c7.5-9.4,17-14.3,29.2-14.1c3.6,0.1,5.6,0.9,5.4,5.1C4926.9-8561.4,4927.2-8554.5,4927.2-8546.8z"/>
		<path class="st0" d="M5120.5-8570.5c9.2,0,18,0,27.2,0c0,33.6,0,67,0,100.9c-8.8,0-17.8,0-27.2,0
			C5120.5-8502.9,5120.5-8536.3,5120.5-8570.5z"/>
		<path class="st0" d="M5027.1-10261.3c0-10.5,0-20.8,0-31.7c12.8,0,25.6,0,39,0c0,10.3,0,20.7,0,31.7
			C5053.5-10261.3,5040.7-10261.3,5027.1-10261.3z"/>
		<path class="st0" d="M4857.5-10293.5c11.4,0,22.4,0,33.5,0c1.7,0,3.4,0.2,5.5,0.3c0,10.7,0,21.2,0,32c-13,0-25.7,0-38.9,0
			C4857.5-10271.6,4857.5-10282,4857.5-10293.5z"/>
		<path class="st0" d="M5346.8-8821.7c-18.8,0-33.2-14.7-33-33.5c0.2-18.4,14.8-32.7,33.3-32.6c18.4,0.1,33,14.6,33,32.9
			C5380.1-8836.1,5365.6-8821.6,5346.8-8821.7z M5347-8826.8c15.1-0.1,27.3-12.9,26.9-28.4c-0.3-15.4-12.4-27.5-27.2-27.4
			c-14.9,0.1-26.8,12.3-26.9,27.7C5319.8-8839.2,5331.9-8826.7,5347-8826.8z"/>
		<path class="st0" d="M5147.9-8609c0,7.6,0,14.8,0,22.5c-9.2,0-18.2,0-27.5,0c0-7.4,0-14.7,0-22.5
			C5129.4-8609,5138.3-8609,5147.9-8609z"/>
		<path class="st0" d="M4975.3-9464.3c10,3.1,18.8,5.2,27.2,8.4c55.3,21.3,85,62.6,92.1,120.6c5.7,46.9-3.8,90.6-31.2,129.5
			c-29.1,41.4-70.1,64.1-119.5,72.1c-14.3,2.3-28.9,3.3-43.3,3.3c-97.5,0.3-195,0.1-292.5,0.1c-2.4,0-4.7,0-7.6,0
			c0-210.2,0-419.8,0-630.3c2.1-0.1,4.4-0.3,6.7-0.3c83,0,166-0.3,249,0.1c35.1,0.2,70,1.8,104.6,9.3
			c49.2,10.7,97.4,57.5,106.6,117.6c6.6,43.2-0.2,83.7-26.4,119.7c-14.4,19.9-33.4,34.3-55.4,45
			C4982.5-9467.6,4979.4-9466.2,4975.3-9464.3z M4684.1-9201.3c2.9,0,5.4,0,7.9,0c65.4,0,130.9,0,196.3,0c8.2,0,16.5-0.1,24.6-1.1
			c35.5-4.4,65-19.2,83.8-51c12.9-21.8,16.4-45.8,14.7-70.7c-2.6-37.1-20.1-64.2-54.3-79.8c-24.1-11-49.8-14.6-75.9-14.7
			c-63.3-0.3-126.5-0.1-189.8-0.1c-2.3,0-4.6,0-7.3,0C4684.1-9346.1,4684.1-9274.1,4684.1-9201.3z M4684.1-9690
			c0,67.3,0,133.5,0,200c1.6,0.1,2.8,0.2,4.1,0.2c54.6,0,109.2,0.1,163.7-0.1c23.4-0.1,46.7-1.9,69.3-9c28-8.8,49.3-24.9,58.8-53.8
			c6.4-19.5,6.8-39.6,4-59.7c-4.6-32.5-21.3-55.7-52.7-67.2c-20.8-7.6-42.6-10-64.4-10.2c-58.9-0.4-117.8-0.3-176.7-0.3
			C4688.2-9690,4686.4-9690,4684.1-9690z"/>
		<path class="st0" d="M5353-8852c3.5,5.5,6.6,10.4,9.8,15.5c-4.3,2-6.8,0.6-8.7-3c-1.6-3-3.4-6.1-5.6-8.7c-1.7-1.9-4.2-3.1-7.9-5.8
			c0,7.5,0,12.5,0,18c-2.5,0-4.3,0-6.4,0c0-12.5,0-24.7,0-38.4c7.2,0.4,14.5,0.2,21.6,1.3c4.4,0.7,6.5,4.4,6.8,9.1
			C5363-8857.3,5359.5-8853.9,5353-8852z M5340.6-8855.4c5.6-1.8,10.3-3,14.7-5c0.7-0.3,0.5-5.4-0.2-5.6c-4.5-1.6-9.2-2.5-14.5-3.8
			C5340.6-8864.6,5340.6-8861.2,5340.6-8855.4z"/>
	</g>
</g>
<g>
	<path class="st0" d="M3031.4-8257.3H1938v-805.9c110.5,110.2,252.4,184.9,407.3,213.3c46.3,8.5,93.5,12.8,140.2,12.8
		c115.5,0,231.6-26.7,335.9-77.1c77.4-37.5,148.9-88.3,210-149V-8257.3z M3038.2-9164.9c-158.4,196-416.2,301.5-681.6,252.9
		c-174.5-31.9-322.4-125-425.6-253.2c-18.7-23.2-56.2-9.8-56.2,19.9v919.4c0,17.5,14.2,31.7,31.7,31.7h1156.3
		c17.5,0,31.7-14.2,31.7-31.7V-9145C3094.5-9174.9,3057-9188.1,3038.2-9164.9"/>
	<path class="st0" d="M3267.8-8283.1c-4.6,2.5-7,6.6-7,12.3c0,4.4,1.2,8,3.5,10.6c2.3,2.6,6.4,4.6,12.3,6c5.9,1.4,13.9,2.3,23.9,2.7
		c10,0.4,22.6,0.6,37.8,0.6c15.2,0,27.8-0.2,37.8-0.6c10-0.4,18-1.3,23.9-2.7c5.9-1.4,10-3.4,12.3-6c2.3-2.6,3.5-6.2,3.5-10.6
		c0-3.6-0.9-6.5-2.7-8.8c-1.8-2.3-4.8-4.1-9-5.4c-4.2-1.3-9.9-2.2-16.9-2.7c-7.1-0.5-16-0.8-26.7-0.8v-56.9h16.7
		c15.8,0,28.8,2.1,38.9,6.3c10.1,4.2,18.1,9.8,23.9,16.7c5.8,7,9.7,14.9,11.7,23.9c2,9,3,18.2,3,27.7c0,16.4-2,29.9-6,40.5
		c-4,10.5-10.7,18.8-20.1,24.6c-9.4,5.9-21.5,9.9-36.3,12.2c-14.9,2.2-32.8,3.3-53.9,3.3c-21.5,0-39.7-1.3-54.7-4
		c-15-2.6-27.1-7.1-36.4-13.4c-9.3-6.3-16-14.6-20.1-25c-4.1-10.3-6.2-23.1-6.2-38.2c0-13.3,1.7-24.5,5.1-33.8
		c3.4-9.3,8.2-16.8,14.4-22.6c6.2-5.8,13.7-10,22.4-12.6c8.7-2.6,18.6-4,29.5-4h14.2v56.9H3294
		C3281.2-8286.9,3272.4-8285.6,3267.8-8283.1"/>
	<path class="st0" d="M3376.1-8451.2c10-0.4,18-1.3,23.9-2.7c5.9-1.4,10-3.4,12.3-6c2.3-2.6,3.5-6.2,3.5-10.6
		c0-4.4-1.2-7.9-3.5-10.6c-2.3-2.6-6.4-4.6-12.3-6c-5.9-1.4-13.9-2.3-23.9-2.7c-10-0.4-22.6-0.6-37.8-0.6s-27.8,0.2-37.8,0.6
		c-10,0.4-18,1.3-23.9,2.7c-5.9,1.4-10,3.4-12.3,6c-2.3,2.6-3.5,6.2-3.5,10.6c0,4.4,1.1,8,3.5,10.6c2.3,2.6,6.4,4.6,12.3,6
		c5.9,1.4,13.9,2.3,23.9,2.7c10,0.4,22.6,0.6,37.8,0.6S3366-8450.7,3376.1-8451.2 M3284.4-8394c-14.9-2.7-27-7.3-36.3-13.6
		c-9.4-6.3-16.2-14.6-20.5-25c-4.3-10.3-6.5-23-6.5-37.9c0-15,2.2-27.6,6.5-37.9c4.3-10.3,11.2-18.6,20.5-25
		c9.4-6.3,21.5-10.8,36.3-13.6c14.9-2.7,32.8-4.1,53.9-4.1c21.1,0,39,1.4,53.9,4.1c14.9,2.7,27,7.3,36.3,13.6
		c9.4,6.3,16.1,14.7,20.1,25c4,10.3,6,23,6,37.9c0,15-2,27.6-6,37.9c-4,10.3-10.7,18.6-20.1,25c-9.4,6.3-21.5,10.9-36.3,13.6
		c-14.9,2.7-32.8,4.1-53.9,4.1C3317.2-8389.9,3299.2-8391.2,3284.4-8394"/>
	<polygon class="st0" points="3225.5,-8684.1 3359.1,-8707.8 3359.1,-8708.4 3225.5,-8732.1 3225.5,-8816.2 3451.1,-8816.2 
		3451.1,-8761.2 3283,-8761.2 3283,-8760.6 3451.1,-8729.3 3451.1,-8686.9 3283,-8655.6 3283,-8655 3451.1,-8655 3451.1,-8600 
		3225.5,-8600 	"/>
	<path class="st0" d="M3322.8-8939.4c0-7.4-2.2-13-6.6-16.9c-4.4-3.9-11.4-5.9-20.9-5.9c-18.3,0-27.5,7.6-27.5,22.8v11.1h55V-8939.4
		z M3225.4-8957.7c0-11.2,1.8-20.9,5.4-29.1c3.6-8.2,8.5-15,14.7-20.4c6.2-5.4,13.5-9.3,22-11.9c8.4-2.5,17.6-3.8,27.5-3.8
		c23.4,0,40.9,6.3,52.6,18.8c11.7,12.5,17.5,30.9,17.5,55.2v20.5h86v58.8h-225.7V-8957.7z"/>
	<path class="st0" d="M3376.1-9115.1c10-0.4,18-1.3,23.9-2.7c5.9-1.4,10-3.4,12.3-6c2.3-2.6,3.5-6.2,3.5-10.6s-1.2-7.9-3.5-10.6
		s-6.4-4.6-12.3-6c-5.9-1.4-13.9-2.3-23.9-2.7c-10-0.4-22.6-0.6-37.8-0.6s-27.8,0.2-37.8,0.6c-10,0.4-18,1.3-23.9,2.7
		c-5.9,1.4-10,3.4-12.3,6c-2.3,2.6-3.5,6.2-3.5,10.6s1.1,8,3.5,10.6c2.3,2.6,6.4,4.6,12.3,6c5.9,1.4,13.9,2.3,23.9,2.7
		c10,0.4,22.6,0.6,37.8,0.6S3366-9114.7,3376.1-9115.1 M3284.4-9057.9c-14.9-2.7-27-7.3-36.3-13.6c-9.4-6.3-16.2-14.6-20.5-25
		c-4.3-10.3-6.5-23-6.5-37.9c0-15,2.2-27.6,6.5-37.9c4.3-10.3,11.2-18.6,20.5-25c9.4-6.3,21.5-10.8,36.3-13.6
		c14.9-2.7,32.8-4.1,53.9-4.1c21.1,0,39,1.4,53.9,4.1c14.9,2.7,27,7.3,36.3,13.6c9.4,6.3,16.1,14.6,20.1,25c4,10.3,6,23,6,37.9
		c0,15-2,27.6-6,37.9c-4,10.3-10.7,18.7-20.1,25c-9.4,6.3-21.5,10.9-36.3,13.6c-14.9,2.7-32.8,4.1-53.9,4.1
		C3317.2-9053.8,3299.2-9055.2,3284.4-9057.9"/>
	<path class="st0" d="M3285.2-9343c-6.7,0-12.5,1.4-17.2,4.1c-4.7,2.7-7.1,7-7.1,12.7c0,6.3,2.1,11,6.2,13.9c4.1,3,8.7,4.4,13.8,4.4
		c7.4,0,13.2-2.4,17.5-7.1c4.3-4.7,8.1-10.7,11.2-17.9c3.2-7.2,6.4-14.9,9.6-23.1c3.3-8.2,7.5-15.9,12.8-23.1
		c5.3-7.2,12.2-13.1,20.7-17.9c8.5-4.7,19.7-7.1,33.4-7.1c24,0,41.5,6.8,52.3,20.5c10.9,13.7,16.3,33.5,16.3,59.4
		c0,12.2-1,23-3,32.4c-2,9.4-5.5,17.3-10.4,23.7c-5,6.4-11.4,11.3-19.4,14.7c-8,3.4-17.9,5.1-29.7,5.1h-7.9v-56.9h5.4
		c9.7,0,16.5-1.8,20.4-5.4c3.9-3.6,5.8-8.2,5.8-13.9c0-6.1-2.1-10.8-6.3-14.1c-4.2-3.3-9.4-4.9-15.5-4.9c-7.4,0-13.2,2.3-17.5,6.8
		c-4.3,4.5-8,10.2-11.1,17.1c-3.1,6.9-6.2,14.3-9.3,22.3c-3.2,8-7.3,15.4-12.3,22.3c-5.1,6.8-11.7,12.5-19.9,17.1
		c-8.2,4.5-19,6.8-32.2,6.8c-23,0-40.5-6.1-52.5-18.3c-12-12.2-18-30.8-18-55.6c0-25.7,5.5-44.3,16.6-55.8
		c11.1-11.5,28.7-17.2,52.9-17.2v55H3285.2z"/>
	<polygon class="st0" points="3275.4,-9429.9 3225.5,-9429.9 3225.5,-9576.6 3275.4,-9576.6 3275.4,-9532.3 3451.1,-9532.3 
		3451.1,-9473.5 3275.4,-9473.5 	"/>
	<path class="st0" d="M3271.6-9676.1l95.8,16.1v-32.9l-95.8,16.1V-9676.1z M3225.5-9713.4l225.7-55v62.6l-39.5,6v46.8l39.5,6v61.6
		l-225.7-54V-9713.4z"/>
	<path class="st0" d="M3408.8-9877.9c0-5.5-2.3-10.3-6.8-14.5c-4.5-4.2-11.5-6.3-21-6.3c-8.8,0-15.6,2.1-20.2,6.3
		c-4.6,4.2-6.9,9.1-6.9,14.5v16.4h55V-9877.9z M3314-9875.7c0-6.1-2.3-10.8-6.8-13.9c-4.5-3.2-9.9-4.7-16-4.7
		c-6.3,0-11.8,1.6-16.4,4.7c-4.6,3.2-7,7.8-7,13.9v14.2h46.1V-9875.7z M3225.5-9891.5c0-21.1,5.1-36.6,15.3-46.6
		c10.2-10,23.9-15,40.9-15c5.9,0,11.7,0.7,17.2,2c5.6,1.4,10.6,3.5,15.2,6.3c4.5,2.8,8.4,6.5,11.5,10.9c3.2,4.4,5.4,9.8,6.6,16.1
		h0.6c0.6-7.4,2.6-13.7,5.8-19c3.3-5.3,7.3-9.6,12.2-13c4.8-3.4,10.2-5.8,16-7.4c5.8-1.6,11.6-2.4,17.5-2.4c9.7,0,18.6,1.3,26.9,3.8
		c8.2,2.5,15.3,6.5,21.2,11.9c5.9,5.4,10.5,12.4,13.7,21c3.3,8.6,4.9,19.1,4.9,31.3v88.8h-225.7V-9891.5z"/>
	<polygon class="st0" points="3225.5,-10060 3403.1,-10060 3403.1,-10132.4 3451.1,-10132.4 3451.1,-10001.2 3225.5,-10001.2 	"/>
	<polygon class="st0" points="3225.5,-10303.9 3273.5,-10303.9 3273.5,-10229 3312.1,-10229 3312.1,-10299.1 3358.2,-10299.1 
		3358.2,-10229 3403.1,-10229 3403.1,-10306.7 3451.1,-10306.7 3451.1,-10170.2 3225.5,-10170.2 	"/>
	<path class="st0" d="M3046.8-10156c-38.3,0-66.7-30-66.7-68.2c0-37.2,28.4-67.7,65.6-67.7h0.6c37.2,0,65.1,30.5,65.1,68.2
		C3111.4-10186,3083.5-10155.4,3046.8-10156 M3046.8-10306.4h-0.5c-47,0-84.3,36.2-84.3,82.2c0,47.1,37.3,83.2,84.3,83.2
		c47,0,83.2-36.1,83.2-83.2C3129.6-10270.2,3093.4-10306.4,3046.8-10306.4"/>
	<path class="st0" d="M3042.1-10227.3h-10.8v-26.9c2.6-0.5,6.2-1.1,12.4-1.1c15,0,20.7,6.2,20.7,14.5
		C3064.4-10231,3053.5-10227.3,3042.1-10227.3 M3064.4-10221.1v-1.1c8.8-3.1,16.6-9.8,16.6-20.1c0-8.3-3.6-15-8.8-18.6
		c-5.2-4.2-12.4-6.7-26.9-6.7c-11.9,0-21.2,1-30,2.5v86.4h16.1v-36.2h10.3c11.9,0,17.6,4.2,19.6,13.9c2.6,11.4,4.7,19.2,7.3,22.3
		h16.5c-2.1-3.1-4.2-8.3-6.7-21.2C3075.8-10211.3,3071.6-10218,3064.4-10221.1"/>
	<path class="st0" d="M2913.3-9369.7c-3.8,7.8-10.8,11.2-17.8,11.1c-10.1-0.2-20.2-7.9-19.9-20.5c0-0.3,0-0.6,0-0.9
		c4.4-249.9-142-468.1-355.1-567.5l-55.7,137.7c-2.6,7.5-9.3,11.2-16,11.1c-6.6-0.1-13.2-4-15.6-11.7l-44.4-179
		c0,0-7.3,48.8-15.6,74c-5.7,17.1-19.1,38.8-26.6,46.5c-1.6,1.7-3.7,2.4-5.7,2.3c-3.6-0.1-7-2.6-7.6-6.7c-2.8-21-9-61.2-20.4-98.4
		c-14.3-46.8-38-93.2-38-93.2s-5.1,28.2-9.3,46c-3.2,13.6-9.7,30.9-13.7,37.3c-2.8,4.5-7.4,6.7-12,6.6c-5.3-0.1-10.6-3.2-12.8-8.9
		c-9.7-25.1-33.4-70.3-63.2-89.7c-18.9-12.3-44-17.8-70.3-18.3c-14-0.2-28.4,1-42.3,3.3c-0.4,0.1-0.8,0.1-1.2,0.1
		c-5.4-0.1-7.7-7.7-2.4-10.5c48.9-25.9,137.8-72,191.2-94.1c52-21.5,102.7-40.5,133.5-51.8c1.2-0.4,2.3-0.6,3.4-0.6
		c7,0.1,11.8,8.6,6.9,14.9l-27.2,34.3c0,0,61.7-23.7,125.7-37.8c33.5-7.4,67.6-12.2,92.5-15.2c0.5-0.1,1-0.1,1.4-0.1
		c8.9,0.2,13.1,11.8,5.6,17.5c-7.5,5.7-15.4,12.1-22.4,18.7c-21,19.7-33.2,41.2-33.2,41.2s58.2-18.4,127.5-22.7
		c30.5-1.9,66.9-3.5,96-3c12.4,0.2,23.5,0.8,32.2,2c9.9,1.3,11.4,14.9,2.1,18.5l-143.4,100.1c0.3,0.1,0.6,0.2,0.8,0.3
		c193.4,78,328.6,269.3,324.7,489.8C2963.9-9510.4,2945.8-9436.5,2913.3-9369.7 M2653.6-9138.1c-24,14-95.4,29.8-171.3,26.7
		c-154.9-6.3-263.8-57.8-358.5-156c-94.1-97.5-145.7-229-143.2-364.4c1.4-76.1,19.4-149.4,52-215.7c6.6-13.5,25.4-14.5,33.5-1.9
		c15.5,24.4,34.2,44.5,53.3,60.8c141.3,121,313.1,95.9,418.6,170.3c141.5,99.7,153.8,265.6,165.8,348.6
		C2715.7-9186.7,2679.5-9153.3,2653.6-9138.1 M2812.9-10127.6c23.1-13.1,36.6-39,33.4-66.1c-3.5-30.4-27.2-54.6-57.6-58.7
		c-10.5-1.4-23.3-2.3-38.9-2.5c-25.6-0.5-58.5,0.6-100.5,3.1c-2.7,0.2-5.4,0.3-8,0.6c-0.5-3-1.3-6-2.3-9
		c-8.9-27.3-34.1-45.9-62.6-46.4h0c-3,0-6.1,0.1-9.1,0.5c-24.6,2.9-61.6,8-98.2,16.1c-14.5,3.2-28.9,6.9-42.5,10.6
		c-12.2-14.4-30-23-49.4-23.3h0c-8.2-0.2-16.3,1.2-24.1,4.1c-33.2,12.1-83.7,31.1-135.7,52.6c-55.7,23.1-146.8,70.3-196.2,96.5
		c-25.4,13.5-38.5,42.4-31.8,70.3c6.1,25.6,27.2,44.3,52.7,47.8c-99.3,105.9-161.1,247.6-163.8,404.2
		c-5.9,335.2,261.1,611.8,596.3,617.7c335.3,5.9,611.8-261.1,617.7-596.3C3095.9-9824.2,2984-10017.6,2812.9-10127.6"/>
	<rect x="2774.3" y="-8770.1" class="st0" width="97.8" height="412.4"/>
	<path class="st0" d="M2603.2-8631.1c0,27.2-10.6,37.9-37.9,37.9h-35.7v-89h35.7c27.2,0,37.9,10.6,37.9,37.9V-8631.1z
		 M2568.2-8770.1h-136.3v412.4h97.8v-147.7h38.6c86.9,0,132.8-39,132.8-112.9v-38.9C2701-8731.1,2655.1-8770.1,2568.2-8770.1"/>
	<path class="st0" d="M2252.9-8475.8c0,20.7-10.1,30.7-30.7,30.7h-41.4v-80.5h41.4c20.7,0,30.7,10.1,30.7,30.7V-8475.8z
		 M2180.8-8683.7h38.5c20.7,0,30.8,10.1,30.8,30.7v11.7c0,20.7-10.1,30.7-30.8,30.7h-38.5V-8683.7z M2309.8-8569.5
		c27.6-15.4,38-49.3,38-78.1v-16.7c0-66.2-47.5-105.8-127.1-105.8H2083v411.5h136.3c81,0,131.4-40.5,131.4-105.8v-26.1
		C2350.7-8529.1,2336.4-8556.4,2309.8-8569.5"/>
	<path class="st0" d="M2605.8-9224.5c-36-21.9-71.1-43.7-105.5-66.4c-7.6-5-14.4-11.1-20.4-18l-0.1-0.1
		c-17.8-20.4-34.6-41-49.6-62.6c-15-21.6-28.2-44-39.2-68.1c-8.6-18.6-15.6-38.2-22-59.1c-1.6-5.2-9.1-4.8-10,0.6
		c-3.7,22.5-2.4,45.9,2.5,68.5c3.5,15.7,8.9,31,15.7,45.5c0.7,1.5-1.1,3-2.4,2c-19.6-15.6-38.8-31.5-57.6-48c0-0.1-0.1-0.1-0.2-0.2
		l-14.2-17.2c-10.3-17.6-19.7-35.2-27.9-53.2c-8.9-19.6-16.2-39.7-21.5-60.7c-4-15.4-6.6-31.2-8.6-47.9c-0.6-5.3-7.9-6-9.6-1
		c-5.6,16.6-7.8,34.6-7.2,52.4c0.6,16.7,3.7,33.3,8.9,49.2c0.4,1.2-1.1,2.2-2,1.3c-15.8-15.8-31.4-31.9-46.7-48.4
		c-36-38.9-70.6-79.3-104-122.2c-3.7-4.8-11.4-0.6-9.3,5.1c7.7,21.1,17.2,41.5,27.3,61.5c15,29,32.2,56.9,51.1,83.8
		c19,26.9,39.8,52.6,61.9,77.1c1.5,1.7,0,4.3-2.2,3.7c-18.3-5.2-37.4-8.1-56.5-7.9c-13.8,0.2-27.5,1.9-40.7,5.3
		c-7.9,2.1-7.1,13.6,1,14.4c12.8,1.4,25.2,3.1,37.5,5.6c21.9,4.3,43,10.5,63.7,18.2c20,7.4,39.6,16.2,59.3,26c6.1,4,12.2,8,18.3,12
		c36.7,31,113.6,79.2,130.2,89.4c0.8,0.5,0.4,1.7-0.5,1.7c-37.1-2.1-81.8,11.7-81.8,11.7c-13.5,4.8-26.5,10.9-38.5,18.6
		c-7.9,5.1-2.8,17.5,6.5,15.5c13-2.8,25.8-5.2,38.7-6.8c24.2-3.2,48.2-4.1,72.3-3.3c22.1,0.7,44.3,2.9,66.7,6
		c4.2,0.6,8.4,1.4,12.6,2.4l99.9,23.7C2607.7-9213.1,2611-9221.2,2605.8-9224.5"/>
</g>
<g id="jotw2B_1_">
	<g>
		<path class="st0" d="M5358.7,913.9c0,47.4,0,94.7,0,142.1c-301,0-602,0-903.1,0c0-301,0-602,0-903.1c301,0,602,0,903.1,0
			c0,49.7,0,99.5,0,149.2c-1-0.1-1.9-0.2-2.9-0.2c-10,0-19.9,0-29.9,0c-31.9,0-63.9,0-95.8,0c-1.6,0-2.8,0.1-3.5,2
			c-3.5,10.1-7.2,20.1-10.7,30.1c-5.9,16.4-11.7,32.8-17.6,49.5c-0.3-0.8-0.5-1.4-0.7-1.9c-2-5.6-3.9-11.1-5.9-16.7
			c-7.2-20.1-14.4-40.3-21.6-60.4c-0.7-1.9-1.5-2.6-3.5-2.6c-55.7,0.1-111.4,0-167.1,0.1c-0.8,0-1.7,0.1-2.7,0.1
			c0,36.1,0,71.9,0,108.3c-3.1-7-6-13.6-8.9-20.1c-3.8-8.5-7.6-17-11.3-25.5c-5-11.3-9.9-22.6-14.8-33.9
			c-3.8-8.7-7.8-17.4-11.5-26.2c-0.9-2.1-1.9-2.7-4-2.7c-28.2,0.1-56.3,0-84.5,0c-16.8,0-33.6,0-50.3,0c-1.5,0-2.3,0.4-3,1.9
			c-3.1,7.4-6.4,14.7-9.7,22.1c-3.8,8.5-7.6,17-11.3,25.5c-4.5,10.3-9,20.6-13.5,30.8c-3.8,8.7-7.7,17.3-11.5,26
			c-4.5,10.2-8.9,20.4-13.4,30.6c-3.9,8.7-7.8,17.5-11.6,26.2c-4.5,10.2-8.9,20.4-13.4,30.6c-3.9,8.7-7.8,17.4-11.6,26.2
			c-4.5,10.1-8.8,20.3-13.3,30.4c-4.5,10.3-9.2,20.5-13.7,30.8c-5.2,11.7-10.3,23.5-15.4,35.2c-1.1,2.6-2.2,5.2-3.5,8.3
			c1.7,0,2.7,0,3.7,0c36.3,0,72.6,0,108.8,0c3.5,0,3.5,0,3.5,3.5c0,93.3,0,186.6,0,279.8c0,1.2,0,2.3,0,3.6c1.1,0.1,1.8,0.1,2.5,0.1
			c40.1,0.2,80.2,0.4,120.3,0.5c51.7,0.1,103.4,0,155.1,0c25.7,0,51.5,0.3,77.2,0.5c1.7,0,2.9-0.4,4-1.6c2.9-3.3,5.9-6.5,8.8-9.8
			c3.2-3.6,6.5-7.1,9.6-10.6c6.6-7.4,13.2-14.7,19.8-22.1c3.5-3.9,6.9-7.9,10.4-11.8c1.8-2.1,3.7-4,5.8-6.3
			c3.7,4.1,7.1,7.9,10.6,11.8c4,4.4,8.1,8.7,12,13c7.6,8.3,15.1,16.7,22.6,25c2.1,2.4,4.2,4.8,6.3,7.2c2.7,3,5.2,5,10,5
			c32.7-0.3,65.3-0.2,98-0.2C5356.6,914.1,5357.7,914,5358.7,913.9z"/>
		<path class="st0" d="M5358.7,590.2c-1-0.1-1.9-0.2-2.9-0.2c-12.9,0-25.8-0.1-38.8,0c-7.4,0-14.7,0.2-22.1,0.5
			c-2.5,0.1-3.1-0.6-3.1-3.1c0.1-55.1,0.1-110.3,0.1-165.4c0-1,0-2.1,0-3.1c-0.2,0-0.4-0.1-0.6-0.1c-0.7,1.8-1.5,3.5-2.1,5.3
			c-4.5,12.4-9,24.8-13.6,37.2c-5.7,15.7-11.5,31.3-17.2,47c-4,11-7.9,22-11.9,33c-5.6,15.4-11.2,30.8-16.8,46.2
			c-0.7,1.9-1.6,2.6-3.8,2.6c-18.5-0.1-37.1-0.1-55.6,0c-1.8,0-2.8-0.4-3.5-2.2c-6.7-18.1-13.4-36.2-20.2-54.3
			c-6.1-16.3-12.1-32.6-18.2-49c-4.4-11.8-8.7-23.6-13.1-35.3c-3.6-9.8-7.2-19.5-10.8-29.3c-0.2-0.4-0.5-0.8-1.2-1.1
			c0,1-0.1,2.1-0.1,3.1c0,54.9,0,109.8,0,164.7c0,3.3,0,3.3-3.2,3.3c-46.5,0-93,0-139.4,0c-2.1,0-3.1-0.5-4-2.6
			c-6.3-15.5-12.9-30.8-19.3-46.2c-0.6-1.4-1.3-1.8-2.7-1.8c-36.8,0-73.7,0-110.5,0c-1.5,0-2.4,0.5-3,1.8
			c-5.9,14.2-11.8,28.3-17.7,42.5c-2.6,6.2-2.6,6.2-9.3,6.2c-22.3,0-44.6,0-66.9,0c-0.9,0-1.9,0-3.3,0c1.2-2.8,2.1-5.1,3.1-7.4
			c6.8-15.2,13.6-30.4,20.3-45.6c6.2-14,12.4-28.1,18.7-42.1c7.3-16.5,14.6-33,21.9-49.5c4.8-10.9,9.8-21.8,14.6-32.7
			c6.7-15.1,13.4-30.3,20.1-45.4c4.2-9.5,8.4-18.9,12.7-28.3c0.3-0.6,1.2-1,1.9-1.3c0.3-0.2,0.8,0,1.2,0c27.9,0,55.9,0,83.8-0.1
			c2,0,3,0.7,3.8,2.5c6.9,15.9,13.9,31.8,20.9,47.6c5.2,11.7,10.4,23.4,15.6,35.1c6.4,14.4,12.6,28.9,19,43.3
			c4.7,10.6,9.5,21.1,14.1,31.6c5.3,11.9,10.5,23.9,15.7,35.8c4.5,10.3,9.2,20.5,13.7,30.7c2.8,6.4,5.6,12.8,8.4,19.2
			c0.3,0.7,0.8,1.3,1.7,1.8c0-1.1,0-2.1,0-3.2c0-80.4,0-160.7,0-241.1c0-3.4,0-3.4,3.3-3.4c33.9,0,67.7,0,101.6,0
			c2.2,0,3.3,0.5,4.1,2.8c6.8,19.3,13.7,38.5,20.6,57.7c6.1,17,12.2,34,18.3,51c4.9,13.7,9.9,27.4,14.9,41c0.2,0.5,0.5,1,1,2
			c2.1-5.8,4.1-11.1,6-16.4c6.3-17.4,12.6-34.8,18.9-52.3c3.4-9.5,6.8-19,10.2-28.5c6.6-18.5,13.2-37,19.8-55.5
			c0.6-1.8,1.9-1.9,3.4-1.9c28,0,56,0,84,0c5.8,0,11.5-0.1,17.3-0.2C5358.7,421.7,5358.7,506,5358.7,590.2z M4879.6,403.4
			c-0.2-0.1-0.4-0.1-0.7-0.2c-11,26.3-22,52.6-33.1,79.2c22.4,0,44.4,0,66.8,0C4901.5,455.9,4890.5,429.6,4879.6,403.4z"/>
		<path class="st0" d="M5358.7,877.8c-1-0.1-2.1-0.2-3.1-0.2c-27.5,0-55.1-0.1-82.6,0.1c-2.6,0-4.2-1-5.7-2.8
			c-4.1-4.7-8.3-9.3-12.5-13.9c-7.5-8.2-15-16.3-22.5-24.5c-4.5-4.9-9-9.9-13.5-14.9c-7.3-8.1-14.7-16.2-22.3-24.5
			c-2.6,2.8-5.2,5.5-7.7,8.2c-2.1,2.3-4,4.7-6.1,7c-6.8,7.5-13.7,15-20.5,22.5c-5.8,6.4-11.5,12.8-17.3,19.2
			c-5.9,6.6-11.9,13.2-17.8,19.7c-0.4,0.4-0.6,0.9-1,1.4c-1.3,1.7-2.7,2.6-5,2.6c-98.9-0.1-197.8-0.1-296.7,0
			c-2.4,0-3.1-0.6-3.1-3.1c0.1-81.6,0.1-163.3,0.1-244.9c0-3.1,0-3.1,3.2-3.1c99.1,0,198.3,0,297.4-0.1c4.5,0,7.1,1.7,9.7,4.7
			c2.1,2.4,4.1,4.9,6.3,7.2c5.5,6,11,12,16.5,18c6.1,6.7,12.2,13.5,18.3,20.2c5.9,6.6,11.9,13.1,17.8,19.7c2.1,2.3,4.1,4.7,6.1,7
			c1,1.1,1.8,1.7,3.1,0.2c4.3-4.8,8.6-9.6,13-14.4c3.5-3.9,7.1-7.8,10.7-11.7c7.4-8.2,14.9-16.5,22.3-24.7
			c3.5-3.9,7.1-7.8,10.7-11.7c4.2-4.5,8.3-9.1,12.5-13.6c0.6-0.7,1.9-1,2.9-1c27.9-0.1,55.9,0,83.8,0c1,0,2.1-0.1,3.1-0.2
			c0,0.5,0,1,0,1.4c-5.2,5.5-10.5,11-15.7,16.6c-6.7,7.1-13.3,14.3-20,21.4c-7,7.5-14,14.9-21,22.4c-6.7,7.1-13.3,14.3-20,21.4
			c-7,7.5-14.1,15.1-21.1,22.6c-5.5,5.9-11.1,11.8-16.6,17.6c-1.2,1.2-1.1,2.1,0.1,3.2c2.6,2.7,5.2,5.5,7.7,8.2
			c5.4,5.8,10.9,11.5,16.3,17.3c5.5,5.8,11,11.6,16.5,17.4c5.4,5.8,10.9,11.5,16.3,17.3c5.4,5.8,10.9,11.5,16.3,17.3
			c5.3,5.6,10.6,11.3,16,16.9c7.5,7.8,14.9,15.6,22.4,23.4c0.9,0.9,1.9,1.8,2.8,2.7C5358.7,874.9,5358.7,876.4,5358.7,877.8z
			 M4890.9,722.9c1.2,0,2.3,0,3.4,0c44.9,0,89.7,0,134.6,0c2.3,0,3,0.6,3,2.9c-0.1,17-0.1,34-0.1,51.1c0,3.4,0,3.4-3.3,3.4
			c-44.8,0-89.6,0-134.4,0c-1.1,0-2.2,0-3.2,0c0,13.1,0,25.7,0,38.5c1.3,0,2.5,0,3.6,0c45.8,0,91.7,0,137.5,0c3.2,0,3.2,0,3.2,3.1
			c0,17.1,0,34.2,0,51.3c0,0.9,0.1,1.8,0.1,2.9c0.6-0.3,0.8-0.4,1-0.6c5.3-5.7,10.6-11.5,15.9-17.3c4.8-5.2,9.7-10.4,14.6-15.6
			c7.2-7.6,14.3-15.3,21.5-22.9c4.7-5,9.4-10,14.1-15.1c7.3-7.8,14.6-15.6,22-23.4c6.5-6.9,13-13.7,19.5-20.5
			c2.4-2.5,4.8-5.2,7.2-7.7c1.1-1.1,1.3-1.9,0.1-3.2c-7.3-7.7-14.6-15.5-21.8-23.3c-4.7-5-9.4-10-14.1-15.1
			c-7.7-8.2-15.3-16.3-23-24.5c-4.7-5-9.4-10.1-14.1-15.1c-8.6-9.1-17.3-18.2-25.9-27.4c-3.9-4.1-7.7-8.3-11.6-12.5
			c-1.6-1.7-3.3-3.3-5-5c-0.2,0.1-0.4,0.2-0.6,0.3c0,0.9,0,1.9,0,2.8c0,16.7,0,33.4,0,50.1c0,3.2,0,3.2-3.1,3.2c-46,0-92,0-138,0
			c-1.1,0-2.2,0-3.2,0C4890.9,696.8,4890.9,709.7,4890.9,722.9z"/>
		<path class="st0" d="M5358.7,821.5c-21.8-23.5-43.7-47.1-65.6-70.7c0.1-0.2,0.2-0.6,0.4-0.8c3.6-3.8,7.2-7.5,10.8-11.3
			c7.4-7.9,14.8-15.7,22.2-23.6c4.7-5,9.4-10,14.1-15.1c6.1-6.6,12.1-13.2,18.2-19.7C5358.7,727.4,5358.7,774.4,5358.7,821.5z"/>
	</g>
</g>
<g id="fo3P6T.tif">
	<g>
		<path class="st0" d="M6017.8,396.3c0.7-3.1,1.6-6.2,2.2-9.4c0.3-1.4,0.8-1.7,2.2-1.7c59.7,0,119.3,0.1,179,0
			c23.9,0,44.6,15.6,49.7,42c7.8,41,15.5,82.1,23.2,123.1c7,37.3,14.1,74.6,21.1,111.9c0.2,0.9,0.3,1.8,0.6,3.2c0.5-1,0.7-1.5,1-2.1
			c36.4-92,72.8-184,109.2-276.1c0.6-1.5,1.3-2.1,3-2.1c35.8,0.1,71.6,0,107.4,0c0.7,0,1.3,0,2.3,0c-0.4,1-0.6,1.7-0.9,2.4
			c-52.9,126.3-105.9,252.6-158.8,378.8c-4,9.6-8.1,19.2-12.1,28.8c-0.5,1.2-1.1,1.7-2.5,1.7c-36.3,0-72.7,0-109,0
			c-1.4,0-2-0.3-2.4-1.8c-15.8-61.3-31.7-122.6-47.5-183.9c-12.6-48.7-25.1-97.3-37.8-146c-1.3-4.8-3-9.6-4.9-14.1
			c-2.8-6.8-7.8-11.9-14-15.8c-9.3-5.9-19.4-10.3-29.6-14.3c-25.5-10-51.7-17.4-78.4-23.4c-1-0.2-1.9-0.5-2.8-0.7
			C6017.8,396.8,6017.8,396.5,6017.8,396.3z"/>
		<path class="st0" d="M6767.1,803.5c-3.9-0.3-7.9-0.5-11.8-0.8c-31.2-2.2-61.9-7-91.4-17.9c-2.2-0.8-4.3-1.8-6.4-2.6
			c-1-0.4-1.4-0.8-1.1-2c4.3-19.9,8.6-39.9,12.8-59.9c2-9.5,4.1-19.1,6.2-28.9c0.8,0.4,1.5,0.6,2.2,1c13.7,6.4,27.5,12.5,42.1,16.7
			c14.2,4.1,28.6,6.9,43.3,7.6c9.7,0.5,19.4,0.7,29.1,0.3c13.3-0.7,26.2-3.8,37.9-10.6c7.9-4.6,14.2-10.7,17.1-19.5
			c3.9-12.2,1-22.8-7.7-32c-6.8-7-14.8-12.4-23.2-17c-10.9-5.9-22-11.4-32.9-17.1c-16-8.4-31.3-17.8-45-29.7
			c-13.2-11.5-24.2-24.8-31.1-41.1c-6-14.2-7.8-29.1-6.6-44.4c1.3-17.6,6.1-34.1,14.7-49.5c10.4-18.6,24.9-33.3,42.5-45.2
			c20.7-13.9,43.6-22.5,67.8-27.7c20-4.2,40.3-5.9,60.8-5.4c31.8,0.7,62.6,6.9,92.4,17.8c0.3,0.1,0.6,0.2,1,0.4
			c-6.2,29-12.4,58-18.7,87.1c-3.7-1.5-7.2-3.1-10.8-4.5c-19.7-7.8-40.1-12.6-61.2-14.3c-13.9-1.1-27.7-1-41.4,1.9
			c-9.3,2-18,5.3-25.4,11.5c-7,5.8-11.5,12.9-11.6,22.3c0,6.1,2.5,11.4,6.3,16c5.5,6.8,12.5,11.8,20,16.1
			c13.2,7.5,26.5,14.5,39.8,21.7c14.9,8.1,29.4,16.6,42.6,27.4c13.5,11,24.8,23.9,32.1,39.9c6.5,14.2,8.9,29.2,8.5,44.7
			c-0.6,21.9-5.8,42.4-16.8,61.4c-11.6,19.9-27.8,35.2-47.5,47c-19.7,11.8-41,19.2-63.4,23.8c-15.1,3.1-30.4,4.8-45.8,5.2
			c-0.8,0-1.7,0.2-2.5,0.3C6778.4,803.5,6772.7,803.5,6767.1,803.5z"/>
		<path class="st0" d="M6954.7,797c1.8-4.3,3.5-8.4,5.2-12.5c51.5-123,103-245.9,154.6-368.9c7-16.6,19.6-26.6,37.3-29.7
			c3-0.5,6.2-0.6,9.3-0.6c29.1,0,58.3,0,87.4-0.1c1.7,0,2.4,0.4,2.7,2.2c7.1,34.4,14.3,68.7,21.5,103c6.7,31.8,13.3,63.7,20,95.5
			c6.3,30.1,12.6,60.1,18.8,90.2c6.6,31.4,13.1,62.7,19.7,94.1c1.8,8.8,3.7,17.6,5.6,26.8c-0.8,0-1.4,0-2.1,0c-31.4,0-62.8,0-94.2,0
			c-1.6,0-2.3-0.3-2.6-2.1c-3.9-19.3-8-38.5-12-57.8c-0.3-1.3-0.9-1.7-2.2-1.7c-44.4,0-88.8,0-133.2,0c-1.5,0-2.1,0.6-2.5,1.9
			c-6.9,19.3-13.9,38.5-20.8,57.8c-0.5,1.5-1.2,1.9-2.7,1.9c-35.8,0-71.7,0-107.5,0C6956.3,797,6955.6,797,6954.7,797z
			 M7207.9,651.1c-10.7-51.5-21.5-102.8-32.2-154.1c-0.1,0-0.3,0-0.4,0c-18.6,51.3-37.2,102.7-55.9,154.2
			C7149.1,651.1,7178.3,651.1,7207.9,651.1z"/>
		<path class="st0" d="M6670.9,385.2c-29.4,137.4-58.7,274.5-88.1,411.7c-35.5,0-70.9,0-106.5,0c1-4.8,2-9.4,3-14
			c8-37.5,16-75,24.1-112.4c7.9-36.8,15.8-73.6,23.7-110.5c7.5-35.1,15-70.2,22.5-105.3c4.8-22.5,9.6-44.9,14.4-67.4
			c0.4-1.8,1.1-2.1,2.8-2.1c27.3,0.1,54.6,0,81.9,0c6.6,0,13.2,0,19.8,0C6669.1,385.2,6669.8,385.2,6670.9,385.2z"/>
	</g>
</g>
<g id="Fa4ige.tif">
	<g>
		<path class="st0" d="M8545,302.5c-88,76.8-135.6,172.5-135.5,289.1c0.1,116.4,47.8,211.8,136.2,288.6
			c-42.3,29.2-88.8,47.1-138.8,54.2c-101.7,14.5-194-9.5-273.5-75c-160-131.7-166.5-363.7-34-504.8
			C8238.8,206.2,8441.3,226.1,8545,302.5z"/>
		<path class="st0" d="M8591.2,302.4c103.9-75.6,292.2-91.7,427.2,33.9c146.2,136,145.5,356.2,18.1,491.7
			c-136.3,144.8-335.8,130.9-445.6,51.8c87.7-76.1,135.7-171.6,135.8-288.3C8726.8,474.8,8679.2,379.2,8591.2,302.4z"/>
		<path class="st0" d="M8701.3,591c-0.6,34.7-5,68.8-15.3,101.9c-17.3,55.6-46.5,104-88.1,144.8c-7.7,7.6-16.1,14.4-23.9,21.9
			c-4.1,3.9-7.1,3.8-11.4,0.1c-35.1-29.2-63.8-63.7-85.7-103.8c-16.7-30.4-28-62.8-34.8-96.6c-3.1-15.3-3.9-31.1-5.6-46.6
			c-2.7-24.4-0.8-48.8,2.6-72.9c4.6-32,13.7-62.9,27.3-92.4c20-43.5,47.5-81.5,83.1-113.6c4.4-4,9.1-7.7,13.5-11.8
			c3.7-3.5,6.8-3.4,10.7-0.1c47.7,39.3,82.8,87.9,105,145.4c13.4,34.6,20.9,70.6,22,107.8c0.1,2.6,0.8,5.3,0.9,7.9
			C8701.4,585.7,8701.3,588.4,8701.3,591z"/>
		<path class="st0" d="M9090.4,792.1"/>
	</g>
</g>
<g id="YT1Wed.tif">
	<g>
		<path class="st0" d="M2507.2,626.5c-7.3,34.3-14.3,67.5-21.5,101.3c-29,0-57.8,0-88.1,0c3.8-17.9,7.5-35.4,11.4-53
			c17.9-82.4,35.9-164.7,53.5-247.2c1.3-6,3-8.1,9-8c49.7,0.2,99.4-1.2,149,0.6c46.3,1.7,77.9,37.3,77.1,79.9
			c-1.2,66.7-49.5,126-127.4,126.4C2549.4,626.6,2528.7,626.5,2507.2,626.5z M2520.1,566.6c17.8,0,34.7,2.5,50.6-0.6
			c23-4.5,36.9-20.7,42.1-44.1c4.1-18.2-6.2-35.5-24.4-38c-9.8-1.3-19.9-1.3-29.8-1.4c-19.1-0.2-19.4-0.1-23.8,18.2
			C2529.7,522.2,2525.1,543.9,2520.1,566.6z"/>
		<path class="st0" d="M3292.2,626.6c-7.1,32.3-13.7,63.4-20.9,94.5c-0.7,2.8-4.1,7.2-6.3,7.2c-26.8,0.5-53.7,0.3-82.1,0.3
			c3.5-16.4,6.6-31.7,9.9-47c16.3-75.7,32.5-151.4,48.8-227.2c2.1-9.7,3.9-19.4,6.6-28.9c0.7-2.3,4.3-5.4,6.6-5.4
			c50.7-0.3,101.6-3.2,152.1,0.5c55.2,4,86,47.2,72.4,106.3c-14.4,62.5-62.3,99.6-126.6,99.7
			C3332.6,626.6,3312.7,626.6,3292.2,626.6z M3322.9,482.7c-6,28.3-11.8,55.7-17.9,84.1c13.6,0,26-0.9,38.3,0.2
			c21.1,1.8,44.9-14.5,52.7-38.4c7.8-23.8-4.5-43.8-29-45.6C3352.8,481.8,3338.3,482.7,3322.9,482.7z"/>
		<path class="st0" d="M2929.3,831.2c15.4-26.4,29-52.7,45.5-77.1c11.6-17.2,12.6-33.7,9.4-53.2c-7-42.6-11.9-85.6-17.7-128.5
			c-3.3-24.8-6.8-49.5-10.2-74.3c-0.4-3.1-0.5-6.1-0.9-9.9c26.5,0,52.6,0,80.1,0c4.3,46.6,8.5,93.2,13.1,143
			c10.9-19.6,20.3-36.5,29.7-53.5c15.1-27.4,30.2-54.8,45-82.4c3-5.6,6.3-7.9,12.8-7.8c24.1,0.4,48.2,0.1,74.1,0.1
			c-1.8,3.8-3,6.8-4.5,9.5c-57.7,103.6-116.1,206.9-172.7,311.1c-10.2,18.7-20.9,26.3-41.9,24c-19.1-2.1-38.6-0.4-57.9-0.4
			C2932.5,831.8,2931.8,831.6,2929.3,831.2z"/>
		<path class="st0" d="M3592.6,728.6c1.4-7.4,2.5-13.8,3.3-18.2c-16.8,6.9-33.5,15.7-51.3,20.5c-19.8,5.3-40.1,4.1-58.8-6.7
			c-17.7-10.3-25.6-26.7-26.7-46.2c-3-55.7,28.3-85.2,78-96.5c24.3-5.5,49.8-5.8,74.7-9c5.1-0.7,13.1-2.5,14.3-5.7
			c2.7-7.7,0.1-16.7-7.9-20.3c-8.2-3.7-17.7-6.2-26.6-6.5c-29.5-0.9-57.9,6.2-87.4,16.2c0.8-6.4,1.6-11.9,2.3-17.4
			c1.5-11.6,2.5-23.2,4.6-34.6c0.6-3,4.1-6.9,7-7.7c36.4-10.1,73.4-15.7,111.2-12.5c22,1.9,43.6,6.2,61.2,21.2
			c17.5,14.9,22.5,34.5,18.2,55.9c-10.9,53.4-22.7,106.6-34.4,159.8c-0.7,2.9-4.7,7.3-7.2,7.3
			C3642.6,728.9,3618.2,728.6,3592.6,728.6z M3613.9,627.1c-12.6,0-23.1-1.5-33,0.4c-10.5,2-21,6.2-30.1,11.7
			c-7.7,4.6-12.4,13.5-10.3,23c2,9.4,9.2,14.9,18.4,17.4c17.4,4.7,40.5-6,47.2-22.8C3609.6,647.8,3611.1,637.9,3613.9,627.1z"/>
		<path class="st0" d="M2885,728.2c-27.1,0-53.3,0-80.2,0c1.4-7.2,2.7-13.8,3.5-18c-16.1,6.8-32.4,15.4-49.7,20.7
			c-15.8,4.8-32.5,3.9-48.5-1.9c-24-8.6-37.3-30.4-36.5-59.8c1.3-46.1,27.2-76.7,77.6-87.7c23.7-5.2,48.3-5.8,72.5-8.9
			c5.1-0.7,13.2-2.2,14.3-5.3c2.8-7.6,0.3-16.3-7.4-20.7c-5.5-3.2-12.1-5.2-18.4-5.8c-29.6-3.1-57.9,3.9-85.9,12.6
			c-2.3,0.7-4.5,1.5-7.8,2.6c1.9-17.4,3.4-34,6-50.5c0.5-3.4,4.6-7.8,8-8.8c36.2-11.5,73.4-15.2,111.1-12.5
			c18.9,1.3,37.1,6.5,53.4,16.9c20,12.8,28.8,36.2,23.1,63.8C2908.7,619,2896.8,673.2,2885,728.2z M2826.1,626.8
			c-10.8,0-20.8-1.6-29.9,0.4c-11.4,2.6-22.9,6.9-32.7,12.9c-7.6,4.7-11.1,13.8-8.9,23.7c2.1,9.2,8.9,13.7,17.2,16
			c19.3,5.3,44.4-9.3,49.5-28.7C2823.3,643.5,2824.4,635.6,2826.1,626.8z"/>
		<path class="st0" d="M3792.4,728.3c-27.5,0-53.7,0-81.9,0c22.2-102.9,44.2-205.1,66.4-308.1c27,0,54.1,0,82.7,0
			C3837.2,523,3814.9,625.3,3792.4,728.3z"/>
		<path class="st0" d="M3903.4,415.5c14.3,9,11.3,24.9,19,35.2c7.2-9.8,4.6-25.8,18.6-35.7c0,16.5,0,30,0,43.5
			c-0.9,0.1-1.8,0.2-2.7,0.3c0-10.2,0-20.4,0-30.6c-1-0.1-2.1-0.3-3.1-0.4c-3.7,10.4-7.5,20.8-11.2,31.2c-1,0.3-2.1,0.7-3.1,1
			c-4.3-11.1-8.5-22.2-12.8-33.3c-0.7,0.1-1.4,0.2-2.1,0.3c0,10.5,0,21.1,0,31.6c-0.9,0-1.7,0-2.6,0
			C3903.4,445.3,3903.4,432,3903.4,415.5z"/>
		<path class="st0" d="M3878.4,422.8c-6.2-0.7-9.8-1.1-13.3-1.4c0-0.8,0.1-1.7,0.1-2.5c10.3,0,20.5,0,30.8,0
			c0.2,0.6,0.4,1.3,0.5,1.9c-3.8,0.7-7.6,1.4-13.8,2.6c0,11.4,0,23.4,0,35.4c-1.4,0-2.9,0-4.3,0
			C3878.4,446.9,3878.4,435.1,3878.4,422.8z"/>
	</g>
</g>
<g id="to38Lv.tif_1_">
	<g>
		<path class="st0" d="M1242.4,876.4c0-1.7-0.1-3.4-0.1-5.1c0-140.6,0-281.2,0-421.8c0-1.7,0-3.3,0-5.2c29.6,0,58.7,0,88.4,0
			c1.7,10.2,3.5,20.4,5.2,30.6c0.3,0.3,0.6,0.6,1,0.9c2.1-2.4,4-5.1,6.3-7.3c16-15.1,34.2-26.2,56.3-29.1c30.2-4,57.9,1.6,80.6,23.5
			c13,12.5,21.3,27.9,27.1,44.7c8.2,23.8,11.1,48.4,11.8,73.4c0.7,26.3-0.6,52.5-6.7,78.2c-5.8,24.7-15.2,47.6-32.1,66.9
			c-18.8,21.5-42.7,33.6-70.7,37.9c-21.2,3.3-42.1,1.4-62.8-4.5c-1.1-0.3-2.3-0.6-3.7-1c0,33.8,0,67.2,0,100.9
			c-7.5,1.2-14.7,2.5-22,3.7c-25.3,4.2-50.6,8.3-75.8,12.5c-0.4,0.1-0.8,0.4-1.3,0.6C1243.4,876.4,1242.9,876.4,1242.4,876.4z
			 M1343,609.1c0,22.3,0,44.7,0,67c0,9.3,0,9.3,9,11.9c22.3,6.6,40.2,0.4,51.3-17.8c5.4-8.9,9.1-18.5,11.2-28.6
			c5.6-26.9,5.7-54,1.9-81.1c-1.6-11.5-4.4-22.6-11.2-32.4c-7.1-10.2-16.8-14.7-29.2-12.8c-12,1.9-21.6,8.4-30.3,16.4
			c-2,1.9-2.9,3.8-2.9,6.6C1343.1,562,1343,585.6,1343,609.1z"/>
		<path class="st0" d="M1806.1,634c-55.4,0-110.7,0-165.9,0c-1.5,29.3,18.8,53.2,47.3,55.7c33.3,2.9,65.1-2.9,95.1-17.7
			c1.3-0.6,2.6-1.3,4.2-2c1.5,9,2.9,17.8,4.3,26.5c2.1,13.1,4,26.2,6.2,39.2c0.5,2.7-0.2,3.9-2.4,5.2c-17,10.2-35.5,16.3-54.8,20
			c-32.2,6.2-64.5,7.2-96.6,0.1c-49.8-11-81.3-41.8-95.2-90.6c-8.4-29.3-9.8-59.3-7.6-89.5c1.8-23.5,6.7-46.4,17-67.8
			c20.2-42.3,53.4-67.3,100.2-73.4c26.9-3.5,53.1-1.2,78.1,10.3c26.3,12.1,43.6,32.6,55.2,58.6c9.1,20.5,14.1,42.2,15.2,64.5
			c1,19.6,0.2,39.3,0.2,59C1806.4,632.4,1806.2,632.9,1806.1,634z M1638.8,572.2c24.8,0,49.3,0,74.3,0c-0.8-7.7-1.3-15.2-2.3-22.6
			c-1.5-10.6-4-21-10.1-30.1c-8.2-12.3-23.2-16.6-36.6-10.3c-8.4,3.9-13.3,11.1-16.7,19.4C1641.6,542.3,1640,557,1638.8,572.2z"/>
		<path class="st0" d="M641,534.1c-11.6-4.5-22.8-9.1-34.3-13c-16.5-5.6-33.6-9-51.1-8.4c-4.5,0.2-9.2,1.1-13.4,2.7
			c-10.7,4.3-13.6,16.2-6.3,25.2c5,6.1,11.7,9.8,18.8,12.8c12.6,5.3,25.5,10.2,38.2,15.3c14.9,6,29.3,13,42.1,22.9
			c20.9,16.1,31.3,37.5,32.5,63.6c0.9,18.8-1.1,37.1-9.2,54.4c-11.5,24.4-31.2,39.5-56.3,48c-21.7,7.4-44.2,9.1-66.9,7.8
			c-31.4-1.7-61.7-8.5-90.5-21.5c-10.8-4.9-10.7-4.8-8.8-16.2c3.4-20.5,6.6-41,9.9-61.4c0.2-1.1,0.4-2.1,0.6-3.1
			c8.3,3.9,16.3,7.9,24.5,11.3c19.7,8.2,40,14.1,61.3,16.4c9,0.9,18,1,26.7-2c7.2-2.4,12.8-6.7,14.3-14.6c1.5-8.1-1.4-14.8-7.7-20
			c-9.3-7.8-20.4-12.1-31.6-16.2c-17.5-6.5-35.1-12.9-51.2-22.7c-16.7-10.1-31.3-22.6-37.8-41.5c-12.5-36.2-9.6-70.7,15.9-101
			c14.6-17.3,34.4-26.1,56.1-30.9c25.5-5.7,51.2-4.5,76.8-0.4c19.3,3,37.8,8.6,55.7,16.4c3.1,1.3,3.6,2.8,3.1,6
			c-3.9,23-7.6,46-11.3,69C641.2,533.3,641.1,533.8,641,534.1z"/>
		<path class="st0" d="M714.6,519c-14,0-27.5,0-41.6,0c3.8-23.6,7.6-46.6,11.4-69.8c9.1-1.5,17.9-3.2,26.8-4.3
			c3.2-0.4,3.8-2,4.3-4.6c3.6-22.6,7.5-45.3,10.9-67.9c0.6-4,2.3-4.7,5.7-5.3c27-4.3,53.9-8.8,81.4-13.3c0,30.1,0,60,0,90.3
			c21.6,0,42.7,0,64.4,0c-4.1,25.2-8.1,49.9-12.2,74.8c-17.4,0-34.5,0-52.2,0c0,1.6,0,2.8,0,4.1c0,42-0.1,84.1,0.1,126.1
			c0,5.8,0.7,11.7,2.1,17.3c2.5,10.1,9.5,15.4,19.7,16.7c11.2,1.4,22-1.1,32.8-3.3c0.8-0.2,1.6-0.3,2.9-0.5c0,1.4,0,2.6,0,3.8
			c0,23.8,0,47.6,0.1,71.4c0,2.8-0.7,4-3.5,4.7c-30.1,7.7-60.3,8.8-90.6,1.9c-33.1-7.6-52.6-28.8-59.1-61.7
			c-2.2-10.9-3.2-22.1-3.3-33.3c-0.4-47.4-0.2-94.8-0.2-142.2C714.6,522.5,714.6,521,714.6,519z"/>
		<path class="st0" d="M904.5,444.2c1.4,0,2.6,0,3.8,0c26.7,0,53.5,0,80.2-0.1c3,0,4.1,0.7,4.6,3.9c1.5,10.6,3.4,21.1,5.2,32.1
			c0.6-0.8,1-1.2,1.2-1.7c10.1-24.5,28.9-36.7,54.9-38.2c6.8-0.4,13.7,1.1,20.6,1.6c2,0.2,2.6,1,2.6,3c-0.1,29.8-0.1,59.5-0.1,89.3
			c0,0.2-0.1,0.5-0.3,0.9c-3.5-0.3-7.1-0.7-10.7-0.8c-14.3-0.5-28.4,0.1-41.9,5.9c-7.1,3-13.1,7.4-18.1,13.2
			c-1.1,1.3-1.6,3.5-1.6,5.3c-0.1,33.7-0.1,67.3-0.1,101c0,31.7,0,63.4,0,95.1c0,1.5,0,3.1,0,4.8c-33.7,0-67,0-100.5,0
			C904.5,654.3,904.5,549.4,904.5,444.2z"/>
		<path class="st0" d="M1202.7,444.4c0,105,0,209.8,0,314.9c-33.5,0-67,0-100.8,0c0-104.8,0-209.7,0-314.9
			C1135.3,444.4,1168.8,444.4,1202.7,444.4z"/>
		<path class="st0" d="M1099.3,360.1c0-29.8,23.4-53.2,53.2-53.2c29.4,0,52.8,23.5,52.8,53.2c0,29.4-23.7,53.1-53,53.1
			C1122.9,413.3,1099.3,389.6,1099.3,360.1z"/>
	</g>
</g>
</svg>
