<svg xmlns="http://www.w3.org/2000/svg" fill="none" width="14" height="14"><path d="M14 0H0v14h14V0ZM9.473 4.229q-.096-.014-.186-.05-.09-.037-.169-.095-.078-.057-.141-.131-.063-.074-.106-.162L7.717 1.454q-.05-.1-.124-.184-.076-.083-.17-.142-.096-.059-.203-.09-.108-.03-.22-.03t-.22.03q-.107.031-.202.09-.095.06-.17.142-.076.083-.125.184L5.129 3.79q-.043.088-.106.162-.063.074-.141.131-.079.058-.17.094-.09.037-.185.05l-2.58.376q-.111.016-.213.062t-.188.118q-.085.072-.148.165-.062.093-.097.2-.035.106-.039.218-.004.112.023.22.027.109.083.206.055.097.135.175l1.867 1.82q.07.068.121.15.051.083.082.176.03.092.037.19.007.096-.01.192l-.44 2.57q-.02.11-.007.221.012.111.054.215.042.104.111.192.07.088.16.154t.196.104q.105.039.216.047.112.008.222-.015t.208-.075l2.308-1.213q.086-.046.18-.069.095-.023.192-.023t.192.023q.094.023.18.069l2.308 1.213q.099.052.208.075.11.023.222.015.111-.008.216-.047.106-.038.196-.104.09-.066.16-.154.069-.088.111-.192.042-.104.054-.215.012-.111-.006-.222L10.4 8.497q-.017-.096-.01-.193.007-.097.037-.19.03-.092.082-.174.051-.083.12-.151l1.868-1.82q.08-.078.135-.175.056-.097.083-.206.027-.108.023-.22t-.039-.219q-.034-.106-.097-.2-.063-.092-.148-.164-.086-.072-.188-.118-.102-.046-.213-.062l-2.58-.375Z" fill-rule="evenodd" fill="#FFF"/></svg>