<svg class="imt-fb-icon" xmlns="http://www.w3.org/2000/svg" width="20" height="20" viewBox="0 0 20 20" fill="none"><mask id="mask0_43829_2633" maskUnits="userSpaceOnUse" x="0" y="0" width="20" height="20" style="mask-type: alpha;"><rect width="20" height="20" fill="#D9D9D9"></rect></mask><g mask="url(#mask0_43829_2633)"><path d="M9.99546 12.2609C10.1639 12.2609 10.305 12.2055 10.4188 12.0946C10.5327 11.9838 10.5896 11.8441 10.5896 11.6755C10.5896 11.507 10.5342 11.3659 10.4234 11.2521C10.3124 11.1384 10.1727 11.0815 10.0042 11.0815C9.83574 11.0815 9.69463 11.1369 9.58088 11.2478C9.46699 11.3586 9.41005 11.4982 9.41005 11.6667C9.41005 11.8353 9.46546 11.9765 9.5763 12.0903C9.68727 12.204 9.82699 12.2609 9.99546 12.2609ZM9.99546 10.1936C10.148 10.1936 10.2771 10.1418 10.3828 10.0382C10.4886 9.93443 10.5415 9.80568 10.5415 9.65193V5.20318C10.5415 5.04943 10.49 4.92075 10.3871 4.81713C10.2844 4.71338 10.1567 4.66151 10.0042 4.66151C9.85171 4.66151 9.72261 4.71338 9.61692 4.81713C9.51109 4.92075 9.45817 5.04943 9.45817 5.20318V9.65193C9.45817 9.80568 9.50963 9.93443 9.61255 10.0382C9.71532 10.1418 9.84296 10.1936 9.99546 10.1936ZM5.03192 14.5846L3.55359 16.063C3.34262 16.2739 3.10032 16.3221 2.82671 16.2076C2.55324 16.093 2.4165 15.8864 2.4165 15.5878V3.75776C2.4165 3.38262 2.54602 3.06554 2.80505 2.80651C3.06407 2.54748 3.38116 2.41797 3.7563 2.41797H16.2434C16.6185 2.41797 16.9356 2.54748 17.1946 2.80651C17.4537 3.06554 17.5832 3.38262 17.5832 3.75776V13.2448C17.5832 13.62 17.4537 13.9371 17.1946 14.1961C16.9356 14.4551 16.6185 14.5846 16.2434 14.5846H5.03192ZM4.58317 13.5013H16.2434C16.3075 13.5013 16.3663 13.4746 16.4196 13.4211C16.4731 13.3678 16.4998 13.309 16.4998 13.2448V3.75776C16.4998 3.69359 16.4731 3.63484 16.4196 3.58151C16.3663 3.52804 16.3075 3.5013 16.2434 3.5013H3.7563C3.69213 3.5013 3.63338 3.52804 3.58005 3.58151C3.52657 3.63484 3.49984 3.69359 3.49984 3.75776V14.5928L4.58317 13.5013Z" fill="#ED6D8F"></path></g></svg>