<?xml version="1.0" encoding="utf-8"?>
<!-- Generator: Adobe Illustrator 25.3.1, SVG Export Plug-In . SVG Version: 6.00 Build 0)  -->
<svg version="1.1" id="图层_1" xmlns="http://www.w3.org/2000/svg" xmlns:xlink="http://www.w3.org/1999/xlink" x="0px" y="0px"
	 viewBox="0 0 5660.5 2917.6" style="enable-background:new 0 0 5660.5 2917.6;" xml:space="preserve">
<style type="text/css">
	.st0{fill:#FFFFFF;}
</style>
<g>
	<g>
		<g>
			<g>
				<g>
					<path class="st0" d="M2686.9,697.6c-3.4-6.6-9.7-9.9-18.7-9.9c-5,0-9.1,1.4-12.4,4c-3.2,2.7-5.8,7-7.6,13
						c-1.9,6-3.2,13.9-3.9,23.6c-0.7,9.7-1.1,21.6-1.1,35.7c0,15,0.5,27.1,1.5,36.4c1,9.3,2.6,16.4,4.7,21.5c2.1,5.1,4.8,8.5,8,10.3
						c3.2,1.8,7,2.6,11.2,2.6c3.5,0,6.8-0.6,9.9-1.8c3.1-1.2,5.7-3.6,7.9-7.2c2.2-3.6,4-8.7,5.3-15.3c1.3-6.6,1.9-15.2,1.9-26h40
						c0,10.7-0.8,20.9-2.5,30.6c-1.7,9.6-4.8,18-9.3,25.3c-4.5,7.2-10.9,12.9-19.2,16.9c-8.2,4.1-18.9,6.1-32.1,6.1
						c-15,0-26.9-2.4-35.8-7.2s-15.7-11.8-20.4-20.8c-4.7-9.1-7.8-19.9-9.2-32.5s-2.1-26.5-2.1-41.7c0-15,0.7-28.8,2.1-41.5
						c1.4-12.7,4.4-23.6,9.2-32.6c4.7-9.1,11.5-16.2,20.4-21.2s20.8-7.6,35.8-7.6c14.3,0,25.5,2.3,33.7,7
						c8.2,4.6,14.4,10.5,18.5,17.6c4.1,7.1,6.6,14.8,7.6,23c1,8.2,1.5,16,1.5,23.2h-40C2692.1,714.7,2690.4,704.2,2686.9,697.6z"/>
					<path class="st0" d="M2765.5,719.9c1.4-12.7,4.4-23.6,9.2-32.6c4.7-9.1,11.5-16.2,20.4-21.2s20.8-7.6,35.8-7.6
						c15,0,26.9,2.6,35.8,7.6c8.9,5.1,15.7,12.2,20.4,21.2c4.7,9.1,7.8,19.9,9.2,32.6c1.4,12.7,2.1,26.5,2.1,41.5
						c0,15.2-0.7,29.1-2.1,41.7c-1.4,12.6-4.4,23.4-9.2,32.5c-4.7,9.1-11.5,16-20.4,20.8c-8.9,4.8-20.8,7.2-35.8,7.2
						c-15,0-26.9-2.4-35.8-7.2s-15.7-11.8-20.4-20.8c-4.7-9.1-7.8-19.9-9.2-32.5c-1.4-12.6-2.1-26.5-2.1-41.7
						C2763.4,746.4,2764.1,732.5,2765.5,719.9z M2804.4,795.4c0.6,9.4,1.9,16.9,3.9,22.8c1.9,5.8,4.7,10.1,8.3,12.8
						c3.6,2.7,8.4,4,14.3,4s10.7-1.3,14.3-4c3.6-2.7,6.4-6.9,8.3-12.8c1.9-5.8,3.2-13.4,3.9-22.8c0.6-9.3,1-20.7,1-34
						s-0.3-24.6-1-33.9c-0.6-9.3-1.9-16.8-3.9-22.8c-1.9-5.9-4.7-10.2-8.3-12.9c-3.6-2.7-8.4-4-14.3-4s-10.7,1.4-14.3,4
						c-3.6,2.7-6.4,7-8.3,12.9c-1.9,5.9-3.2,13.5-3.9,22.8c-0.6,9.3-1,20.6-1,33.9S2803.7,786,2804.4,795.4z"/>
					<path class="st0" d="M2993.4,662.2l28.3,140h0.6l28.6-140h59.1v198.3h-36.7V702.2h-0.6l-35.3,158.3h-31.1l-35.3-158.3h-0.6
						v158.3h-36.7V662.2H2993.4z"/>
					<path class="st0" d="M3209.9,662.2l28.3,140h0.6l28.6-140h59.1v198.3h-36.7V702.2h-0.6l-35.3,158.3H3223l-35.3-158.3h-0.6
						v158.3h-36.7V662.2H3209.9z"/>
					<path class="st0" d="M3477.1,695h-70.8v46.7h66.6v32.8h-66.6v53.3h73.6v32.8h-113.6V662.2h110.8V695z"/>
					<path class="st0" d="M3584.8,662.2c16.7,0,29.6,4.2,38.9,12.6c9.3,8.4,13.9,21.2,13.9,38.5c0,13.3-2.7,24.2-8.1,32.6
						c-5.4,8.4-13.7,13.8-25,16.2v0.6c10,1.5,17.3,4.7,21.9,9.7c4.6,5,7.5,13.1,8.6,24.2c0.4,3.7,0.6,7.7,0.8,12.1
						c0.2,4.3,0.4,9.2,0.6,14.6c0.4,10.6,0.9,18.6,1.7,24.2c1.1,5.5,3.5,9.4,7.2,11.4v1.7H3602c-2-2.8-3.3-6-3.9-9.6
						c-0.6-3.6-0.9-7.4-1.1-11.2l-1.1-38c-0.4-7.8-2.3-13.9-5.8-18.3c-3.5-4.5-9.4-6.7-17.8-6.7h-21.4v83.9h-40V662.2H3584.8z
						 M3567.6,748.9c9.6,0,17-2.3,22.2-6.8c5.2-4.5,7.8-12.2,7.8-22.9c0-18.3-9.3-27.5-27.8-27.5h-18.9v57.2H3567.6z"/>
					<path class="st0" d="M3756,697.6c-3.4-6.6-9.7-9.9-18.7-9.9c-5,0-9.1,1.4-12.4,4c-3.2,2.7-5.8,7-7.6,13
						c-1.9,6-3.2,13.9-3.9,23.6c-0.7,9.7-1.1,21.6-1.1,35.7c0,15,0.5,27.1,1.5,36.4c1,9.3,2.6,16.4,4.7,21.5c2.1,5.1,4.8,8.5,8,10.3
						c3.2,1.8,7,2.6,11.2,2.6c3.5,0,6.8-0.6,9.9-1.8c3.1-1.2,5.7-3.6,7.9-7.2c2.2-3.6,4-8.7,5.3-15.3c1.3-6.6,1.9-15.2,1.9-26h40
						c0,10.7-0.8,20.9-2.5,30.6c-1.7,9.6-4.8,18-9.3,25.3c-4.5,7.2-10.9,12.9-19.2,16.9c-8.2,4.1-18.9,6.1-32.1,6.1
						c-15,0-26.9-2.4-35.8-7.2s-15.7-11.8-20.4-20.8c-4.7-9.1-7.8-19.9-9.2-32.5s-2.1-26.5-2.1-41.7c0-15,0.7-28.8,2.1-41.5
						c1.4-12.7,4.4-23.6,9.2-32.6c4.7-9.1,11.5-16.2,20.4-21.2s20.8-7.6,35.8-7.6c14.3,0,25.5,2.3,33.7,7
						c8.2,4.6,14.4,10.5,18.5,17.6c4.1,7.1,6.6,14.8,7.6,23c1,8.2,1.5,16,1.5,23.2h-40C3761.2,714.7,3759.4,704.2,3756,697.6z"/>
					<path class="st0" d="M3838.6,662.2h40v198.3h-40V662.2z"/>
					<path class="st0" d="M4007.5,662.2l52.5,198.3h-41.7l-9.2-41.9h-52.8l-9.2,41.9h-41.7l52.5-198.3H4007.5z M4002.2,785.8
						l-19.2-89.1h-0.6l-19.2,89.1H4002.2z"/>
					<path class="st0" d="M4084.9,662.2h40v165.5h70.8v32.8h-110.8V662.2z"/>
					<path class="st0" d="M4224.6,662.2h40v165.5h70.8v32.8h-110.8V662.2z"/>
					<path class="st0" d="M4422.3,738.9h0.6l27.8-76.7h43.3l-51.4,120.2v78h-40v-78l-51.4-120.2h45L4422.3,738.9z"/>
					<path class="st0" d="M2686.9,1062.2c-3.4-6.6-9.7-9.9-18.7-9.9c-5,0-9.1,1.4-12.4,4c-3.2,2.7-5.8,7-7.6,13
						c-1.9,6-3.2,13.9-3.9,23.6c-0.7,9.7-1.1,21.6-1.1,35.7c0,15,0.5,27.1,1.5,36.4c1,9.3,2.6,16.4,4.7,21.5c2.1,5.1,4.8,8.5,8,10.3
						c3.2,1.8,7,2.6,11.2,2.6c3.5,0,6.8-0.6,9.9-1.8c3.1-1.2,5.7-3.6,7.9-7.2c2.2-3.6,4-8.7,5.3-15.3c1.3-6.6,1.9-15.2,1.9-26h40
						c0,10.7-0.8,20.9-2.5,30.6c-1.7,9.6-4.8,18-9.3,25.3c-4.5,7.2-10.9,12.9-19.2,16.9c-8.2,4.1-18.9,6.1-32.1,6.1
						c-15,0-26.9-2.4-35.8-7.2s-15.7-11.8-20.4-20.8c-4.7-9.1-7.8-19.9-9.2-32.5s-2.1-26.5-2.1-41.7c0-15,0.7-28.8,2.1-41.5
						c1.4-12.7,4.4-23.6,9.2-32.6c4.7-9.1,11.5-16.2,20.4-21.2s20.8-7.6,35.8-7.6c14.3,0,25.5,2.3,33.7,7
						c8.2,4.6,14.4,10.5,18.5,17.6c4.1,7.1,6.6,14.8,7.6,23c1,8.2,1.5,16,1.5,23.2h-40C2692.1,1079.3,2690.4,1068.8,2686.9,1062.2z"
						/>
					<path class="st0" d="M2765.5,1084.4c1.4-12.7,4.4-23.6,9.2-32.6c4.7-9.1,11.5-16.2,20.4-21.2s20.8-7.6,35.8-7.6
						c15,0,26.9,2.6,35.8,7.6c8.9,5.1,15.7,12.2,20.4,21.2c4.7,9.1,7.8,19.9,9.2,32.6c1.4,12.7,2.1,26.5,2.1,41.5
						c0,15.2-0.7,29.1-2.1,41.7c-1.4,12.6-4.4,23.4-9.2,32.5c-4.7,9.1-11.5,16-20.4,20.8c-8.9,4.8-20.8,7.2-35.8,7.2
						c-15,0-26.9-2.4-35.8-7.2s-15.7-11.8-20.4-20.8c-4.7-9.1-7.8-19.9-9.2-32.5c-1.4-12.6-2.1-26.5-2.1-41.7
						C2763.4,1110.9,2764.1,1097.1,2765.5,1084.4z M2804.4,1159.9c0.6,9.4,1.9,16.9,3.9,22.8c1.9,5.8,4.7,10.1,8.3,12.8
						c3.6,2.7,8.4,4,14.3,4s10.7-1.3,14.3-4c3.6-2.7,6.4-6.9,8.3-12.8c1.9-5.8,3.2-13.4,3.9-22.8c0.6-9.3,1-20.7,1-34
						s-0.3-24.6-1-33.9c-0.6-9.3-1.9-16.8-3.9-22.8c-1.9-5.9-4.7-10.2-8.3-12.9c-3.6-2.7-8.4-4-14.3-4s-10.7,1.4-14.3,4
						c-3.6,2.7-6.4,7-8.3,12.9c-1.9,5.9-3.2,13.5-3.9,22.8c-0.6,9.3-1,20.6-1,33.9S2803.7,1150.6,2804.4,1159.9z"/>
					<path class="st0" d="M2993.4,1026.8l28.3,140h0.6l28.6-140h59.1v198.3h-36.7v-158.3h-0.6l-35.3,158.3h-31.1l-35.3-158.3h-0.6
						v158.3h-36.7v-198.3H2993.4z"/>
					<path class="st0" d="M3219.7,1026.8c10.2,0,18.7,1.7,25.7,5.1c6.9,3.4,12.5,7.9,16.8,13.5c4.3,5.6,7.3,11.9,9.2,19
						c1.8,7.1,2.8,14.4,2.8,21.8c0,10.2-1.5,19.1-4.6,26.7c-3.1,7.6-7.3,13.8-12.8,18.6s-12.1,8.4-19.8,10.8
						c-7.8,2.4-16.4,3.6-25.8,3.6h-21.4v79.1h-40v-198.3H3219.7z M3207.4,1116.5c8,0,14.4-2.4,19.3-7.2c4.9-4.8,7.4-12.3,7.4-22.5
						c0-10-2.1-17.6-6.4-22.8c-4.3-5.2-11.4-7.8-21.4-7.8h-16.7v60.3H3207.4z"/>
					<path class="st0" d="M3302.8,1084.4c1.4-12.7,4.4-23.6,9.2-32.6c4.7-9.1,11.5-16.2,20.4-21.2s20.8-7.6,35.8-7.6
						c15,0,26.9,2.6,35.8,7.6c8.9,5.1,15.7,12.2,20.4,21.2c4.7,9.1,7.8,19.9,9.2,32.6c1.4,12.7,2.1,26.5,2.1,41.5
						c0,15.2-0.7,29.1-2.1,41.7c-1.4,12.6-4.4,23.4-9.2,32.5c-4.7,9.1-11.5,16-20.4,20.8c-8.9,4.8-20.8,7.2-35.8,7.2
						c-15,0-26.9-2.4-35.8-7.2s-15.7-11.8-20.4-20.8c-4.7-9.1-7.8-19.9-9.2-32.5c-1.4-12.6-2.1-26.5-2.1-41.7
						C3300.8,1110.9,3301.4,1097.1,3302.8,1084.4z M3341.7,1159.9c0.6,9.4,1.9,16.9,3.9,22.8c1.9,5.8,4.7,10.1,8.3,12.8
						c3.6,2.7,8.4,4,14.3,4s10.7-1.3,14.3-4c3.6-2.7,6.4-6.9,8.3-12.8c1.9-5.8,3.2-13.4,3.9-22.8c0.6-9.3,1-20.7,1-34
						s-0.3-24.6-1-33.9c-0.6-9.3-1.9-16.8-3.9-22.8c-1.9-5.9-4.7-10.2-8.3-12.9c-3.6-2.7-8.4-4-14.3-4s-10.7,1.4-14.3,4
						c-3.6,2.7-6.4,7-8.3,12.9c-1.9,5.9-3.2,13.5-3.9,22.8c-0.6,9.3-1,20.6-1,33.9S3341.1,1150.6,3341.7,1159.9z"/>
					<path class="st0" d="M3502.6,1169c0,4.6,0.4,8.9,1.1,12.6c0.7,3.8,2.1,7,4.2,9.6c2,2.6,4.8,4.6,8.2,6.1
						c3.4,1.5,7.7,2.2,12.9,2.2c6.1,0,11.6-2,16.5-6c4.9-4,7.4-10.1,7.4-18.5c0-4.4-0.6-8.3-1.8-11.5s-3.2-6.2-6-8.7
						c-2.8-2.6-6.4-5-11-7.1c-4.5-2.1-10.1-4.3-16.8-6.5c-8.9-3-16.6-6.2-23-9.7c-6.5-3.5-11.9-7.6-16.2-12.4
						c-4.4-4.7-7.5-10.2-9.6-16.4c-2-6.2-3.1-13.4-3.1-21.5c0-19.6,5.5-34.3,16.4-43.9c10.9-9.6,25.9-14.4,45-14.4
						c8.9,0,17.1,1,24.6,2.9c7.5,1.9,14,5.1,19.4,9.4c5.5,4.4,9.7,9.9,12.8,16.7c3.1,6.8,4.6,14.9,4.6,24.3v5.5h-38.3
						c0-9.4-1.7-16.7-5-21.8c-3.3-5.1-8.9-7.6-16.7-7.6c-4.4,0-8.2,0.7-11.1,1.9c-3,1.3-5.3,3-7.1,5.1c-1.8,2.1-3,4.6-3.6,7.4
						c-0.6,2.8-1,5.7-1,8.6c0,6.1,1.3,11.3,3.9,15.4c2.6,4.2,8.1,8,16.7,11.5l30.8,13.3c7.6,3.3,13.8,6.8,18.6,10.4
						c4.8,3.6,8.7,7.5,11.5,11.7s4.9,8.7,6,13.7c1.1,5,1.7,10.6,1.7,16.7c0,20.9-6.1,36.2-18.2,45.7c-12.1,9.5-29,14.3-50.7,14.3
						c-22.6,0-38.7-4.9-48.5-14.7c-9.7-9.8-14.6-23.9-14.6-42.2v-8.1h40V1169z"/>
					<path class="st0" d="M3741.7,1059.6h-43.3v165.5h-40v-165.5h-43.3v-32.8h126.6V1059.6z"/>
					<path class="st0" d="M3858.1,1026.8l52.5,198.3h-41.7l-9.2-41.9H3807l-9.2,41.9h-41.7l52.5-198.3H3858.1z M3852.8,1150.4
						l-19.2-89.1h-0.6l-19.2,89.1H3852.8z"/>
					<path class="st0" d="M4002.5,1026.8c8.1,0,15.7,0.8,22.6,2.5c6.9,1.7,12.9,4.4,17.9,8.3c5,3.9,8.9,9.1,11.7,15.6
						c2.8,6.5,4.2,14.4,4.2,23.9c0,10.7-2.5,19.9-7.5,27.6c-5,7.7-12.5,12.9-22.5,15.7v0.6c11.1,1.5,19.9,6.2,26.4,14.2
						c6.5,8,9.7,18.6,9.7,31.9c0,7.8-1,15.2-3,22.2c-2,7-5.5,13.2-10.4,18.5c-4.9,5.3-11.3,9.5-19.2,12.6
						c-7.9,3.1-17.6,4.7-29.3,4.7h-67.5v-198.3H4002.5z M3986.9,1108.2c11.1,0,19.2-2,24.3-6c5.1-4,7.6-10.7,7.6-20.1
						c0-9.4-2.3-16.1-6.9-20s-11.9-5.8-21.9-5.8h-14.4v51.9H3986.9z M3991.1,1195.6c9.6,0,17.4-2.1,23.3-6.4
						c5.9-4.2,8.9-12.1,8.9-23.6c0-5.7-0.8-10.5-2.4-14.3c-1.6-3.8-3.7-6.8-6.4-9.2c-2.7-2.3-5.9-3.9-9.6-4.9
						c-3.7-0.9-7.8-1.4-12.2-1.4h-17.2v59.7H3991.1z"/>
					<path class="st0" d="M4101,1026.8h40v165.5h70.8v32.8H4101V1026.8z"/>
					<path class="st0" d="M4351.5,1059.6h-70.8v46.7h66.6v32.8h-66.6v53.3h73.6v32.8h-113.6v-198.3h110.8V1059.6z"/>
					<path class="st0" d="M4461.1,1084.4c1.4-12.7,4.4-23.6,9.2-32.6c4.7-9.1,11.5-16.2,20.4-21.2s20.8-7.6,35.8-7.6
						s26.9,2.6,35.8,7.6c8.9,5.1,15.7,12.2,20.4,21.2c4.7,9.1,7.8,19.9,9.2,32.6c1.4,12.7,2.1,26.5,2.1,41.5
						c0,15.2-0.7,29.1-2.1,41.7c-1.4,12.6-4.4,23.4-9.2,32.5c-4.7,9.1-11.5,16-20.4,20.8c-8.9,4.8-20.8,7.2-35.8,7.2
						s-26.9-2.4-35.8-7.2s-15.7-11.8-20.4-20.8c-4.7-9.1-7.8-19.9-9.2-32.5s-2.1-26.5-2.1-41.7
						C4459,1110.9,4459.7,1097.1,4461.1,1084.4z M4499.9,1159.9c0.6,9.4,1.9,16.9,3.9,22.8c1.9,5.8,4.7,10.1,8.3,12.8
						c3.6,2.7,8.4,4,14.3,4c5.9,0,10.7-1.3,14.3-4c3.6-2.7,6.4-6.9,8.3-12.8c1.9-5.8,3.2-13.4,3.9-22.8c0.6-9.3,1-20.7,1-34
						s-0.3-24.6-1-33.9s-1.9-16.8-3.9-22.8c-1.9-5.9-4.7-10.2-8.3-12.9c-3.6-2.7-8.4-4-14.3-4c-5.9,0-10.7,1.4-14.3,4
						c-3.6,2.7-6.4,7-8.3,12.9c-1.9,5.9-3.2,13.5-3.9,22.8c-0.6,9.3-1,20.6-1,33.9S4499.3,1150.6,4499.9,1159.9z"/>
					<path class="st0" d="M4723.1,1162.6h0.6v-135.8h36.7v198.3h-45.5l-48.9-138.8h-0.6v138.8h-36.7v-198.3h46.1L4723.1,1162.6z"/>
					<path class="st0" d="M4799.2,1026.8h40v165.5h70.8v32.8h-110.8V1026.8z"/>
					<path class="st0" d="M4996.9,1103.4h0.6l27.8-76.7h43.3l-51.4,120.2v78h-40v-78l-51.4-120.2h45L4996.9,1103.4z"/>
					<path class="st0" d="M5132.1,1225.1h-36.7v-43.3h36.7V1225.1z"/>
					<path class="st0" d="M2718.2,1391.3v32.8h-70.8v46.7h66.6v32.8h-66.6v86.1h-40v-198.3H2718.2z"/>
					<path class="st0" d="M2835.1,1391.3l52.5,198.3h-41.7l-9.2-41.9H2784l-9.2,41.9h-41.7l52.5-198.3H2835.1z M2829.8,1514.9
						l-19.2-89.1h-0.6l-19.2,89.1H2829.8z"/>
					<path class="st0" d="M2992.1,1426.7c-3.4-6.6-9.7-9.9-18.7-9.9c-5,0-9.1,1.4-12.4,4c-3.2,2.7-5.8,7-7.6,13
						c-1.9,6-3.2,13.9-3.9,23.6c-0.7,9.7-1.1,21.6-1.1,35.7c0,15,0.5,27.1,1.5,36.4c1,9.3,2.6,16.4,4.7,21.5c2.1,5.1,4.8,8.5,8,10.3
						c3.2,1.8,7,2.6,11.2,2.6c3.5,0,6.8-0.6,9.9-1.8c3.1-1.2,5.7-3.6,7.9-7.2c2.2-3.6,4-8.7,5.3-15.3c1.3-6.6,1.9-15.2,1.9-26h40
						c0,10.7-0.8,20.9-2.5,30.6c-1.7,9.6-4.8,18-9.3,25.3c-4.5,7.2-10.9,12.9-19.2,16.9c-8.2,4.1-18.9,6.1-32.1,6.1
						c-15,0-26.9-2.4-35.8-7.2s-15.7-11.8-20.4-20.8c-4.7-9.1-7.8-19.9-9.2-32.5s-2.1-26.5-2.1-41.7c0-15,0.7-28.8,2.1-41.5
						c1.4-12.7,4.4-23.6,9.2-32.6c4.7-9.1,11.5-16.2,20.4-21.2s20.8-7.6,35.8-7.6c14.3,0,25.5,2.3,33.7,7
						c8.2,4.6,14.4,10.5,18.5,17.6c4.1,7.1,6.6,14.8,7.6,23c1,8.2,1.5,16,1.5,23.2h-40C2997.2,1443.8,2995.5,1433.3,2992.1,1426.7z"
						/>
					<path class="st0" d="M3074.7,1391.3h40v198.3h-40V1391.3z"/>
					<path class="st0" d="M3155.5,1391.3h40v165.5h70.8v32.8h-110.8V1391.3z"/>
					<path class="st0" d="M3297.1,1391.3h40v198.3h-40V1391.3z"/>
					<path class="st0" d="M3494,1424.1h-43.3v165.5h-40v-165.5h-43.3v-32.8H3494V1424.1z"/>
					<path class="st0" d="M3524.3,1391.3h40v198.3h-40V1391.3z"/>
					<path class="st0" d="M3715.9,1424.1h-70.8v46.7h66.6v32.8h-66.6v53.3h73.6v32.8h-113.6v-198.3h110.8V1424.1z"/>
					<path class="st0" d="M3782,1533.5c0,4.6,0.4,8.9,1.1,12.6c0.7,3.8,2.1,7,4.2,9.6c2,2.6,4.8,4.6,8.2,6.1s7.7,2.2,12.9,2.2
						c6.1,0,11.6-2,16.5-6c4.9-4,7.4-10.1,7.4-18.5c0-4.4-0.6-8.3-1.8-11.5c-1.2-3.2-3.2-6.2-6-8.7c-2.8-2.6-6.4-5-11-7.1
						c-4.5-2.1-10.1-4.3-16.8-6.5c-8.9-3-16.6-6.2-23-9.7c-6.5-3.5-11.9-7.6-16.2-12.4s-7.5-10.2-9.6-16.4c-2-6.2-3.1-13.4-3.1-21.5
						c0-19.6,5.5-34.3,16.4-43.9c10.9-9.6,25.9-14.4,45-14.4c8.9,0,17.1,1,24.6,2.9c7.5,1.9,14,5.1,19.4,9.4
						c5.5,4.4,9.7,9.9,12.8,16.7s4.6,14.9,4.6,24.3v5.5h-38.3c0-9.4-1.7-16.7-5-21.8c-3.3-5.1-8.9-7.6-16.7-7.6
						c-4.4,0-8.2,0.7-11.1,1.9c-3,1.3-5.3,3-7.1,5.1c-1.8,2.1-3,4.6-3.6,7.4c-0.6,2.8-1,5.7-1,8.6c0,6.1,1.3,11.3,3.9,15.4
						c2.6,4.2,8.1,8,16.7,11.5l30.8,13.3c7.6,3.3,13.8,6.8,18.6,10.4c4.8,3.6,8.7,7.5,11.5,11.7s4.9,8.7,6,13.7
						c1.1,5,1.7,10.6,1.7,16.7c0,20.9-6.1,36.2-18.2,45.7c-12.1,9.5-29,14.3-50.7,14.3c-22.6,0-38.7-4.9-48.5-14.7
						c-9.7-9.8-14.6-23.9-14.6-42.2v-8.1h40V1533.5z"/>
					<path class="st0" d="M4043,1391.3l28.3,140h0.6l28.6-140h59.1v198.3H4123v-158.3h-0.6l-35.3,158.3H4056l-35.3-158.3h-0.6v158.3
						h-36.7v-198.3H4043z"/>
					<path class="st0" d="M4287.4,1391.3l52.5,198.3h-41.7l-9.2-41.9h-52.8l-9.2,41.9h-41.7l52.5-198.3H4287.4z M4282.1,1514.9
						l-19.2-89.1h-0.6l-19.2,89.1H4282.1z"/>
					<path class="st0" d="M4422.9,1468h0.6l27.8-76.7h43.3l-51.4,120.2v78h-40v-78l-51.4-120.2h45L4422.9,1468z"/>
					<path class="st0" d="M4692.5,1527.1h0.6v-135.8h36.7v198.3h-45.5l-48.9-138.8h-0.6v138.8h-36.7v-198.3h46.1L4692.5,1527.1z"/>
					<path class="st0" d="M4766.5,1449c1.4-12.7,4.4-23.6,9.2-32.6c4.7-9.1,11.5-16.2,20.4-21.2s20.8-7.6,35.8-7.6
						s26.9,2.6,35.8,7.6c8.9,5.1,15.7,12.2,20.4,21.2c4.7,9.1,7.8,19.9,9.2,32.6c1.4,12.7,2.1,26.5,2.1,41.5
						c0,15.2-0.7,29.1-2.1,41.7c-1.4,12.6-4.4,23.4-9.2,32.5c-4.7,9.1-11.5,16-20.4,20.8c-8.9,4.8-20.8,7.2-35.8,7.2
						s-26.9-2.4-35.8-7.2s-15.7-11.8-20.4-20.8c-4.7-9.1-7.8-19.9-9.2-32.5s-2.1-26.5-2.1-41.7
						C4764.4,1475.5,4765.1,1461.6,4766.5,1449z M4805.4,1524.5c0.6,9.4,1.9,16.9,3.9,22.8c1.9,5.8,4.7,10.1,8.3,12.8
						c3.6,2.7,8.4,4,14.3,4s10.7-1.3,14.3-4c3.6-2.7,6.4-6.9,8.3-12.8s3.2-13.4,3.9-22.8c0.6-9.3,1-20.7,1-34s-0.3-24.6-1-33.9
						c-0.6-9.3-1.9-16.8-3.9-22.8c-1.9-5.9-4.7-10.2-8.3-12.9c-3.6-2.7-8.4-4-14.3-4s-10.7,1.4-14.3,4c-3.6,2.7-6.4,7-8.3,12.9
						c-1.9,5.9-3.2,13.5-3.9,22.8c-0.6,9.3-1,20.6-1,33.9S4804.7,1515.1,4805.4,1524.5z"/>
					<path class="st0" d="M5050.2,1424.1h-43.3v165.5h-40v-165.5h-43.3v-32.8h126.6V1424.1z"/>
					<path class="st0" d="M2718.2,1788.6h-70.8v46.7h66.6v32.8h-66.6v53.3h73.6v32.8h-113.6v-198.3h110.8V1788.6z"/>
					<path class="st0" d="M2787.9,1755.9l25.5,64.2l25.3-64.2h43.6l-46.1,98l49.4,100.2h-45l-28.6-67.2l-28.3,67.2h-43.9l49.4-100.2
						l-45.5-98H2787.9z"/>
					<path class="st0" d="M2914.2,1755.9h40v198.3h-40V1755.9z"/>
					<path class="st0" d="M3027.2,1898c0,4.6,0.4,8.9,1.1,12.6c0.7,3.8,2.1,7,4.2,9.6c2,2.6,4.8,4.6,8.2,6.1
						c3.4,1.5,7.7,2.2,12.9,2.2c6.1,0,11.6-2,16.5-6c4.9-4,7.4-10.1,7.4-18.5c0-4.4-0.6-8.3-1.8-11.5c-1.2-3.2-3.2-6.2-6-8.7
						c-2.8-2.6-6.4-5-11-7.1c-4.5-2.1-10.1-4.3-16.8-6.5c-8.9-3-16.6-6.2-23-9.7c-6.5-3.5-11.9-7.6-16.2-12.4
						c-4.4-4.7-7.5-10.2-9.6-16.4c-2-6.2-3.1-13.4-3.1-21.5c0-19.6,5.5-34.3,16.4-43.9c10.9-9.6,25.9-14.4,45-14.4
						c8.9,0,17.1,1,24.6,2.9s14,5.1,19.4,9.4c5.5,4.4,9.7,9.9,12.8,16.7c3.1,6.8,4.6,14.9,4.6,24.3v5.5h-38.3c0-9.4-1.7-16.7-5-21.8
						c-3.3-5.1-8.9-7.6-16.7-7.6c-4.4,0-8.2,0.7-11.1,1.9c-3,1.3-5.3,3-7.1,5.1c-1.8,2.1-3,4.6-3.6,7.4c-0.6,2.8-1,5.7-1,8.6
						c0,6.1,1.3,11.3,3.9,15.4c2.6,4.2,8.1,8,16.7,11.5l30.8,13.3c7.6,3.3,13.8,6.8,18.6,10.4c4.8,3.6,8.7,7.5,11.5,11.7
						s4.9,8.7,6,13.7c1.1,5,1.7,10.6,1.7,16.7c0,20.9-6.1,36.2-18.2,45.7c-12.1,9.5-29,14.3-50.7,14.3c-22.6,0-38.7-4.9-48.5-14.7
						c-9.7-9.8-14.6-23.9-14.6-42.2v-8.1h40V1898z"/>
					<path class="st0" d="M3266.3,1788.6H3223v165.5h-40v-165.5h-43.3v-32.8h126.6V1788.6z"/>
					<path class="st0" d="M3374.3,1755.9h40v198.3h-40V1755.9z"/>
					<path class="st0" d="M3549.6,1891.7h0.6v-135.8h36.7v198.3h-45.5l-48.9-138.8h-0.6v138.8h-36.7v-198.3h46.1L3549.6,1891.7z"/>
					<path class="st0" d="M3761.4,1832.5h0.6l27.8-76.7h43.3l-51.4,120.2v78h-40v-78l-51.4-120.2h45L3761.4,1832.5z"/>
					<path class="st0" d="M3856.8,1813.5c1.4-12.7,4.4-23.6,9.2-32.6c4.7-9.1,11.5-16.2,20.4-21.2s20.8-7.6,35.8-7.6
						c15,0,26.9,2.6,35.8,7.6c8.9,5.1,15.7,12.2,20.4,21.2c4.7,9.1,7.8,19.9,9.2,32.6c1.4,12.7,2.1,26.5,2.1,41.5
						c0,15.2-0.7,29.1-2.1,41.7c-1.4,12.6-4.4,23.4-9.2,32.5c-4.7,9.1-11.5,16-20.4,20.8c-8.9,4.8-20.8,7.2-35.8,7.2
						c-15,0-26.9-2.4-35.8-7.2s-15.7-11.8-20.4-20.8c-4.7-9.1-7.8-19.9-9.2-32.5s-2.1-26.5-2.1-41.7
						C3854.7,1840,3855.4,1826.2,3856.8,1813.5z M3895.7,1889c0.6,9.4,1.9,16.9,3.9,22.8c1.9,5.8,4.7,10.1,8.3,12.8
						c3.6,2.7,8.4,4,14.3,4c5.9,0,10.7-1.3,14.3-4c3.6-2.7,6.4-6.9,8.3-12.8c1.9-5.8,3.2-13.4,3.9-22.8c0.6-9.3,1-20.7,1-34
						s-0.3-24.6-1-33.9c-0.6-9.3-1.9-16.8-3.9-22.8c-1.9-5.9-4.7-10.2-8.3-12.9c-3.6-2.7-8.4-4-14.3-4c-5.9,0-10.7,1.4-14.3,4
						c-3.6,2.7-6.4,7-8.3,12.9c-1.9,5.9-3.2,13.5-3.9,22.8c-0.6,9.3-1,20.6-1,33.9S3895,1879.7,3895.7,1889z"/>
					<path class="st0" d="M4061.9,1894.2c0,5,0.3,9.6,1,13.7c0.6,4.2,1.8,7.8,3.6,10.8c1.8,3.1,4.2,5.5,7.2,7.2
						c3.1,1.8,6.9,2.6,11.5,2.6c4.8,0,8.7-0.9,11.7-2.6c3-1.8,5.3-4.2,7.1-7.2c1.8-3,3-6.7,3.6-10.8c0.6-4.2,1-8.7,1-13.7v-138.3h40
						v138.3c0,12.6-1.8,23-5.3,31.2c-3.5,8.2-8.2,14.8-14.2,19.6s-12.7,8-20.3,9.7c-7.6,1.7-15.5,2.5-23.6,2.5
						c-8.2,0-16-0.7-23.6-2.2c-7.6-1.5-14.3-4.5-20.3-9c-5.9-4.5-10.6-11-14.2-19.3c-3.5-8.3-5.3-19.2-5.3-32.5v-138.3h40V1894.2z"
						/>
					<path class="st0" d="M4258.8,1755.9c16.7,0,29.6,4.2,38.9,12.6c9.3,8.4,13.9,21.2,13.9,38.5c0,13.3-2.7,24.2-8.1,32.6
						c-5.4,8.4-13.7,13.8-25,16.2v0.6c10,1.5,17.3,4.7,21.9,9.7c4.6,5,7.5,13.1,8.6,24.2c0.4,3.7,0.6,7.7,0.8,12.1
						c0.2,4.3,0.4,9.2,0.6,14.6c0.4,10.6,0.9,18.6,1.7,24.2c1.1,5.5,3.5,9.4,7.2,11.4v1.7H4276c-2-2.8-3.3-6-3.9-9.6
						c-0.6-3.6-0.9-7.4-1.1-11.2l-1.1-38c-0.4-7.8-2.3-13.9-5.8-18.3c-3.5-4.5-9.4-6.7-17.8-6.7h-21.4v83.9h-40v-198.3H4258.8z
						 M4241.6,1842.5c9.6,0,17-2.3,22.2-6.8c5.2-4.5,7.8-12.2,7.8-22.9c0-18.3-9.3-27.5-27.8-27.5h-18.9v57.2H4241.6z"/>
					<path class="st0" d="M4516.2,1755.9l52.5,198.3H4527l-9.2-41.9h-52.8l-9.2,41.9h-41.7l52.5-198.3H4516.2z M4510.9,1879.5
						l-19.2-89.1h-0.6l-19.2,89.1H4510.9z"/>
					<path class="st0" d="M4667.5,1755.9c16.7,0,29.6,4.2,38.9,12.6c9.3,8.4,13.9,21.2,13.9,38.5c0,13.3-2.7,24.2-8.1,32.6
						c-5.4,8.4-13.7,13.8-25,16.2v0.6c10,1.5,17.3,4.7,21.9,9.7c4.6,5,7.5,13.1,8.6,24.2c0.4,3.7,0.6,7.7,0.8,12.1
						c0.2,4.3,0.4,9.2,0.6,14.6c0.4,10.6,0.9,18.6,1.7,24.2c1.1,5.5,3.5,9.4,7.2,11.4v1.7h-43.3c-2-2.8-3.3-6-3.9-9.6
						c-0.6-3.6-0.9-7.4-1.1-11.2l-1.1-38c-0.4-7.8-2.3-13.9-5.8-18.3c-3.5-4.5-9.4-6.7-17.8-6.7h-21.4v83.9h-40v-198.3H4667.5z
						 M4650.3,1842.5c9.6,0,17-2.3,22.2-6.8c5.2-4.5,7.8-12.2,7.8-22.9c0-18.3-9.3-27.5-27.8-27.5h-18.9v57.2H4650.3z"/>
					<path class="st0" d="M4870,1788.6h-70.8v46.7h66.6v32.8h-66.6v53.3h73.6v32.8h-113.6v-198.3H4870V1788.6z"/>
					<path class="st0" d="M4991.9,1755.9l52.5,198.3h-41.7l-9.2-41.9h-52.8l-9.2,41.9H4890l52.5-198.3H4991.9z M4986.6,1879.5
						l-19.2-89.1h-0.6l-19.2,89.1H4986.6z"/>
					<path class="st0" d="M5107.1,1954.1h-36.7v-43.3h36.7V1954.1z"/>
				</g>
			</g>
			<g>
				<path class="st0" d="M5443.4,2727.1H2250.8c-17.8,0-32.1-14.4-32.1-32.1V229.1c0-17.8,14.4-32.1,32.1-32.1h3192.6
					c17.8,0,32.1,14.4,32.1,32.1v2465.9C5475.6,2712.7,5461.2,2727.1,5443.4,2727.1z M2337.5,2608.3h3019.3V315.7H2337.5V2608.3z"/>
			</g>
		</g>
		<g>
			<path class="st0" d="M230.4,1545.7c-19.4,0-38.3,14.8-38.3,38v1100.5c0,20.9,17,37.9,37.9,37.9h1384c20.9,0,37.9-17,37.9-37.9
				V1583.9c0-23.1-18.8-37.9-38.2-37.9c-10.5,0-21.2,4.4-29.1,14.2c-158.7,196.3-400.8,316.8-661.6,316.8
				c-50.9,0-102.4-4.6-154.2-14c-208.9-38.2-385.9-149.7-509.4-303C251.5,1550.1,240.8,1545.7,230.4,1545.7L230.4,1545.7
				L230.4,1545.7z M1576.4,1681.8v964.7H267.7v-964.6c132.3,131.9,302.1,221.4,487.5,255.3c55.4,10.1,111.9,15.3,167.8,15.3
				c138.2,0,277.2-31.9,402.1-92.3C1417.7,1815.3,1503.2,1754.5,1576.4,1681.8"/>
			<path class="st0" d="M644.6,2385c0,24.8-12,36.8-36.8,36.8h-49.6v-96.3h49.6c24.8,0,36.8,12,36.8,36.8V2385L644.6,2385z
				 M558.2,2136.1h46.2c24.8,0,36.8,12,36.8,36.8v14c0,24.8-12,36.8-36.8,36.8h-46.2V2136.1L558.2,2136.1z M712.7,2272.8
				c33.1-18.4,45.5-59,45.5-93.5v-20c0-79.3-56.9-126.6-152.1-126.6H441.2v492.5h163.2c97,0,157.2-48.5,157.2-126.6v-31.2
				C761.6,2321.1,744.5,2288.5,712.7,2272.8L712.7,2272.8z"/>
			<path class="st0" d="M1063.9,2199.1c0,32.6-12.7,45.3-45.3,45.3h-42.8v-106.6h42.8c32.6,0,45.3,12.7,45.3,45.3V2199.1
				L1063.9,2199.1z M1022,2032.7H858.8v493.6h117v-176.8h46.2c104,0,158.9-46.7,158.9-135.1v-46.6
				C1180.9,2079.4,1125.9,2032.7,1022,2032.7L1022,2032.7z"/>
			<polygon class="st0" points="1385.7,2032.7 1385.7,2526.3 1268.6,2526.3 1268.6,2032.7 1385.7,2032.7 			"/>
			<path class="st0" d="M1859.5,2615.6c-5.5,3-8.3,8-8.3,14.8c0,5.3,1.4,9.5,4.2,12.7c2.8,3.2,7.7,5.6,14.8,7.2
				c7.1,1.6,16.6,2.7,28.6,3.2c12,0.5,27.1,0.8,45.3,0.8c18.2,0,33.3-0.3,45.3-0.8c12-0.5,21.5-1.6,28.6-3.2c7.1-1.6,12-4,14.8-7.2
				c2.8-3.1,4.2-7.4,4.2-12.7c0-4.3-1.1-7.8-3.2-10.6c-2.1-2.8-5.7-4.9-10.8-6.5c-5.1-1.5-11.8-2.6-20.3-3.2
				c-8.5-0.6-19.1-0.9-32-0.9V2541h20.1c18.9,0,34.5,2.5,46.6,7.6c12.1,5.1,21.6,11.7,28.6,20.1c6.9,8.3,11.6,17.9,14,28.6
				c2.4,10.7,3.6,21.8,3.6,33.1c0,19.7-2.4,35.9-7.2,48.5c-4.8,12.6-12.8,22.5-24.1,29.5c-11.2,7.1-25.7,11.9-43.6,14.6
				c-17.8,2.6-39.3,4-64.6,4c-25.8,0-47.6-1.6-65.5-4.7c-17.9-3.2-32.4-8.5-43.6-16.1c-11.1-7.6-19.1-17.5-24-29.9
				c-4.9-12.4-7.4-27.6-7.4-45.8c0-15.9,2-29.4,6.1-40.5c4-11.1,9.8-20.1,17.2-27.1c7.4-6.9,16.4-12,26.9-15.2
				c10.5-3.2,22.3-4.7,35.4-4.7h17v68.2h-15.2C1875.5,2611,1865,2612.5,1859.5,2615.6L1859.5,2615.6z"/>
			<path class="st0" d="M1989.2,2414.1c12-0.5,21.5-1.6,28.6-3.2c7.1-1.6,12-4,14.8-7.2c2.8-3.2,4.2-7.4,4.2-12.7
				c0-5.3-1.4-9.5-4.2-12.7c-2.8-3.2-7.7-5.6-14.8-7.2c-7.1-1.6-16.6-2.7-28.6-3.2c-12-0.5-27.1-0.8-45.3-0.8
				c-18.2,0-33.3,0.3-45.3,0.8c-12,0.5-21.5,1.6-28.6,3.2c-7.1,1.6-12,4-14.8,7.2c-2.8,3.2-4.2,7.4-4.2,12.7c0,5.3,1.4,9.5,4.2,12.7
				c2.8,3.2,7.7,5.6,14.8,7.2c7.1,1.6,16.6,2.7,28.6,3.2c12,0.5,27.1,0.8,45.3,0.8C1962.1,2414.9,1977.2,2414.6,1989.2,2414.1
				L1989.2,2414.1z M1879.4,2482.7c-17.8-3.3-32.3-8.7-43.6-16.3c-11.2-7.6-19.4-17.5-24.6-29.9c-5.2-12.4-7.8-27.5-7.8-45.5
				c0-17.9,2.6-33.1,7.8-45.5c5.2-12.4,13.4-22.3,24.6-29.9c11.2-7.6,25.7-13,43.6-16.3c17.8-3.3,39.3-4.9,64.6-4.9
				c25.3,0,46.8,1.6,64.6,4.9c17.8,3.3,32.3,8.7,43.6,16.3c11.2,7.6,19.3,17.6,24.1,29.9c4.8,12.4,7.2,27.5,7.2,45.5
				c0,17.9-2.4,33.1-7.2,45.5c-4.8,12.4-12.8,22.3-24.1,29.9c-11.2,7.6-25.7,13-43.6,16.3c-17.8,3.3-39.3,4.9-64.6,4.9
				C1918.7,2487.6,1897.2,2486,1879.4,2482.7L1879.4,2482.7z"/>
			<polygon class="st0" points="1808.7,2135 1968.9,2106.6 1968.9,2105.9 1808.7,2077.5 1808.7,1976.7 2079.1,1976.7 2079.1,2042.6 
				1877.7,2042.6 1877.7,2043.4 2079.1,2080.9 2079.1,2131.6 1877.7,2169.1 1877.7,2169.9 2079.1,2169.9 2079.1,2235.8 
				1808.7,2235.8 1808.7,2135 			"/>
			<path class="st0" d="M1925.4,1829c0-8.8-2.6-15.6-8-20.3c-5.3-4.7-13.6-7-25-7c-22,0-32.9,9.1-32.9,27.3v13.3h65.9V1829
				L1925.4,1829z M1808.7,1807.1c0-13.4,2.2-25,6.4-34.8c4.3-9.8,10.2-18,17.6-24.4c7.5-6.4,16.2-11.2,26.3-14.2
				c10.1-3,21.1-4.5,32.9-4.5c28,0,49.1,7.5,63.1,22.5c14,15,21,37.1,21,66.1v24.6h103v70.4h-270.4V1807.1L1808.7,1807.1z"/>
			<path class="st0" d="M1989.2,1618.5c12-0.5,21.5-1.6,28.6-3.2c7.1-1.6,12-4,14.8-7.2c2.8-3.2,4.2-7.4,4.2-12.7
				c0-5.3-1.4-9.5-4.2-12.7c-2.8-3.2-7.7-5.5-14.8-7.2c-7.1-1.6-16.6-2.7-28.6-3.2c-12-0.5-27.1-0.8-45.3-0.8
				c-18.2,0-33.3,0.3-45.3,0.8c-12,0.5-21.5,1.6-28.6,3.2c-7.1,1.7-12,4-14.8,7.2c-2.8,3.2-4.2,7.4-4.2,12.7c0,5.3,1.4,9.5,4.2,12.7
				c2.8,3.2,7.7,5.6,14.8,7.2c7.1,1.6,16.6,2.7,28.6,3.2c12,0.5,27.1,0.8,45.3,0.8C1962.1,1619.2,1977.2,1619,1989.2,1618.5
				L1989.2,1618.5z M1879.4,1687c-17.8-3.3-32.3-8.7-43.6-16.3c-11.2-7.6-19.4-17.6-24.6-29.9c-5.2-12.4-7.8-27.5-7.8-45.4
				c0-17.9,2.6-33.1,7.8-45.5c5.2-12.4,13.4-22.3,24.6-29.9c11.2-7.6,25.7-13,43.6-16.3c17.8-3.3,39.3-4.9,64.6-4.9
				c25.3,0,46.8,1.6,64.6,4.9c17.8,3.3,32.3,8.7,43.6,16.3c11.2,7.6,19.3,17.6,24.1,29.9c4.8,12.4,7.2,27.5,7.2,45.5
				c0,17.9-2.4,33.1-7.2,45.4c-4.8,12.4-12.8,22.4-24.1,29.9c-11.2,7.6-25.7,13-43.6,16.3c-17.8,3.3-39.3,4.9-64.6,4.9
				C1918.7,1691.9,1897.2,1690.3,1879.4,1687L1879.4,1687z"/>
			<path class="st0" d="M1880.3,1345.4c-8.1,0-15,1.6-20.6,4.9c-5.7,3.3-8.5,8.3-8.5,15.2c0,7.6,2.5,13.1,7.4,16.7
				c4.9,3.5,10.4,5.3,16.5,5.3c8.8,0,15.9-2.8,21-8.5c5.2-5.7,9.7-12.8,13.4-21.4c3.8-8.6,7.6-17.8,11.5-27.6
				c3.9-9.9,9-19.1,15.3-27.7c6.3-8.6,14.6-15.7,24.8-21.4c10.2-5.7,23.5-8.5,40-8.5c28.8,0,49.7,8.2,62.7,24.6
				c13,16.4,19.5,40.2,19.5,71.2c0,14.6-1.2,27.6-3.6,38.8c-2.4,11.2-6.6,20.7-12.5,28.4c-5.9,7.7-13.7,13.6-23.3,17.6
				c-9.6,4-21.5,6.1-35.6,6.1h-9.5v-68.2h6.4c11.6,0,19.8-2.1,24.4-6.4c4.7-4.3,7-9.8,7-16.7c0-7.3-2.5-12.9-7.6-16.8
				c-5-3.9-11.2-5.9-18.6-5.9c-8.8,0-15.8,2.7-21,8.1c-5.2,5.4-9.6,12.2-13.3,20.4c-3.7,8.2-7.4,17.1-11.2,26.7
				c-3.8,9.6-8.7,18.5-14.8,26.7c-6.1,8.2-14,15-23.9,20.4c-9.8,5.4-22.7,8.1-38.6,8.1c-27.5,0-48.5-7.3-62.9-22
				c-14.4-14.6-21.6-36.9-21.6-66.7c0-30.8,6.6-53.1,19.9-66.9c13.3-13.8,34.4-20.6,63.4-20.6v65.9H1880.3L1880.3,1345.4z"/>
			<polygon class="st0" points="1868.6,1241.2 1808.7,1241.2 1808.7,1065.5 1868.6,1065.5 1868.6,1118.5 2079.1,1118.5 2079.1,1189 
				1868.6,1189 1868.6,1241.2 			"/>
			<path class="st0" d="M1864,946.2l114.8,19.3v-39.4L1864,945.5V946.2L1864,946.2z M1808.7,901.5l270.4-65.9v75l-47.4,7.2v56.1
				l47.4,7.2v73.9l-270.4-64.8V901.5L1808.7,901.5z"/>
			<path class="st0" d="M2028.4,704.4c0-6.6-2.7-12.4-8.1-17.4c-5.4-5-13.8-7.6-25.2-7.6c-10.6,0-18.7,2.5-24.2,7.6
				c-5.5,5.1-8.3,10.9-8.3,17.4v19.7h65.9V704.4L2028.4,704.4z M1914.8,707c0-7.3-2.7-12.9-8.1-16.7c-5.4-3.8-11.8-5.7-19.1-5.7
				c-7.6,0-14.1,1.9-19.7,5.7c-5.5,3.8-8.3,9.3-8.3,16.7v17h55.3V707L1914.8,707z M1808.7,688.1c0-25.2,6.1-43.9,18.4-55.9
				c12.3-12,28.6-18,49-18c7.1,0,14,0.8,20.6,2.5c6.7,1.7,12.8,4.2,18.2,7.6c5.4,3.4,10,7.8,13.8,13.1c3.8,5.3,6.4,11.7,8,19.3h0.8
				c0.8-8.8,3.1-16.4,7-22.7c3.9-6.3,8.8-11.5,14.6-15.5c5.8-4,12.2-7,19.1-8.9c6.9-1.9,13.9-2.8,21-2.8c11.6,0,22.3,1.5,32.2,4.5
				c9.8,3,18.3,7.8,25.4,14.2c7.1,6.4,12.6,14.8,16.5,25.2c3.9,10.4,5.9,22.9,5.9,37.5v106.4h-270.4V688.1L1808.7,688.1z"/>
			<polygon class="st0" points="1808.7,486.2 2021.6,486.2 2021.6,399.5 2079.1,399.5 2079.1,556.6 1808.7,556.6 1808.7,486.2 			
				"/>
			<polygon class="st0" points="1808.7,193.9 1866.3,193.9 1866.3,283.7 1912.5,283.7 1912.5,199.6 1967.8,199.6 1967.8,283.7 
				2021.6,283.7 2021.6,190.5 2079.1,190.5 2079.1,354.2 1808.7,354.2 1808.7,193.9 			"/>
			<path class="st0" d="M1594.9,373.8c-45.8,0-79.8-35.9-79.8-81.6c0-44.5,34-81.1,78.6-81.1h0.7c44.5,0,77.9,36.6,77.9,81.6
				C1672.2,337.9,1638.8,374.5,1594.9,373.8L1594.9,373.8z M1594.9,193.7h-0.6c-56.3,0-100.9,43.3-100.9,98.4
				c0,56.3,44.6,99.6,100.9,99.6c56.3,0,99.6-43.3,99.6-99.6C1693.9,237.1,1650.6,193.7,1594.9,193.7L1594.9,193.7z"/>
			<path class="st0" d="M1589.3,288.4h-12.9v-32.2c3.1-0.6,7.4-1.3,14.8-1.3c18,0,24.7,7.4,24.7,17.4
				C1615.9,284,1602.9,288.4,1589.3,288.4L1589.3,288.4z M1615.9,295.8v-1.3c10.5-3.7,19.8-11.7,19.8-24c0-9.9-4.3-17.9-10.5-22.3
				c-6.2-5-14.9-8-32.2-8c-14.2,0-25.4,1.2-35.9,3v103.4h19.3v-43.4h12.4c14.2,0,21,5,23.5,16.7c3.1,13.6,5.6,22.9,8.7,26.7h19.8
				c-2.5-3.7-5-10-8-25.4C1629.6,307.6,1624.6,299.5,1615.9,295.8L1615.9,295.8z"/>
			<path class="st0" d="M1435.1,1314.9c-4.5,9.3-12.9,13.4-21.3,13.3c-12.1-0.2-24.1-9.4-23.8-24.5c0-0.3,0-0.7,0-1
				c5.3-299.2-169.9-560.3-425.1-679.3l-66.7,164.8c-3.2,9-11.2,13.4-19.1,13.3c-7.9-0.1-15.8-4.8-18.6-14l-53.1-214.3
				c0,0-8.7,58.4-18.6,88.6c-6.8,20.5-22.8,46.5-31.8,55.6c-1.9,2-4.4,2.8-6.8,2.8c-4.3-0.1-8.4-3.1-9-8
				c-3.3-25.2-10.8-73.2-24.4-117.7c-17.1-56-45.5-111.6-45.5-111.6s-6.1,33.7-11.1,55c-3.8,16.3-11.7,36.9-16.4,44.7
				c-3.3,5.4-8.9,8-14.4,7.9c-6.4-0.1-12.7-3.8-15.4-10.7c-11.6-30-40-84.1-75.7-107.3c-22.6-14.7-52.7-21.3-84.1-21.9
				c-16.8-0.3-34,1.1-50.6,4c-0.5,0.1-1,0.1-1.4,0.1c-6.5-0.1-9.2-9.3-2.9-12.6c58.5-31,165-86.2,228.9-112.7
				C690.4,303.7,751,281,788,267.5c1.4-0.5,2.8-0.7,4.1-0.7c8.4,0.1,14.2,10.3,8.2,17.8l-32.6,41c0,0,73.9-28.3,150.4-45.2
				c40.1-8.9,81-14.6,110.8-18.1c0.6-0.1,1.2-0.1,1.7-0.1c10.7,0.2,15.7,14.1,6.7,21c-9,6.8-18.5,14.5-26.8,22.4
				c-25.2,23.6-39.8,49.4-39.8,49.4s69.6-22,152.6-27.1c36.5-2.2,80.1-4.2,114.9-3.6c14.9,0.3,28.1,1,38.6,2.4
				c11.8,1.6,13.7,17.9,2.6,22.2l-171.7,119.8c0.3,0.1,0.7,0.3,1,0.4c231.5,93.4,393.4,322.3,388.7,586.3
				C1495.7,1146.6,1473.9,1235,1435.1,1314.9L1435.1,1314.9z M1124.1,1592.2c-28.7,16.8-114.2,35.7-205.1,32
				c-185.5-7.5-315.7-69.2-429.1-186.7c-112.6-116.7-174.5-274.1-171.4-436.2c1.7-91.1,23.2-178.8,62.3-258.2
				c7.9-16.1,30.4-17.4,40.1-2.2c18.6,29.2,40.9,53.2,63.8,72.8c169.2,144.9,374.8,114.8,501.1,203.8
				c169.3,119.4,184.1,317.9,198.5,417.3C1198.5,1534.1,1155.3,1574,1124.1,1592.2L1124.1,1592.2z M1314.9,407.7
				c27.7-15.7,43.8-46.7,40-79.1c-4.3-36.4-32.6-65.3-68.9-70.2c-12.6-1.7-27.8-2.7-46.6-3c-30.7-0.5-70,0.7-120.3,3.7
				c-3.2,0.2-6.4,0.4-9.6,0.7c-0.6-3.6-1.5-7.2-2.7-10.8c-10.6-32.6-40.8-54.9-74.9-55.6h0l0,0c-3.6-0.1-7.3,0.1-10.9,0.5
				c-29.4,3.5-73.7,9.6-117.6,19.3c-17.4,3.8-34.6,8.2-50.9,12.7c-14.6-17.2-35.8-27.5-59.1-27.9c0,0,0,0,0,0
				c-9.8-0.2-19.6,1.5-28.9,4.9c-39.8,14.5-100.2,37.3-162.5,63c-66.7,27.6-175.8,84.2-234.8,115.5c-30.4,16.1-46.1,50.7-38.1,84.2
				c7.3,30.6,32.6,53,63,57.2c-118.8,126.8-192.8,296.4-196.1,483.9c-7.1,401.3,312.5,732.4,713.8,739.4
				c401.3,7.1,732.4-312.5,739.4-713.8C1653.7,770.9,1519.7,539.4,1314.9,407.7L1314.9,407.7z"/>
			<path class="st0" d="M1066.9,1488.8c-43.1-26.2-85.2-52.3-126.2-79.5c-9.1-6-17.3-13.3-24.4-21.5l-0.1-0.1
				c-21.4-24.4-41.4-49.1-59.3-74.9c-17.9-25.8-33.8-52.7-46.9-81.5c-10.4-22.3-18.7-45.7-26.3-70.7c-1.9-6.2-11-5.7-12,0.7
				c-4.5,26.9-2.9,55,3,82c4.2,18.8,10.6,37.1,18.8,54.4c0.9,1.8-1.3,3.6-2.9,2.3c-23.4-18.6-46.5-37.7-68.9-57.5
				c-0.1-0.1-0.1-0.1-0.2-0.2l-17-20.5c-12.3-21-23.6-42.1-33.4-63.6c-10.6-23.5-19.4-47.5-25.7-72.7c-4.8-18.4-7.9-37.4-10.3-57.4
				c-0.7-6.3-9.5-7.2-11.5-1.2c-6.7,19.9-9.3,41.4-8.6,62.7c0.7,20,4.5,39.9,10.6,58.9c0.5,1.5-1.3,2.6-2.4,1.5
				c-18.9-18.9-37.6-38.2-55.9-57.9c-43.1-46.6-84.5-95-124.5-146.2c-4.5-5.7-13.6-0.8-11.1,6.1c9.2,25.2,20.5,49.6,32.7,73.6
				c18,34.8,38.6,68.2,61.1,100.3c22.8,32.2,47.6,63,74.2,92.3c1.8,2-0.1,5.2-2.7,4.4c-21.9-6.3-44.8-9.6-67.6-9.4
				c-16.5,0.2-32.9,2.2-48.7,6.4c-9.5,2.5-8.5,16.3,1.2,17.3c15.3,1.6,30.2,3.7,44.8,6.7c26.2,5.1,51.4,12.6,76.2,21.8
				c23.9,8.9,47.5,19.4,71,31.1c7.3,4.8,14.6,9.6,21.9,14.4c43.9,37.1,136,94.8,155.9,107c1,0.6,0.5,2.1-0.6,2
				c-44.4-2.5-97.9,14-97.9,14c-16.2,5.7-31.7,13.1-46.1,22.3c-9.5,6.1-3.3,20.9,7.7,18.5c15.6-3.4,30.9-6.2,46.3-8.2
				c28.9-3.8,57.7-4.9,86.6-4c26.4,0.9,53,3.5,79.8,7.2c5.1,0.7,10.1,1.7,15.1,2.8l119.5,28.4
				C1069.2,1502.4,1073.2,1492.7,1066.9,1488.8L1066.9,1488.8z"/>
		</g>
	</g>
	<g>
		<path class="st0" d="M2687.6,2138.7c-3.4-6.6-9.7-9.9-18.7-9.9c-5,0-9.1,1.4-12.4,4c-3.2,2.7-5.8,7-7.6,13
			c-1.9,6-3.2,13.9-3.9,23.6c-0.7,9.7-1.1,21.6-1.1,35.7c0,15,0.5,27.1,1.5,36.4c1,9.3,2.6,16.4,4.7,21.5c2.1,5.1,4.8,8.5,8,10.3
			c3.2,1.8,7,2.6,11.2,2.6c3.5,0,6.8-0.6,9.9-1.8c3.1-1.2,5.7-3.6,7.9-7.2c2.2-3.6,4-8.7,5.3-15.3c1.3-6.6,1.9-15.2,1.9-26h40
			c0,10.7-0.8,20.9-2.5,30.6c-1.7,9.6-4.8,18-9.3,25.3c-4.5,7.2-10.9,12.9-19.2,16.9c-8.2,4.1-18.9,6.1-32.1,6.1
			c-15,0-26.9-2.4-35.8-7.2c-8.9-4.8-15.7-11.8-20.4-20.8c-4.7-9.1-7.8-19.9-9.2-32.5c-1.4-12.6-2.1-26.5-2.1-41.7
			c0-15,0.7-28.8,2.1-41.5c1.4-12.7,4.4-23.6,9.2-32.6c4.7-9.1,11.5-16.2,20.4-21.2c8.9-5.1,20.8-7.6,35.8-7.6
			c14.3,0,25.5,2.3,33.7,7c8.2,4.6,14.4,10.5,18.5,17.6c4.1,7.1,6.6,14.8,7.6,23c1,8.2,1.5,16,1.5,23.2h-40
			C2692.8,2155.8,2691.1,2145.3,2687.6,2138.7z"/>
		<path class="st0" d="M2879.1,2136.1h-70.8v46.7h66.6v32.8h-66.6v53.3h73.6v32.8h-113.6v-198.3h110.8V2136.1z"/>
		<path class="st0" d="M2986.8,2103.3c16.7,0,29.6,4.2,38.9,12.6c9.3,8.4,13.9,21.2,13.9,38.5c0,13.3-2.7,24.2-8.1,32.6
			c-5.4,8.4-13.7,13.8-25,16.2v0.6c10,1.5,17.3,4.7,21.9,9.7c4.6,5,7.5,13.1,8.6,24.2c0.4,3.7,0.6,7.7,0.8,12.1
			c0.2,4.3,0.4,9.2,0.6,14.6c0.4,10.6,0.9,18.6,1.7,24.2c1.1,5.5,3.5,9.4,7.2,11.4v1.7H3004c-2-2.8-3.3-6-3.9-9.6
			c-0.6-3.6-0.9-7.4-1.1-11.2l-1.1-38c-0.4-7.8-2.3-13.9-5.8-18.3c-3.5-4.5-9.4-6.7-17.8-6.7H2953v83.9h-40v-198.3H2986.8z
			 M2969.6,2190c9.6,0,17-2.3,22.2-6.8c5.2-4.5,7.8-12.2,7.8-22.9c0-18.3-9.3-27.5-27.8-27.5H2953v57.2H2969.6z"/>
		<path class="st0" d="M3194.5,2136.1h-43.3v165.5h-40v-165.5h-43.3v-32.8h126.6V2136.1z"/>
		<path class="st0" d="M3310.9,2222.2l4.4-33.9h-20.3v-31.1h23.9l6.1-48.3h26.7l-5.8,48.3h26.9l6.1-48.3h26.9l-6.1,48.3h20.3v31.1
			h-23.9l-4.4,33.9h20.3v31.1h-23.9l-6.1,48.3H3355l6.1-48.3h-27.2l-5.8,48.3h-26.9l6.1-48.3h-20.5v-31.1H3310.9z M3364.8,2222.2
			l4.4-33.9H3342l-4.2,33.9H3364.8z"/>
		<path class="st0" d="M3481.7,2162.7h-39.2v-26.1h3.6c13.3,0,23.8-2.5,31.5-7.5c7.7-5,12.5-13.1,14.6-24.2h29.4v196.6h-40V2162.7z"
			/>
		<path class="st0" d="M3581.9,2170.5c0.9-12.6,3.4-23.7,7.5-33.5c4.1-9.7,10.2-17.5,18.5-23.3c8.2-5.8,19.7-8.7,34.3-8.7
			c12,0,22,1.7,29.9,5.1c7.9,3.4,14.2,8.9,18.9,16.5c4.7,7.6,8.1,17.4,10,29.6c1.9,12.1,2.9,26.9,2.9,44.3c0,13.7-0.5,26.8-1.4,39.4
			c-0.9,12.6-3.4,23.7-7.5,33.5c-4.1,9.7-10.2,17.4-18.5,22.9c-8.2,5.5-19.7,8.3-34.3,8.3c-11.8,0-21.8-1.6-29.7-4.7
			c-8-3.1-14.3-8.5-19-16.1c-4.7-7.6-8.1-17.4-10-29.6c-1.9-12.1-2.9-26.9-2.9-44.3C3580.5,2196.3,3581,2183.1,3581.9,2170.5z
			 M3621.5,2249c0.6,7.9,1.8,14.1,3.5,18.6c1.7,4.5,3.9,7.6,6.7,9.3c2.8,1.7,6.3,2.5,10.6,2.5c4.4,0,8.1-1.1,10.8-3.2
			c2.8-2.1,5-5.7,6.5-10.8c1.6-5.1,2.7-11.9,3.3-20.4c0.6-8.5,1-19.1,1-31.7v-21.4c0-12.4-0.3-22.5-1-30.4
			c-0.7-7.9-1.8-14.1-3.5-18.6c-1.7-4.5-3.9-7.6-6.7-9.3c-2.8-1.7-6.3-2.5-10.6-2.5c-4.4,0-8.1,1.1-10.8,3.2
			c-2.8,2.1-5,5.7-6.5,10.8c-1.6,5.1-2.7,11.9-3.3,20.4c-0.6,8.5-1,19.1-1,31.7v21.4C3620.5,2231,3620.8,2241.1,3621.5,2249z"/>
		<path class="st0" d="M3765.5,2140l-4.2,44.7h0.6c3.7-5.2,8.5-8.9,14.4-11.3c5.9-2.3,13.1-3.5,21.7-3.5c9.4,0,17.3,1.8,23.5,5.4
			c6.2,3.6,11.1,8.4,14.7,14.3c3.6,5.9,6.2,12.6,7.6,20.1c1.5,7.5,2.2,15.1,2.2,22.9c0,10.9-0.9,20.8-2.8,29.7
			c-1.9,8.9-5.1,16.5-9.9,22.9c-4.7,6.4-11.2,11.2-19.3,14.4c-8.1,3.2-18.5,4.9-31.1,4.9c-12.4,0-22.4-1.7-30.1-5
			c-7.7-3.3-13.6-7.7-17.6-13.2c-4.1-5.5-6.8-11.4-8.2-17.8c-1.4-6.4-2.1-12.3-2.1-17.9v-5.3h38.3c0,3.3,0.2,6.9,0.6,10.6
			c0.4,3.7,1.3,7.2,2.6,10.4c1.4,3.2,3.4,5.9,6,8.1c2.6,2.1,6,3.2,10.3,3.2c8.3,0,14.3-3.2,17.9-9.6c3.6-6.4,5.4-16,5.4-28.7
			c0-8.2-0.4-14.9-1.1-20.3c-0.7-5.4-2-9.6-3.7-12.8c-1.8-3.1-4.1-5.4-7.1-6.7c-3-1.3-6.7-1.9-11.1-1.9c-5.7,0-10.1,1.6-13.2,4.9
			c-3.1,3.2-5,7.6-5.7,13.2h-35.8l7.2-106.9h102.5v31.1H3765.5z"/>
		<path class="st0" d="M3869.3,2301.6c0-8.7,0.9-16.8,2.6-24.4c1.8-7.6,4.4-14.8,8.1-21.7c3.6-6.8,8.1-13.6,13.6-20.1
			c5.5-6.6,11.8-13.2,19-19.9l16.1-15c4.4-3.9,8-7.5,10.7-10.8c2.7-3.3,4.8-6.7,6.2-10c1.5-3.3,2.4-6.9,2.9-10.8
			c0.5-3.9,0.7-8.3,0.7-13.3c0-16.3-6.5-24.4-19.4-24.4c-5,0-8.9,1-11.8,3.1c-2.9,2-5.1,4.8-6.7,8.3c-1.6,3.5-2.6,7.6-3,12.2
			c-0.5,4.6-0.7,9.5-0.7,14.7h-38.3v-7.5c0-18.3,4.9-32.4,14.7-42.2c9.8-9.8,25.3-14.7,46.4-14.7c20,0,34.8,4.6,44.4,13.9
			c9.6,9.3,14.4,22.5,14.4,39.7c0,6.3-0.6,12.2-1.7,17.6c-1.1,5.5-2.9,10.7-5.3,15.7c-2.4,5-5.6,9.9-9.4,14.6
			c-3.9,4.7-8.6,9.6-14.2,14.6l-22.2,20.6c-5.9,5.4-10.6,10.6-13.9,15.7c-3.3,5.1-5.5,9.5-6.4,13.2h74.1v31.1H3869.3z"/>
		<path class="st0" d="M4059.7,2273.1c2.7,4.2,7.4,6.2,14,6.2c5.4,0,9.6-1.3,12.8-3.8c3.2-2.5,5.6-6,7.4-10.4s2.9-9.7,3.5-15.8
			c0.6-6.1,0.8-12.8,0.8-20v-9.4h-0.6c-3.3,5-8.1,9-14.3,12.1c-6.2,3.1-13.7,4.6-22.6,4.6c-8.7,0-16.1-1.5-22.2-4.6
			c-6.1-3-11.1-7.3-14.9-12.8c-3.8-5.5-6.6-11.9-8.3-19.4c-1.8-7.5-2.6-15.7-2.6-24.6c0-22.8,5-40.2,15.1-52.2
			c10.1-12,26.2-18.1,48.5-18.1c13.7,0,24.6,2.6,32.8,7.6c8.1,5.1,14.4,11.8,18.7,20.3c4.4,8.4,7.2,18.2,8.5,29.3
			c1.3,11.1,1.9,22.7,1.9,34.7c0,14.1-0.4,27.6-1.2,40.7s-3.3,24.6-7.5,34.6c-4.2,10-10.7,17.9-19.7,23.7c-9,5.8-21.5,8.7-37.6,8.7
			c-7,0-13.8-0.7-20.4-2.1c-6.6-1.4-12.4-4-17.4-7.8c-5-3.8-9-8.9-12.1-15.3c-3.1-6.4-4.7-14.3-4.9-23.8h38.3
			C4055.6,2263.2,4057,2269,4059.7,2273.1z M4057.6,2198.6c3.3,5.7,8.9,8.6,16.7,8.6c8,0,13.6-2.9,16.9-8.6c3.3-5.7,5-15.3,5-28.6
			c0-5.6-0.3-10.7-0.8-15.6c-0.6-4.8-1.6-8.9-3.2-12.3c-1.6-3.4-3.8-6.1-6.7-8.1c-2.9-1.9-6.6-2.9-11.2-2.9c-4.8,0-8.7,1-11.5,2.9
			c-2.9,1.9-5,4.7-6.5,8.2c-1.5,3.5-2.5,7.6-2.9,12.4c-0.5,4.7-0.7,9.8-0.7,15.4C4052.6,2183.3,4054.3,2192.8,4057.6,2198.6z"/>
		<path class="st0" d="M4235.4,2137.2c-2.7-4.1-7.4-6.1-14-6.1c-5.2,0-9.4,1.3-12.6,3.8c-3.2,2.5-5.7,6-7.5,10.4
			c-1.8,4.4-2.9,9.7-3.5,15.8c-0.6,6.1-0.8,12.8-0.8,20v9.7h0.6c3.3-5.2,8.1-9.3,14.3-12.4c6.2-3.1,13.7-4.6,22.6-4.6
			c8.7,0,16.1,1.5,22.2,4.6c6.1,3,11.1,7.3,14.9,12.8c3.8,5.5,6.6,11.9,8.3,19.4c1.8,7.5,2.6,15.7,2.6,24.6c0,22.8-5,40-15.1,51.8
			c-10.1,11.8-26.2,17.6-48.5,17.6c-13.7,0-24.6-2.4-32.8-7.2c-8.1-4.8-14.4-11.4-18.7-19.8c-4.4-8.4-7.2-18.2-8.5-29.3
			c-1.3-11.1-1.9-22.7-1.9-34.7c0-13.9,0.4-27.4,1.2-40.4c0.8-13,3.3-24.6,7.5-34.7c4.2-10.1,10.7-18.2,19.6-24.3
			c8.9-6.1,21.5-9.2,37.8-9.2c7,0,13.8,0.8,20.4,2.5c6.6,1.7,12.4,4.4,17.4,8.3c5,3.9,9,9,12.1,15.4c3.1,6.4,4.7,14.3,4.9,23.7
			h-38.3C4239.5,2147.2,4238.1,2141.3,4235.4,2137.2z M4199.8,2256c0.6,4.8,1.6,8.9,3.2,12.4c1.6,3.4,3.8,6.1,6.7,8.1
			c2.9,1.9,6.6,2.9,11.2,2.9c4.8,0,8.6-1,11.5-2.9c2.9-1.9,5-4.7,6.5-8.2c1.5-3.5,2.5-7.6,2.9-12.4c0.5-4.7,0.7-9.8,0.7-15.4
			c0-13.3-1.7-22.9-5-28.6c-3.3-5.7-8.9-8.6-16.7-8.6c-8,0-13.6,2.9-16.9,8.6c-3.3,5.7-5,15.3-5,28.6
			C4198.9,2246.1,4199.2,2251.2,4199.8,2256z"/>
		<path class="st0" d="M4348,2162.7h-39.2v-26.1h3.6c13.3,0,23.8-2.5,31.5-7.5c7.7-5,12.5-13.1,14.6-24.2h29.4v196.6h-40V2162.7z"/>
		<path class="st0" d="M4454.1,2214.1c5.6-8.9,13.9-14.4,25-16.7v-0.6c-5.4-1.3-9.9-3.3-13.5-6.1c-3.6-2.8-6.5-5.9-8.7-9.4
			c-2.2-3.5-3.8-7.2-4.7-11.1c-0.9-3.9-1.4-7.6-1.4-11.1c0-19.3,5.1-33.1,15.4-41.5c10.3-8.4,24.4-12.6,42.3-12.6
			c18,0,32.1,4.2,42.3,12.6c10.3,8.4,15.4,22.3,15.4,41.5c0,3.5-0.5,7.2-1.5,11.1c-1,3.9-2.6,7.6-4.9,11.1c-2.2,3.5-5.1,6.7-8.8,9.4
			c-3.6,2.8-8,4.8-13.2,6.1v0.6c11.1,2.2,19.4,7.8,25,16.7c5.6,8.9,8.3,19.5,8.3,31.9c0,5.7-0.7,12-2.1,18.9
			c-1.4,6.8-4.3,13.2-8.7,19.2c-4.4,5.9-10.8,10.8-19,14.7c-8.2,3.9-19.2,5.8-32.9,5.8c-13.7,0-24.7-1.9-32.9-5.8
			c-8.2-3.9-14.6-8.8-19-14.7c-4.4-5.9-7.4-12.3-8.7-19.2c-1.4-6.9-2.1-13.1-2.1-18.9C4445.8,2233.7,4448.6,2223,4454.1,2214.1z
			 M4486.7,2258.7c0.6,4.2,1.8,7.8,3.6,10.8c1.8,3,4.1,5.5,7.1,7.2c3,1.8,6.7,2.6,11.1,2.6c4.4,0,8.1-0.9,11.1-2.6
			c3-1.8,5.3-4.2,7.1-7.2c1.8-3.1,3-6.7,3.6-10.8c0.6-4.2,1-8.6,1-13.2c0-4.8-0.3-9.2-1-13.3c-0.7-4.1-1.9-7.6-3.6-10.7
			c-1.8-3-4.1-5.5-7.1-7.2c-3-1.8-6.7-2.6-11.1-2.6c-4.4,0-8.1,0.9-11.1,2.6c-3,1.8-5.3,4.2-7.1,7.2c-1.8,3.1-3,6.6-3.6,10.7
			c-0.6,4.1-1,8.5-1,13.3C4485.8,2250.1,4486.1,2254.5,4486.7,2258.7z M4494.4,2178.9c3.5,4.4,8.2,6.7,14.2,6.7
			c5.9,0,10.6-2.2,14.2-6.7s5.3-11.4,5.3-20.8c0-17.9-6.5-26.9-19.4-26.9c-13,0-19.4,9-19.4,26.9
			C4489.1,2167.5,4490.9,2174.4,4494.4,2178.9z"/>
	</g>
</g>
</svg>
