<svg class="imt-fb-logo-img imt-fb-logo-img-big-bg" width="28" height="28" viewBox="0 0 28 28" fill="none" xmlns="http://www.w3.org/2000/svg"><path d="M0 14C0 6.26801 6.26801 0 14 0C21.732 0 28 6.26801 28 14C28 21.732 21.732 28 14 28C6.26801 28 0 21.732 0 14Z" fill="#ED6D8F"></path><path d="M7.30921 15.6381C7.53044 15.6381 7.70979 15.8175 7.70979 16.0387V19.0088C7.70979 19.934 8.45993 20.684 9.38526 20.684H11.7557C11.9769 20.684 12.1562 20.8634 12.1562 21.0846V22.152C12.1562 22.3732 11.9769 22.5526 11.7557 22.5526H9.38526C7.42782 22.5526 5.84099 20.966 5.84099 19.0088V16.0387C5.84099 15.8175 6.02034 15.6381 6.24157 15.6381H7.30921ZM18.9876 12.6944C19.1515 12.6944 19.2989 12.7943 19.3597 12.9466L22.9711 22.0036C23.076 22.2667 22.8822 22.5526 22.599 22.5526H21.4672C21.3016 22.5526 21.153 22.4506 21.0934 22.2961L20.2724 20.1673C20.2128 20.0128 20.0643 19.9108 19.8986 19.9108H16.7508C16.5852 19.9108 16.4366 20.0128 16.377 20.1673L15.556 22.2961C15.4964 22.4506 15.3478 22.5526 15.1822 22.5526H14.0504C13.7672 22.5526 13.5734 22.2667 13.6783 22.0036L17.2897 12.9466C17.3505 12.7943 17.4979 12.6944 17.6618 12.6944H18.9876ZM18.5116 15.6017C18.4456 15.4308 18.2038 15.4308 18.1378 15.6017L17.3016 17.7699C17.251 17.9011 17.3478 18.0423 17.4885 18.0423H19.1609C19.3016 18.0423 19.3984 17.9012 19.3478 17.7699L18.5116 15.6017ZM9.69589 5.30028C9.79943 4.8999 10.368 4.89991 10.4715 5.30028L11.1086 7.76368C11.3244 8.59845 11.9396 9.27221 12.7513 9.56299L14.9019 10.3334C15.2559 10.4602 15.2559 10.9608 14.9019 11.0876L12.7513 11.8581C11.9396 12.1489 11.3244 12.8226 11.1086 13.6574L10.4715 16.1208C10.368 16.5212 9.79943 16.5212 9.69589 16.1208L9.05884 13.6574C8.84297 12.8226 8.22786 12.1489 7.41615 11.8581L5.26548 11.0876C4.91151 10.9608 4.91151 10.4602 5.26548 10.3334L7.41615 9.56299C8.22786 9.27221 8.84297 8.59844 9.05884 7.76368L9.69589 5.30028ZM18.0064 6.20485C19.9639 6.20485 21.5507 7.79145 21.5507 9.74861V11.281C21.5507 11.5022 21.3713 11.6816 21.1501 11.6816H20.0825C19.8612 11.6816 19.6819 11.5022 19.6819 11.281V9.74861C19.6819 8.82341 18.9318 8.07338 18.0064 8.07338H14.4343C14.2131 8.07338 14.0337 7.89403 14.0337 7.6728V6.60543C14.0337 6.3842 14.2131 6.20486 14.4343 6.20485H18.0064Z" fill="white"></path></svg>