<svg xmlns="http://www.w3.org/2000/svg" width="32" height="32" viewBox="0 0 32 32" fill="none" style="vertical-align: middle;"><path d="M14.8853 4.92364C14.8853 4.92364 16.3905 10.4362 22.6668 4C22.6668 4 20.3381 10.8907 25.3364 10.0843C25.3364 10.0843 22.0563 15.6994 29 18.0599C29 18.0599 22.9934 19.306 21.1617 28C21.1617 28 17.7679 24.54 14.8853 27.3549C14.8853 27.3549 13.3233 23.5724 7.33097 26.27C7.33097 26.27 10.1141 20.6549 4.83179 21.0507C4.83179 21.0507 7.16057 18.8955 3 15.9047C3 15.9047 7.50137 16.1833 6.33697 11.7117C6.33697 11.7117 10.0005 12.3421 8.66576 6.82957C8.65156 6.81491 12.4855 9.80574 14.8853 4.92364Z" fill="#ED6D8F"></path><path d="M20.8599 13.7022C20.885 13.1361 20.9543 12.5713 20.9959 12.0052C21.0337 11.568 20.8107 11.2794 20.3876 11.18C20.0759 11.1013 19.7508 11.0867 19.433 11.137C19.1951 11.1945 18.9542 11.2396 18.7113 11.2721C18.2403 11.3028 17.9973 11.5275 17.9796 11.988C17.977 12.0833 17.9596 12.1777 17.928 12.268C17.3034 13.9102 16.6774 15.5499 16.0503 17.1873C16.0301 17.2401 16.0062 17.2904 15.9671 17.3776C15.7291 16.8975 15.4281 16.4898 15.2745 15.9986C14.8073 14.5152 14.3186 13.033 13.8312 11.5594C13.6826 11.1112 13.3489 10.9344 12.8754 11.0216C12.7889 11.0365 12.7008 11.0398 12.6134 11.0314C12.2241 10.9938 11.8311 11.0404 11.4623 11.1677C11.0946 11.2991 10.9498 11.557 11.0152 11.9254C11.0428 12.0371 11.0643 12.1503 11.0795 12.2643C11.1223 13.1902 11.1777 14.1087 11.2054 15.0321C11.257 16.7992 11.2117 18.5651 11.0858 20.3284C11.0644 20.6354 11.0304 20.9424 11.0228 21.2494C11.0115 21.6092 11.1613 21.7811 11.5266 21.8143C11.9976 21.8573 12.4711 21.8708 12.9421 21.9088C13.0309 21.9201 13.121 21.9003 13.1962 21.8528C13.2714 21.8053 13.3268 21.7334 13.3527 21.6497C13.3996 21.5394 13.4252 21.4216 13.4282 21.3022C13.4295 20.8258 13.4207 20.3493 13.4081 19.8741C13.393 19.3264 13.3917 18.7763 13.3438 18.231C13.2857 17.5839 13.266 16.934 13.2847 16.2847C13.2847 16.2466 13.291 16.2073 13.2985 16.1312C13.3338 16.2024 13.3514 16.2356 13.3665 16.2712C13.9017 17.5228 14.3617 18.8037 14.7443 20.1074C14.7928 20.2421 14.7928 20.3889 14.7443 20.5237C14.6322 20.8196 14.7141 21.037 14.9659 21.1377C15.4445 21.3268 15.9331 21.4926 16.4155 21.6731C16.4865 21.7033 16.566 21.7091 16.6408 21.6895C16.7157 21.6698 16.7815 21.6259 16.8273 21.565C16.9085 21.4643 16.9743 21.3526 17.0225 21.2335C17.0537 21.1374 17.0798 21.0399 17.1006 20.9412C17.3185 20.2425 17.5653 19.5499 17.7517 18.8438C17.9785 17.9723 18.2624 17.1158 18.6018 16.2798C18.6201 16.2439 18.6411 16.2094 18.6647 16.1766C18.6761 16.2319 18.6761 16.254 18.6761 16.2761C18.6345 17.59 18.5955 18.8978 18.5501 20.2056C18.5363 20.5949 18.491 20.9829 18.4809 21.3722C18.4721 21.705 18.6207 21.8708 18.9557 21.9002C19.4355 21.9432 19.9191 21.9592 20.4002 21.9973C20.4888 22.0079 20.5784 21.9875 20.653 21.9399C20.7277 21.8922 20.7827 21.8203 20.8082 21.7369C20.8531 21.6305 20.8766 21.5167 20.8775 21.4017C20.88 20.7668 20.8674 20.132 20.8674 19.4971C20.8662 19.2846 20.8687 19.0722 20.8523 18.8622C20.8158 18.3968 20.7264 17.9314 20.7339 17.4685C20.7515 16.2122 20.8044 14.9572 20.8599 13.7022Z" fill="white"></path></svg>