<svg class="imt-fb-icon" xmlns="http://www.w3.org/2000/svg" width="24" height="24" viewBox="0 0 24 24" fill="none" style="width: 24px; height: 24px;"><path d="M17 8.66797H11.375" stroke="#ED6D8F" stroke-linecap="round" stroke-linejoin="round"></path><path d="M12.625 15.332L7 15.332" stroke="#ED6D8F" stroke-linecap="round" stroke-linejoin="round"></path><path d="M15.125 17C16.1605 17 17 16.1605 17 15.125C17 14.0895 16.1605 13.25 15.125 13.25C14.0895 13.25 13.25 14.0895 13.25 15.125C13.25 16.1605 14.0895 17 15.125 17Z" stroke="#ED6D8F" stroke-linecap="round" stroke-linejoin="round"></path><path d="M8.875 10.75C9.91053 10.75 10.75 9.91053 10.75 8.875C10.75 7.83947 9.91053 7 8.875 7C7.83947 7 7 7.83947 7 8.875C7 9.91053 7.83947 10.75 8.875 10.75Z" stroke="#ED6D8F" stroke-linecap="round" stroke-linejoin="round"></path><rect x="3" y="4" width="18" height="16" rx="1.66667" stroke="#ED6D8F"></rect></svg>