<svg xmlns="http://www.w3.org/2000/svg" width="14" height="14" viewBox="0 0 14 14" fill="none"><g clip-path="url(#clip0_38845_9816)"><path d="M7 14C5.14348 14 3.36301 13.2625 2.05025 11.9497C0.737498 10.637 0 8.85652 0 7C0 5.14348 0.737498 3.36301 2.05025 2.05025C3.36301 0.737498 5.14348 0 7 0C8.85652 0 10.637 0.737498 11.9497 2.05025C13.2625 3.36301 14 5.14348 14 7C14 8.85652 13.2625 10.637 11.9497 11.9497C10.637 13.2625 8.85652 14 7 14Z" fill="#B1B1B1" fill-opacity="0.4"></path><path d="M6.11754 7.00052L4.18254 5.06452C4.06786 4.94725 4.00406 4.78948 4.00498 4.62546C4.00589 4.46144 4.07145 4.3044 4.18744 4.18841C4.30342 4.07243 4.46046 4.00687 4.62448 4.00595C4.7885 4.00503 4.94627 4.06884 5.06354 4.18352L6.99954 6.11852L8.93554 4.18352C8.99315 4.1246 9.06188 4.07771 9.13774 4.04554C9.2136 4.01337 9.29508 3.99656 9.37748 3.9961C9.45988 3.99564 9.54155 4.01153 9.61777 4.04285C9.69398 4.07417 9.76323 4.1203 9.82149 4.17857C9.87976 4.23683 9.92589 4.30608 9.95721 4.38229C9.98853 4.45851 10.0044 4.54018 10.004 4.62258C10.0035 4.70497 9.98669 4.78646 9.95452 4.86232C9.92235 4.93818 9.87545 5.00691 9.81654 5.06452L7.88154 7.00052L9.81654 8.93652C9.93122 9.05379 9.99502 9.21155 9.99411 9.37557C9.99319 9.5396 9.92763 9.69664 9.81164 9.81262C9.69566 9.9286 9.53862 9.99417 9.3746 9.99508C9.21058 9.996 9.05281 9.9322 8.93554 9.81752L6.99954 7.88252L5.06354 9.81752C5.00593 9.87643 4.93721 9.92333 4.86135 9.9555C4.78549 9.98767 4.704 10.0045 4.6216 10.0049C4.5392 10.0054 4.45753 9.9895 4.38131 9.95818C4.3051 9.92686 4.23585 9.88073 4.17759 9.82247C4.11932 9.7642 4.0732 9.69496 4.04188 9.61874C4.01056 9.54253 3.99467 9.46086 3.99513 9.37846C3.99559 9.29606 4.01239 9.21457 4.04456 9.13871C4.07673 9.06285 4.12363 8.99413 4.18254 8.93652L6.11754 7.00052Z" fill="white"></path></g><defs><clipPath id="clip0_38845_9816"><rect width="14" height="14" fill="white"></rect></clipPath></defs></svg>