<svg viewBox="0 0 1024 1024" version="1.1" xmlns="http://www.w3.org/2000/svg" p-id="1208" width="1em" height="1em"><path d="M512 213.333333v59.648c0 6.826667-2.986667 13.354667-8.362667 18.176a30.805333 30.805333 0 0 1-40.32 0L349.696 188.8a23.893333 23.893333 0 0 1 0-36.266667l113.621333-102.357333A30.208 30.208 0 0 1 483.498667 42.666667c15.744 0 28.501333 11.52 28.501333 25.685333V128a384 384 0 1 1-366.293333 268.544 42.666667 42.666667 0 1 1 81.365333 25.6 299.178667 299.178667 0 0 0-12.586667 115.882667A298.666667 298.666667 0 1 0 512 213.333333z" fill="#ffffff" p-id="1209"></path></svg>